<?xml version="1.0" encoding="UTF-8" standalone="no"?>
<!DOCTYPE svg PUBLIC "-//W3C//DTD SVG 1.1//EN" "http://www.w3.org/Graphics/SVG/1.1/DTD/svg11.dtd">
<svg width="100%" height="100%" viewBox="0 0 988 1165" version="1.1" xmlns="http://www.w3.org/2000/svg" xmlns:xlink="http://www.w3.org/1999/xlink" xml:space="preserve" xmlns:serif="http://www.serif.com/" style="fill-rule:evenodd;clip-rule:evenodd;stroke-linejoin:round;stroke-miterlimit:2;">
    <g transform="matrix(1,0,0,1,-258.252,-495.906)">
        <path d="M465.649,1049.83C434.174,1049.83 403.267,1041.75 376.269,1026.47C344.649,1008.58 319.296,981.627 302.948,948.531C286.657,915.549 280.421,878.686 284.915,841.928C286.59,828.236 298.238,817.91 312.011,817.91C313.123,817.91 314.251,817.979 315.362,818.115C330.322,819.945 341.004,833.603 339.175,848.562C332.637,902.03 357.766,953.192 403.193,978.901C422.014,989.554 443.612,995.184 465.653,995.184C489.643,995.184 513.339,988.594 534.178,976.126C538.421,973.587 543.266,972.245 548.186,972.245C557.759,972.245 566.755,977.343 571.665,985.548C579.402,998.481 575.175,1015.3 562.243,1023.04C532.942,1040.57 499.54,1049.83 465.649,1049.83Z" style="fill:rgb(195,16,25);fill-rule:nonzero;"/>
        <path d="M312.01,815.859C297.203,815.859 284.68,826.959 282.879,841.679C278.337,878.835 284.641,916.098 301.11,949.439C317.639,982.905 343.28,1010.16 375.259,1028.26C402.565,1043.71 433.821,1051.88 465.649,1051.88C499.911,1051.88 533.677,1042.52 563.296,1024.8C577.199,1016.48 581.743,998.399 573.425,984.495C568.147,975.674 558.476,970.194 548.187,970.194C542.894,970.194 537.686,971.637 533.125,974.367C512.604,986.644 489.272,993.133 465.652,993.133C443.965,993.133 422.717,987.595 404.204,977.117C359.5,951.817 334.774,901.454 341.211,848.811C343.177,832.73 331.693,818.046 315.612,816.08C314.418,815.933 313.206,815.859 312.01,815.859ZM312.01,819.961C313.035,819.961 314.07,820.023 315.114,820.151C328.973,821.846 338.834,834.455 337.139,848.313C330.5,902.607 356.032,954.567 402.183,980.687C421.703,991.735 443.592,997.235 465.652,997.235C489.577,997.235 513.703,990.766 535.231,977.887C539.296,975.454 543.77,974.296 548.186,974.296C556.786,974.295 565.169,978.685 569.905,986.601C577.073,998.583 573.172,1014.11 561.19,1021.28C531.697,1038.92 498.571,1047.78 465.649,1047.78C434.993,1047.78 404.515,1040.1 377.279,1024.69C346.019,1007 320.952,980.349 304.787,947.623C288.673,914.999 282.505,878.536 286.951,842.177C288.518,829.36 299.418,819.961 312.01,819.961Z" style="fill:rgb(63,38,18);fill-rule:nonzero;"/>
        <path d="M927.797,1536.83L911.633,1615.82L988.413,1611.81L971.351,1528.74L927.797,1536.83Z" style="fill:white;fill-rule:nonzero;"/>
        <path d="M969.555,1600.58C969.555,1600.58 932.287,1548.95 872.121,1567.36C811.954,1585.77 821.832,1658.06 821.832,1658.06L1041.84,1658.06C1041.84,1658.06 1050.38,1524.7 999.638,1493.27C948.901,1461.84 939.471,1516.62 939.471,1516.62" style="fill:white;fill-rule:nonzero;"/>
        <path d="M1041.84,1660.11L821.832,1660.11C820.807,1660.11 819.939,1659.35 819.8,1658.34C819.697,1657.58 817.336,1639.64 822.423,1619.12C829.215,1591.72 846.193,1573.15 871.521,1565.4C903.343,1555.66 928.768,1565.43 944.493,1575.33C961.473,1586.03 970.828,1598.84 971.218,1599.38C971.88,1600.3 971.673,1601.58 970.756,1602.25C969.838,1602.91 968.557,1602.7 967.892,1601.79C967.801,1601.66 958.531,1588.99 942.182,1578.72C920.397,1565.05 897.027,1561.88 872.721,1569.32C848.545,1576.72 832.972,1593.76 826.434,1619.98C822.406,1636.14 823.229,1651.01 823.677,1656.01L1039.9,1656.01C1040.67,1639.6 1044.4,1523.41 998.558,1495.02C983.586,1485.74 970.974,1483.3 961.071,1487.75C945.48,1494.77 941.531,1516.75 941.493,1516.97C941.301,1518.08 940.24,1518.83 939.124,1518.64C938.007,1518.45 937.258,1517.39 937.45,1516.27C937.621,1515.28 941.829,1491.92 959.388,1484.01C970.61,1478.96 984.516,1481.49 1000.72,1491.53C1022.32,1504.91 1036.15,1537.11 1041.81,1587.22C1045.99,1624.24 1043.91,1657.85 1043.89,1658.19C1043.82,1659.27 1042.93,1660.11 1041.84,1660.11Z" style="fill:rgb(63,38,18);fill-rule:nonzero;"/>
        <path d="M1007.27,1625.52L823.539,1625.52C822.406,1625.52 821.488,1624.6 821.488,1623.47C821.488,1622.33 822.406,1621.42 823.539,1621.42L1005.58,1621.42C1007.22,1612.64 1014.32,1570.18 1005.29,1536C995.313,1498.27 970.674,1485.51 970.427,1485.39C969.414,1484.88 969.006,1483.64 969.515,1482.63C970.024,1481.62 971.256,1481.21 972.268,1481.72C973.347,1482.26 998.811,1495.45 1009.25,1534.95C1019.59,1574.04 1009.38,1623.4 1009.28,1623.89C1009.08,1624.84 1008.24,1625.52 1007.27,1625.52Z" style="fill:rgb(63,38,18);fill-rule:nonzero;"/>
        <path d="M901.755,1496.42C901.755,1496.42 911.633,1467.22 940.818,1473.5C970.004,1479.79 975.841,1518.28 963.269,1547.15C956.52,1562.65 939.471,1574.24 922.409,1570.8C905.347,1567.36 898.163,1552.99 895.918,1539.97C893.673,1526.95 901.755,1496.42 901.755,1496.42Z" style="fill:white;fill-rule:nonzero;"/>
        <path d="M903.719,1497.01C903.291,1498.65 895.847,1527.49 897.939,1539.62C899.55,1548.97 904.925,1565.18 922.815,1568.79C940.009,1572.26 955.52,1559.81 961.388,1546.33C969.272,1528.23 969.549,1507.14 962.095,1492.61C957.406,1483.47 949.899,1477.56 940.387,1475.51C913.764,1469.77 904.352,1495.2 903.719,1497.01ZM928.42,1573.45C926.272,1573.45 924.126,1573.24 922.004,1572.81C901.718,1568.72 895.686,1550.7 893.897,1540.32C891.602,1527.01 899.438,1497.16 899.772,1495.89C899.784,1495.85 899.797,1495.8 899.812,1495.76C899.917,1495.45 910.633,1464.9 941.25,1471.5C952.006,1473.81 960.476,1480.47 965.745,1490.74C973.738,1506.32 973.504,1528.79 965.149,1547.97C958.453,1563.35 943.42,1573.45 928.42,1573.45Z" style="fill:rgb(63,38,18);fill-rule:nonzero;"/>
        <path d="M921.069,1549.33C916.766,1549.33 912.584,1548.42 908.64,1546.62C905.47,1545.17 830.725,1510.26 805.907,1431.21C781.834,1354.54 822.482,1253.86 824.224,1249.61C828.856,1238.31 839.739,1231.01 851.951,1231.01C855.848,1231.01 859.667,1231.77 863.302,1233.26C878.568,1239.52 885.91,1257.03 879.669,1272.31C870.111,1295.78 848.495,1366.86 863.066,1413.27C879.767,1466.46 933.005,1491.88 933.541,1492.13C948.556,1498.99 955.195,1516.79 948.333,1531.82C943.474,1542.46 932.771,1549.33 921.07,1549.33L921.069,1549.33Z" style="fill:rgb(0,123,43);fill-rule:nonzero;"/>
        <path d="M851.953,1228.96L851.953,1233.06L851.953,1228.96L851.951,1228.96C838.903,1228.96 827.275,1236.76 822.326,1248.84C820.573,1253.11 779.661,1354.46 803.95,1431.83C829.036,1511.72 904.584,1547.02 907.788,1548.48C912,1550.41 916.468,1551.38 921.065,1551.38C933.572,1551.38 945.006,1544.04 950.198,1532.67C957.531,1516.62 950.437,1497.59 934.385,1490.26C933.885,1490.02 881.37,1464.72 865.023,1412.65C850.633,1366.82 872.088,1296.36 881.569,1273.08C888.236,1256.76 880.391,1238.05 864.08,1231.36C860.197,1229.77 856.117,1228.96 851.953,1228.96ZM851.951,1233.06C855.477,1233.06 859.059,1233.74 862.524,1235.16C876.773,1241 883.595,1257.28 877.77,1271.53C868.134,1295.19 846.356,1366.89 861.109,1413.88C878.016,1467.73 932.138,1493.74 932.68,1493.99C946.698,1500.39 952.871,1516.95 946.467,1530.97C941.781,1541.22 931.656,1547.28 921.069,1547.28L921.065,1547.28C917.188,1547.28 913.25,1546.47 909.492,1544.75C906.357,1543.32 832.408,1508.77 807.864,1430.6C784.016,1354.64 824.391,1254.61 826.121,1250.39C830.547,1239.6 840.965,1233.07 851.951,1233.06Z" style="fill:rgb(63,38,18);fill-rule:nonzero;"/>
        <path d="M604.975,1540.45C599.296,1540.45 593.749,1538.83 588.934,1535.77C574.994,1526.91 570.861,1508.37 579.72,1494.43L738.303,1244.91C743.832,1236.21 753.293,1231.02 763.611,1231.02C769.291,1231.02 774.837,1232.63 779.652,1235.69C793.592,1244.55 797.725,1263.1 788.865,1277.04L630.282,1526.56C624.754,1535.26 615.293,1540.45 604.975,1540.45Z" style="fill:rgb(0,123,43);fill-rule:nonzero;"/>
        <path d="M763.614,1228.97L763.614,1233.07L763.613,1228.97C752.587,1228.97 742.479,1234.52 736.572,1243.81L577.989,1493.33C573.404,1500.54 571.902,1509.11 573.762,1517.45C575.621,1525.8 580.619,1532.92 587.834,1537.5C592.978,1540.77 598.905,1542.5 604.975,1542.5C615.999,1542.5 626.106,1536.95 632.013,1527.66L790.596,1278.14C800.062,1263.25 795.646,1243.43 780.752,1233.96C775.608,1230.69 769.682,1228.97 763.614,1228.97ZM763.611,1233.07C768.732,1233.07 773.91,1234.48 778.551,1237.43C791.558,1245.69 795.4,1262.94 787.134,1275.94L628.551,1525.46C623.235,1533.82 614.203,1538.4 604.975,1538.4C599.854,1538.4 594.675,1536.99 590.034,1534.04C577.028,1525.78 573.185,1508.53 581.451,1495.53L740.034,1246.01C745.351,1237.64 754.384,1233.07 763.611,1233.07Z" style="fill:rgb(63,38,18);fill-rule:nonzero;"/>
        <path d="M528.506,1539.23L551.242,1588.09L606.932,1557.82L568.577,1507.71L518.049,1507.16L528.506,1539.23Z" style="fill:white;fill-rule:nonzero;"/>
        <path d="M581.911,1553.04L617.583,1538.23C602.05,1567.61 584.971,1596.18 566.442,1623.77C560.831,1632.12 554.7,1640.71 546.427,1646.15C544.725,1647.26 542.943,1648.24 541.049,1649.07C531.457,1653.23 520.315,1652.59 510.373,1649.36C500.431,1646.14 491.468,1640.5 482.74,1634.74C445.968,1610.42 411.436,1582.71 379.736,1552.07C364.679,1537.52 349.579,1521 346.042,1500.37C345.644,1498.06 345.414,1495.75 345.341,1493.45C344.538,1468.89 361.35,1444.94 383.881,1434.29C408.536,1422.64 438.088,1425 463.33,1435.31C489.081,1445.82 511.481,1464.35 526.643,1487.67C541.814,1510.98 549.668,1538.97 548.837,1566.78" style="fill:white;fill-rule:nonzero;"/>
        <path d="M526.168,1654.03C520.88,1654.03 515.326,1653.13 509.738,1651.31C499.542,1648 490.252,1642.16 481.61,1636.45C444.803,1612.11 410.049,1584.22 378.31,1553.55C363.678,1539.41 347.754,1522.5 344.02,1500.71C343.612,1498.35 343.367,1495.93 343.291,1493.52C342.488,1468.99 358.819,1443.87 383.004,1432.44C406.198,1421.48 435.759,1421.83 464.106,1433.41C490.182,1444.06 513.002,1462.93 528.363,1486.55C543.729,1510.16 551.729,1538.67 550.888,1566.84C550.854,1567.97 549.915,1568.86 548.776,1568.83C547.644,1568.79 546.754,1567.85 546.787,1566.71C547.604,1539.38 539.839,1511.7 524.924,1488.79C510.015,1465.86 487.865,1447.54 462.555,1437.21C435.269,1426.06 406.913,1425.67 384.757,1436.14C362.006,1446.9 346.64,1470.44 347.39,1493.38C347.461,1495.61 347.687,1497.84 348.063,1500.02C351.588,1520.58 366.996,1536.91 381.161,1550.6C412.718,1581.09 447.275,1608.83 483.871,1633.02C492.626,1638.81 501.289,1644.26 511.005,1647.41C521.594,1650.85 531.975,1650.77 540.232,1647.18C541.963,1646.43 543.622,1645.53 545.305,1644.43C553.206,1639.24 559.239,1630.81 564.739,1622.62C582.098,1596.78 598.345,1569.79 613.081,1542.32L582.697,1554.94C581.65,1555.37 580.451,1554.88 580.016,1553.83C579.582,1552.78 580.078,1551.58 581.124,1551.15L616.797,1536.34C617.594,1536.01 618.516,1536.21 619.099,1536.85C619.682,1537.49 619.8,1538.42 619.396,1539.19C603.889,1568.52 586.646,1597.36 568.144,1624.91C562.41,1633.44 556.097,1642.25 547.553,1647.86C545.67,1649.09 543.811,1650.1 541.867,1650.95C537.132,1653 531.803,1654.03 526.168,1654.03Z" style="fill:rgb(63,38,18);fill-rule:nonzero;"/>
        <path d="M347.426,1494.24C347.522,1496.18 347.735,1498.12 348.063,1500.02C351.588,1520.58 366.996,1536.91 381.161,1550.6C412.718,1581.09 447.275,1608.83 483.871,1633.02C492.626,1638.81 501.289,1644.26 511.005,1647.41C521.596,1650.85 531.976,1650.77 540.232,1647.18C541.447,1646.66 542.627,1646.05 543.805,1645.36C543.089,1643.91 542.284,1642.49 541.55,1641.2C514.909,1594.53 484.711,1541.62 439.923,1505.52C422.518,1491.51 407.266,1483.86 391.926,1481.44C374.845,1478.75 357.888,1483.65 347.426,1494.24ZM526.168,1654.03C520.88,1654.03 515.326,1653.13 509.738,1651.31C499.542,1648 490.252,1642.16 481.61,1636.45C444.803,1612.11 410.049,1584.22 378.31,1553.55C363.678,1539.41 347.755,1522.5 344.02,1500.71C343.612,1498.35 343.367,1495.93 343.291,1493.52C343.273,1492.97 343.474,1492.44 343.849,1492.04C355.173,1480.05 373.843,1474.44 392.565,1477.39C408.642,1479.92 424.509,1487.85 442.497,1502.33C487.889,1538.91 518.291,1592.18 545.114,1639.17C546.169,1641.03 547.363,1643.13 548.312,1645.34C548.704,1646.26 548.382,1647.32 547.548,1647.87C545.67,1649.09 543.811,1650.1 541.867,1650.95C537.132,1653 531.803,1654.03 526.168,1654.03Z" style="fill:rgb(63,38,18);fill-rule:nonzero;"/>
        <path d="M563.929,1627.24C563.097,1627.24 562.315,1626.73 562.007,1625.91C539.324,1565.04 498.069,1513.03 442.702,1475.51C419.85,1460.02 383.641,1453.61 356.603,1460.28C355.507,1460.55 354.392,1459.88 354.121,1458.78C353.85,1457.68 354.521,1456.56 355.621,1456.29C383.685,1449.38 421.275,1456.03 445.004,1472.11C501.08,1510.12 542.868,1562.81 565.851,1624.48C566.246,1625.54 565.707,1626.72 564.645,1627.11C564.409,1627.2 564.167,1627.24 563.929,1627.24Z" style="fill:rgb(63,38,18);fill-rule:nonzero;"/>
        <path d="M599.374,1571.92L546.466,1532.11C536.127,1524.34 534.317,1509.29 542.424,1498.52C550.531,1487.74 565.485,1485.31 575.825,1493.09L628.733,1532.89C639.073,1540.67 640.882,1555.71 632.775,1566.49C624.668,1577.26 609.714,1579.7 599.374,1571.92Z" style="fill:white;fill-rule:nonzero;"/>
        <path d="M600.607,1570.28C610.026,1577.36 623.721,1575.11 631.136,1565.26C634.737,1560.47 636.335,1554.63 635.635,1548.81C634.939,1543.03 632.05,1537.95 627.5,1534.53L574.592,1494.73C565.172,1487.64 551.478,1489.9 544.063,1499.75C540.462,1504.54 538.864,1510.38 539.564,1516.2C540.26,1521.98 543.149,1527.05 547.699,1530.48L600.607,1570.28ZM613.074,1578.51C607.824,1578.51 602.588,1576.9 598.141,1573.56L545.233,1533.75C539.782,1529.65 536.322,1523.59 535.492,1516.69C534.664,1509.81 536.545,1502.92 540.786,1497.28C549.559,1485.62 565.831,1483 577.058,1491.45L629.966,1531.25C635.417,1535.35 638.877,1541.42 639.708,1548.32C640.535,1555.19 638.655,1562.08 634.414,1567.72C629.115,1574.77 621.079,1578.51 613.074,1578.51Z" style="fill:rgb(63,38,18);fill-rule:nonzero;"/>
        <path d="M735.298,1319.35C664.695,1319.35 600.395,1313.33 544.182,1301.44C499.156,1291.92 459.179,1278.64 425.361,1261.97C367.557,1233.47 348.023,1205.29 347.219,1204.11L346.528,1203.09L360.819,1176.1L719.906,497.956L840.699,497.956L1242.33,1192.24L1240.82,1193.91C1239.6,1195.23 1236.54,1196.83 1229.74,1200.34C1220.33,1205.19 1206.11,1212.53 1189.68,1223.38C1103.95,1280.03 966.78,1312.04 781.977,1318.52C766.183,1319.07 750.478,1319.35 735.298,1319.35Z" style="fill:rgb(195,16,25);fill-rule:nonzero;"/>
        <path d="M841.883,495.906L718.671,495.906L717.515,498.088L359.006,1175.14L345.293,1201.04L344.138,1203.22L345.522,1205.26C346.337,1206.46 366.169,1235.07 424.454,1263.81C458.425,1280.56 498.564,1293.89 543.757,1303.45C600.109,1315.36 664.552,1321.41 735.296,1321.41C750.502,1321.41 766.232,1321.12 782.048,1320.57C886.469,1316.91 976.816,1304.88 1050.58,1284.83C1106.73,1269.57 1153.91,1249.47 1190.81,1225.09C1207.15,1214.3 1221.31,1207 1230.68,1202.16C1238.21,1198.28 1240.88,1196.86 1242.31,1195.32L1242.32,1195.31L1242.34,1195.29L1242.85,1194.73L1244.85,1192.51L1243.36,1189.92L1219.56,1148.78L843.067,497.954L841.883,495.906ZM839.517,500.008L1216.01,1150.83L1239.81,1191.98C1239.81,1191.98 1239.64,1192.16 1239.3,1192.53C1236.66,1195.38 1215.3,1204 1188.55,1221.67C1128.62,1261.27 1013.24,1308.35 781.904,1316.47C765.813,1317.03 750.281,1317.3 735.296,1317.3C426.391,1317.3 348.918,1202.96 348.918,1202.96L362.631,1177.06L721.14,500.008L839.517,500.008Z" style="fill:rgb(63,38,18);fill-rule:nonzero;"/>
        <path d="M1027.03,1083.85L1178.68,1082.21L1229.59,1170.22L1022.88,1204.99L1027.03,1083.85Z" style="fill:rgb(103,153,103);fill-rule:nonzero;"/>
        <path d="M1179.85,1080.15L1177.46,1080.17L1028.96,1081.78L1025.04,1081.83L1024.91,1085.74L1020.92,1202.41L1020.74,1207.43L1025.7,1206.6L1227.01,1172.73L1232.84,1171.75L1229.88,1166.63L1181.05,1082.22L1179.85,1080.15ZM1177.5,1084.27L1226.33,1168.69L1025.02,1202.55L1029.01,1085.88L1177.5,1084.27Z" style="fill:rgb(63,38,18);fill-rule:nonzero;"/>
        <path d="M1063.19,1151.78L1217.18,1148.76L1242.33,1192.24L1240.82,1193.91C1239.65,1195.18 1236.63,1196.44 1229.29,1199.44C1217.99,1204.07 1199.06,1211.81 1181.54,1223.38L1181.3,1223.54L1024.29,1273.23L1063.19,1151.78Z" style="fill:rgb(72,122,72);fill-rule:nonzero;"/>
        <path d="M1218.35,1146.69L1215.93,1146.73L1064.61,1149.7L1061.68,1149.75L1060.79,1152.55L1023.55,1268.83L1021.13,1276.38L1028.69,1273.99L1181.65,1225.58L1182.2,1225.41L1182.67,1225.09C1200.03,1213.63 1218.83,1205.94 1230.07,1201.34C1238.22,1198.01 1240.86,1196.88 1242.31,1195.33L1242.32,1195.31L1242.34,1195.29L1242.85,1194.73L1244.85,1192.51L1243.36,1189.92L1219.56,1148.78L1218.35,1146.69ZM1216.01,1150.83L1239.81,1191.98C1239.81,1191.98 1239.64,1192.16 1239.3,1192.53C1236.66,1195.38 1207.17,1204 1180.41,1221.67L1027.46,1270.08L1064.69,1153.8L1216.01,1150.83Z" style="fill:rgb(63,38,18);fill-rule:nonzero;"/>
        <path d="M740.124,1356.44C678.794,1356.44 619.75,1348.24 564.632,1332.06C520.523,1319.11 478.816,1301.06 440.669,1278.4C375.664,1239.79 343.059,1200.58 342.737,1200.19L341.656,1198.88L361.695,1174.99L1051.92,1192.36L1086.04,1192.36L1241.02,1193.82L1237.85,1197.22C1237.58,1197.51 1237.2,1197.94 1236.73,1198.47C1205.6,1233.49 1160.92,1259.68 1128.93,1275.48C1089,1295.19 1042.97,1311.69 992.099,1324.5C929.77,1340.2 859.587,1350.5 783.502,1355.11C768.971,1355.99 754.376,1356.44 740.124,1356.44Z" style="fill:rgb(0,123,43);fill-rule:nonzero;"/>
        <path d="M360.759,1172.91L359.489,1174.43L341.179,1196.25L338.99,1198.86L341.153,1201.49C341.487,1201.9 349.52,1211.62 365.729,1226.23C380.618,1239.66 405.524,1259.91 439.621,1280.17C477.916,1302.91 519.781,1321.03 564.055,1334.03C619.361,1350.26 678.599,1358.49 740.124,1358.49C754.418,1358.49 769.054,1358.04 783.626,1357.16C859.837,1352.54 930.146,1342.22 992.599,1326.49C1043.61,1313.64 1089.78,1297.1 1129.83,1277.32C1161.99,1261.44 1206.91,1235.1 1238.26,1199.84C1238.72,1199.31 1239.09,1198.9 1239.36,1198.62L1245.68,1191.81L1236.39,1191.72L1086.07,1190.31L1051.92,1190.31L362.734,1172.96L360.759,1172.91ZM362.631,1177.06L1051.87,1194.41L1086.04,1194.41L1236.35,1195.82C1227.78,1205.04 1125.67,1332.32 783.378,1353.07C768.577,1353.96 754.154,1354.39 740.124,1354.39C472.106,1354.39 344.322,1198.89 344.322,1198.89L362.631,1177.06Z" style="fill:rgb(63,38,18);fill-rule:nonzero;"/>
        <path d="M678.52,1325.68C625.207,1325.68 574.188,1319.19 526.879,1306.38C489.011,1296.12 453.422,1281.82 421.1,1263.87C365.996,1233.26 339.081,1202.16 338.816,1201.85L337.9,1200.78L400.267,1086.03L719.204,501.175L1030.82,1084.92L1088.46,1194.61L1087.67,1195.65C1086.85,1196.74 1066.95,1222.58 1013.33,1251.44C981.929,1268.34 945.432,1282.73 904.849,1294.21C854.172,1308.54 796.935,1318.36 734.726,1323.38C715.781,1324.91 696.87,1325.68 678.52,1325.68Z" style="fill:rgb(238,42,53);fill-rule:nonzero;"/>
        <path d="M719.223,496.856L715.584,503.531L398.468,1085.05L357.572,1160.29L336.771,1198.56L335.424,1201.04L337.257,1203.18C338.35,1204.46 364.677,1234.88 420.105,1265.66C452.572,1283.69 488.315,1298.06 526.343,1308.35C573.827,1321.21 625.027,1327.73 678.521,1327.73C696.924,1327.73 715.89,1326.96 734.891,1325.42C797.232,1320.39 854.602,1310.55 905.407,1296.18C946.133,1284.66 982.769,1270.22 1014.3,1253.25C1068.32,1224.18 1088.48,1197.99 1089.31,1196.89L1090.88,1194.81L1089.67,1192.51L1068.32,1151.89L1032.64,1083.98L722.803,503.563L719.223,496.856ZM719.185,505.494L1029.01,1085.88L1064.69,1153.8L1086.04,1194.41C1086.04,1194.41 1006.71,1299.37 734.561,1321.33C715.127,1322.9 696.434,1323.63 678.521,1323.63C445.583,1323.63 340.375,1200.52 340.375,1200.52L361.177,1162.25L402.069,1087.01L719.185,505.494Z" style="fill:rgb(63,38,18);fill-rule:nonzero;"/>
        <path d="M678.521,1325.68C625.207,1325.68 574.188,1319.19 526.879,1306.38C489.011,1296.12 453.422,1281.82 421.1,1263.87C365.996,1233.26 339.081,1202.16 338.816,1201.85L337.9,1200.78L401.315,1084.11L403.167,1085.28C468.874,1126.91 575.554,1176.54 710.629,1176.54C712.896,1176.54 715.169,1176.52 717.452,1176.5C777.351,1175.77 878.613,1159.74 1020.87,1087.56C1027.93,1083.97 1028.24,1083.83 1029.01,1083.83L1030.25,1083.83L1088.46,1194.61L1087.67,1195.65C1086.85,1196.74 1066.95,1222.58 1013.33,1251.44C981.929,1268.34 945.432,1282.73 904.849,1294.21C854.172,1308.54 796.935,1318.36 734.726,1323.38C715.781,1324.91 696.87,1325.68 678.521,1325.68Z" style="fill:rgb(0,198,69);fill-rule:nonzero;"/>
        <path d="M400.56,1081.2L398.465,1085.05L357.572,1160.29L336.771,1198.56L335.424,1201.04L337.257,1203.18C338.35,1204.46 364.677,1234.88 420.105,1265.66C452.572,1283.69 488.316,1298.06 526.343,1308.35C573.827,1321.21 625.027,1327.73 678.521,1327.73C696.925,1327.73 715.891,1326.96 734.891,1325.42C797.232,1320.39 854.602,1310.55 905.407,1296.18C946.133,1284.66 982.769,1270.22 1014.3,1253.25C1068.32,1224.18 1088.48,1197.99 1089.31,1196.89L1090.88,1194.81L1089.67,1192.51L1068.32,1151.89L1032.64,1083.98L1031.49,1081.78L1029.01,1081.78C1027.71,1081.79 1027.57,1081.86 1019.97,1085.71C878.075,1157.73 777.126,1173.72 717.427,1174.44C715.174,1174.47 712.887,1174.49 710.629,1174.49C576.045,1174.49 469.742,1125.03 404.265,1083.55L400.56,1081.2ZM1029.01,1085.88L1064.69,1153.8L1086.04,1194.41C1086.04,1194.41 1006.71,1299.37 734.561,1321.33C715.127,1322.9 696.435,1323.63 678.521,1323.63C445.584,1323.63 340.375,1200.52 340.375,1200.52L361.176,1162.25L402.069,1087.01C468.453,1129.07 574.873,1178.59 710.629,1178.59C712.904,1178.59 715.186,1178.57 717.477,1178.55C866.89,1176.73 1026.4,1085.89 1029.01,1085.88Z" style="fill:rgb(63,38,18);fill-rule:nonzero;"/>
        <path d="M678.521,1325.68C625.207,1325.68 574.188,1319.19 526.879,1306.37C489.011,1296.12 453.422,1281.82 421.1,1263.87C365.996,1233.26 339.081,1202.16 338.816,1201.85L337.9,1200.78L360.487,1159.22L362.377,1160.59C434.234,1212.47 552.433,1274.32 707.46,1274.32C712.38,1274.32 717.374,1274.26 722.302,1274.13C886.865,1269.87 1006.67,1195.89 1063.44,1152.17L1065.37,1150.68L1088.46,1194.61L1087.67,1195.65C1086.85,1196.74 1066.95,1222.58 1013.33,1251.44C981.929,1268.34 945.432,1282.73 904.849,1294.21C854.172,1308.54 796.935,1318.36 734.726,1323.38C715.781,1324.91 696.87,1325.68 678.521,1325.68Z" style="fill:rgb(0,151,54);fill-rule:nonzero;"/>
        <path d="M1066.06,1147.57L1062.19,1150.55C1005.62,1194.11 886.231,1267.83 722.249,1272.08C717.34,1272.21 712.364,1272.27 707.46,1272.27C552.982,1272.27 435.191,1210.63 363.578,1158.93L359.799,1156.2L357.573,1160.29L336.771,1198.56L335.424,1201.04L337.257,1203.18C338.35,1204.46 364.677,1234.88 420.105,1265.66C452.572,1283.69 488.315,1298.06 526.343,1308.35C573.827,1321.21 625.027,1327.73 678.521,1327.73C696.925,1327.73 715.891,1326.96 734.891,1325.42C797.232,1320.39 854.602,1310.55 905.407,1296.18C946.133,1284.66 982.769,1270.22 1014.3,1253.25C1068.32,1224.18 1088.48,1197.99 1089.31,1196.89L1090.88,1194.81L1089.67,1192.51L1068.32,1151.89L1066.06,1147.57ZM1064.69,1153.8L1086.04,1194.41C1086.04,1194.41 1006.71,1299.37 734.561,1321.33C715.127,1322.9 696.434,1323.63 678.521,1323.63C445.583,1323.63 340.375,1200.52 340.375,1200.52L361.176,1162.25C422.518,1206.54 544.024,1276.38 707.46,1276.38C712.393,1276.38 717.347,1276.31 722.356,1276.18C897.938,1271.63 1019.9,1188.29 1064.69,1153.8Z" style="fill:rgb(63,38,18);fill-rule:nonzero;"/>
        <path d="M692.557,1041.65C691.422,1041.65 690.283,1041.56 689.15,1041.38C681.322,1040.12 674.221,1034.43 671.059,1026.88C668.004,1019.58 668.547,1010.93 672.511,1003.75C677.029,995.563 685.637,990.238 694.444,990.183C703.92,990.127 712.723,996.379 715.335,1005.06C715.661,1006.14 715.046,1007.29 713.962,1007.61C712.878,1007.94 711.733,1007.32 711.407,1006.24C709.351,999.408 702.126,994.285 694.573,994.285L694.469,994.285C687.237,994.33 679.856,998.929 676.103,1005.73C672.788,1011.74 672.305,1019.23 674.843,1025.29C677.47,1031.56 683.341,1036.29 689.802,1037.33C696.377,1038.39 703.503,1035.42 707.142,1030.12C707.784,1029.18 709.059,1028.95 709.994,1029.59C710.927,1030.23 711.165,1031.51 710.524,1032.44C706.578,1038.19 699.651,1041.65 692.557,1041.65Z" style="fill:rgb(63,38,18);fill-rule:nonzero;"/>
        <path d="M816.483,1116.61C807.307,1116.61 798.038,1113.46 790.887,1107.48C780.062,1098.43 774.451,1083.36 776.593,1069.09C778.679,1055.19 787.927,1042.45 800.728,1035.85C801.734,1035.33 802.971,1035.73 803.491,1036.73C804.011,1037.74 803.615,1038.98 802.609,1039.5C790.958,1045.51 782.543,1057.08 780.649,1069.7C778.715,1082.58 783.766,1096.18 793.518,1104.33C803.467,1112.65 817.979,1114.88 829.629,1109.89C830.67,1109.44 831.876,1109.93 832.322,1110.97C832.768,1112.01 832.286,1113.21 831.245,1113.66C826.604,1115.65 821.557,1116.61 816.483,1116.61Z" style="fill:rgb(63,38,18);fill-rule:nonzero;"/>
        <path d="M565.915,1114.11C560.966,1114.11 556.046,1113.18 551.5,1111.29C550.455,1110.85 549.961,1109.65 550.397,1108.6C550.834,1107.56 552.034,1107.06 553.08,1107.5C564.777,1112.39 579.268,1110.02 589.138,1101.61C598.813,1093.36 603.737,1079.72 601.683,1066.85C599.671,1054.25 591.149,1042.76 579.442,1036.86C578.431,1036.35 578.024,1035.12 578.534,1034.1C579.044,1033.09 580.276,1032.69 581.289,1033.2C594.151,1039.68 603.517,1052.33 605.733,1066.21C608.008,1080.46 602.539,1095.58 591.798,1104.73C584.608,1110.85 575.212,1114.11 565.915,1114.11Z" style="fill:rgb(63,38,18);fill-rule:nonzero;"/>
        <path d="M803.959,1088.51C807.177,1088.51 810.26,1085.68 810.112,1082.36C809.962,1079.03 807.408,1076.21 803.959,1076.21C800.74,1076.21 797.657,1079.04 797.806,1082.36C797.955,1085.69 800.509,1088.51 803.959,1088.51Z" style="fill:rgb(63,38,18);fill-rule:nonzero;"/>
        <path d="M816.333,1061.57C819.551,1061.57 822.634,1058.74 822.485,1055.41C822.336,1052.08 819.782,1049.26 816.333,1049.26C813.114,1049.26 810.031,1052.09 810.18,1055.41C810.329,1058.75 812.883,1061.57 816.333,1061.57Z" style="fill:rgb(63,38,18);fill-rule:nonzero;"/>
        <path d="M831.362,1090.93C834.581,1090.93 837.664,1088.1 837.515,1084.77C837.366,1081.44 834.812,1078.62 831.362,1078.62C828.144,1078.62 825.06,1081.45 825.209,1084.77C825.359,1088.11 827.913,1090.93 831.362,1090.93Z" style="fill:rgb(63,38,18);fill-rule:nonzero;"/>
        <path d="M576.68,1086.31C579.899,1086.31 582.982,1083.48 582.833,1080.16C582.684,1076.82 580.13,1074 576.68,1074C573.462,1074 570.379,1076.83 570.528,1080.16C570.677,1083.49 573.231,1086.31 576.68,1086.31Z" style="fill:rgb(63,38,18);fill-rule:nonzero;"/>
        <path d="M564.055,1059.48C567.274,1059.48 570.357,1056.65 570.208,1053.33C570.059,1049.99 567.505,1047.17 564.055,1047.17C560.837,1047.17 557.754,1050 557.903,1053.33C558.052,1056.66 560.606,1059.48 564.055,1059.48Z" style="fill:rgb(63,38,18);fill-rule:nonzero;"/>
        <path d="M549.301,1088.98C552.519,1088.98 555.602,1086.15 555.453,1082.82C555.304,1079.49 552.75,1076.67 549.301,1076.67C546.082,1076.67 542.999,1079.5 543.148,1082.82C543.297,1086.16 545.851,1088.98 549.301,1088.98Z" style="fill:rgb(63,38,18);fill-rule:nonzero;"/>
        <path d="M692.4,1126.66L692.005,1126.66C659.279,1126.56 626.068,1114.52 600.887,1093.62C600.015,1092.89 599.895,1091.6 600.618,1090.73C601.342,1089.86 602.634,1089.74 603.506,1090.46C627.967,1110.77 660.228,1122.46 692.017,1122.56L692.4,1122.56C724.068,1122.56 756.233,1111.06 780.714,1090.98C781.59,1090.26 782.882,1090.39 783.6,1091.26C784.318,1092.14 784.191,1093.43 783.315,1094.15C758.114,1114.82 724.999,1126.66 692.4,1126.66Z" style="fill:rgb(63,38,18);fill-rule:nonzero;"/>
        <path d="M754.197,932.448C756.836,932.448 756.84,928.347 754.197,928.347C751.557,928.347 751.553,932.448 754.197,932.448Z" style="fill:rgb(15,8,2);fill-rule:nonzero;"/>
        <path d="M851.041,861.627C849.618,849.077 846.893,835.998 838.543,826.401C826.28,812.294 803.94,809.779 786.596,817.381C784.939,818.106 783.329,818.926 781.773,819.831C763.971,830.247 753.515,850.093 750.289,870.172C747.086,890.163 750.165,910.57 754.197,930.398C768.754,927.598 783.669,926.615 798.472,927.411C815.162,928.3 831.726,931.461 847.516,936.832C852.676,912.14 853.865,886.663 851.041,861.627Z" style="fill:white;fill-rule:nonzero;"/>
        <path d="M788.544,925.093C791.887,925.093 795.234,925.183 798.582,925.363C814.78,926.226 830.71,929.182 845.969,934.155C850.707,910.328 851.728,886.016 849.003,861.857C847.694,850.31 845.243,837.227 836.996,827.747C825.974,815.068 805.125,811.499 787.42,819.26C785.858,819.942 784.305,820.731 782.804,821.604C767.161,830.757 755.761,849.037 752.314,870.498C749.246,889.648 752.097,909.406 755.808,928.011C766.555,926.069 777.521,925.093 788.544,925.093ZM847.516,938.883C847.294,938.883 847.07,938.847 846.855,938.773C831.284,933.477 814.969,930.343 798.363,929.459C783.62,928.667 768.891,929.66 754.584,932.411C753.476,932.625 752.41,931.908 752.187,930.806C748.21,911.248 744.983,890.326 748.264,869.848C751.958,846.851 763.794,827.975 780.737,818.06C782.379,817.106 784.073,816.246 785.775,815.502C805.081,807.041 827.923,811.058 840.091,825.056C849.076,835.384 851.699,849.221 853.079,861.396L853.079,861.397C855.939,886.755 854.743,912.275 849.524,937.251C849.404,937.826 849.043,938.322 848.532,938.613C848.219,938.792 847.869,938.883 847.516,938.883Z" style="fill:rgb(63,38,18);fill-rule:nonzero;"/>
        <path d="M807.58,869.759C808.16,874.115 808.476,878.5 808.522,882.887C808.608,889.345 808.109,895.824 807.007,902.213C805.506,910.915 802.763,919.67 798.472,927.411C783.669,926.615 768.754,927.598 754.197,930.398C750.165,910.57 747.086,890.163 750.289,870.172C753.515,850.093 763.971,830.247 781.773,819.831C783.329,818.926 784.939,818.106 786.596,817.381C797.863,832.755 805.109,850.963 807.58,869.759Z" style="fill:rgb(63,38,18);fill-rule:nonzero;"/>
        <path d="M809.441,868.764C810.022,873.12 810.338,877.505 810.384,881.892C803.689,881.485 795.13,882.063 788.434,881.647C795.276,878.039 803.555,873.06 809.441,868.764Z" style="fill:white;fill-rule:nonzero;"/>
        <path d="M567.886,923.257C570.526,923.257 570.53,919.155 567.886,919.155C565.247,919.155 565.242,923.257 567.886,923.257Z" style="fill:rgb(15,8,2);fill-rule:nonzero;"/>
        <path d="M664.73,852.435C663.308,839.886 660.582,826.806 652.233,817.209C639.969,803.102 617.629,800.587 600.286,808.189C598.629,808.914 597.018,809.734 595.462,810.639C577.661,821.055 567.204,840.901 563.979,860.981C560.776,880.971 563.855,901.378 567.886,921.206C582.443,918.406 597.359,917.424 612.162,918.219C628.851,919.108 645.415,922.269 661.206,927.64C666.366,902.948 667.555,877.471 664.73,852.435Z" style="fill:white;fill-rule:nonzero;"/>
        <path d="M602.235,915.901C605.577,915.901 608.924,915.991 612.272,916.171C628.471,917.034 644.4,919.99 659.658,924.963C664.396,901.137 665.418,876.825 662.692,852.665C661.383,841.118 658.933,828.036 650.685,818.556C639.663,805.876 618.815,802.307 601.11,810.068C599.543,810.753 597.99,811.541 596.494,812.412C580.851,821.565 569.451,839.844 566.004,861.306C562.935,880.457 565.786,900.214 569.498,918.819C580.245,916.878 591.214,915.901 602.235,915.901ZM661.206,929.691C660.983,929.691 660.76,929.655 660.545,929.581C644.975,924.286 628.66,921.152 612.053,920.267C597.312,919.475 582.583,920.468 568.274,923.22C567.165,923.432 566.1,922.716 565.877,921.614C561.9,902.056 558.672,881.135 561.954,860.656C565.648,837.658 577.484,818.783 594.427,808.869C596.063,807.917 597.756,807.057 599.465,806.31C618.768,797.848 641.612,801.866 653.78,815.864C662.766,826.192 665.388,840.03 666.768,852.204L666.768,852.205C669.628,877.563 668.433,903.084 663.213,928.059C663.093,928.635 662.732,929.13 662.222,929.421C661.909,929.6 661.558,929.691 661.206,929.691Z" style="fill:rgb(63,38,18);fill-rule:nonzero;"/>
        <path d="M621.269,860.567C621.849,864.923 622.165,869.308 622.212,873.695C622.297,880.153 621.799,886.632 620.696,893.021C619.196,901.723 616.453,910.478 612.161,918.219C597.359,917.424 582.443,918.407 567.886,921.206C563.855,901.378 560.776,880.971 563.979,860.981C567.204,840.901 577.661,821.055 595.462,810.639C597.019,809.734 598.629,808.914 600.286,808.189C611.552,823.564 618.798,841.771 621.269,860.567Z" style="fill:rgb(63,38,18);fill-rule:nonzero;"/>
        <path d="M623.131,859.572C623.711,863.929 624.027,868.313 624.073,872.7C617.378,872.293 608.82,872.872 602.123,872.455C608.966,868.847 617.245,863.868 623.131,859.572Z" style="fill:white;fill-rule:nonzero;"/>
        <path d="M364.498,1536.02C363.955,1536.02 363.413,1535.8 363.01,1535.38C362.23,1534.55 362.264,1533.26 363.086,1532.48C366.983,1528.78 371.278,1524.88 375.825,1520.75C387.786,1509.89 401.343,1497.58 410.276,1486.35C410.981,1485.46 412.271,1485.31 413.158,1486.02C414.044,1486.73 414.191,1488.02 413.486,1488.9C404.347,1500.39 390.659,1512.82 378.582,1523.79C374.052,1527.9 369.773,1531.79 365.909,1535.45C365.513,1535.83 365.005,1536.02 364.498,1536.02Z" style="fill:rgb(63,38,18);fill-rule:nonzero;"/>
        <path d="M390.437,1561.75C389.855,1561.75 389.278,1561.51 388.873,1561.03C388.139,1560.17 388.244,1558.87 389.107,1558.14C407.806,1542.25 425.663,1524.99 442.182,1506.84C442.945,1506.01 444.241,1505.95 445.08,1506.71C445.917,1507.47 445.978,1508.77 445.215,1509.61C428.578,1527.88 410.595,1545.26 391.764,1561.27C391.378,1561.59 390.906,1561.75 390.437,1561.75Z" style="fill:rgb(63,38,18);fill-rule:nonzero;"/>
        <path d="M424.182,1590.74C423.652,1590.74 423.123,1590.54 422.722,1590.13C421.927,1589.33 421.935,1588.03 422.742,1587.23C439.674,1570.52 456.594,1553.33 473.03,1536.12C473.813,1535.3 475.111,1535.27 475.93,1536.05C476.749,1536.83 476.779,1538.13 475.997,1538.95C459.532,1556.19 442.584,1573.42 425.622,1590.15C425.223,1590.55 424.702,1590.74 424.182,1590.74Z" style="fill:rgb(63,38,18);fill-rule:nonzero;"/>
        <path d="M457.505,1615.09C456.976,1615.09 456.447,1614.88 456.046,1614.48C455.25,1613.67 455.258,1612.37 456.064,1611.58C470.269,1597.54 483.359,1582.19 494.971,1565.95C495.63,1565.03 496.911,1564.82 497.832,1565.48C498.754,1566.14 498.967,1567.42 498.308,1568.34C486.561,1584.77 473.318,1600.3 458.947,1614.49C458.547,1614.89 458.026,1615.09 457.505,1615.09Z" style="fill:rgb(63,38,18);fill-rule:nonzero;"/>
        <path d="M490.69,1639.29C490.189,1639.29 489.686,1639.11 489.291,1638.74C488.463,1637.96 488.419,1636.67 489.191,1635.84C499.384,1624.92 510.376,1614.53 521.861,1604.98C522.731,1604.25 524.025,1604.37 524.749,1605.24C525.474,1606.11 525.355,1607.41 524.485,1608.13C513.132,1617.58 502.266,1627.84 492.19,1638.64C491.786,1639.07 491.239,1639.29 490.69,1639.29Z" style="fill:rgb(63,38,18);fill-rule:nonzero;"/>
        <path d="M951.393,1328.16C947.251,1328.16 943.047,1327.22 939.234,1325.44C933.058,1322.55 928.149,1317.63 925.412,1311.57C922.461,1305.05 922.298,1297.93 924.951,1291.53C927.585,1285.17 932.68,1280.3 939.299,1277.81C1014.04,1249.67 1064.85,1186.53 1071.91,1113.02C1079.87,1030.17 1029.08,968.201 1013.33,951.181C1008.26,945.704 1005.71,938.758 1006.16,931.622C1006.58,924.888 1009.66,918.781 1014.84,914.426C1019.51,910.495 1025.57,908.331 1031.91,908.331C1039.88,908.331 1047.57,911.692 1053,917.554C1072.61,938.737 1135.8,1015.95 1125.79,1120.16C1116.93,1212.46 1053.78,1291.49 960.988,1326.43C957.929,1327.58 954.701,1328.16 951.393,1328.16Z" style="fill:rgb(195,16,25);fill-rule:nonzero;"/>
        <path d="M1031.91,906.28C1025.09,906.28 1018.56,908.616 1013.52,912.856C1007.91,917.576 1004.57,924.195 1004.11,931.494C1003.63,939.195 1006.37,946.682 1011.82,952.575C1027.43,969.437 1077.75,1030.83 1069.87,1112.83C1062.88,1185.55 1012.58,1248.03 938.577,1275.89C931.422,1278.59 925.91,1283.86 923.057,1290.74C920.183,1297.67 920.356,1305.37 923.543,1312.42C926.482,1318.92 931.746,1324.2 938.365,1327.3C942.448,1329.21 946.953,1330.21 951.393,1330.21C954.949,1330.21 958.42,1329.59 961.711,1328.35C1055.24,1293.14 1118.89,1213.44 1127.83,1120.36C1137.93,1015.3 1074.26,937.503 1054.5,916.161C1048.69,909.881 1040.45,906.28 1031.91,906.28ZM1031.91,910.382C1039.03,910.381 1046.26,913.295 1051.49,918.947C1070.95,939.972 1133.68,1016.6 1123.75,1119.97C1114.96,1211.48 1052.32,1289.85 960.266,1324.51C957.375,1325.6 954.372,1326.11 951.393,1326.11C947.487,1326.11 943.621,1325.23 940.102,1323.58C934.581,1321 929.913,1316.55 927.28,1310.73C921.69,1298.36 927.395,1284.48 940.022,1279.73C1015.5,1251.32 1066.82,1187.51 1073.95,1113.22C1081.99,1029.52 1030.74,966.967 1014.83,949.788C1005.44,939.641 1006.03,924.512 1016.16,915.995C1020.64,912.223 1026.24,910.382 1031.91,910.382Z" style="fill:rgb(63,38,18);fill-rule:nonzero;"/>
        <path d="M924.054,1276.59C911.575,1267.11 897.8,1259.34 883.233,1253.56C873.604,1249.74 863.165,1248.68 853.143,1251.29C828.997,1257.6 831.438,1290.31 835.35,1294.89C827.75,1297.64 820.161,1301.43 815.267,1307.86C810.373,1314.29 808.942,1323.93 813.784,1330.4C817.814,1335.78 824.877,1337.73 831.41,1339.33C825.719,1344.74 824.164,1354.02 827.781,1360.99C831.398,1367.96 839.88,1372.02 847.579,1370.48C842.585,1372.55 840.191,1378.84 841.584,1384.07C842.977,1389.29 847.448,1393.29 852.481,1395.26C857.514,1397.23 863.066,1397.41 868.46,1397.08C886.23,1395.96 903.292,1389.48 918.98,1381.05C930.458,1374.89 941.824,1367.17 947.901,1355.65C954.789,1342.59 953.704,1326.48 948.437,1312.69C943.17,1298.9 934.14,1286.92 925.226,1275.15" style="fill:white;fill-rule:nonzero;"/>
        <path d="M847.581,1368.43C848.467,1368.43 849.275,1369.01 849.541,1369.89C849.848,1370.9 849.338,1371.98 848.362,1372.38C844.567,1373.95 842.371,1379.06 843.566,1383.54C844.692,1387.76 848.304,1391.43 853.228,1393.35C857.228,1394.92 861.887,1395.43 868.332,1395.03C883.775,1394.06 900.025,1388.9 918.01,1379.25C927.834,1373.97 939.904,1366.42 946.087,1354.69C952.057,1343.38 952.215,1328.33 946.521,1313.42C941.615,1300.58 933.323,1289.26 925.085,1278.37C924.391,1278.77 923.493,1278.74 922.813,1278.23C910.463,1268.84 896.892,1261.18 882.476,1255.46C872.82,1251.63 862.856,1250.88 853.662,1253.28C843.219,1256.01 838.68,1264.05 836.711,1270.32C833.481,1280.62 835.283,1291.65 836.909,1293.55C837.346,1294.07 837.505,1294.76 837.333,1295.41C837.161,1296.06 836.681,1296.58 836.048,1296.81C830.241,1298.92 821.939,1302.48 816.899,1309.1C812.87,1314.4 810.984,1323.23 815.426,1329.17C818.917,1333.84 825.211,1335.7 831.899,1337.34C832.628,1337.52 833.2,1338.08 833.392,1338.8C833.585,1339.53 833.367,1340.3 832.823,1340.82C827.784,1345.61 826.399,1353.87 829.602,1360.04C832.804,1366.21 840.358,1369.84 847.176,1368.47C847.312,1368.45 847.447,1368.43 847.581,1368.43ZM864.392,1399.26C859.373,1399.26 855.362,1398.59 851.734,1397.17C845.598,1394.77 841.064,1390.07 839.603,1384.59C838.491,1380.43 839.432,1375.97 841.765,1372.69C835.213,1371.84 829.012,1367.81 825.961,1361.93C822.49,1355.24 823.32,1346.59 827.695,1340.49C821.484,1338.8 815.818,1336.54 812.141,1331.63C806.435,1324 808.573,1313.27 813.635,1306.62C818.7,1299.96 826.399,1296.14 832.469,1293.78C830.56,1288.72 829.832,1278.54 832.798,1269.1C835.077,1261.84 840.366,1252.51 852.625,1249.31C862.67,1246.69 873.515,1247.49 883.989,1251.65C898.138,1257.26 911.491,1264.7 923.711,1273.77C923.794,1273.68 923.887,1273.6 923.988,1273.52C924.891,1272.84 926.178,1273.01 926.861,1273.92C935.75,1285.65 944.942,1297.79 950.353,1311.96C956.468,1327.97 956.235,1344.25 949.715,1356.61C943.014,1369.31 930.288,1377.31 919.95,1382.86C901.434,1392.8 884.633,1398.12 868.588,1399.12C867.112,1399.22 865.716,1399.26 864.392,1399.26Z" style="fill:rgb(63,38,18);fill-rule:nonzero;"/>
        <path d="M835.731,1294.51C846.844,1289.63 859.915,1289.4 871.193,1293.89" style="fill:white;fill-rule:nonzero;"/>
        <path d="M835.732,1296.56C834.943,1296.56 834.19,1296.11 833.853,1295.34C833.397,1294.3 833.869,1293.09 834.906,1292.64C846.591,1287.5 860.093,1287.27 871.951,1291.98C873.004,1292.4 873.518,1293.59 873.099,1294.65C872.681,1295.7 871.488,1296.22 870.435,1295.79C859.591,1291.48 847.241,1291.7 836.555,1296.39C836.287,1296.51 836.007,1296.56 835.732,1296.56Z" style="fill:rgb(63,38,18);fill-rule:nonzero;"/>
        <path d="M862.204,1326.81C874.293,1325.53 886.054,1321.26 896.149,1314.48" style="fill:white;fill-rule:nonzero;"/>
        <path d="M862.201,1328.86C861.166,1328.86 860.276,1328.07 860.164,1327.02C860.045,1325.9 860.862,1324.89 861.988,1324.77C873.759,1323.52 885.177,1319.37 895.007,1312.78C895.947,1312.15 897.221,1312.4 897.852,1313.34C898.483,1314.28 898.232,1315.56 897.292,1316.19C886.91,1323.15 874.852,1327.53 862.42,1328.85C862.346,1328.85 862.273,1328.86 862.201,1328.86Z" style="fill:rgb(63,38,18);fill-rule:nonzero;"/>
        <path d="M880.221,1360.37C887.367,1350.05 897.473,1341.81 909.018,1336.88" style="fill:white;fill-rule:nonzero;"/>
        <path d="M880.219,1362.43C879.817,1362.43 879.41,1362.31 879.054,1362.06C878.123,1361.42 877.891,1360.14 878.535,1359.21C885.852,1348.64 896.391,1340.04 908.213,1334.99C909.252,1334.55 910.458,1335.03 910.904,1336.07C911.349,1337.12 910.865,1338.32 909.823,1338.76C898.703,1343.51 888.79,1351.6 881.908,1361.54C881.51,1362.12 880.87,1362.43 880.219,1362.43Z" style="fill:rgb(63,38,18);fill-rule:nonzero;"/>
        <path d="M939.395,1331.51L920.214,1289.58C913.868,1275.71 916.57,1260.88 926.248,1256.45C935.926,1252.03 948.916,1259.68 955.261,1273.55L974.442,1315.48C980.787,1329.35 978.086,1344.18 968.408,1348.61C958.73,1353.04 945.74,1345.38 939.395,1331.51Z" style="fill:white;fill-rule:nonzero;"/>
        <path d="M941.26,1330.66C944.156,1336.99 948.571,1342.14 953.693,1345.16C958.578,1348.04 963.501,1348.6 967.554,1346.75C971.608,1344.89 974.4,1340.8 975.416,1335.22C976.482,1329.37 975.473,1322.66 972.577,1316.33L953.396,1274.4C950.5,1268.07 946.085,1262.93 940.963,1259.91C936.077,1257.03 931.154,1256.46 927.101,1258.32C923.048,1260.17 920.256,1264.27 919.24,1269.85C918.175,1275.69 919.183,1282.4 922.079,1288.73L941.26,1330.66ZM962.513,1351.93C958.975,1351.93 955.258,1350.84 951.61,1348.69C945.772,1345.25 940.771,1339.45 937.529,1332.37L918.349,1290.44C915.107,1283.35 913.99,1275.78 915.204,1269.11C916.468,1262.17 920.087,1257.02 925.395,1254.59C930.703,1252.16 936.972,1252.79 943.046,1256.37C948.884,1259.81 953.884,1265.61 957.126,1272.7L976.307,1314.63C979.549,1321.71 980.666,1329.29 979.451,1335.95C978.188,1342.89 974.569,1348.05 969.261,1350.48C967.141,1351.45 964.866,1351.93 962.513,1351.93Z" style="fill:rgb(63,38,18);fill-rule:nonzero;"/>
        <path d="M286.442,808.448C286.442,808.448 277.679,810.694 278.965,824.526C280.252,838.358 322.334,844.921 336.605,838.852C350.877,832.783 348.746,824.316 346.093,816.026C343.44,807.736 286.442,808.448 286.442,808.448Z" style="fill:white;fill-rule:nonzero;"/>
        <path d="M286.772,810.495C285.6,810.924 280.004,813.553 281.007,824.336C281.289,827.36 284.409,829.822 286.978,831.354C298.795,838.406 325.262,841.447 335.803,836.964C347.954,831.797 346.993,825.566 344.14,816.651C344.089,816.494 342.595,812.793 315.171,811.177C301.991,810.4 288.914,810.477 286.772,810.495ZM321.386,843.21C308.752,843.21 293.635,840.103 284.876,834.877C279.953,831.939 277.277,828.521 276.923,824.716C275.491,809.319 285.505,806.57 285.932,806.461L286.17,806.4L286.416,806.397C286.56,806.395 300.906,806.228 315.393,807.081C342.485,808.676 347.075,812.365 348.046,815.401C350.381,822.696 353.909,833.722 337.408,840.739C333.438,842.427 327.723,843.21 321.386,843.21Z" style="fill:rgb(63,38,18);fill-rule:nonzero;"/>
        <path d="M274.142,741.021C264.292,749.388 253.856,767.777 265.218,794.002C277.986,823.475 309.675,822.695 329.814,822.031C349.952,821.368 364.635,805.672 368.843,779.895C372.794,755.692 357.185,742.374 336.002,737.105C314.818,731.835 288.987,728.41 274.142,741.021Z" style="fill:white;fill-rule:nonzero;"/>
        <path d="M275.469,742.584C264.765,751.678 256.944,769.747 267.1,793.187C279.427,821.64 310.929,820.604 329.746,819.982C348.931,819.349 362.79,804.24 366.819,779.564C371.28,752.24 349.116,742.48 335.507,739.095C306.396,731.853 286.758,732.994 275.469,742.584ZM319.733,824.296C300.126,824.296 274.676,820.993 263.336,794.818C252.29,769.321 260.989,749.503 272.814,739.458L274.142,741.021L272.814,739.458C285.181,728.951 306.011,727.531 336.497,735.114C361.985,741.455 374.512,757.897 370.867,780.225C366.498,806.984 351.177,823.379 329.881,824.081C326.783,824.183 323.357,824.296 319.733,824.296Z" style="fill:rgb(63,38,18);fill-rule:nonzero;"/>
        <path d="M285.303,781.834C285.303,781.834 300.404,780.682 309.7,789.66C318.996,798.638 318.839,804.496 318.839,804.496" style="fill:white;fill-rule:nonzero;"/>
        <path d="M318.84,806.547C318.821,806.547 318.802,806.546 318.783,806.546C317.651,806.515 316.758,805.573 316.788,804.441C316.787,804.429 316.621,799.195 308.275,791.136C299.771,782.923 285.6,783.868 285.457,783.879C284.331,783.956 283.344,783.116 283.259,781.987C283.175,780.859 284.019,779.875 285.148,779.789C285.801,779.739 301.279,778.676 311.125,788.185C320.792,797.521 320.907,803.859 320.888,804.551C320.858,805.665 319.946,806.547 318.84,806.547Z" style="fill:rgb(63,38,18);fill-rule:nonzero;"/>
        <path d="M315.796,740.41C314.677,739.627 313.515,738.943 312.333,738.343C303.671,733.932 293.73,734.084 288.45,734.588L287.3,734.161C289.205,726.461 287.182,713.894 281.091,693.095C273.985,668.832 270.881,655.808 285.069,653.657C299.261,651.502 315.82,675.149 318.234,695.975C320.085,711.966 317.223,731.976 315.796,740.41Z" style="fill:white;fill-rule:nonzero;"/>
        <path d="M293.64,732.291C299.237,732.291 306.597,733.12 313.264,736.515C313.602,736.687 313.935,736.864 314.263,737.045C315.696,727.793 317.828,710.304 316.197,696.211C314.587,682.323 306.444,666.916 296.835,659.575C292.813,656.502 288.848,655.158 285.377,655.684C281.959,656.203 279.788,657.351 278.547,659.299C275.22,664.515 278.174,675.838 283.059,692.518C288.825,712.205 290.885,724.416 289.722,732.426C290.884,732.346 292.205,732.291 293.64,732.291ZM317.278,743.948L314.621,742.091C313.632,741.399 312.55,740.753 311.405,740.171C303.183,735.985 293.618,736.156 288.644,736.629L288.177,736.674L284.869,735.448L285.309,733.669C287.083,726.496 285.233,714.534 279.122,693.671C273.765,675.377 270.82,663.787 275.088,657.093C276.987,654.115 280.151,652.328 284.762,651.629C289.363,650.93 294.397,652.551 299.326,656.316C309.736,664.269 318.546,680.848 320.272,695.738C322.164,712.092 319.187,732.666 317.819,740.752L317.278,743.948Z" style="fill:rgb(63,38,18);fill-rule:nonzero;"/>
        <path d="M366.387,688.588C357.906,709.482 333.236,757.68 330.259,759.292L326.945,755.477C325.8,752.403 324.143,749.305 321.933,746.349C319.221,742.718 315.886,740.145 312.333,738.343C315.497,720.076 323.663,675.918 342.806,662.415C362.982,648.184 374.868,667.694 366.387,688.588Z" style="fill:white;fill-rule:nonzero;"/>
        <path d="M328.734,754.408L330.239,756.141C336.033,747.564 356.573,707.314 364.487,687.817C368.762,677.284 367.667,666.305 361.883,661.713C357.476,658.216 351.122,659.06 343.988,664.091C325.523,677.116 317.466,720.81 314.607,737.238C318.167,739.266 321.18,741.913 323.576,745.121C325.746,748.023 327.48,751.146 328.734,754.408ZM329.789,761.878L325.153,756.541L325.023,756.192C323.897,753.169 322.305,750.271 320.29,747.577C317.979,744.481 314.989,741.99 311.405,740.172L310.054,739.486L310.313,737.993C313.004,722.449 321.195,675.149 341.624,660.739C350.249,654.655 358.564,653.84 364.434,658.501C371.727,664.291 373.312,676.981 368.287,689.36C361.279,706.626 335.524,758.773 331.236,761.095L329.789,761.878Z" style="fill:rgb(63,38,18);fill-rule:nonzero;"/>
        <path d="M353.377,771.36C343.085,778.482 331.902,780.751 324.777,777.89C329.248,773.357 330.31,764.511 326.945,755.477C326.293,753.728 325.478,751.973 324.486,750.24C327.21,746.859 330.659,743.634 334.694,740.842C348.424,731.342 363.734,730.473 368.894,738.898C374.053,747.327 367.107,761.861 353.377,771.36Z" style="fill:white;fill-rule:nonzero;"/>
        <path d="M328.248,776.752C334.872,777.949 344.078,775.301 352.21,769.674C364.82,760.948 371.659,747.345 367.145,739.969C365.752,737.695 363.439,736.203 360.268,735.533C353.514,734.11 344.159,736.788 335.861,742.528C332.468,744.876 329.478,747.546 326.955,750.48C327.683,751.871 328.323,753.305 328.867,754.759C331.938,763.007 331.635,771.242 328.248,776.752ZM331.603,781.137C328.836,781.137 326.266,780.698 324.013,779.793L321.152,778.645L323.317,776.45C327.334,772.378 328.019,764.237 325.023,756.192C324.393,754.504 323.613,752.844 322.706,751.259L322.01,750.044L322.888,748.954C325.832,745.3 329.411,742.004 333.526,739.155C342.859,732.698 353.173,729.844 361.116,731.52C365.372,732.418 368.666,734.599 370.643,737.827C376.449,747.313 369.377,762.783 354.544,773.046C346.964,778.292 338.647,781.137 331.603,781.137Z" style="fill:rgb(63,38,18);fill-rule:nonzero;"/>
        <path d="M317.117,783.07C316.167,783.07 315.186,782.98 314.177,782.799C298.486,779.977 288.6,762.554 288.186,761.814C287.635,760.826 287.989,759.578 288.977,759.025C289.965,758.473 291.214,758.827 291.768,759.814C291.86,759.978 301.138,776.287 314.902,778.762C318.358,779.38 321.189,778.603 323.318,776.449C327.333,772.378 328.019,764.237 325.023,756.192C324.393,754.504 323.613,752.844 322.706,751.259C321.984,749.994 321.172,748.756 320.291,747.577C318.712,745.461 316.805,743.616 314.622,742.091C313.632,741.399 312.55,740.753 311.405,740.171C303.183,735.985 293.618,736.156 288.644,736.629C286.471,736.84 285.119,737.113 285.106,737.115C283.997,737.342 282.913,736.626 282.687,735.517C282.46,734.408 283.174,733.325 284.283,733.097C284.345,733.085 285.839,732.781 288.251,732.546C293.669,732.029 304.12,731.859 313.264,736.515C314.578,737.183 315.826,737.928 316.972,738.729C319.514,740.504 321.737,742.656 323.577,745.122C324.559,746.434 325.464,747.815 326.267,749.225C327.283,750.999 328.158,752.862 328.867,754.759C332.464,764.42 331.432,774.064 326.237,779.33C323.795,781.802 320.681,783.07 317.117,783.07Z" style="fill:rgb(63,38,18);fill-rule:nonzero;"/>
        <path d="M338.344,853.158L292.26,851.714C277.015,851.236 264.926,842.225 265.259,831.588C265.593,820.95 278.222,812.714 293.468,813.192L339.551,814.636C354.797,815.114 366.886,824.125 366.552,834.762C366.219,845.4 353.59,853.636 338.344,853.158Z" style="fill:white;fill-rule:nonzero;"/>
        <path d="M292.195,815.223C285.687,815.223 279.582,816.88 274.892,819.939C270.142,823.037 267.449,827.196 267.309,831.651C267.012,841.142 278.234,849.222 292.324,849.664L338.408,851.109C352.507,851.541 364.205,844.188 364.503,834.698C364.8,825.208 353.578,817.128 339.487,816.686L293.404,815.242C292.999,815.229 292.596,815.223 292.195,815.223ZM339.589,855.229C339.154,855.229 338.719,855.222 338.28,855.208L292.196,853.763C275.844,853.251 262.841,843.274 263.21,831.523C263.392,825.689 266.745,820.355 272.651,816.503C278.327,812.802 285.745,810.894 293.532,811.142L339.616,812.587C355.967,813.099 368.971,823.076 368.603,834.826C368.244,846.262 355.35,855.228 339.589,855.229Z" style="fill:rgb(15,8,2);fill-rule:nonzero;"/>
    </g>
</svg>
