<?xml version="1.0" encoding="UTF-8" standalone="no"?>
<!DOCTYPE svg PUBLIC "-//W3C//DTD SVG 1.1//EN" "http://www.w3.org/Graphics/SVG/1.1/DTD/svg11.dtd">
<svg width="100%" height="100%" viewBox="0 0 1388 1184" version="1.1" xmlns="http://www.w3.org/2000/svg" xmlns:xlink="http://www.w3.org/1999/xlink" xml:space="preserve" xmlns:serif="http://www.serif.com/" style="fill-rule:evenodd;clip-rule:evenodd;stroke-linejoin:round;stroke-miterlimit:2;">
    <g transform="matrix(1,0,0,1,-499.281,-2018.01)">
        <path d="M876.007,3014.64C865.798,3021.74 864.141,3036.5 867.203,3048.55C870.265,3060.61 876.927,3071.5 880.053,3083.54C885.035,3102.72 880.186,3124.18 867.443,3139.36C854.7,3154.53 834.399,3163.02 814.647,3161.43C799.192,3160.18 784.523,3153.1 772.815,3142.93C761.107,3132.77 752.22,3119.65 745.578,3105.64C722.073,3056.06 727.819,2993.87 760.011,2949.44C771.138,2934.08 785.81,2920.41 803.967,2914.94C822.124,2909.47 844.064,2913.89 855.541,2928.99C864.598,2940.9 865.843,2956.81 866.742,2971.75C867.741,2988.34 868.74,3004.92 869.739,3021.51" style="fill:white;fill-rule:nonzero;"/>
        <path d="M819.531,2914.72C814.579,2914.72 809.521,2915.44 804.568,2916.93C788.919,2921.65 774.495,2933 761.695,2950.66C730.134,2994.22 724.413,3056.14 747.457,3104.75C754.631,3119.88 763.622,3132.2 774.179,3141.36C786.228,3151.83 800.659,3158.21 814.814,3159.35C833.945,3160.9 853.505,3152.72 865.851,3138.02C878.196,3123.32 882.867,3102.64 878.04,3084.06C876.53,3078.24 874.102,3072.54 871.755,3067.02C869.305,3061.26 866.771,3055.3 865.188,3049.06C863.034,3040.59 862.876,3029.49 867.622,3020.95L864.666,2971.88C863.867,2958.59 862.871,2942.07 853.885,2930.25C846.331,2920.31 833.346,2914.72 819.531,2914.72ZM819.415,3163.7C817.77,3163.7 816.124,3163.63 814.48,3163.5C799.448,3162.29 784.167,3155.54 771.451,3144.5C760.458,3134.96 751.121,3122.18 743.699,3106.53C732.006,3081.87 727.213,3053.82 729.837,3025.42C732.461,2997.02 742.313,2970.32 758.327,2948.22C771.673,2929.8 786.827,2917.93 803.367,2912.95C823.77,2906.8 845.905,2912.88 857.197,2927.73C866.947,2940.55 867.984,2957.78 868.818,2971.63L871.476,3015.76C872.476,3014.74 873.588,3013.79 874.82,3012.94C875.763,3012.28 877.059,3012.51 877.714,3013.46C878.37,3014.4 878.138,3015.69 877.195,3016.35C867.786,3022.89 866.409,3036.98 869.218,3048.04C870.724,3053.97 873.193,3059.77 875.582,3065.39C877.989,3071.05 880.478,3076.9 882.066,3083.01C887.225,3102.88 882.232,3124.98 869.036,3140.69C856.9,3155.14 838.244,3163.7 819.415,3163.7Z" style="fill:rgb(63,38,18);fill-rule:nonzero;"/>
        <path d="M826.096,3036.94C834.784,3034.68 844.265,3035.62 852.346,3039.53C860.427,3043.44 867.044,3050.29 870.665,3058.51" style="fill:white;fill-rule:nonzero;"/>
        <path d="M870.666,3060.59C869.867,3060.59 869.105,3060.12 868.762,3059.34C865.355,3051.62 859.042,3045.08 851.441,3041.4C843.839,3037.72 834.792,3036.83 826.619,3038.96C825.508,3039.25 824.373,3038.58 824.083,3037.47C823.794,3036.35 824.461,3035.22 825.573,3034.93C834.686,3032.56 844.775,3033.55 853.252,3037.66C861.729,3041.76 868.769,3049.05 872.568,3057.67C873.031,3058.72 872.555,3059.94 871.504,3060.41C871.231,3060.53 870.946,3060.59 870.666,3060.59Z" style="fill:rgb(63,38,18);fill-rule:nonzero;"/>
        <path d="M918.251,2948.3C906.187,2900.99 846.072,2908.53 836.271,2949.61C835.002,2954.93 834.809,2960.45 835.398,2965.89C844.388,3048.88 940.747,3039.47 918.251,2948.3Z" style="fill:white;fill-rule:nonzero;"/>
        <path d="M879.04,2917.81L878.751,2917.81C862.946,2917.93 843.544,2928.08 838.294,2950.09C837.146,2954.9 836.867,2960.14 837.466,2965.67C840.281,2991.65 852.594,3011.3 870.403,3018.23C882.617,3022.98 895.559,3020.85 905.025,3012.53C919.091,3000.18 923.177,2976.95 916.235,2948.8C910.4,2925.94 893.254,2917.81 879.04,2917.81ZM883.396,3024.89C878.593,3024.89 873.693,3023.97 868.895,3022.1C849.611,3014.6 836.316,2993.67 833.331,2966.11C832.681,2960.11 832.99,2954.4 834.249,2949.12C839.192,2928.4 857.479,2913.81 878.718,2913.65L879.042,2913.65C894.825,2913.65 913.844,2922.6 920.266,2947.78C920.268,2947.79 920.269,2947.79 920.271,2947.8C927.601,2977.51 923.044,3002.24 907.77,3015.66C900.85,3021.74 892.293,3024.89 883.396,3024.89Z" style="fill:rgb(63,38,18);fill-rule:nonzero;"/>
        <path d="M965.008,3008.39C939.888,3008.39 914.669,3005.31 890.052,2999.23C873.305,2995.09 863.045,2978.1 867.181,2961.36C870.641,2947.35 883.122,2937.57 897.533,2937.57C900.054,2937.57 902.585,2937.87 905.055,2938.48C924.762,2943.35 944.964,2945.82 965.1,2945.82C976.504,2945.82 987.966,2945.02 999.168,2943.44C1076.76,2932.52 1139.34,2885.69 1162.49,2821.22C1197.29,2724.32 1121.03,2630.08 1120.25,2629.14C1109.28,2615.83 1111.19,2596.08 1124.5,2585.11C1130.09,2580.5 1137.15,2577.96 1144.38,2577.96C1153.77,2577.96 1162.57,2582.11 1168.54,2589.35C1172.62,2594.31 1268.09,2712.28 1221.37,2842.37C1200.27,2901.13 1154.9,2949.8 1093.61,2979.41C1066.68,2992.42 1037.69,3001.17 1007.46,3005.43C993.499,3007.4 979.217,3008.39 965.008,3008.39Z" style="fill:rgb(0,123,43);fill-rule:nonzero;"/>
        <path d="M1144.38,2575.88C1136.67,2575.88 1129.14,2578.59 1123.17,2583.5C1108.98,2595.2 1106.95,2616.27 1118.65,2630.47C1119.41,2631.4 1194.86,2724.93 1160.53,2820.52C1137.64,2884.26 1075.7,2930.57 998.878,2941.38C987.773,2942.95 976.408,2943.74 965.1,2943.74C945.132,2943.74 925.098,2941.29 905.554,2936.47C902.92,2935.82 900.222,2935.49 897.533,2935.49C882.163,2935.49 868.852,2945.92 865.163,2960.86C860.752,2978.72 871.693,2996.84 889.554,3001.25C914.334,3007.37 939.721,3010.47 965.009,3010.47C979.314,3010.47 993.693,3009.47 1007.75,3007.49C1038.2,3003.2 1067.39,2994.38 1094.51,2981.28C1156.3,2951.43 1202.05,2902.35 1223.33,2843.07C1270.45,2711.88 1174.26,2593.02 1170.14,2588.02C1163.78,2580.31 1154.39,2575.88 1144.38,2575.88ZM1144.38,2580.04C1152.8,2580.04 1161.16,2583.66 1166.93,2590.67C1170.99,2595.59 1265.74,2712.68 1219.42,2841.67C1198.5,2899.91 1153.5,2948.16 1092.7,2977.53C1065.8,2990.53 1036.91,2999.18 1007.17,3003.37C993.267,3005.33 979.174,3006.31 965.009,3006.31C940.22,3006.31 915.2,3003.3 890.551,2997.21C874.892,2993.34 865.333,2977.51 869.201,2961.85C872.487,2948.55 884.413,2939.64 897.533,2939.64C899.85,2939.64 902.205,2939.92 904.557,2940.5C924.823,2945.51 945.173,2947.9 965.1,2947.9C976.73,2947.9 988.212,2947.09 999.457,2945.5C1075.36,2934.82 1140.33,2889.07 1164.45,2821.93C1199.67,2723.85 1122.64,2628.77 1121.86,2627.82C1111.6,2615.38 1113.37,2596.97 1125.82,2586.71C1131.26,2582.23 1137.84,2580.04 1144.38,2580.04Z" style="fill:rgb(63,38,18);fill-rule:nonzero;"/>
        <path d="M1414.75,3059.67C1416.22,3067.36 1418.54,3075.52 1422.93,3082.76C1448.67,3066.06 1483.23,3062.63 1510.63,3076.44C1538.02,3090.25 1556.15,3121.83 1551.69,3152.19C1549.11,3169.71 1538.7,3186.67 1522.6,3194.05C1511.85,3198.97 1499.66,3199.36 1487.84,3199.54C1463.4,3199.93 1438.95,3199.81 1414.5,3199.68C1382.25,3199.52 1349.99,3199.36 1317.74,3199.2C1310.96,3199.16 1303.91,3199.07 1297.8,3196.11C1288.69,3191.7 1283.55,3181.81 1280.7,3172.1C1275.01,3152.64 1276.18,3131.24 1283.96,3112.53C1291.75,3093.81 1306.1,3077.89 1323.91,3068.21" style="fill:white;fill-rule:nonzero;"/>
        <path d="M1450.42,3201.88C1438.33,3201.88 1426.31,3201.82 1414.49,3201.76L1317.73,3201.28C1311.08,3201.24 1303.55,3201.21 1296.9,3197.99C1288.56,3193.95 1282.44,3185.44 1278.71,3172.68C1272.84,3152.65 1274.03,3131 1282.04,3111.73C1290.06,3092.45 1304.58,3076.35 1322.92,3066.39C1323.93,3065.84 1325.19,3066.21 1325.74,3067.22C1326.29,3068.23 1325.91,3069.49 1324.9,3070.04C1307.4,3079.55 1293.54,3094.93 1285.88,3113.32C1278.23,3131.72 1277.1,3152.39 1282.7,3171.51C1285.03,3179.47 1289.7,3189.88 1298.71,3194.24C1304.51,3197.05 1311.54,3197.09 1317.75,3197.12L1414.51,3197.6C1438.52,3197.73 1463.35,3197.85 1487.81,3197.46C1500.46,3197.26 1511.75,3196.72 1521.73,3192.15C1536.27,3185.5 1546.96,3170.07 1549.63,3151.88C1553.87,3123.05 1537.07,3092.1 1509.69,3078.3C1483.69,3065.18 1450.08,3067.62 1424.07,3084.5C1423.6,3084.81 1423.02,3084.91 1422.47,3084.79C1421.92,3084.66 1421.45,3084.32 1421.16,3083.84C1417.26,3077.41 1414.57,3069.86 1412.71,3060.06C1412.49,3058.93 1413.23,3057.84 1414.36,3057.62C1415.49,3057.41 1416.58,3058.15 1416.79,3059.28C1418.38,3067.64 1420.58,3074.24 1423.65,3079.84C1450.61,3063.24 1484.88,3061.13 1511.56,3074.58C1540.49,3089.17 1558.23,3121.93 1553.75,3152.49C1550.87,3172.05 1539.27,3188.7 1523.46,3195.94C1512.75,3200.84 1501.01,3201.41 1487.87,3201.62C1475.43,3201.82 1462.89,3201.88 1450.42,3201.88Z" style="fill:rgb(63,38,18);fill-rule:nonzero;"/>
        <path d="M1323.81,3078.67C1286.62,3041.13 1322.54,2998.26 1367.93,2998.6C1418.87,2998.97 1438.26,3059.57 1399.15,3081.64" style="fill:white;fill-rule:nonzero;"/>
        <path d="M1399.16,3083.72C1398.43,3083.72 1397.73,3083.34 1397.34,3082.66C1396.78,3081.66 1397.13,3080.39 1398.13,3079.83C1417.17,3069.09 1420.08,3050.31 1416.46,3036.32C1411.91,3018.73 1395.13,3000.88 1367.92,3000.68L1367.42,3000.68C1343.25,3000.68 1321.03,3013.47 1313.27,3031.91C1306.95,3046.91 1311.22,3063 1325.29,3077.21C1326.1,3078.02 1326.09,3079.34 1325.28,3080.15C1324.46,3080.96 1323.15,3080.95 1322.34,3080.14C1307,3064.65 1302.42,3046.95 1309.43,3030.29C1317.83,3010.35 1341.63,2996.52 1367.42,2996.52L1367.95,2996.52C1397.37,2996.73 1415.54,3016.14 1420.49,3035.28C1425.6,3055.04 1417.82,3073.49 1400.18,3083.45C1399.85,3083.63 1399.5,3083.72 1399.16,3083.72Z" style="fill:rgb(63,38,18);fill-rule:nonzero;"/>
        <path d="M1424.32,3081.64C1406.84,3093.21 1397.63,3116.02 1402.19,3136.48" style="fill:white;fill-rule:nonzero;"/>
        <path d="M1402.18,3138.56C1401.23,3138.56 1400.37,3137.9 1400.16,3136.93C1395.38,3115.49 1404.85,3092.03 1423.17,3079.9C1424.13,3079.27 1425.42,3079.53 1426.05,3080.49C1426.69,3081.45 1426.42,3082.74 1425.47,3083.37C1408.82,3094.39 1399.88,3116.54 1404.22,3136.03C1404.47,3137.15 1403.76,3138.26 1402.64,3138.51C1402.49,3138.55 1402.33,3138.56 1402.18,3138.56Z" style="fill:rgb(63,38,18);fill-rule:nonzero;"/>
        <path d="M1364.06,3052.34C1347.16,3052.34 1333.14,3038.59 1332.79,3021.69C1331.63,2964.3 1317.16,2853.55 1233.28,2756.76C1192.04,2709.17 1138.62,2671.15 1078.78,2646.82C1071.04,2643.68 1064.99,2637.7 1061.74,2630C1058.49,2622.3 1058.43,2613.8 1061.58,2606.06C1066.4,2594.21 1077.78,2586.55 1090.57,2586.55C1094.61,2586.55 1098.57,2587.33 1102.35,2588.86C1171.28,2616.89 1232.9,2660.78 1280.57,2715.78C1377.34,2827.46 1394.02,2954.59 1395.35,3020.43C1395.52,3028.78 1392.42,3036.7 1386.64,3042.73C1380.85,3048.76 1373.06,3052.17 1364.7,3052.34L1364.06,3052.34Z" style="fill:rgb(0,123,43);fill-rule:nonzero;"/>
        <path d="M1090.58,2584.47L1090.58,2588.63L1090.57,2584.47C1076.93,2584.47 1064.79,2592.64 1059.66,2605.28C1056.3,2613.53 1056.36,2622.6 1059.82,2630.81C1063.29,2639.02 1069.74,2645.39 1078,2648.75C1137.53,2672.96 1190.68,2710.78 1231.71,2758.12C1315.16,2854.42 1329.56,2964.62 1330.71,3021.73C1330.89,3030.52 1334.45,3038.75 1340.73,3044.9C1347.01,3051.04 1355.29,3054.42 1364.06,3054.42L1364.75,3054.42C1373.66,3054.24 1381.96,3050.6 1388.14,3044.17C1394.31,3037.74 1397.61,3029.29 1397.43,3020.38C1396.09,2954.26 1379.34,2826.59 1282.14,2714.42C1234.26,2659.17 1172.36,2615.09 1103.13,2586.94C1099.11,2585.3 1094.88,2584.47 1090.58,2584.47ZM1090.57,2588.63C1094.24,2588.63 1097.96,2589.32 1101.56,2590.79C1170.19,2618.69 1231.54,2662.39 1279,2717.14C1375.34,2828.32 1391.95,2954.91 1393.27,3020.47C1393.6,3036.59 1380.79,3049.93 1364.66,3050.26L1364.06,3050.26C1348.2,3050.26 1335.19,3037.57 1334.87,3021.65C1333.71,2963.97 1319.16,2852.69 1234.85,2755.4C1193.4,2707.56 1139.7,2669.35 1079.56,2644.9C1064.62,2638.82 1057.43,2621.78 1063.51,2606.84C1068.12,2595.5 1079.04,2588.63 1090.57,2588.63Z" style="fill:rgb(63,38,18);fill-rule:nonzero;"/>
        <path d="M1563.12,2535.92C1535.58,2535.92 1507.83,2531.26 1480.64,2522.08C1457.64,2514.31 1434.76,2502.99 1416.21,2490.2C1404.51,2482.13 1401.55,2466.04 1409.62,2454.33C1414.44,2447.35 1422.38,2443.18 1430.87,2443.18C1436.11,2443.18 1441.16,2444.76 1445.49,2447.74C1457.93,2456.32 1503.19,2484.29 1563.39,2484.29C1576.54,2484.29 1589.77,2482.96 1602.71,2480.32C1691.85,2462.18 1734.64,2390.14 1742.32,2375.88C1746.82,2367.51 1755.53,2362.31 1765.05,2362.31C1769.28,2362.31 1773.49,2363.37 1777.24,2365.39C1789.76,2372.13 1794.47,2387.8 1787.73,2400.32C1782.48,2410.08 1767.41,2435.6 1740.94,2461.75C1704.5,2497.75 1661.45,2521 1613,2530.86C1596.5,2534.22 1579.72,2535.92 1563.12,2535.92Z" style="fill:rgb(238,42,53);fill-rule:nonzero;"/>
        <path d="M1765.05,2360.23C1754.76,2360.23 1745.35,2365.85 1740.49,2374.89C1732.89,2389.01 1690.53,2460.33 1602.3,2478.29C1589.49,2480.89 1576.4,2482.21 1563.39,2482.21C1503.79,2482.21 1458.98,2454.52 1446.67,2446.03C1441.99,2442.81 1436.53,2441.1 1430.87,2441.1C1421.7,2441.1 1413.11,2445.61 1407.91,2453.15C1403.69,2459.28 1402.1,2466.69 1403.44,2474.01C1404.79,2481.33 1408.91,2487.69 1415.03,2491.91C1433.73,2504.81 1456.8,2516.22 1479.97,2524.05C1507.38,2533.3 1535.35,2538 1563.12,2538C1579.86,2538 1596.78,2536.28 1613.41,2532.9C1662.27,2522.96 1705.67,2499.52 1742.4,2463.23C1769.07,2436.89 1784.27,2411.15 1789.56,2401.3C1796.84,2387.77 1791.76,2370.84 1778.23,2363.56C1774.18,2361.38 1769.62,2360.23 1765.05,2360.23ZM1765.05,2364.39C1768.84,2364.39 1772.68,2365.3 1776.26,2367.22C1787.79,2373.43 1792.11,2387.8 1785.9,2399.33C1780.69,2409.01 1765.74,2434.32 1739.48,2460.27C1703.33,2495.98 1660.64,2519.05 1612.58,2528.82C1596.14,2532.17 1579.63,2533.84 1563.12,2533.84C1535.76,2533.84 1508.39,2529.26 1481.3,2520.11C1458.48,2512.4 1435.79,2501.17 1417.39,2488.49C1406.62,2481.06 1403.9,2466.29 1411.33,2455.51C1415.93,2448.84 1423.34,2445.26 1430.87,2445.26C1435.51,2445.26 1440.2,2446.62 1444.31,2449.45C1458.47,2459.22 1503.33,2486.37 1563.39,2486.37C1576.02,2486.37 1589.3,2485.17 1603.13,2482.36C1693.18,2464.04 1736.4,2391.27 1744.15,2376.86C1748.43,2368.91 1756.6,2364.39 1765.05,2364.39Z" style="fill:rgb(63,38,18);fill-rule:nonzero;"/>
        <path d="M1753.05,2362.11C1726.66,2331.27 1703.21,2389.88 1749.58,2411.2C1779.35,2424.89 1802.8,2427.24 1816.31,2405.27C1827.07,2383.02 1765.37,2365.15 1749.3,2360" style="fill:white;fill-rule:nonzero;"/>
        <path d="M1738.03,2355.41C1736.99,2355.41 1735.98,2355.57 1735,2355.91C1729.61,2357.74 1725.69,2364.59 1725.26,2372.95C1724.66,2384.66 1730.96,2400.35 1750.45,2409.31C1783.25,2424.39 1803.01,2422.84 1814.48,2404.27C1815.78,2401.54 1815.82,2398.85 1814.61,2396.06C1808.28,2381.41 1771.14,2369.09 1754.31,2363.76C1753.44,2364.42 1752.19,2364.3 1751.47,2363.46C1751.23,2363.18 1750.99,2362.9 1750.75,2362.64C1749.99,2362.4 1749.29,2362.18 1748.67,2361.98C1747.57,2361.62 1746.97,2360.45 1747.32,2359.36C1747.32,2359.36 1747.32,2359.35 1747.33,2359.34C1744.15,2356.75 1740.99,2355.41 1738.03,2355.41ZM1787.33,2423.72C1776.91,2423.72 1764.25,2420.24 1748.71,2413.09C1727.34,2403.27 1720.44,2385.8 1721.11,2372.74C1721.64,2362.54 1726.56,2354.39 1733.66,2351.97C1737.32,2350.72 1744.55,2350.1 1753.05,2359C1753.07,2359.01 1753.09,2359.01 1753.11,2359.02C1770.44,2364.48 1811.02,2377.25 1818.43,2394.41C1820.13,2398.36 1820.05,2402.32 1818.18,2406.17C1818.15,2406.24 1818.12,2406.3 1818.08,2406.36C1811.22,2417.52 1801.75,2423.19 1789.13,2423.69C1788.54,2423.71 1787.94,2423.72 1787.33,2423.72Z" style="fill:rgb(63,38,18);fill-rule:nonzero;"/>
        <path d="M1742.39,2367.2L1801.81,2399.71L1826.6,2353.9L1830.59,2274.82L1808.48,2256.34L1780.76,2265.13L1759.44,2303.51L1742.39,2367.2Z" style="fill:white;fill-rule:nonzero;"/>
        <path d="M1756.04,2303.91C1765.29,2295.42 1775.71,2287.62 1788.02,2283.21C1800.34,2278.8 1814.82,2278.12 1826.62,2283.54C1834.38,2287.09 1840.49,2293 1845.46,2299.39C1855.37,2312.14 1861.32,2327.51 1860.97,2343.02C1860.62,2358.53 1853.68,2374.06 1841.03,2384.7C1828.37,2395.34 1809.93,2400.64 1792.9,2397.46" style="fill:white;fill-rule:nonzero;"/>
        <path d="M1802.96,2400.46C1799.44,2400.46 1795.94,2400.15 1792.51,2399.51C1791.39,2399.3 1790.64,2398.21 1790.85,2397.08C1791.06,2395.95 1792.15,2395.21 1793.28,2395.42C1809.31,2398.42 1827.1,2393.7 1839.69,2383.11C1851.54,2373.14 1858.54,2358.51 1858.89,2342.97C1859.22,2328.62 1853.86,2313.59 1843.82,2300.66C1838.17,2293.4 1832.26,2288.41 1825.76,2285.43C1815.39,2280.67 1801.54,2280.58 1788.72,2285.17C1778.43,2288.86 1768.49,2295.3 1757.45,2305.44C1756.61,2306.22 1755.29,2306.16 1754.51,2305.32C1753.74,2304.47 1753.79,2303.16 1754.64,2302.38C1766.1,2291.85 1776.48,2285.14 1787.32,2281.25C1801.35,2276.23 1815.99,2276.37 1827.49,2281.65C1834.62,2284.92 1841.03,2290.3 1847.1,2298.11C1857.73,2311.79 1863.4,2327.76 1863.05,2343.07C1862.67,2359.8 1855.13,2375.56 1842.36,2386.29C1831.53,2395.4 1817.12,2400.46 1802.96,2400.46Z" style="fill:rgb(63,38,18);fill-rule:nonzero;"/>
        <path d="M1762.52,2316.29C1770.43,2314.1 1779.52,2317.09 1784.58,2323.56C1789.64,2330.02 1790.36,2339.57 1786.34,2346.72" style="fill:white;fill-rule:nonzero;"/>
        <path d="M1786.33,2348.8C1785.99,2348.8 1785.64,2348.71 1785.32,2348.53C1784.32,2347.97 1783.96,2346.7 1784.53,2345.7C1788.16,2339.25 1787.51,2330.67 1782.94,2324.84C1778.38,2319.01 1770.21,2316.32 1763.08,2318.29C1761.97,2318.6 1760.82,2317.95 1760.52,2316.84C1760.21,2315.74 1760.86,2314.59 1761.97,2314.29C1770.67,2311.87 1780.65,2315.16 1786.22,2322.28C1791.79,2329.39 1792.58,2339.86 1788.15,2347.74C1787.77,2348.42 1787.06,2348.8 1786.33,2348.8Z" style="fill:rgb(63,38,18);fill-rule:nonzero;"/>
        <path d="M1828.38,2254.7C1834.42,2252.64 1841.35,2252.76 1846.94,2255.83C1852.53,2258.9 1856.49,2265.13 1856.06,2271.5C1855.72,2276.45 1852.95,2280.89 1849.99,2284.88C1845.27,2291.23 1839.86,2297.07 1833.88,2302.26C1830.05,2305.57 1825.86,2308.69 1820.98,2310.05C1816.1,2311.41 1810.37,2310.7 1806.76,2307.15C1803.78,2304.22 1802.65,2299.79 1802.96,2295.63C1803.27,2291.46 1804.86,2287.5 1806.69,2283.75C1811.65,2273.56 1818.48,2264.28 1826.74,2256.52" style="fill:white;fill-rule:nonzero;"/>
        <path d="M1828.81,2256.73C1828.76,2257.21 1828.54,2257.68 1828.17,2258.03C1820.04,2265.67 1813.44,2274.63 1808.56,2284.66C1806.98,2287.9 1805.33,2291.75 1805.03,2295.78C1804.74,2299.72 1805.93,2303.42 1808.22,2305.67C1811,2308.4 1815.79,2309.33 1820.42,2308.05C1825.1,2306.74 1829.16,2303.59 1832.52,2300.68C1838.38,2295.6 1843.7,2289.87 1848.32,2283.64C1850.95,2280.1 1853.68,2275.87 1853.98,2271.36C1854.34,2266.08 1851.03,2260.45 1845.94,2257.65C1841.2,2255.05 1834.88,2254.68 1829.05,2256.67C1828.97,2256.69 1828.89,2256.71 1828.81,2256.73ZM1816.24,2312.79C1811.99,2312.79 1808.06,2311.34 1805.3,2308.63C1802.1,2305.49 1800.49,2300.7 1800.88,2295.47C1801.24,2290.74 1803.07,2286.43 1804.82,2282.84C1809.93,2272.35 1816.82,2262.99 1825.32,2255C1825.61,2254.73 1825.95,2254.56 1826.31,2254.48C1826.4,2253.7 1826.92,2253 1827.71,2252.73C1834.73,2250.34 1842.11,2250.81 1847.94,2254.01C1854.51,2257.61 1858.6,2264.69 1858.13,2271.64C1857.75,2277.22 1854.65,2282.09 1851.66,2286.12C1846.86,2292.59 1841.33,2298.55 1835.24,2303.83C1831.53,2307.04 1827.01,2310.53 1821.53,2312.05C1819.76,2312.55 1817.97,2312.79 1816.24,2312.79Z" style="fill:rgb(63,38,18);fill-rule:nonzero;"/>
        <path d="M1873,2286.32C1861.4,2259.33 1829.45,2288.41 1824.42,2309.94C1823.13,2315.48 1824.96,2321.4 1829.52,2324.82C1846.38,2337.47 1879.14,2308.25 1873.54,2287.85C1873.4,2287.33 1873.21,2286.82 1873,2286.32Z" style="fill:white;fill-rule:nonzero;"/>
        <path d="M1859.05,2277.51C1858.66,2277.51 1858.27,2277.53 1857.87,2277.57C1845.04,2278.7 1829.61,2296.88 1826.45,2310.41C1825.3,2315.33 1826.99,2320.33 1830.76,2323.15C1836.58,2327.52 1845.48,2326.43 1854.56,2320.25C1865.07,2313.1 1874.59,2299.51 1871.54,2288.4C1871.43,2288.01 1871.28,2287.6 1871.09,2287.14C1868.34,2280.75 1864.29,2277.51 1859.05,2277.51ZM1839.15,2329.96C1835.09,2329.96 1831.37,2328.81 1828.27,2326.48C1823.18,2322.66 1820.87,2315.99 1822.4,2309.47C1825.96,2294.23 1842.41,2274.76 1857.5,2273.42C1862.88,2272.95 1870.25,2274.66 1874.91,2285.5C1875.18,2286.14 1875.39,2286.73 1875.55,2287.3C1879.11,2300.27 1868.6,2315.73 1856.9,2323.69C1850.79,2327.85 1844.65,2329.96 1839.15,2329.96Z" style="fill:rgb(63,38,18);fill-rule:nonzero;"/>
        <path d="M1884.59,2319.54C1883.34,2314.05 1878.45,2309.12 1872.35,2308.42C1868.51,2307.98 1864.61,2309.2 1861.34,2311.11C1858.07,2313.01 1853.1,2316.95 1853.1,2316.95C1847.28,2321.57 1841.24,2326.44 1838.38,2332.98C1835.52,2339.53 1837,2348.23 1843.69,2351.73C1847.38,2353.67 1852,2353.69 1856.07,2352.58C1860.15,2351.47 1863.79,2349.32 1867.25,2347.05C1872.23,2343.78 1877.05,2340.13 1880.49,2335.48C1883.92,2330.83 1885.85,2325.03 1884.59,2319.54Z" style="fill:white;fill-rule:nonzero;"/>
        <path d="M1870.79,2310.41C1868.11,2310.41 1865.18,2311.28 1862.39,2312.9C1859.28,2314.71 1854.45,2318.54 1854.4,2318.58C1849.06,2322.81 1843.01,2327.6 1840.29,2333.82C1837.93,2339.21 1838.93,2346.89 1844.65,2349.89C1847.57,2351.42 1851.53,2351.67 1855.53,2350.57C1859.37,2349.52 1862.88,2347.42 1866.11,2345.31C1870.46,2342.46 1875.37,2338.91 1878.81,2334.25C1882.21,2329.64 1883.58,2324.45 1882.57,2320C1881.44,2315.05 1877.04,2311.05 1872.12,2310.49C1871.68,2310.44 1871.24,2310.41 1870.79,2310.41ZM1850.7,2355.4C1847.78,2355.4 1845.03,2354.79 1842.72,2353.58C1834.77,2349.41 1833.31,2339.41 1836.48,2332.15C1839.61,2324.99 1846.09,2319.85 1851.81,2315.32C1852.02,2315.16 1856.93,2311.27 1860.29,2309.31C1863.14,2307.65 1867.59,2305.79 1872.59,2306.36C1879.21,2307.11 1885.11,2312.46 1886.62,2319.08C1887.91,2324.7 1886.28,2331.13 1882.16,2336.72C1878.33,2341.91 1873.05,2345.73 1868.39,2348.79C1864.88,2351.09 1861.03,2353.38 1856.62,2354.59C1854.63,2355.13 1852.63,2355.4 1850.7,2355.4Z" style="fill:rgb(63,38,18);fill-rule:nonzero;"/>
        <path d="M1759.05,2282.37C1763.71,2273.32 1769.65,2264.93 1776.64,2257.53C1781.51,2252.38 1786.96,2247.66 1793.34,2244.59C1799.72,2241.53 1807.14,2240.22 1813.99,2242.02C1820.84,2243.82 1826.94,2249.03 1828.84,2255.85C1830.14,2260.56 1829.41,2265.67 1827.57,2270.2C1825.73,2274.74 1822.85,2278.76 1819.78,2282.58C1815.77,2287.56 1810.59,2292.63 1804.19,2292.61C1798.76,2292.59 1793.66,2288.27 1792.75,2282.92C1791.84,2277.56 1795.23,2271.8 1800.35,2269.99" style="fill:white;fill-rule:nonzero;"/>
        <path d="M1804.23,2294.69L1804.18,2294.69C1797.71,2294.66 1791.79,2289.65 1790.7,2283.26C1789.62,2276.88 1793.55,2270.19 1799.65,2268.03C1800.74,2267.64 1801.92,2268.21 1802.31,2269.29C1802.69,2270.38 1802.12,2271.56 1801.04,2271.95C1796.86,2273.43 1794.06,2278.19 1794.8,2282.57C1795.55,2286.94 1799.76,2290.51 1804.2,2290.53L1804.23,2290.53C1810.04,2290.53 1814.96,2285.25 1818.16,2281.27C1820.83,2277.96 1823.8,2273.96 1825.64,2269.42C1827.48,2264.89 1827.9,2260.27 1826.83,2256.4C1825.22,2250.6 1819.97,2245.74 1813.46,2244.03C1807.56,2242.49 1800.74,2243.35 1794.24,2246.47C1788.89,2249.04 1783.77,2253.01 1778.15,2258.96C1771.28,2266.23 1765.48,2274.43 1760.9,2283.32C1760.37,2284.34 1759.12,2284.74 1758.1,2284.22C1757.08,2283.7 1756.68,2282.44 1757.2,2281.42C1761.96,2272.18 1767.99,2263.66 1775.13,2256.1C1781.11,2249.77 1786.61,2245.52 1792.44,2242.72C1799.82,2239.17 1807.66,2238.21 1814.51,2240.01C1822.43,2242.09 1828.84,2248.09 1830.84,2255.29C1832.53,2261.37 1831.04,2267.18 1829.5,2270.98C1827.45,2276.02 1824.26,2280.33 1821.4,2283.88C1817.66,2288.52 1811.82,2294.69 1804.23,2294.69Z" style="fill:rgb(63,38,18);fill-rule:nonzero;"/>
        <path d="M1744.69,2368.89C1736.36,2354.4 1733.05,2337.09 1735.44,2320.54C1736.8,2311.12 1740.04,2301.82 1745.86,2294.29C1751.69,2286.76 1760.26,2281.13 1769.7,2279.94C1775.98,2279.15 1782.39,2280.31 1788.39,2282.32C1793.83,2284.14 1799.12,2286.73 1803.29,2290.67C1807.46,2294.61 1810.44,2300.03 1810.6,2305.77C1810.76,2311.5 1807.78,2317.43 1802.64,2319.99C1796.36,2323.12 1788.85,2320.8 1782.24,2318.44C1775.64,2316.08 1768.15,2313.74 1761.85,2316.83" style="fill:white;fill-rule:nonzero;"/>
        <path d="M1744.69,2370.97C1743.97,2370.97 1743.27,2370.6 1742.89,2369.93C1734.29,2354.97 1730.91,2337.32 1733.38,2320.24C1734.91,2309.62 1738.66,2300.21 1744.22,2293.02C1750.73,2284.6 1759.92,2279.08 1769.44,2277.88C1775.34,2277.13 1781.94,2277.96 1789.05,2280.35C1795.67,2282.57 1800.79,2285.45 1804.72,2289.16C1809.61,2293.78 1812.51,2299.81 1812.68,2305.71C1812.87,2312.55 1809.21,2319.04 1803.56,2321.85C1796.64,2325.3 1788.89,2323.02 1781.55,2320.4C1775.03,2318.08 1768.22,2316.03 1762.76,2318.7C1761.73,2319.2 1760.48,2318.77 1759.98,2317.74C1759.48,2316.71 1759.9,2315.47 1760.93,2314.96C1767.84,2311.58 1775.6,2313.86 1782.94,2316.48C1789.45,2318.81 1796.25,2320.84 1801.71,2318.13C1805.87,2316.06 1808.67,2311 1808.52,2305.83C1808.38,2301.02 1805.96,2296.05 1801.86,2292.18C1798.38,2288.89 1793.76,2286.31 1787.73,2284.29C1781.22,2282.11 1775.24,2281.34 1769.96,2282C1761.53,2283.07 1753.35,2288.01 1747.51,2295.57C1742.39,2302.18 1738.93,2310.92 1737.5,2320.84C1735.16,2337 1738.36,2353.7 1746.5,2367.86C1747.07,2368.85 1746.72,2370.12 1745.73,2370.7C1745.4,2370.88 1745.05,2370.97 1744.69,2370.97Z" style="fill:rgb(63,38,18);fill-rule:nonzero;"/>
        <path d="M849.671,2747.5L798.982,2657.11L815.121,2631.85L823.685,2618.43L1195.57,2036.27L948.667,2769L849.671,2747.5Z" style="fill:rgb(238,42,53);fill-rule:nonzero;"/>
        <path d="M1202.97,2020.82L1184.67,2049.47L848.348,2575.96L821.933,2617.31L813.368,2630.73L797.9,2654.94L796.558,2657.04L797.777,2659.21L847.399,2747.7L848.315,2749.33L850.145,2749.73L866.02,2753.18L946.408,2770.63L950.044,2771.42L951.232,2767.9L1192.12,2053.04L1202.97,2020.82ZM1188.17,2051.71L947.291,2766.57L866.902,2749.11L851.027,2745.67L801.404,2657.18L816.873,2632.96L825.438,2619.55L851.853,2578.2L1188.17,2051.71Z" style="fill:rgb(63,38,18);fill-rule:nonzero;"/>
        <path d="M838.687,2675.85L814.549,2634.91L823.8,2620.42L851.607,2576.89L910.043,2635.23L896.033,2711.43L838.687,2675.85Z" style="fill:rgb(0,198,69);fill-rule:nonzero;"/>
        <path d="M851.247,2573.59L848.463,2577.95L822.048,2619.3L813.482,2632.72L812.109,2634.87L813.405,2637.07L836.635,2676.47L837.155,2677.35L838.026,2677.89L892.346,2711.59L897.527,2714.8L898.629,2708.81L911.891,2636.68L912.286,2634.53L910.739,2632.98L854.906,2577.24L851.247,2573.59ZM851.968,2580.19L907.8,2635.93L894.539,2708.06L840.218,2674.36L816.988,2634.96L825.553,2621.54L851.968,2580.19Z" style="fill:rgb(63,38,18);fill-rule:nonzero;"/>
        <path d="M849.671,2747.5L798.982,2657.11L825.31,2615.89L881.276,2691.34L868.503,2751.59L849.671,2747.5Z" style="fill:rgb(0,151,54);fill-rule:nonzero;"/>
        <path d="M825.182,2612.22L821.933,2617.31L797.899,2654.94L796.558,2657.04L797.777,2659.21L847.399,2747.7L848.315,2749.33L850.145,2749.73L866.02,2753.18L870.104,2754.06L870.971,2749.98L883.116,2692.69L883.505,2690.85L882.388,2689.34L828.779,2617.07L825.182,2612.22ZM825.438,2619.55L879.048,2691.82L866.902,2749.11L851.027,2745.67L801.404,2657.18L825.438,2619.55Z" style="fill:rgb(63,38,18);fill-rule:nonzero;"/>
        <path d="M1215.56,2858.2C1169.63,2858.2 1123.49,2853.3 1078.43,2843.62C1069.32,2841.67 1060.17,2839.5 1051.22,2837.18C980.956,2818.98 912.234,2788.64 852.478,2749.45L850.947,2748.44L906.533,2634.53C1005.58,2431.55 1104.63,2228.56 1203.69,2025.58L1205.31,2022.25L1612.51,2658.95L1640.68,2702.98L1639.27,2704.15C1598.43,2738.21 1552.63,2767.64 1503.14,2791.65C1419.31,2832.3 1330.33,2854.56 1238.66,2857.79C1230.99,2858.06 1223.22,2858.2 1215.57,2858.2L1215.56,2858.2Z" style="fill:rgb(238,42,53);fill-rule:nonzero;"/>
        <path d="M1205.07,2018.01L1201.82,2024.67C1108.84,2215.2 1015.86,2405.74 922.887,2596.27L904.664,2633.62L890.264,2663.13L876.3,2691.74L862.884,2719.24L849.881,2745.88L848.274,2749.18L851.338,2751.19C911.28,2790.5 980.216,2820.93 1050.69,2839.2C1059.66,2841.52 1068.84,2843.69 1078,2845.66C1123.2,2855.36 1169.48,2860.28 1215.56,2860.28C1223.24,2860.28 1231.04,2860.14 1238.73,2859.87C1330.69,2856.63 1419.96,2834.3 1504.05,2793.52C1553.69,2769.44 1599.63,2739.91 1640.6,2705.75L1643.42,2703.4L1641.44,2700.32L1614.26,2657.82L1574.68,2595.94L1209.06,2024.26L1205.07,2018.01ZM1205.56,2026.5L1571.18,2598.19L1610.75,2660.07L1637.94,2702.56C1594.88,2738.46 1452.24,2848.18 1238.59,2855.72C1230.82,2855.99 1223.15,2856.12 1215.56,2856.12C1165.97,2856.12 1120.2,2850.46 1078.87,2841.59C1069.6,2839.6 1060.55,2837.45 1051.74,2835.17C954.197,2809.89 884.928,2768.24 853.619,2747.71C862.422,2729.66 871.234,2711.61 880.038,2693.57C889.495,2674.19 898.944,2654.82 908.402,2635.44C1007.45,2432.46 1106.5,2229.47 1205.56,2026.5Z" style="fill:rgb(63,38,18);fill-rule:nonzero;"/>
        <path d="M1215.56,2858.2C1169.63,2858.2 1123.49,2853.3 1078.43,2843.62L1051.26,2837.19C980.956,2818.98 912.234,2788.64 852.478,2749.45L850.947,2748.44L907.451,2632.65L909.326,2633.58C1004.4,2680.74 1104.78,2704.65 1207.68,2704.65C1222.72,2704.65 1237.98,2704.12 1253.03,2703.08C1393.84,2693.33 1503.15,2639.71 1570.05,2596.44L1571.8,2595.3L1640.68,2702.98L1639.27,2704.15C1598.43,2738.21 1552.63,2767.64 1503.14,2791.65C1419.31,2832.3 1330.33,2854.56 1238.66,2857.79C1230.99,2858.06 1223.22,2858.2 1215.57,2858.2L1215.56,2858.2Z" style="fill:rgb(0,198,69);fill-rule:nonzero;"/>
        <path d="M1572.43,2592.42L1568.92,2594.69C1502.22,2637.83 1393.25,2691.29 1252.89,2701C1237.88,2702.04 1222.67,2702.57 1207.68,2702.57C1105.1,2702.57 1005.03,2678.73 910.25,2631.72L906.5,2629.86L904.664,2633.62L849.881,2745.88L848.274,2749.18L851.338,2751.19C911.279,2790.5 980.216,2820.93 1050.69,2839.2L1050.74,2839.21L1050.78,2839.22L1077.91,2845.64L1077.95,2845.65L1078,2845.66C1123.2,2855.36 1169.48,2860.28 1215.56,2860.28C1223.24,2860.28 1231.04,2860.14 1238.73,2859.87C1330.69,2856.63 1419.96,2834.3 1504.05,2793.52C1553.69,2769.44 1599.63,2739.91 1640.6,2705.75L1643.41,2703.4L1641.44,2700.32L1574.68,2595.94L1572.43,2592.42ZM1571.18,2598.19L1637.94,2702.56C1594.88,2738.46 1452.24,2848.18 1238.59,2855.72C1230.82,2855.99 1223.15,2856.12 1215.56,2856.12C1165.98,2856.12 1120.2,2850.46 1078.87,2841.59L1051.74,2835.17C954.197,2809.89 884.928,2768.24 853.619,2747.71C871.88,2710.29 890.141,2672.86 908.402,2635.44C980.407,2671.16 1083.05,2706.73 1207.68,2706.73C1222.54,2706.73 1237.71,2706.22 1253.18,2705.15C1392.92,2695.48 1501.08,2643.52 1571.18,2598.19Z" style="fill:rgb(63,38,18);fill-rule:nonzero;"/>
        <path d="M1215.56,2858.2C1169.63,2858.2 1123.49,2853.3 1078.43,2843.62C1069.32,2841.67 1060.17,2839.5 1051.22,2837.18C980.956,2818.98 912.234,2788.64 852.478,2749.45L850.947,2748.44L879.151,2690.64L881.085,2691.77C924.511,2717.09 1044.57,2775.99 1221.11,2775.98C1232.62,2775.98 1244.29,2775.72 1255.79,2775.21C1422.01,2767.74 1534.27,2700.24 1604.26,2650.12L1606.04,2648.84L1640.68,2702.98L1639.27,2704.15C1598.43,2738.21 1552.63,2767.64 1503.14,2791.65C1419.31,2832.3 1330.33,2854.56 1238.66,2857.79C1230.99,2858.06 1223.22,2858.2 1215.57,2858.2L1215.56,2858.2Z" style="fill:rgb(0,151,54);fill-rule:nonzero;"/>
        <path d="M1606.61,2645.87L1603.05,2648.42C1533.28,2698.39 1421.36,2765.68 1255.7,2773.13C1244.22,2773.64 1232.58,2773.91 1221.11,2773.91C1045.08,2773.91 925.411,2715.21 882.133,2689.97L878.264,2687.72L876.3,2691.74L862.884,2719.24L849.881,2745.88L848.274,2749.18L851.338,2751.19C911.28,2790.5 980.216,2820.93 1050.69,2839.2C1059.65,2841.52 1068.84,2843.69 1078,2845.66C1123.2,2855.36 1169.48,2860.28 1215.56,2860.28C1223.24,2860.28 1231.04,2860.14 1238.73,2859.87C1330.69,2856.63 1419.96,2834.3 1504.05,2793.52C1553.69,2769.44 1599.63,2739.91 1640.6,2705.75L1643.42,2703.4L1641.44,2700.32L1608.97,2649.56L1606.61,2645.87ZM1605.47,2651.81L1637.94,2702.56C1594.88,2738.46 1452.24,2848.18 1238.59,2855.72C1230.82,2855.99 1223.15,2856.12 1215.56,2856.12C1165.97,2856.12 1120.2,2850.46 1078.87,2841.59C1069.6,2839.6 1060.55,2837.45 1051.74,2835.17C954.197,2809.89 884.928,2768.24 853.619,2747.71C862.422,2729.66 871.234,2711.61 880.038,2693.57C953.042,2736.14 1074.17,2778.07 1221.11,2778.07C1232.55,2778.07 1244.15,2777.81 1255.89,2777.28C1426.06,2769.63 1539.44,2699.1 1605.47,2651.81Z" style="fill:rgb(63,38,18);fill-rule:nonzero;"/>
        <path d="M1208.37,2432.77C1208.37,2490.58 1183.44,2537.45 1152.69,2537.45C1148.62,2537.45 1144.65,2536.63 1140.83,2535.07C1115.78,2524.85 1097.01,2482.93 1097.01,2432.77C1097.01,2382.61 1115.78,2340.7 1140.83,2330.48C1144.65,2328.92 1148.62,2328.1 1152.69,2328.1C1183.44,2328.1 1208.37,2374.96 1208.37,2432.77Z" style="fill:white;fill-rule:nonzero;"/>
        <path d="M1152.69,2330.18C1148.97,2330.18 1145.24,2330.93 1141.61,2332.4C1116.98,2342.46 1099.09,2384.67 1099.09,2432.77C1099.09,2480.88 1116.98,2523.09 1141.61,2533.15C1145.24,2534.62 1148.97,2535.37 1152.69,2535.37C1182.25,2535.37 1206.29,2489.35 1206.29,2432.77C1206.29,2376.2 1182.25,2330.18 1152.69,2330.18ZM1152.69,2539.53C1148.43,2539.53 1144.17,2538.68 1140.04,2537C1127.31,2531.8 1115.8,2518.56 1107.62,2499.73C1099.44,2480.87 1094.93,2457.1 1094.93,2432.77C1094.93,2408.45 1099.44,2384.67 1107.62,2365.82C1115.8,2346.99 1127.31,2333.75 1140.04,2328.55C1144.17,2326.87 1148.43,2326.02 1152.69,2326.02C1168.37,2326.02 1183.01,2337.3 1193.9,2357.78C1204.57,2377.84 1210.45,2404.48 1210.45,2432.77C1210.45,2461.07 1204.57,2487.7 1193.9,2507.77C1183.01,2528.25 1168.37,2539.53 1152.69,2539.53Z" style="fill:rgb(63,38,18);fill-rule:nonzero;"/>
        <path d="M1183.76,2432.77C1183.76,2482.43 1165.45,2524.05 1140.83,2535.07C1115.78,2524.85 1097.01,2482.93 1097.01,2432.77C1097.01,2382.61 1115.78,2340.7 1140.83,2330.48C1165.45,2341.5 1183.76,2383.12 1183.76,2432.77Z" style="fill:rgb(63,38,18);fill-rule:nonzero;"/>
        <path d="M1186.69,2400.86L1156.06,2430.54L1194.99,2432.77L1186.69,2400.86Z" style="fill:white;fill-rule:nonzero;"/>
        <path d="M1097.49,2323.53C1097.27,2323.53 1097.04,2323.49 1096.81,2323.41C1095.73,2323.04 1095.15,2321.85 1095.53,2320.77C1100.73,2305.74 1114.13,2293.86 1129.67,2290.51C1145.21,2287.16 1162.32,2292.45 1173.25,2303.99C1174.04,2304.83 1174.01,2306.14 1173.17,2306.93C1172.34,2307.72 1171.02,2307.69 1170.23,2306.85C1160.28,2296.34 1144.7,2291.52 1130.55,2294.57C1116.39,2297.63 1104.19,2308.44 1099.46,2322.13C1099.16,2322.99 1098.35,2323.53 1097.49,2323.53Z" style="fill:rgb(63,38,18);fill-rule:nonzero;"/>
        <path d="M1148.89,2506.43C1121.55,2507.29 1095.69,2521.85 1077.79,2542.54L1078.49,2541.9C1123.28,2555.14 1171.67,2555.94 1216.88,2544.19C1204.39,2519.85 1176.23,2505.57 1148.89,2506.43Z" style="fill:rgb(238,42,53);fill-rule:nonzero;"/>
        <path d="M1380.49,2425.65C1380.49,2483.46 1355.57,2530.33 1324.81,2530.33C1320.74,2530.33 1316.78,2529.51 1312.95,2527.95C1287.9,2517.73 1269.13,2475.81 1269.13,2425.65C1269.13,2375.49 1287.9,2333.58 1312.95,2323.36C1316.78,2321.8 1320.74,2320.98 1324.81,2320.98C1355.57,2320.98 1380.49,2367.84 1380.49,2425.65Z" style="fill:white;fill-rule:nonzero;"/>
        <path d="M1324.81,2323.06C1321.09,2323.06 1317.36,2323.81 1313.73,2325.28C1289.1,2335.34 1271.21,2377.55 1271.21,2425.65C1271.21,2473.76 1289.1,2515.97 1313.73,2526.03C1317.36,2527.5 1321.09,2528.25 1324.81,2528.25C1354.37,2528.25 1378.41,2482.23 1378.41,2425.65C1378.41,2369.08 1354.37,2323.06 1324.81,2323.06ZM1324.81,2532.41C1320.55,2532.41 1316.29,2531.56 1312.16,2529.88C1299.43,2524.68 1287.92,2511.44 1279.74,2492.61C1271.56,2473.75 1267.06,2449.98 1267.06,2425.65C1267.06,2401.33 1271.56,2377.55 1279.74,2358.7C1287.92,2339.86 1299.43,2326.63 1312.16,2321.43C1316.29,2319.75 1320.55,2318.9 1324.81,2318.9C1340.49,2318.9 1355.13,2330.18 1366.02,2350.66C1376.69,2370.72 1382.57,2397.36 1382.57,2425.65C1382.57,2453.95 1376.69,2480.58 1366.02,2500.65C1355.13,2521.13 1340.49,2532.41 1324.81,2532.41Z" style="fill:rgb(63,38,18);fill-rule:nonzero;"/>
        <path d="M1355.88,2425.65C1355.88,2475.31 1337.57,2516.93 1312.95,2527.95C1287.9,2517.73 1269.13,2475.81 1269.13,2425.65C1269.13,2375.49 1287.9,2333.58 1312.95,2323.36C1337.57,2334.38 1355.88,2376 1355.88,2425.65Z" style="fill:rgb(63,38,18);fill-rule:nonzero;"/>
        <path d="M1358.82,2393.74L1328.18,2423.42L1367.11,2425.65L1358.82,2393.74Z" style="fill:white;fill-rule:nonzero;"/>
        <path d="M1269.61,2316.41C1269.39,2316.41 1269.16,2316.37 1268.93,2316.29C1267.85,2315.92 1267.27,2314.73 1267.65,2313.65C1272.85,2298.62 1286.25,2286.74 1301.79,2283.39C1317.34,2280.03 1334.44,2285.33 1345.38,2296.87C1346.16,2297.71 1346.13,2299.02 1345.29,2299.81C1344.46,2300.6 1343.14,2300.57 1342.35,2299.73C1332.4,2289.22 1316.82,2284.4 1302.67,2287.45C1288.52,2290.51 1276.31,2301.32 1271.58,2315.01C1271.28,2315.87 1270.47,2316.41 1269.61,2316.41Z" style="fill:rgb(63,38,18);fill-rule:nonzero;"/>
        <path d="M1321.01,2499.31C1293.67,2500.17 1267.81,2514.73 1249.91,2535.42L1250.61,2534.78C1295.4,2548.02 1343.8,2548.82 1389,2537.07C1376.51,2512.73 1348.35,2498.45 1321.01,2499.31Z" style="fill:rgb(238,42,53);fill-rule:nonzero;"/>
        <path d="M1263.25,2570.3C1262.64,2570.3 1262.03,2570.28 1261.43,2570.24C1253.39,2569.7 1245.67,2565.56 1240.77,2559.15C1240.08,2558.24 1240.25,2556.93 1241.16,2556.24C1242.08,2555.54 1243.38,2555.71 1244.08,2556.63C1248.25,2562.09 1254.84,2565.63 1261.71,2566.09C1268.56,2566.54 1275.57,2563.92 1280.44,2559.07C1281.25,2558.26 1282.57,2558.26 1283.38,2559.07C1284.19,2559.88 1284.19,2561.2 1283.38,2562.01C1278.1,2567.27 1270.69,2570.3 1263.25,2570.3Z" style="fill:rgb(63,38,18);fill-rule:nonzero;"/>
        <path d="M1240,2647.67C1239.41,2647.67 1238.82,2647.42 1238.41,2646.93C1237.67,2646.05 1237.77,2644.74 1238.65,2644C1243.8,2639.64 1250.34,2636.96 1257.07,2636.45C1263.8,2635.94 1270.67,2637.6 1276.42,2641.13C1277.4,2641.73 1277.7,2643.02 1277.1,2643.99C1276.5,2644.97 1275.22,2645.28 1274.24,2644.68C1269.23,2641.6 1263.24,2640.15 1257.39,2640.59C1251.52,2641.04 1245.82,2643.38 1241.34,2647.17C1240.95,2647.5 1240.47,2647.67 1240,2647.67Z" style="fill:rgb(63,38,18);fill-rule:nonzero;"/>
        <path d="M1331.43,2597.93C1331.43,2612.82 1326.55,2624.89 1320.52,2624.89C1314.5,2624.89 1309.62,2612.82 1309.62,2597.93C1309.62,2583.03 1314.5,2570.96 1320.52,2570.96C1326.55,2570.96 1331.43,2583.03 1331.43,2597.93Z" style="fill:rgb(63,38,18);fill-rule:nonzero;"/>
        <path d="M1317.46,2655.26C1310.13,2655.26 1301.13,2652.3 1290.55,2643.55C1289.66,2642.82 1289.54,2641.51 1290.27,2640.62C1291,2639.74 1292.31,2639.62 1293.2,2640.35C1308.57,2653.06 1322.43,2654.56 1333.3,2644.69C1341.82,2636.95 1347.93,2622.46 1349.65,2605.93C1351.37,2589.4 1348.42,2573.66 1341.76,2563.82C1333.25,2551.24 1319.6,2549.04 1302.3,2557.45C1301.27,2557.96 1300.02,2557.53 1299.52,2556.49C1299.02,2555.46 1299.45,2554.22 1300.48,2553.71C1326.31,2541.15 1339.59,2553.19 1345.2,2561.49C1360.48,2584.06 1355.63,2630.02 1336.1,2647.76C1332.23,2651.28 1325.97,2655.26 1317.46,2655.26Z" style="fill:rgb(63,38,18);fill-rule:nonzero;"/>
        <path d="M1150.67,2580.28C1153.94,2580.28 1157.06,2577.41 1156.91,2574.05C1156.76,2570.67 1154.17,2567.81 1150.67,2567.81C1147.41,2567.81 1144.28,2570.68 1144.43,2574.05C1144.59,2577.43 1147.18,2580.28 1150.67,2580.28Z" style="fill:rgb(63,38,18);fill-rule:nonzero;"/>
        <path d="M1182.72,2573.42C1185.98,2573.42 1189.11,2570.55 1188.96,2567.18C1188.8,2563.8 1186.21,2560.94 1182.72,2560.94C1179.45,2560.94 1176.33,2563.81 1176.48,2567.18C1176.63,2570.56 1179.22,2573.42 1182.72,2573.42Z" style="fill:rgb(63,38,18);fill-rule:nonzero;"/>
        <path d="M1175.85,2605.46C1179.11,2605.46 1182.24,2602.59 1182.09,2599.22C1181.94,2595.84 1179.35,2592.98 1175.85,2592.98C1172.59,2592.98 1169.46,2595.85 1169.61,2599.22C1169.76,2602.6 1172.35,2605.46 1175.85,2605.46Z" style="fill:rgb(63,38,18);fill-rule:nonzero;"/>
        <path d="M1396.15,2548.81C1399.42,2548.81 1402.54,2545.94 1402.39,2542.57C1402.24,2539.19 1399.65,2536.33 1396.15,2536.33C1392.89,2536.33 1389.76,2539.2 1389.91,2542.57C1390.07,2545.95 1392.66,2548.81 1396.15,2548.81Z" style="fill:rgb(63,38,18);fill-rule:nonzero;"/>
        <path d="M1384.14,2580.28C1387.4,2580.28 1390.53,2577.41 1390.38,2574.05C1390.22,2570.67 1387.63,2567.81 1384.14,2567.81C1380.87,2567.81 1377.75,2570.68 1377.9,2574.05C1378.05,2577.43 1380.64,2580.28 1384.14,2580.28Z" style="fill:rgb(63,38,18);fill-rule:nonzero;"/>
        <path d="M1419.61,2569.29C1422.88,2569.29 1426,2566.42 1425.85,2563.06C1425.7,2559.68 1423.11,2556.82 1419.61,2556.82C1416.35,2556.82 1413.22,2559.69 1413.38,2563.06C1413.53,2566.44 1416.12,2569.29 1419.61,2569.29Z" style="fill:rgb(63,38,18);fill-rule:nonzero;"/>
        <path d="M1242.37,2488.93C1248.32,2483.26 1255.48,2478.65 1263.48,2476.81C1271.49,2474.98 1280.38,2476.16 1286.98,2481.04C1293.59,2485.92 1297.4,2494.74 1295.33,2502.69C1293.72,2508.91 1288.86,2513.91 1283.23,2516.99C1277.6,2520.08 1271.21,2521.48 1264.88,2522.55" style="fill:rgb(238,42,53);fill-rule:nonzero;"/>
        <path d="M1264.88,2524.63C1263.88,2524.63 1263,2523.91 1262.83,2522.9C1262.64,2521.77 1263.4,2520.69 1264.53,2520.5C1270.52,2519.49 1276.8,2518.14 1282.23,2515.17C1287.95,2512.04 1291.99,2507.3 1293.32,2502.17C1295.1,2495.32 1291.98,2487.32 1285.75,2482.71C1280.01,2478.47 1271.86,2477.02 1263.95,2478.84C1256.97,2480.44 1250.2,2484.34 1243.81,2490.43C1242.98,2491.23 1241.66,2491.19 1240.87,2490.36C1240.08,2489.53 1240.11,2488.22 1240.94,2487.42C1247.87,2480.81 1255.3,2476.56 1263.02,2474.79C1272.1,2472.7 1281.52,2474.41 1288.22,2479.37C1295.79,2484.96 1299.54,2494.77 1297.35,2503.22C1295.73,2509.45 1290.95,2515.14 1284.23,2518.82C1278.26,2522.08 1271.57,2523.53 1265.23,2524.6C1265.11,2524.62 1264.99,2524.63 1264.88,2524.63Z" style="fill:rgb(63,38,18);fill-rule:nonzero;"/>
        <path d="M611.39,2631.02C610.286,2631.02 609.172,2630.95 608.079,2630.8C602.885,2630.13 598.073,2627.92 594.164,2624.41C589.04,2619.81 586.016,2613.48 585.648,2606.61C585.281,2599.73 587.613,2593.12 592.217,2587.99C618.899,2558.3 649.395,2532.85 682.857,2512.35C728.993,2484.09 780.448,2465.37 835.79,2456.72C858.916,2453.1 882.701,2451.26 906.484,2451.26C918.97,2451.26 931.644,2451.77 944.153,2452.77C958.326,2453.92 968.932,2466.38 967.796,2480.54C966.729,2493.84 955.45,2504.27 942.118,2504.27C941.427,2504.27 940.724,2504.24 940.031,2504.18C928.802,2503.28 917.412,2502.83 906.18,2502.83C833.828,2502.83 767.755,2520.83 709.795,2556.33C680.584,2574.22 653.932,2596.47 630.58,2622.46C625.696,2627.9 618.702,2631.02 611.39,2631.02Z" style="fill:rgb(238,42,53);fill-rule:nonzero;"/>
        <path d="M906.482,2449.18C882.593,2449.18 858.7,2451.03 835.469,2454.66C779.854,2463.36 728.142,2482.17 681.77,2510.58C648.137,2531.18 617.486,2556.76 590.67,2586.6C585.695,2592.14 583.174,2599.28 583.572,2606.72C583.969,2614.15 587.237,2620.98 592.774,2625.96C596.998,2629.75 602.199,2632.14 607.813,2632.87C608.994,2633.02 610.198,2633.1 611.39,2633.1C619.291,2633.1 626.85,2629.73 632.127,2623.85C655.344,2598.01 681.841,2575.89 710.882,2558.1C768.509,2522.8 834.218,2504.91 906.181,2504.91C917.358,2504.91 928.691,2505.36 939.865,2506.26C940.613,2506.32 941.371,2506.35 942.118,2506.35C949.102,2506.35 955.789,2503.74 960.949,2499C966.138,2494.23 969.305,2487.73 969.869,2480.71C971.096,2465.4 959.636,2451.94 944.322,2450.7C931.755,2449.69 919.025,2449.18 906.482,2449.18ZM906.482,2453.34C918.954,2453.34 931.466,2453.84 943.987,2454.85C957.052,2455.91 966.77,2467.32 965.723,2480.37C964.728,2492.78 954.351,2502.19 942.118,2502.19C941.482,2502.19 940.842,2502.16 940.197,2502.11C929.721,2501.27 918.319,2500.75 906.181,2500.75C850.145,2500.75 778.347,2511.9 708.709,2554.56C679.326,2572.55 652.519,2594.93 629.033,2621.07C624.352,2626.28 617.883,2628.94 611.39,2628.94C610.373,2628.94 609.357,2628.87 608.345,2628.74C603.742,2628.15 599.267,2626.2 595.554,2622.86C585.814,2614.11 585.013,2599.12 593.764,2589.38C620.312,2559.84 650.653,2534.52 683.943,2514.12C729.845,2486.01 781.042,2467.38 836.111,2458.77C859.215,2455.16 882.769,2453.34 906.482,2453.34Z" style="fill:rgb(63,38,18);fill-rule:nonzero;"/>
        <path d="M651.634,2595.85C643.687,2584.86 633.549,2575.46 621.99,2568.37C613.259,2563.01 603.058,2558.87 592.957,2560.57C584.234,2562.04 576.416,2568.09 572.794,2576.16C569.172,2584.23 569.855,2594.09 574.554,2601.58L573.668,2601.43C595.2,2611.49 614.718,2625.84 630.744,2643.39C631.832,2644.58 633.052,2645.87 634.654,2646.05C636.315,2646.24 637.833,2645.18 639.168,2644.17C643.932,2640.58 648.739,2636.96 652.596,2632.41C656.452,2627.86 659.332,2622.24 659.551,2616.28C659.824,2608.84 655.996,2601.88 651.634,2595.85Z" style="fill:white;fill-rule:nonzero;"/>
        <path d="M576.233,2600.34C597.236,2610.43 616.584,2624.8 632.28,2641.99C633.226,2643.03 634.076,2643.89 634.888,2643.98C635.748,2644.09 636.858,2643.31 637.917,2642.51C642.522,2639.04 647.283,2635.46 651.01,2631.06C653.831,2627.73 657.243,2622.45 657.473,2616.21C657.746,2608.75 653.31,2601.71 649.949,2597.07C642.207,2586.36 632.163,2577.05 620.902,2570.14C610.436,2563.72 601.41,2561.26 593.303,2562.62C585.313,2563.97 578.008,2569.62 574.691,2577.01C571.395,2584.35 572.004,2593.49 576.233,2600.34ZM635.039,2648.15C634.836,2648.15 634.629,2648.14 634.42,2648.12C631.99,2647.84 630.316,2646.01 629.209,2644.79C613.459,2627.55 593.949,2613.2 572.787,2603.31C571.844,2602.87 571.372,2601.8 571.684,2600.81C571.687,2600.79 571.691,2600.78 571.695,2600.77C567.609,2592.95 567.269,2583.39 570.897,2575.31C574.826,2566.55 583.146,2560.12 592.611,2558.52C601.752,2556.98 611.717,2559.62 623.078,2566.59C634.801,2573.79 645.259,2583.48 653.319,2594.63C657.04,2599.78 661.949,2607.63 661.629,2616.36C661.356,2623.79 657.429,2629.92 654.182,2633.75C650.156,2638.5 645.206,2642.23 640.419,2645.83C639.244,2646.72 637.343,2648.15 635.039,2648.15Z" style="fill:rgb(63,38,18);fill-rule:nonzero;"/>
        <path d="M626.065,2625.84C619.276,2614.17 602.248,2603.15 589.552,2596.13C572.957,2586.96 552.866,2586.07 535.817,2594.37C535.302,2594.62 534.791,2594.88 534.284,2595.14C522.103,2601.48 511.999,2611.73 505.84,2624C503.437,2628.79 501.593,2634.08 502.133,2639.41C502.673,2644.74 506.108,2650.04 511.284,2651.42C503.846,2656.4 499.931,2666.12 501.849,2674.87C503.767,2683.61 511.394,2690.8 520.232,2692.21C518.771,2699.09 521.336,2706.68 526.673,2711.27C532.01,2715.86 539.898,2717.25 546.484,2714.77C550.619,2723.04 560.857,2727.73 569.821,2725.46C578.786,2723.19 585.554,2714.19 585.249,2704.95C590.168,2712.91 601.584,2715 610.219,2711.39C618.855,2707.79 624.949,2699.79 628.928,2691.32C638.591,2670.76 637.485,2645.48 626.065,2625.84Z" style="fill:white;fill-rule:nonzero;"/>
        <path d="M546.484,2712.69C547.252,2712.69 547.983,2713.12 548.345,2713.84C552.055,2721.27 561.263,2725.48 569.31,2723.45C577.356,2721.41 583.444,2713.31 583.17,2705.02C583.139,2704.07 583.746,2703.23 584.648,2702.96C585.551,2702.68 586.523,2703.05 587.018,2703.85C591.559,2711.2 602.181,2712.49 609.419,2709.47C618.348,2705.74 623.933,2697.07 627.046,2690.44C636.466,2670.39 635.399,2646.04 624.267,2626.89C617.757,2615.69 601.249,2604.97 588.546,2597.95C572.323,2588.98 552.952,2588.34 536.727,2596.24C536.229,2596.48 535.734,2596.73 535.244,2596.98C523.445,2603.12 513.663,2613.05 507.698,2624.93C504.893,2630.52 503.782,2635.05 504.202,2639.2C504.704,2644.15 507.836,2648.35 511.817,2649.41C512.607,2649.62 513.201,2650.27 513.335,2651.08C513.469,2651.88 513.119,2652.69 512.44,2653.15C505.757,2657.62 502.157,2666.57 503.88,2674.42C505.603,2682.28 512.617,2688.89 520.559,2690.16C521.122,2690.25 521.624,2690.56 521.947,2691.03C522.268,2691.5 522.385,2692.08 522.267,2692.64C520.968,2698.76 523.283,2705.61 528.028,2709.69C532.774,2713.77 539.897,2715.03 545.752,2712.83C545.992,2712.74 546.24,2712.69 546.484,2712.69ZM565.217,2728.11C557.422,2728.11 549.604,2723.93 545.504,2717.28C538.564,2719.23 530.816,2717.57 525.317,2712.85C519.893,2708.19 517.091,2700.91 517.867,2693.84C509.049,2691.61 501.777,2684.24 499.818,2675.31C497.967,2666.87 501.007,2657.72 507.311,2651.91C503.409,2649.44 500.592,2644.83 500.064,2639.62C499.561,2634.65 500.806,2629.39 503.981,2623.07C510.336,2610.41 520.755,2599.83 533.324,2593.3C533.848,2593.02 534.376,2592.76 534.907,2592.5C552.348,2584.01 573.152,2584.69 590.558,2594.31C603.719,2601.58 620.875,2612.78 627.862,2624.8C639.673,2645.11 640.803,2670.94 630.811,2692.21C627.387,2699.5 621.174,2709.07 611.021,2713.31C603.494,2716.45 593.343,2715.79 586.843,2710.03C585.042,2718.23 578.512,2725.4 570.332,2727.48C568.655,2727.9 566.937,2728.11 565.217,2728.11Z" style="fill:rgb(63,38,18);fill-rule:nonzero;"/>
    </g>
</svg>
