<?xml version="1.0" encoding="UTF-8" standalone="no"?>
<!DOCTYPE svg PUBLIC "-//W3C//DTD SVG 1.1//EN" "http://www.w3.org/Graphics/SVG/1.1/DTD/svg11.dtd">
<svg width="100%" height="100%" viewBox="0 0 845 1369" version="1.1" xmlns="http://www.w3.org/2000/svg" xmlns:xlink="http://www.w3.org/1999/xlink" xml:space="preserve" xmlns:serif="http://www.serif.com/" style="fill-rule:evenodd;clip-rule:evenodd;stroke-linejoin:round;stroke-miterlimit:2;">
    <g transform="matrix(1,0,0,1,-3766.09,-1808.28)">
        <path d="M3995.51,2965.75L3956.6,3046.77L3966.45,3070.84L4001.73,3071.65L4018.24,3014.02L4016.66,2973.75L3995.51,2965.75Z" style="fill:white;fill-rule:nonzero;"/>
        <path d="M3990.1,2974.87C3961.91,3007.13 3942.49,3048.07 3934.93,3091.21C3933.93,3096.88 3933.15,3102.77 3934.49,3108.3C3936.61,3117.02 3943.55,3123.21 3950.39,3128.37C3993.45,3160.84 4065.74,3178.86 4118.67,3173.02C4142.89,3170.34 4161.26,3151.04 4166.03,3125.41C4180.94,3045.41 4100.5,3007.43 4069.05,3010.07C4037.6,3012.72 4017.34,3029.2 3993.72,3052.06" style="fill:white;fill-rule:nonzero;"/>
        <path d="M4097.91,3176.28C4076.67,3176.28 4053.33,3173.17 4030.28,3167.16C3998.7,3158.94 3969.86,3145.77 3949.08,3130.1C3942.1,3124.83 3934.66,3118.19 3932.38,3108.82C3930.91,3102.76 3931.82,3096.36 3932.79,3090.84C3940.39,3047.53 3960.16,3005.84 3988.46,2973.44C3989.25,2972.54 3990.62,2972.45 3991.52,2973.23C3992.43,2974.02 3992.52,2975.39 3991.73,2976.3C3963.94,3008.1 3944.53,3049.05 3937.07,3091.59C3936.17,3096.68 3935.33,3102.55 3936.6,3107.79C3938.55,3115.81 3945.01,3121.59 3951.7,3126.63C3987.92,3153.96 4047.52,3171.94 4097.89,3171.94C4104.95,3171.94 4111.82,3171.59 4118.43,3170.86C4141.33,3168.33 4159.18,3150.33 4163.9,3125.01C4170.82,3087.86 4156.17,3062.27 4142.67,3047.33C4121.24,3023.64 4087.87,3010.67 4069.23,3012.24C4037.59,3014.9 4017,3032.55 3995.23,3053.62C3994.37,3054.45 3992.99,3054.43 3992.16,3053.57C3991.33,3052.71 3991.35,3051.33 3992.21,3050.5C4014.59,3028.84 4035.8,3010.69 4068.87,3007.91C4088.97,3006.22 4123.27,3019.42 4145.88,3044.42C4160.05,3060.08 4175.41,3086.91 4168.17,3125.8C4163.09,3153.05 4143.75,3172.43 4118.91,3175.17C4112.22,3175.91 4105.19,3176.28 4097.91,3176.28Z" style="fill:rgb(63,38,18);fill-rule:nonzero;"/>
        <path d="M4088.6,2985.28C4086.52,2979.07 4082.48,2973.73 4077.35,2969.67C4049.05,2947.24 3986.33,2944.56 3974.46,2974.83C3973.43,2977.46 3973.13,2980.28 3973.69,2983.08C3982.53,3027.34 4104.29,3032.1 4088.6,2985.28Z" style="fill:white;fill-rule:nonzero;"/>
        <path d="M4021.41,2954.61C4014.15,2954.61 4007.08,2955.43 4000.66,2957.16C3992.02,2959.49 3980.81,2964.58 3976.48,2975.63C3975.58,2977.91 3975.35,2980.34 3975.82,2982.66C3978.32,2995.18 3991.4,3005.76 4011.7,3011.7C4039.51,3019.83 4071.53,3016.69 4083.07,3004.68C4087.87,2999.7 4089.03,2993.4 4086.54,2985.97C4084.68,2980.4 4081.03,2975.36 4076,2971.37C4062.65,2960.79 4041.31,2954.61 4021.41,2954.61ZM4043.89,3020.54C4032.54,3020.54 4020.78,3018.88 4010.48,3015.87C3988.57,3009.46 3974.39,2997.67 3971.56,2983.51C3970.93,2980.37 3971.24,2977.1 3972.44,2974.04C3976.39,2963.97 3985.76,2956.68 3999.53,2952.97C4024.74,2946.17 4059.51,2952.76 4078.7,2967.97C4084.39,2972.48 4088.52,2978.23 4090.66,2984.59C4093.66,2993.55 4092.12,3001.54 4086.2,3007.69C4077.59,3016.65 4061.23,3020.54 4043.89,3020.54Z" style="fill:rgb(63,38,18);fill-rule:nonzero;"/>
        <path d="M4036.57,2993.68C4034.96,2993.68 4033.32,2993.56 4031.72,2993.32C4030.97,2993.21 4030.22,2993.08 4029.49,2992.92C4011.72,2989.03 4000.42,2971.41 4004.31,2953.63L4083.51,2591.46C4086.8,2576.42 4100.34,2565.51 4115.72,2565.51C4118.08,2565.51 4120.46,2565.77 4122.79,2566.28C4140.57,2570.16 4151.87,2587.79 4147.98,2605.56L4068.78,2967.73C4065.49,2982.77 4051.94,2993.68 4036.57,2993.68Z" style="fill:rgb(0,123,43);fill-rule:nonzero;"/>
        <path d="M4115.72,2563.34C4107.82,2563.34 4100.05,2566.06 4093.84,2571C4087.53,2576.02 4083.11,2583.12 4081.39,2591L4002.19,2953.17C4000.18,2962.34 4001.87,2971.75 4006.94,2979.66C4012.01,2987.57 4019.85,2993.03 4029.03,2995.04C4029.8,2995.21 4030.6,2995.35 4031.4,2995.47C4033.11,2995.73 4034.85,2995.86 4036.57,2995.86C4044.47,2995.86 4052.24,2993.13 4058.45,2988.19C4064.75,2983.18 4069.17,2976.08 4070.9,2968.19L4150.1,2606.03C4154.24,2587.08 4142.2,2568.3 4123.26,2564.16C4120.77,2563.61 4118.24,2563.34 4115.72,2563.34ZM4115.72,2567.68C4117.9,2567.68 4120.11,2567.91 4122.33,2568.4C4138.96,2572.03 4149.5,2588.47 4145.86,2605.1L4066.66,2967.27C4063.51,2981.68 4050.74,2991.51 4036.57,2991.51C4035.07,2991.51 4033.56,2991.4 4032.04,2991.18C4031.34,2991.07 4030.65,2990.95 4029.96,2990.8C4013.32,2987.16 4002.79,2970.73 4006.43,2954.09L4085.63,2591.93C4088.78,2577.51 4101.55,2567.68 4115.72,2567.68Z" style="fill:rgb(63,38,18);fill-rule:nonzero;"/>
        <path d="M4388.07,2965.54L4427.67,3046.21L4418.04,3070.36L4382.76,3071.48L4365.76,3014L4366.98,2973.71L4388.07,2965.54Z" style="fill:white;fill-rule:nonzero;"/>
        <path d="M4393.56,2974.6C4422.03,3006.62 4441.79,3047.39 4449.73,3090.47C4450.77,3096.12 4451.61,3102.01 4450.31,3107.55C4448.27,3116.28 4441.38,3122.53 4434.59,3127.75C4391.81,3160.6 4319.68,3179.24 4266.7,3173.85C4242.46,3171.39 4223.93,3152.24 4218.93,3126.66C4203.33,3046.79 4283.44,3008.12 4314.91,3010.49C4346.38,3012.86 4366.78,3029.17 4390.6,3051.82" style="fill:white;fill-rule:nonzero;"/>
        <path d="M4285.63,3176.94C4279.01,3176.94 4272.6,3176.64 4266.48,3176.01C4241.61,3173.48 4222.11,3154.27 4216.8,3127.07C4209.22,3088.24 4224.35,3061.28 4238.37,3045.5C4260.77,3020.3 4294.96,3006.82 4315.07,3008.32C4348.16,3010.82 4369.53,3028.79 4392.1,3050.25C4392.96,3051.08 4393,3052.45 4392.17,3053.32C4391.35,3054.19 4389.97,3054.22 4389.1,3053.4C4367.15,3032.52 4346.41,3015.04 4314.75,3012.65C4296.11,3011.26 4262.84,3024.51 4241.62,3048.38C4228.24,3063.43 4213.82,3089.16 4221.06,3126.24C4226,3151.52 4244,3169.36 4266.92,3171.69C4272.96,3172.31 4279.23,3172.61 4285.66,3172.61C4336.41,3172.61 4396.85,3154 4433.26,3126.03C4439.91,3120.93 4446.32,3115.1 4448.2,3107.06C4449.43,3101.81 4448.53,3095.94 4447.59,3090.86C4439.77,3048.38 4420,3007.61 4391.94,2976.05C4391.14,2975.15 4391.22,2973.78 4392.12,2972.98C4393.01,2972.19 4394.38,2972.27 4395.18,2973.16C4423.76,3005.31 4443.89,3046.83 4451.86,3090.07C4452.88,3095.59 4453.85,3101.98 4452.43,3108.05C4450.23,3117.44 4442.85,3124.15 4435.91,3129.47C4415.26,3145.33 4386.54,3158.74 4355.04,3167.24C4331.37,3173.62 4307.36,3176.94 4285.63,3176.94Z" style="fill:rgb(63,38,18);fill-rule:nonzero;"/>
        <path d="M4295.15,2985.86C4297.17,2979.64 4301.17,2974.27 4306.26,2970.16C4334.36,2947.49 4397.06,2944.26 4409.2,2974.43C4410.25,2977.05 4410.57,2979.87 4410.04,2982.67C4401.58,3027.01 4279.87,3032.82 4295.15,2985.86Z" style="fill:white;fill-rule:nonzero;"/>
        <path d="M4297.21,2986.53C4294.78,2993.99 4296.01,3000.28 4300.84,3005.22C4312.49,3017.12 4344.53,3019.99 4372.27,3011.62C4392.52,3005.51 4405.51,2994.81 4407.9,2982.27C4408.35,2979.94 4408.1,2977.51 4407.18,2975.24C4402.76,2964.24 4391.5,2959.24 4382.84,2956.98C4358.76,2950.72 4325.72,2957.24 4307.62,2971.85C4302.63,2975.88 4299.03,2980.96 4297.21,2986.53ZM4339.17,3020.75C4322.19,3020.75 4306.26,3016.97 4297.74,3008.26C4291.77,3002.16 4290.16,2994.18 4293.09,2985.19C4295.16,2978.81 4299.25,2973.03 4304.9,2968.47C4323.95,2953.1 4358.67,2946.21 4383.93,2952.78C4397.74,2956.38 4407.17,2963.58 4411.21,2973.62C4412.44,2976.67 4412.77,2979.94 4412.17,2983.08C4409.46,2997.26 4395.38,3009.18 4373.53,3015.78C4362.96,3018.97 4350.82,3020.75 4339.17,3020.75Z" style="fill:rgb(63,38,18);fill-rule:nonzero;"/>
        <path d="M4344.97,2995.87C4329.48,2995.87 4316.26,2985.31 4312.82,2970.2L4230.49,2608.73C4226.45,2590.99 4237.6,2573.27 4255.34,2569.23C4257.76,2568.67 4260.23,2568.39 4262.69,2568.39C4278.18,2568.39 4291.4,2578.95 4294.84,2594.07L4377.17,2955.54C4381.21,2973.28 4370.06,2991 4352.32,2995.04C4351.6,2995.21 4350.85,2995.35 4350.1,2995.47C4348.4,2995.74 4346.68,2995.87 4344.97,2995.87Z" style="fill:rgb(0,123,43);fill-rule:nonzero;"/>
        <path d="M4262.69,2566.22C4260.07,2566.22 4257.43,2566.52 4254.86,2567.11C4235.95,2571.42 4224.07,2590.3 4228.38,2609.21L4310.71,2970.68C4312.49,2978.5 4316.93,2985.53 4323.21,2990.48C4329.4,2995.36 4337.13,2998.04 4344.97,2998.04C4346.79,2998.04 4348.63,2997.9 4350.44,2997.61C4351.24,2997.49 4352.03,2997.34 4352.81,2997.16C4361.96,2995.07 4369.76,2989.55 4374.76,2981.59C4379.77,2973.64 4381.37,2964.22 4379.29,2955.06L4296.96,2593.59C4295.18,2585.78 4290.73,2578.74 4284.45,2573.79C4278.26,2568.91 4270.53,2566.22 4262.69,2566.22ZM4262.69,2570.57C4276.75,2570.57 4289.47,2580.26 4292.72,2594.55L4375.05,2956.02C4378.83,2972.62 4368.44,2989.15 4351.84,2992.93C4351.15,2993.09 4350.46,2993.22 4349.76,2993.33C4348.16,2993.58 4346.55,2993.7 4344.97,2993.7C4330.9,2993.7 4318.19,2984.01 4314.94,2969.72L4232.61,2608.25C4228.83,2591.65 4239.22,2575.12 4255.82,2571.34C4258.13,2570.82 4260.42,2570.57 4262.69,2570.57Z" style="fill:rgb(63,38,18);fill-rule:nonzero;"/>
        <path d="M4001.69,2485.91C3998.08,2485.91 3994.53,2485.28 3991.13,2484.04C3927.36,2460.73 3881.65,2419.34 3858.94,2364.33C3837.67,2312.83 3838.84,2251.97 3862.23,2192.95C3885.27,2134.84 3923.99,2088.44 3952.41,2059.75C3989.04,2022.78 4021.97,2002.7 4025.6,2000.53C4035.82,1994.44 4043.38,1991.47 4048.7,1991.47C4055.45,1991.47 4057.82,1996.08 4061.44,2004.24C4062.55,2006.74 4063.7,2009.32 4065.13,2011.84C4066.31,2013.91 4067.47,2015.7 4068.49,2017.27C4071.72,2022.24 4073.09,2024.59 4071.78,2028.18C4070.18,2032.57 4064.69,2038.71 4052.82,2049.37C4051.7,2050.38 4049.41,2052.16 4046.25,2054.62C4022.37,2073.18 3949.72,2129.67 3917,2212.22C3897.57,2261.25 3896.69,2308.13 3914.48,2347.81C3931.71,2386.25 3965.53,2415.6 4012.27,2432.69C4019.76,2435.42 4025.59,2440.78 4028.69,2447.78C4031.59,2454.34 4031.69,2461.61 4028.98,2468.25C4025.3,2477.28 4017.06,2483.72 4006.94,2485.46C4005.21,2485.76 4003.45,2485.91 4001.69,2485.91Z" style="fill:rgb(238,42,53);fill-rule:nonzero;"/>
        <path d="M4048.7,1989.3C4043.34,1989.3 4035.77,1991.94 4024.49,1998.67C4013.54,2005.2 3983.03,2025.76 3950.87,2058.22C3922.3,2087.05 3883.39,2133.69 3860.22,2192.15C3836.61,2251.69 3835.45,2313.14 3856.93,2365.16C3879.89,2420.74 3926.03,2462.55 3990.38,2486.08C3994.1,2487.44 3997.93,2488.08 4001.69,2488.08C4003.59,2488.08 4005.47,2487.92 4007.31,2487.6C4017.71,2485.81 4026.9,2479.08 4030.99,2469.07C4037.24,2453.76 4029.2,2436.56 4013.02,2430.65C3917.37,2395.68 3880.48,2310.26 3919.02,2213.02C3955.94,2119.87 4044.44,2059.83 4054.27,2050.99C4082.68,2025.46 4075.22,2025.21 4067.02,2010.77C4061.45,2000.97 4059.98,1989.3 4048.7,1989.3ZM4048.7,1989.3L4048.7,1993.64C4053.88,1993.64 4055.76,1996.79 4059.46,2005.12C4060.59,2007.67 4061.76,2010.3 4063.24,2012.91C4064.45,2015.04 4065.63,2016.85 4066.67,2018.45C4069.97,2023.52 4070.65,2024.96 4069.74,2027.44C4068.29,2031.41 4062.8,2037.49 4051.37,2047.76C4050.31,2048.71 4047.93,2050.56 4044.92,2052.9C4020.93,2071.56 3947.92,2128.32 3914.98,2211.42C3895.33,2261.01 3894.47,2308.48 3912.5,2348.69C3929.98,2387.68 3964.22,2417.43 4011.53,2434.72C4018.46,2437.26 4023.85,2442.21 4026.7,2448.65C4029.36,2454.67 4029.46,2461.34 4026.97,2467.43C4023.57,2475.76 4015.95,2481.71 4006.57,2483.32C4004.97,2483.6 4003.32,2483.74 4001.69,2483.74C3998.34,2483.74 3995.03,2483.16 3991.87,2482C3928.7,2458.91 3883.42,2417.93 3860.95,2363.51C3839.89,2312.53 3841.07,2252.24 3864.25,2193.75C3887.15,2135.98 3925.67,2089.82 3953.95,2061.28C3990.4,2024.49 4023.1,2004.55 4026.71,2002.4C4036.45,1996.59 4043.85,1993.64 4048.7,1993.64L4048.7,1989.3Z" style="fill:rgb(63,38,18);fill-rule:nonzero;"/>
        <path d="M4372.54,2500.59C4370.32,2500.59 4368.1,2500.35 4365.94,2499.88C4355.93,2497.68 4348.03,2490.89 4344.8,2481.71C4342.42,2474.97 4342.89,2467.73 4346.09,2461.31C4349.53,2454.44 4355.63,2449.33 4363.27,2446.92C4410.9,2431.91 4446.18,2404.03 4465.28,2366.3C4484.92,2327.51 4486.35,2280.71 4469.42,2230.97C4449.88,2173.56 4408.44,2118.05 4346.27,2065.98C4344.18,2064.22 4342.66,2062.95 4341.79,2062.16C4327.46,2049.11 4321.3,2041.84 4321.18,2037.84C4321.13,2035.89 4322.51,2034.4 4325.15,2031.71C4327.02,2029.8 4329.36,2027.43 4331.42,2024.18C4337.18,2015.11 4343.11,2005.74 4352.59,2005.74C4357.9,2005.74 4364.2,2008.7 4371.32,2014.52C4373.11,2015.98 4375.49,2017.81 4378.51,2020.12C4391.88,2030.37 4416.76,2049.44 4441.66,2077.07C4468.62,2107 4504.98,2155.07 4525.09,2214.14C4545.51,2274.13 4543.64,2334.98 4519.83,2385.48C4494.4,2439.41 4446.67,2478.72 4381.81,2499.16C4378.8,2500.11 4375.68,2500.59 4372.54,2500.59Z" style="fill:rgb(238,42,53);fill-rule:nonzero;"/>
        <path d="M4352.59,2003.57C4341.91,2003.58 4335.51,2013.69 4329.59,2023.01C4320.67,2037.08 4306.78,2033.23 4340.33,2063.77C4350.06,2072.62 4435.12,2136.94 4467.36,2231.67C4501.01,2330.51 4459.9,2414.19 4362.62,2444.85C4346.16,2450.04 4337.27,2466.86 4342.75,2482.43C4346.33,2492.62 4355.18,2499.74 4365.48,2502C4367.77,2502.5 4370.14,2502.76 4372.54,2502.76C4375.83,2502.76 4379.17,2502.27 4382.46,2501.23C4447.91,2480.61 4496.09,2440.9 4521.79,2386.41C4545.85,2335.4 4547.75,2273.97 4527.14,2213.44C4506.91,2154.02 4470.36,2105.69 4443.27,2075.62C4412.76,2041.75 4382.49,2020.85 4372.7,2012.84C4364.56,2006.19 4358.03,2003.57 4352.59,2003.57ZM4352.6,2003.57L4352.6,2007.92C4357.39,2007.92 4363.23,2010.7 4369.95,2016.2C4371.76,2017.68 4374.16,2019.52 4377.2,2021.85C4390.5,2032.05 4415.28,2051.04 4440.04,2078.52C4466.87,2108.3 4503.04,2156.11 4523.03,2214.84C4543.27,2274.3 4541.44,2334.57 4517.87,2384.56C4492.7,2437.92 4445.42,2476.84 4381.16,2497.09C4378.36,2497.98 4375.46,2498.42 4372.54,2498.42C4370.48,2498.42 4368.42,2498.2 4366.41,2497.76C4357.14,2495.72 4349.82,2489.46 4346.84,2480.99C4344.67,2474.81 4345.09,2468.17 4348.04,2462.28C4351.2,2455.94 4356.85,2451.22 4363.92,2448.99C4412.13,2433.8 4447.85,2405.54 4467.22,2367.28C4487.13,2327.96 4488.6,2280.58 4471.47,2230.27C4451.8,2172.48 4410.15,2116.64 4347.67,2064.32C4345.67,2062.64 4344.09,2061.32 4343.25,2060.56C4338.36,2056.11 4323.49,2042.56 4323.35,2037.78C4323.32,2036.72 4324.54,2035.42 4326.7,2033.23C4328.64,2031.25 4331.07,2028.79 4333.27,2025.32C4338.69,2016.76 4344.31,2007.92 4352.6,2007.92L4352.6,2003.57Z" style="fill:rgb(63,38,18);fill-rule:nonzero;"/>
        <path d="M4188.39,2759.4C3987.32,2759.4 3840.24,2672.7 3770.46,2621.01L3768.92,2619.87L3796.04,2571.57L4188.24,1872.85L4190.14,1876.23C4307.35,2085.05 4424.57,2293.88 4541.79,2502.71L4607.56,2619.87L4606.02,2621.01C4545.16,2666.13 4474.27,2702.44 4401.01,2725.99C4391.7,2728.98 4382.14,2731.83 4372.59,2734.46C4317.58,2749.63 4260.81,2757.96 4203.86,2759.23C4198.72,2759.34 4193.52,2759.4 4188.39,2759.4Z" style="fill:rgb(238,42,53);fill-rule:nonzero;"/>
        <path d="M4188.24,1868.42L4184.46,1875.16L3832.27,2502.59L3794.15,2570.51L3767.97,2617.14L3766.09,2620.48L3769.17,2622.76C3813.15,2655.33 3861.87,2683.07 3913.99,2705.21C4002.05,2742.61 4094.36,2761.57 4188.38,2761.57C4193.53,2761.57 4198.75,2761.51 4203.9,2761.4C4261.03,2760.12 4317.98,2751.77 4373.17,2736.56C4382.73,2733.92 4392.32,2731.06 4401.67,2728.06C4475.15,2704.43 4546.26,2668.02 4607.31,2622.76L4610.38,2620.48L4608.51,2617.14L4593.38,2590.17L4577.25,2561.44L4560.21,2531.09L4543.68,2501.65L4524.14,2466.84C4413.44,2269.61 4302.73,2072.38 4192.03,1875.16L4188.24,1868.42ZM4188.24,1877.29C4305.46,2086.11 4422.68,2294.94 4539.9,2503.77C4551.09,2523.71 4562.27,2543.63 4573.46,2563.57C4583.88,2582.13 4594.31,2600.7 4604.73,2619.27C4572.84,2642.91 4502.05,2691.22 4400.34,2723.92C4391.16,2726.88 4381.71,2729.7 4372.01,2732.37C4322.19,2746.1 4265.86,2755.68 4203.81,2757.06C4198.63,2757.17 4193.49,2757.23 4188.38,2757.23C3970.03,2757.23 3818.43,2653.84 3771.75,2619.27L3797.94,2572.63L3836.06,2504.72L4188.24,1877.29Z" style="fill:rgb(63,38,18);fill-rule:nonzero;"/>
        <path d="M4188.39,2759.4C3987.32,2759.4 3840.24,2672.7 3770.46,2621.01L3768.92,2619.87L3835.23,2501.75L3837.13,2502.83C3910.59,2544.56 4029.56,2594.66 4179.21,2596.4C4181.94,2596.43 4184.65,2596.45 4187.36,2596.45C4340.7,2596.45 4463.12,2545.02 4538.82,2501.89L4540.72,2500.8L4607.56,2619.87L4606.02,2621.01C4545.16,2666.13 4474.27,2702.44 4401.01,2725.99L4372.63,2734.45C4317.58,2749.63 4260.81,2757.96 4203.86,2759.23C4198.72,2759.34 4193.52,2759.4 4188.39,2759.4Z" style="fill:rgb(0,198,69);fill-rule:nonzero;"/>
        <path d="M4541.54,2497.84L4537.75,2500C4462.28,2543.01 4340.22,2594.28 4187.35,2594.28C4184.67,2594.28 4181.93,2594.26 4179.24,2594.23C4030.05,2592.5 3911.44,2542.55 3838.2,2500.94L3834.41,2498.79L3832.27,2502.59L3767.97,2617.14L3766.09,2620.48L3769.17,2622.76C3813.15,2655.33 3861.87,2683.07 3913.99,2705.21C4002.05,2742.61 4094.36,2761.57 4188.38,2761.57C4193.53,2761.57 4198.75,2761.51 4203.9,2761.4C4261.03,2760.12 4317.98,2751.77 4373.17,2736.56L4373.21,2736.54L4373.25,2736.53L4401.58,2728.08L4401.63,2728.07L4401.67,2728.06C4475.15,2704.43 4546.26,2668.02 4607.31,2622.76L4610.38,2620.48L4608.51,2617.14L4568.99,2546.74L4543.68,2501.65L4541.54,2497.84ZM4539.9,2503.77C4561.51,2542.27 4583.12,2580.77 4604.73,2619.27C4572.84,2642.91 4502.05,2691.22 4400.34,2723.92L4372.01,2732.37C4322.19,2746.1 4265.86,2755.68 4203.81,2757.06C4198.63,2757.17 4193.49,2757.23 4188.38,2757.23C3970.03,2757.23 3818.43,2653.84 3771.75,2619.27L3836.06,2504.72C3913.02,2548.44 4030.68,2596.85 4179.19,2598.57C4181.92,2598.6 4184.64,2598.62 4187.35,2598.62C4213.47,2598.62 4238.69,2597.16 4262.95,2594.51C4378.55,2581.87 4472.62,2542.11 4539.9,2503.77Z" style="fill:rgb(63,38,18);fill-rule:nonzero;"/>
        <path d="M4188.39,2759.4C3987.32,2759.4 3840.24,2672.7 3770.46,2621.01L3768.92,2619.87L3802.25,2560.51L3804.19,2561.73C3879.68,2609.49 3999.94,2672.97 4171.87,2672.97C4174.8,2672.97 4177.73,2672.95 4180.69,2672.92C4392.46,2670.25 4533.95,2587.16 4572.26,2561.76L4574.21,2560.47L4607.56,2619.87L4606.02,2621.01C4545.16,2666.13 4474.27,2702.44 4401.01,2725.99C4391.7,2728.98 4382.14,2731.83 4372.59,2734.46C4317.58,2749.63 4260.81,2757.96 4203.86,2759.23C4198.72,2759.34 4193.52,2759.4 4188.39,2759.4Z" style="fill:rgb(0,151,54);fill-rule:nonzero;"/>
        <path d="M4574.96,2557.37L4571.06,2559.95C4532.87,2585.27 4391.84,2668.09 4180.66,2670.75C4177.73,2670.78 4174.78,2670.8 4171.87,2670.8C4000.5,2670.8 3880.61,2607.51 3805.35,2559.9L3801.48,2557.45L3799.24,2561.44L3767.97,2617.14L3766.09,2620.48L3769.17,2622.76C3813.15,2655.33 3861.88,2683.07 3913.99,2705.21C4002.05,2742.61 4094.36,2761.57 4188.38,2761.57C4193.53,2761.57 4198.75,2761.51 4203.9,2761.4C4261.03,2760.12 4317.98,2751.77 4373.17,2736.56C4382.73,2733.92 4392.33,2731.06 4401.67,2728.06C4475.15,2704.43 4546.26,2668.02 4607.31,2622.76L4610.38,2620.48L4608.51,2617.14L4593.34,2590.11L4577.25,2561.44L4574.96,2557.37ZM4573.46,2563.57C4583.88,2582.13 4594.31,2600.7 4604.73,2619.27C4572.84,2642.91 4502.05,2691.22 4400.34,2723.92C4391.16,2726.88 4381.71,2729.7 4372.01,2732.37C4322.19,2746.1 4265.86,2755.68 4203.81,2757.06C4198.63,2757.17 4193.49,2757.23 4188.38,2757.23C3970.03,2757.23 3818.43,2653.84 3771.75,2619.27L3803.02,2563.57C3874.61,2608.85 3996.05,2675.14 4171.87,2675.14C4174.81,2675.14 4177.75,2675.12 4180.72,2675.09C4353.24,2672.92 4492.97,2616.93 4573.46,2563.57Z" style="fill:rgb(63,38,18);fill-rule:nonzero;"/>
        <path d="M4130.51,2305.93C4130.51,2368.75 4106.42,2419.68 4076.7,2419.68C4046.99,2419.68 4022.9,2368.75 4022.9,2305.93C4022.9,2243.1 4046.99,2192.17 4076.7,2192.17C4106.42,2192.17 4130.51,2243.1 4130.51,2305.93Z" style="fill:white;fill-rule:nonzero;"/>
        <path d="M4076.7,2194.34C4063.22,2194.34 4050.4,2205.74 4040.62,2226.42C4030.59,2247.62 4025.07,2275.86 4025.07,2305.93C4025.07,2336 4030.59,2364.23 4040.62,2385.43C4050.4,2406.12 4063.22,2417.51 4076.7,2417.51C4090.19,2417.51 4103.01,2406.12 4112.79,2385.43C4122.82,2364.23 4128.34,2336 4128.34,2305.93C4128.34,2275.86 4122.82,2247.62 4112.79,2226.42C4103.01,2205.74 4090.19,2194.34 4076.7,2194.34ZM4076.7,2421.85C4061.45,2421.85 4047.24,2409.58 4036.7,2387.29C4026.4,2365.52 4020.73,2336.62 4020.73,2305.93C4020.73,2275.23 4026.4,2246.33 4036.7,2224.56C4047.24,2202.28 4061.45,2190 4076.7,2190C4091.96,2190 4106.17,2202.28 4116.71,2224.56C4127.01,2246.33 4132.68,2275.23 4132.68,2305.93C4132.68,2336.62 4127.01,2365.52 4116.71,2387.29C4106.17,2409.58 4091.96,2421.85 4076.7,2421.85Z" style="fill:rgb(63,38,18);fill-rule:nonzero;"/>
        <path d="M4114.95,2305.93C4114.95,2354.73 4097.83,2394.3 4076.7,2394.3C4055.58,2394.3 4038.46,2354.73 4038.46,2305.93C4038.46,2257.12 4055.58,2217.55 4076.7,2217.55C4097.83,2217.55 4114.95,2257.12 4114.95,2305.93Z" style="fill:rgb(63,38,18);fill-rule:nonzero;"/>
        <path d="M4088.79,2266.18C4088.79,2279.3 4085.48,2289.93 4081.39,2289.93C4077.3,2289.93 4073.98,2279.3 4073.98,2266.18C4073.98,2253.06 4077.3,2242.42 4081.39,2242.42C4085.48,2242.42 4088.79,2253.06 4088.79,2266.18Z" style="fill:white;fill-rule:nonzero;"/>
        <path d="M4076.7,2368.09C4038.34,2368.09 4007.23,2399.19 4007.23,2437.56L4146.18,2437.56C4146.18,2399.19 4115.07,2368.09 4076.7,2368.09Z" style="fill:rgb(238,42,53);fill-rule:nonzero;"/>
        <path d="M4349.51,2305.93C4349.51,2368.75 4325.42,2419.68 4295.71,2419.68C4265.99,2419.68 4241.9,2368.75 4241.9,2305.93C4241.9,2243.1 4265.99,2192.17 4295.71,2192.17C4325.42,2192.17 4349.51,2243.1 4349.51,2305.93Z" style="fill:white;fill-rule:nonzero;"/>
        <path d="M4295.71,2194.34C4282.22,2194.34 4269.41,2205.74 4259.62,2226.42C4249.6,2247.62 4244.07,2275.86 4244.07,2305.93C4244.07,2336 4249.6,2364.23 4259.62,2385.43C4269.41,2406.12 4282.22,2417.51 4295.71,2417.51C4309.19,2417.51 4322.01,2406.12 4331.79,2385.43C4341.82,2364.23 4347.34,2336 4347.34,2305.93C4347.34,2275.86 4341.82,2247.62 4331.79,2226.42C4322.01,2205.74 4309.19,2194.34 4295.71,2194.34ZM4295.71,2421.85C4280.45,2421.85 4266.24,2409.58 4255.7,2387.29C4245.4,2365.52 4239.73,2336.62 4239.73,2305.93C4239.73,2275.23 4245.4,2246.33 4255.7,2224.56C4266.24,2202.28 4280.45,2190 4295.71,2190C4310.97,2190 4325.18,2202.28 4335.72,2224.56C4346.01,2246.33 4351.69,2275.23 4351.69,2305.93C4351.69,2336.62 4346.01,2365.52 4335.72,2387.29C4325.18,2409.58 4310.97,2421.85 4295.71,2421.85Z" style="fill:rgb(63,38,18);fill-rule:nonzero;"/>
        <path d="M4333.96,2305.93C4333.96,2354.73 4316.83,2394.3 4295.71,2394.3C4274.59,2394.3 4257.46,2354.73 4257.46,2305.93C4257.46,2257.12 4274.59,2217.55 4295.71,2217.55C4316.83,2217.55 4333.96,2257.12 4333.96,2305.93Z" style="fill:rgb(63,38,18);fill-rule:nonzero;"/>
        <path d="M4307.8,2266.18C4307.8,2279.3 4304.48,2289.93 4300.39,2289.93C4296.3,2289.93 4292.98,2279.3 4292.98,2266.18C4292.98,2253.06 4296.3,2242.42 4300.39,2242.42C4304.48,2242.42 4307.8,2253.06 4307.8,2266.18Z" style="fill:white;fill-rule:nonzero;"/>
        <path d="M4295.71,2368.09C4257.34,2368.09 4226.24,2399.19 4226.24,2437.56L4365.18,2437.56C4365.18,2399.19 4334.08,2368.09 4295.71,2368.09Z" style="fill:rgb(238,42,53);fill-rule:nonzero;"/>
        <path d="M4171.19,2386.79C4157.18,2390.25 4148.95,2406.66 4153.72,2420.08C4156.14,2426.91 4161.25,2432.63 4167.6,2436.08C4174.21,2439.68 4181.84,2440.56 4189.15,2438.85C4197.6,2436.87 4205.06,2431.6 4210.05,2424.54C4210.73,2423.59 4210.22,2422.13 4209.27,2421.58C4208.19,2420.94 4206.98,2421.39 4206.31,2422.35C4198.85,2432.88 4184.27,2438.64 4172.01,2433.42C4166.3,2430.99 4161.47,2426.53 4158.75,2420.94C4156.1,2415.5 4156.05,2409.25 4158.3,2403.67C4160.76,2397.58 4165.9,2392.57 4172.35,2390.98C4175.06,2390.31 4173.91,2386.12 4171.19,2386.79Z" style="fill:rgb(63,38,18);fill-rule:nonzero;"/>
        <path d="M4332.93,2525.04C4325.39,2525.04 4317.8,2523.17 4311.17,2519.39C4297.54,2511.64 4288.42,2496.26 4287.95,2480.23C4287.48,2464.62 4295.08,2448.86 4307.78,2439.1C4308.73,2438.37 4310.09,2438.55 4310.82,2439.5C4311.55,2440.45 4311.37,2441.81 4310.42,2442.54C4298.81,2451.46 4291.86,2465.86 4292.28,2480.1C4292.72,2494.65 4300.97,2508.6 4313.32,2515.62C4325.91,2522.79 4342.31,2522.36 4354.13,2514.55C4355.13,2513.89 4356.48,2514.17 4357.14,2515.17C4357.8,2516.17 4357.52,2517.52 4356.52,2518.18C4349.61,2522.74 4341.3,2525.04 4332.93,2525.04Z" style="fill:rgb(63,38,18);fill-rule:nonzero;"/>
        <path d="M4320.47,2495.87C4323.87,2495.87 4327.13,2492.88 4326.98,2489.36C4326.82,2485.83 4324.12,2482.85 4320.47,2482.85C4317.06,2482.85 4313.8,2485.85 4313.95,2489.36C4314.11,2492.89 4316.82,2495.87 4320.47,2495.87Z" style="fill:rgb(63,38,18);fill-rule:nonzero;"/>
        <path d="M4328.69,2463.88C4332.1,2463.88 4335.36,2460.88 4335.2,2457.37C4335.05,2453.84 4332.34,2450.86 4328.69,2450.86C4325.29,2450.86 4322.02,2453.85 4322.18,2457.37C4322.34,2460.89 4325.04,2463.88 4328.69,2463.88Z" style="fill:rgb(63,38,18);fill-rule:nonzero;"/>
        <path d="M4350.99,2493.09C4354.4,2493.09 4357.66,2490.09 4357.5,2486.58C4357.34,2483.05 4354.64,2480.07 4350.99,2480.07C4347.58,2480.07 4344.32,2483.06 4344.48,2486.58C4344.64,2490.11 4347.34,2493.09 4350.99,2493.09Z" style="fill:rgb(63,38,18);fill-rule:nonzero;"/>
        <path d="M4046.41,2530.31C4039.68,2530.31 4032.99,2528.8 4027.05,2525.73C4025.98,2525.18 4025.57,2523.87 4026.12,2522.81C4026.67,2521.74 4027.98,2521.32 4029.04,2521.88C4041.62,2528.38 4057.98,2527.07 4069.74,2518.6C4081.27,2510.3 4087.99,2495.56 4086.88,2481.05C4085.79,2466.84 4077.35,2453.27 4064.86,2445.63C4063.83,2445 4063.51,2443.67 4064.14,2442.64C4064.76,2441.62 4066.1,2441.3 4067.12,2441.92C4080.78,2450.28 4090.01,2465.14 4091.21,2480.72C4092.43,2496.71 4085,2512.96 4072.28,2522.12C4064.76,2527.53 4055.55,2530.31 4046.41,2530.31Z" style="fill:rgb(63,38,18);fill-rule:nonzero;"/>
        <path d="M4057.79,2500.07C4061.2,2500.07 4064.46,2497.07 4064.3,2493.55C4064.14,2490.03 4061.44,2487.04 4057.79,2487.04C4054.38,2487.04 4051.12,2490.04 4051.28,2493.55C4051.44,2497.08 4054.14,2500.07 4057.79,2500.07Z" style="fill:rgb(63,38,18);fill-rule:nonzero;"/>
        <path d="M4046.21,2469.12C4049.62,2469.12 4052.88,2466.13 4052.72,2462.61C4052.56,2459.08 4049.86,2456.1 4046.21,2456.1C4042.81,2456.1 4039.54,2459.1 4039.7,2462.61C4039.86,2466.14 4042.56,2469.12 4046.21,2469.12Z" style="fill:rgb(63,38,18);fill-rule:nonzero;"/>
        <path d="M4027.14,2500.54C4030.55,2500.54 4033.81,2497.54 4033.65,2494.03C4033.5,2490.5 4030.79,2487.52 4027.14,2487.52C4023.74,2487.52 4020.47,2490.51 4020.63,2494.03C4020.79,2497.55 4023.49,2500.54 4027.14,2500.54Z" style="fill:rgb(63,38,18);fill-rule:nonzero;"/>
        <path d="M4084.47,2501.83C4095.2,2513 4107.84,2522.35 4121.6,2529.45C4135.32,2536.53 4150.17,2541.48 4165.42,2543.89C4180.7,2546.31 4196.23,2546.21 4211.47,2543.54C4226.51,2540.9 4241.12,2535.79 4254.58,2528.6C4268.04,2521.41 4280.41,2512.08 4290.9,2501C4292.17,2499.66 4293.41,2498.3 4294.62,2496.91C4295.39,2496.03 4295.49,2494.71 4294.62,2493.84C4293.83,2493.05 4292.32,2492.95 4291.55,2493.84C4281.77,2505.03 4270.19,2514.55 4257.37,2522.06C4244.55,2529.57 4230.59,2535.04 4216.07,2538.22C4201.53,2541.4 4186.52,2542.13 4171.73,2540.42C4156.86,2538.69 4142.21,2534.46 4128.67,2528.1C4115.02,2521.7 4102.39,2513.17 4091.5,2502.73C4090.15,2501.43 4088.83,2500.11 4087.53,2498.76C4085.6,2496.74 4082.53,2499.82 4084.47,2501.83Z" style="fill:rgb(63,38,18);fill-rule:nonzero;"/>
        <path d="M4352.25,1998.16C4352.25,1998.16 4366.5,1993.73 4368.47,2004.05C4370.43,2014.38 4322.76,2058.61 4309.49,2055.66C4296.22,2052.71 4302.61,2036.98 4302.61,2036.98C4302.61,2036.98 4273.62,2049.27 4259.36,2037.97C4245.11,2026.66 4244.13,2021.75 4232.33,2029.12C4220.54,2036.49 4211.33,2045.83 4199.96,2043.37C4188.59,2040.91 4193.51,2019.78 4212.67,2004.05C4231.84,1988.33 4261.82,1978.01 4264.28,1956.87C4266.73,1935.74 4258.87,1914.12 4240.2,1913.13C4221.52,1912.15 4216.11,1925.42 4206.29,1923.46C4196.46,1921.49 4193.02,1900.36 4213.66,1886.1C4234.3,1871.85 4261.82,1882.17 4261.82,1882.17C4261.82,1882.17 4243.85,1831.36 4256.91,1816.81C4265.06,1807.72 4279.6,1831.24 4285.5,1846.48C4290.41,1859.17 4299.43,1877.44 4300.47,1882.12C4300.52,1882.32 4300.81,1882.29 4300.82,1882.09C4301,1875.17 4302.36,1840.97 4314.9,1837.94C4329.15,1834.5 4331.12,1869.89 4330.13,1888.07C4329.15,1906.25 4342.42,1932.3 4347.33,1948.03C4352.25,1963.75 4352.25,1998.16 4352.25,1998.16Z" style="fill:white;fill-rule:nonzero;"/>
        <path d="M4354.42,1998.16L4354.43,1998.16L4354.42,1998.16ZM4302.61,2034.81C4303.17,2034.81 4303.72,2035.03 4304.14,2035.44C4304.76,2036.05 4304.95,2036.99 4304.62,2037.8C4304.6,2037.87 4301.78,2044.98 4304.25,2049.66C4305.3,2051.65 4307.16,2052.92 4309.96,2053.54C4315.68,2054.81 4332.59,2043.74 4348.47,2028.33C4362.35,2014.87 4366.76,2006.68 4366.33,2004.46C4365.99,2002.63 4365.15,2001.34 4363.79,2000.52C4360.51,1998.54 4354.81,1999.64 4352.89,2000.23C4352.23,2000.43 4351.51,2000.31 4350.96,1999.9C4350.41,1999.49 4350.08,1998.85 4350.08,1998.16C4350.08,1997.82 4350.02,1963.9 4345.26,1948.68C4343.91,1944.36 4341.88,1939.14 4339.73,1933.62C4333.87,1918.58 4327.23,1901.53 4327.97,1887.95C4328.8,1872.5 4327.35,1847.26 4319.95,1841.1C4318.59,1839.97 4317.14,1839.63 4315.41,1840.05C4307,1842.08 4303.47,1864 4302.99,1882.15C4302.95,1883.33 4302.04,1884.3 4300.87,1884.42C4299.7,1884.53 4298.61,1883.75 4298.36,1882.59C4297.83,1880.27 4294.85,1873.57 4291.69,1866.48C4288.9,1860.22 4285.74,1853.13 4283.47,1847.26C4278.19,1833.61 4268.2,1818.2 4261.76,1817.02C4260.49,1816.78 4259.5,1817.17 4258.52,1818.26C4248.52,1829.41 4258.99,1867.65 4263.87,1881.45C4264.15,1882.24 4263.94,1883.13 4263.34,1883.72C4262.74,1884.31 4261.85,1884.5 4261.06,1884.21C4260.8,1884.11 4234.33,1874.47 4214.89,1887.89C4202.41,1896.51 4199.61,1907.44 4201,1914.18C4201.8,1918.04 4203.99,1920.78 4206.71,1921.33C4210.25,1922.04 4213.17,1920.25 4217.21,1917.78C4222.58,1914.48 4229.27,1910.39 4240.31,1910.97C4247.19,1911.33 4253.22,1914.36 4257.76,1919.73C4264.93,1928.22 4268.17,1942.2 4266.43,1957.13C4264.6,1972.9 4248.61,1982.94 4233.14,1992.65C4226.56,1996.78 4219.75,2001.06 4214.05,2005.73C4200.84,2016.57 4194.68,2030.22 4196.36,2037.16C4196.91,2039.44 4198.24,2040.78 4200.42,2041.25C4208.36,2042.96 4215.43,2038.05 4223.61,2032.36C4226.03,2030.67 4228.54,2028.93 4231.18,2027.28C4242.11,2020.45 4245.58,2023.43 4253.97,2030.65C4255.89,2032.29 4258.06,2034.16 4260.71,2036.26C4273.78,2046.63 4301.49,2035.1 4301.77,2034.98C4302.04,2034.87 4302.33,2034.81 4302.61,2034.81ZM4310.82,2057.96C4310.19,2057.96 4309.58,2057.9 4309.02,2057.78C4304.95,2056.87 4302.05,2054.82 4300.4,2051.67C4298.49,2048.02 4298.74,2043.68 4299.36,2040.52C4290.59,2043.54 4269.93,2049.11 4258.01,2039.67C4255.29,2037.51 4253.09,2035.61 4251.14,2033.94C4242.96,2026.91 4241.7,2025.82 4233.48,2030.96C4230.93,2032.56 4228.47,2034.27 4226.09,2035.92C4217.45,2041.93 4209.29,2047.61 4199.5,2045.49C4195.7,2044.67 4193.08,2042.07 4192.14,2038.18C4190.13,2029.85 4196.06,2014.88 4211.3,2002.38C4217.21,1997.53 4224.13,1993.18 4230.83,1988.97C4246.11,1979.38 4260.53,1970.33 4262.12,1956.62C4263.7,1943.07 4260.75,1930.01 4254.44,1922.53C4250.64,1918.04 4245.81,1915.6 4240.08,1915.3C4230.39,1914.79 4224.59,1918.34 4219.47,1921.48C4215.15,1924.12 4211.06,1926.62 4205.86,1925.58C4201.4,1924.69 4197.9,1920.66 4196.75,1915.05C4195.09,1907.01 4198.2,1894.14 4212.42,1884.32C4229.13,1872.78 4249.72,1876.49 4258.42,1878.84C4254.4,1866.25 4243.64,1828.35 4255.29,1815.36C4257.28,1813.15 4259.78,1812.24 4262.54,1812.75C4272.13,1814.5 4282.95,1833.89 4287.52,1845.69C4289.75,1851.46 4292.89,1858.5 4295.66,1864.71C4296.94,1867.59 4298.13,1870.26 4299.15,1872.61C4300.31,1858.22 4303.83,1838.38 4314.39,1835.83C4317.44,1835.09 4320.32,1835.76 4322.72,1837.76C4332.02,1845.49 4333.12,1873.1 4332.3,1888.19C4331.62,1900.83 4338.36,1918.14 4343.78,1932.05C4345.95,1937.64 4348.01,1942.92 4349.41,1947.38C4353.6,1960.82 4354.29,1986.92 4354.4,1995.44C4357.43,1994.92 4362.33,1994.58 4366.02,1996.79C4368.47,1998.27 4370.01,2000.57 4370.6,2003.65C4371.94,2010.71 4357.69,2025.44 4351.5,2031.45C4340.99,2041.64 4321.3,2057.96 4310.82,2057.96Z" style="fill:rgb(63,38,18);fill-rule:nonzero;"/>
        <path d="M4261.82,1882.17C4261.82,1882.17 4271.65,1883.65 4283.94,1901.34C4296.22,1919.03 4296.71,1935.17 4296.71,1935.17" style="fill:white;fill-rule:nonzero;"/>
        <path d="M4296.71,1937.34C4295.54,1937.34 4294.58,1936.41 4294.54,1935.24C4294.54,1935.09 4293.89,1919.48 4282.15,1902.58C4270.72,1886.12 4261.59,1884.33 4261.5,1884.32C4260.31,1884.14 4259.5,1883.04 4259.67,1881.85C4259.85,1880.67 4260.95,1879.85 4262.14,1880.03C4262.58,1880.09 4273.04,1881.85 4285.72,1900.1C4298.23,1918.12 4298.86,1934.42 4298.88,1935.11C4298.92,1936.3 4297.98,1937.31 4296.78,1937.34L4296.71,1937.34Z" style="fill:rgb(63,38,18);fill-rule:nonzero;"/>
        <path d="M4300.31,1881.36C4300.31,1881.36 4312.69,1900.6 4314.9,1912.4C4317.11,1924.19 4316.74,1928.06 4316.74,1928.06" style="fill:white;fill-rule:nonzero;"/>
        <path d="M4316.74,1930.23C4316.67,1930.23 4316.6,1930.23 4316.53,1930.22C4315.34,1930.11 4314.47,1929.05 4314.58,1927.86C4314.58,1927.84 4314.86,1923.95 4312.76,1912.8C4310.66,1901.56 4298.6,1882.72 4298.48,1882.53C4297.83,1881.53 4298.13,1880.18 4299.13,1879.53C4300.14,1878.89 4301.49,1879.18 4302.13,1880.19C4302.65,1880.99 4314.77,1899.92 4317.03,1912C4319.24,1923.75 4318.94,1927.84 4318.9,1928.27C4318.79,1929.39 4317.85,1930.23 4316.74,1930.23Z" style="fill:rgb(63,38,18);fill-rule:nonzero;"/>
        <path d="M4031.46,1986.37C4031.46,1986.37 4017.58,1980.87 4014.84,1991.01C4012.09,2001.15 4056.25,2048.89 4069.71,2046.96C4083.16,2045.03 4077.99,2028.86 4077.99,2028.86C4077.99,2028.86 4105.97,2043.32 4121.04,2033.14C4136.11,2022.95 4137.46,2018.13 4148.66,2026.38C4159.86,2034.62 4168.33,2044.64 4179.86,2043.05C4191.38,2041.47 4188.09,2020.02 4170.17,2002.88C4152.26,1985.74 4123.16,1973.17 4122.32,1951.91C4121.48,1930.65 4130.96,1909.69 4149.66,1910.13C4168.36,1910.57 4172.73,1924.21 4182.69,1923C4192.64,1921.79 4197.68,1900.98 4178.18,1885.2C4158.68,1869.42 4130.46,1877.61 4130.46,1877.61C4130.46,1877.61 4152.25,1828.32 4140.34,1812.81C4132.9,1803.13 4116.61,1825.47 4109.57,1840.21C4103.7,1852.5 4093.32,1870.03 4091.92,1874.61C4091.86,1874.81 4091.57,1874.76 4091.58,1874.56C4091.93,1867.64 4093.17,1833.44 4080.9,1829.46C4066.95,1824.95 4062.3,1860.08 4061.89,1878.29C4061.49,1896.49 4046.27,1921.45 4040.17,1936.76C4034.08,1952.07 4031.46,1986.37 4031.46,1986.37Z" style="fill:white;fill-rule:nonzero;"/>
        <path d="M4089.85,1873.97L4089.84,1873.98L4089.85,1873.97ZM4023.7,1987.06C4022.3,1987.06 4020.91,1987.27 4019.77,1987.84C4018.35,1988.56 4017.42,1989.78 4016.93,1991.58C4016.34,1993.76 4020.11,2002.27 4032.92,2016.75C4047.58,2033.31 4063.62,2045.64 4069.4,2044.81C4072.24,2044.4 4074.2,2043.28 4075.39,2041.38C4078.21,2036.9 4075.95,2029.59 4075.92,2029.52C4075.66,2028.68 4075.92,2027.77 4076.59,2027.2C4077.26,2026.64 4078.21,2026.53 4078.99,2026.93C4079.26,2027.07 4106,2040.68 4119.82,2031.34C4122.63,2029.44 4124.94,2027.75 4126.98,2026.25C4135.89,2019.7 4139.58,2016.99 4149.95,2024.63C4152.47,2026.48 4154.83,2028.41 4157.11,2030.27C4164.84,2036.57 4171.51,2042 4179.56,2040.9C4181.77,2040.6 4183.2,2039.37 4183.92,2037.13C4186.12,2030.34 4181.02,2016.26 4168.67,2004.45C4163.35,1999.36 4156.89,1994.57 4150.63,1989.95C4135.95,1979.09 4120.77,1967.86 4120.15,1951.99C4119.55,1936.98 4123.85,1923.29 4131.65,1915.37C4136.58,1910.36 4142.82,1907.8 4149.71,1907.96C4160.76,1908.22 4167.12,1912.82 4172.23,1916.51C4176.07,1919.28 4178.84,1921.29 4182.42,1920.85C4185.18,1920.51 4187.57,1917.95 4188.66,1914.16C4190.56,1907.54 4188.6,1896.43 4176.81,1886.89C4158.45,1872.02 4131.33,1879.62 4131.06,1879.7C4130.25,1879.93 4129.38,1879.67 4128.82,1879.04C4128.27,1878.4 4128.13,1877.5 4128.47,1876.73C4134.39,1863.35 4147.74,1826.01 4138.62,1814.13C4137.72,1812.97 4136.76,1812.52 4135.48,1812.65C4128.97,1813.33 4117.84,1827.94 4111.53,1841.15C4108.81,1846.83 4105.12,1853.66 4101.87,1859.68C4098.18,1866.52 4094.69,1872.97 4094,1875.25C4093.65,1876.37 4092.51,1877.08 4091.35,1876.87C4090.19,1876.67 4089.35,1875.63 4089.41,1874.45C4090.32,1856.31 4088.46,1834.19 4080.23,1831.53C4078.54,1830.98 4077.07,1831.2 4075.63,1832.23C4067.77,1837.81 4064.41,1862.86 4064.06,1878.33C4063.76,1891.93 4055.84,1908.42 4048.85,1922.98C4046.29,1928.32 4043.87,1933.36 4042.19,1937.56C4036.29,1952.38 4033.65,1986.19 4033.62,1986.53C4033.57,1987.22 4033.19,1987.84 4032.61,1988.21C4032.02,1988.57 4031.3,1988.64 4030.66,1988.39C4029.41,1987.9 4026.51,1987.06 4023.7,1987.06ZM4068.92,2049.18C4058.62,2049.18 4039.59,2030.84 4029.67,2019.62C4023.95,2013.16 4010.86,1997.39 4012.74,1990.45C4013.56,1987.42 4015.27,1985.24 4017.83,1983.96C4021.68,1982.03 4026.53,1982.74 4029.52,1983.5C4030.28,1975.01 4032.95,1949.04 4038.16,1935.96C4039.89,1931.61 4042.34,1926.51 4044.94,1921.1C4051.4,1907.64 4059.44,1890.89 4059.72,1878.24C4060.06,1863.13 4063.26,1835.69 4073.11,1828.69C4075.66,1826.88 4078.59,1826.43 4081.57,1827.4C4091.9,1830.74 4093.91,1850.79 4093.97,1865.23C4095.16,1862.96 4096.55,1860.4 4098.05,1857.62C4101.28,1851.64 4104.94,1844.86 4107.61,1839.28C4113.07,1827.85 4125.34,1809.35 4135.03,1808.33C4137.82,1808.04 4140.25,1809.13 4142.06,1811.49C4152.69,1825.33 4139.07,1862.3 4134.1,1874.55C4142.95,1872.86 4163.77,1870.74 4179.55,1883.51C4192.98,1894.39 4195.1,1907.46 4192.84,1915.35C4191.26,1920.85 4187.47,1924.61 4182.95,1925.16C4177.68,1925.8 4173.8,1923 4169.69,1920.03C4164.82,1916.51 4159.31,1912.53 4149.61,1912.3C4143.86,1912.16 4138.87,1914.22 4134.74,1918.42C4127.88,1925.39 4123.95,1938.19 4124.48,1951.82C4125.03,1965.61 4138.72,1975.73 4153.22,1986.46C4159.58,1991.16 4166.15,1996.03 4171.68,2001.31C4185.92,2014.94 4190.69,2030.32 4188.05,2038.47C4186.82,2042.28 4184.01,2044.67 4180.15,2045.2C4170.24,2046.57 4162.53,2040.28 4154.37,2033.63C4152.13,2031.8 4149.8,2029.91 4147.38,2028.12C4139.57,2022.38 4138.24,2023.36 4129.55,2029.75C4127.48,2031.27 4125.13,2032.99 4122.25,2034.94C4109.66,2043.45 4089.48,2036.32 4080.96,2032.64C4081.34,2035.84 4081.26,2040.18 4079.08,2043.68C4077.19,2046.69 4074.14,2048.52 4070.02,2049.11C4069.66,2049.16 4069.3,2049.18 4068.92,2049.18Z" style="fill:rgb(63,38,18);fill-rule:nonzero;"/>
        <path d="M4130.46,1877.61C4130.46,1877.61 4120.54,1878.33 4106.95,1895.04C4093.35,1911.74 4091.63,1927.8 4091.63,1927.8" style="fill:white;fill-rule:nonzero;"/>
        <path d="M4091.63,1929.97C4091.55,1929.97 4091.47,1929.96 4091.39,1929.95C4090.2,1929.82 4089.34,1928.76 4089.47,1927.57C4089.54,1926.89 4091.42,1910.68 4105.26,1893.67C4119.29,1876.43 4129.86,1875.48 4130.3,1875.45C4131.51,1875.36 4132.53,1876.26 4132.62,1877.45C4132.71,1878.64 4131.82,1879.68 4130.64,1879.77C4130.44,1879.8 4121.23,1880.93 4108.63,1896.41C4095.64,1912.36 4093.8,1927.88 4093.78,1928.03C4093.66,1929.14 4092.72,1929.97 4091.63,1929.97Z" style="fill:rgb(63,38,18);fill-rule:nonzero;"/>
        <path d="M4092.14,1873.87C4092.14,1873.87 4078.33,1892.11 4075.23,1903.7C4072.13,1915.3 4072.2,1919.18 4072.2,1919.18" style="fill:white;fill-rule:nonzero;"/>
        <path d="M4072.2,1921.34C4071.02,1921.34 4070.05,1920.41 4070.03,1919.22C4070.02,1918.79 4070.04,1914.7 4073.13,1903.14C4076.31,1891.28 4089.84,1873.32 4090.41,1872.56C4091.13,1871.6 4092.5,1871.41 4093.45,1872.14C4094.41,1872.86 4094.6,1874.22 4093.87,1875.18C4093.74,1875.36 4080.29,1893.22 4077.33,1904.26C4074.39,1915.23 4074.37,1919.12 4074.37,1919.16C4074.37,1920.35 4073.42,1921.33 4072.22,1921.34L4072.2,1921.34Z" style="fill:rgb(63,38,18);fill-rule:nonzero;"/>
    </g>
</svg>
