<?xml version="1.0" encoding="UTF-8" standalone="no"?>
<!DOCTYPE svg PUBLIC "-//W3C//DTD SVG 1.1//EN" "http://www.w3.org/Graphics/SVG/1.1/DTD/svg11.dtd">
<svg width="100%" height="100%" viewBox="0 0 1320 1197" version="1.1" xmlns="http://www.w3.org/2000/svg" xmlns:xlink="http://www.w3.org/1999/xlink" xml:space="preserve" xmlns:serif="http://www.serif.com/" style="fill-rule:evenodd;clip-rule:evenodd;stroke-linejoin:round;stroke-miterlimit:2;">
    <g transform="matrix(1,0,0,1,-2147.67,-2052.56)">
        <path d="M3126.09,2482.33C3119.74,2482.33 3113.33,2481.99 3107.02,2481.3C3068.26,2477.11 3031.5,2460.01 3000.71,2431.84C2970.76,2404.44 2947.83,2367.78 2934.38,2325.81C2932.37,2319.53 2932.93,2312.84 2935.95,2306.98C2938.96,2301.12 2944.08,2296.78 2950.37,2294.77C2952.82,2293.98 2955.35,2293.59 2957.9,2293.59C2968.67,2293.59 2978.12,2300.48 2981.41,2310.75C3003.03,2378.27 3054.42,2425.95 3112.33,2432.22C3116.92,2432.71 3121.6,2432.96 3126.23,2432.96C3197.55,2432.96 3265.63,2374.02 3291.79,2289.61C3295.01,2279.21 3304.48,2272.23 3315.36,2272.23C3317.83,2272.23 3320.3,2272.6 3322.68,2273.34C3328.98,2275.29 3334.14,2279.58 3337.21,2285.41C3340.29,2291.25 3340.9,2297.93 3338.95,2304.23C3322.9,2356.04 3293.85,2400.56 3254.96,2432.98C3236.06,2448.74 3215.49,2460.98 3193.83,2469.38C3171.67,2477.98 3148.88,2482.33 3126.09,2482.33Z" style="fill:rgb(195,16,25);fill-rule:nonzero;"/>
        <path d="M3315.36,2270.18C3303.58,2270.18 3293.32,2277.74 3289.83,2289.01C3263.94,2372.56 3196.66,2430.91 3126.23,2430.91C3121.67,2430.91 3117.07,2430.66 3112.55,2430.18C3055.45,2424 3004.74,2376.88 2983.36,2310.12C2979.8,2299.01 2969.57,2291.53 2957.9,2291.53C2955.14,2291.53 2952.39,2291.97 2949.74,2292.82C2935.7,2297.31 2927.93,2312.39 2932.43,2326.44C2945.98,2368.74 2969.11,2405.71 2999.32,2433.35C3030.44,2461.82 3067.6,2479.1 3106.8,2483.34C3113.18,2484.03 3119.67,2484.38 3126.09,2484.38C3149.13,2484.38 3172.17,2479.98 3194.57,2471.3C3216.44,2462.82 3237.2,2450.45 3256.28,2434.55C3275.38,2418.63 3292.31,2399.55 3306.59,2377.86C3321.25,2355.59 3332.8,2331.02 3340.91,2304.84C3345.27,2290.75 3337.37,2275.75 3323.29,2271.38C3320.71,2270.58 3318.04,2270.18 3315.36,2270.18ZM3315.36,2274.28C3317.58,2274.28 3319.84,2274.61 3322.07,2275.3C3334.01,2279 3340.69,2291.68 3336.99,2303.62C3304.39,2408.83 3217.65,2480.28 3126.09,2480.28C3119.82,2480.28 3113.54,2479.95 3107.24,2479.26C3068.92,2475.12 3032.56,2458.2 3002.09,2430.33C2972.41,2403.17 2949.67,2366.81 2936.34,2325.18C2932.52,2313.28 2939.09,2300.54 2950.99,2296.72C2953.29,2295.99 2955.61,2295.64 2957.9,2295.64C2967.48,2295.64 2976.38,2301.76 2979.45,2311.37C3001.33,2379.67 3053.4,2427.9 3112.11,2434.25C3116.82,2434.76 3121.53,2435.01 3126.23,2435.01C3198.11,2435.01 3267.05,2376.36 3293.75,2290.22C3296.76,2280.51 3305.7,2274.28 3315.36,2274.28Z" style="fill:rgb(63,38,18);fill-rule:nonzero;"/>
        <path d="M3340.51,2310.18C3333,2310.18 3325.38,2307.02 3320.3,2304.63C3314,2301.69 3307.81,2298.34 3301.89,2294.69C3297.42,2291.93 3292.42,2288.55 3289.71,2283.27C3287.3,2278.57 3286.93,2272.58 3288.67,2266.4C3290.02,2261.61 3293.32,2255.93 3295.98,2251.38L3297.75,2248.32L3299.45,2249.11C3299.75,2249.25 3329.86,2263.19 3345.22,2271.32C3351.35,2274.56 3358.1,2278.6 3360.65,2285.61C3363.8,2294.3 3358.4,2305.07 3349.07,2308.65C3346.44,2309.67 3343.56,2310.18 3340.51,2310.18Z" style="fill:white;fill-rule:nonzero;"/>
        <path d="M3296.91,2245.68L3295.03,2248.92C3294.77,2249.38 3294.49,2249.85 3294.21,2250.34C3291.49,2255 3288.12,2260.8 3286.7,2265.85C3284.82,2272.52 3285.24,2279.04 3287.88,2284.2C3290.83,2289.95 3296.11,2293.53 3300.82,2296.44C3306.8,2300.13 3313.06,2303.51 3319.43,2306.49C3324.69,2308.96 3332.6,2312.23 3340.51,2312.23C3343.81,2312.23 3346.94,2311.67 3349.81,2310.57C3360.14,2306.6 3366.1,2294.61 3362.57,2284.91C3359.77,2277.21 3352.64,2272.92 3346.18,2269.51C3330.77,2261.35 3300.61,2247.39 3300.31,2247.25L3296.91,2245.68ZM3298.58,2250.97C3298.58,2250.97 3328.77,2264.94 3344.26,2273.13C3350.17,2276.25 3356.43,2280.03 3358.72,2286.31C3361.61,2294.26 3356.24,2303.7 3348.34,2306.74C3345.8,2307.72 3343.17,2308.13 3340.51,2308.13C3333.97,2308.13 3327.23,2305.62 3321.17,2302.78C3314.92,2299.85 3308.84,2296.57 3302.97,2292.95C3298.49,2290.18 3293.94,2287.02 3291.53,2282.33C3289.14,2277.65 3289.22,2272.02 3290.65,2266.96C3292.07,2261.9 3295.96,2255.52 3298.58,2250.97Z" style="fill:rgb(63,38,18);fill-rule:nonzero;"/>
        <path d="M3361.24,2195.85C3361.24,2195.85 3394.67,2170.78 3424.03,2173.34C3453.39,2175.9 3458.76,2181.62 3460.06,2190.57C3461.35,2199.51 3445.38,2211.45 3445.38,2211.45C3445.38,2211.45 3374.41,2237.13 3364.31,2254.66C3354.21,2272.2 3337.69,2282.48 3337.69,2282.48L3300.07,2259.68L3301.78,2232.45L3361.24,2195.85Z" style="fill:white;fill-rule:nonzero;"/>
        <path d="M3307.47,2258.02C3293.53,2249.44 3284.29,2233.67 3283.64,2217.31C3283.45,2212.64 3283.79,2207.52 3280.96,2203.79C3278.06,2199.96 3272.72,2198.93 3267.92,2199.11C3263.12,2199.3 3258.3,2200.4 3253.55,2199.65C3243.47,2198.07 3236.08,2187.66 3236.51,2177.47C3236.94,2167.27 3244.19,2158.08 3253.45,2153.81C3262.72,2149.55 3273.62,2149.76 3283.36,2152.82C3294.7,2156.39 3304.82,2163.75 3311.72,2173.44C3315.26,2178.41 3319.03,2184.64 3325.13,2184.83C3331.1,2185.02 3335.26,2179.3 3339.07,2174.71C3349.83,2161.74 3366.4,2153.79 3383.25,2153.51C3400.1,2153.22 3416.93,2160.61 3428.12,2173.2" style="fill:white;fill-rule:nonzero;"/>
        <path d="M3306.4,2259.77C3291.78,2250.77 3282.27,2234.54 3281.59,2217.39C3281.56,2216.71 3281.54,2216.02 3281.53,2215.32C3281.43,2211.4 3281.35,2207.69 3279.33,2205.03C3276.58,2201.4 3271.05,2201.05 3268,2201.16C3266.47,2201.22 3264.95,2201.38 3263.34,2201.54C3260.06,2201.87 3256.66,2202.22 3253.23,2201.68C3242.38,2199.97 3233.96,2189.07 3234.46,2177.38C3234.9,2166.96 3242.19,2156.74 3252.6,2151.95C3261.71,2147.75 3272.85,2147.37 3283.97,2150.87C3295.77,2154.58 3306.22,2162.17 3313.39,2172.25C3313.71,2172.7 3314.03,2173.15 3314.35,2173.62C3317.45,2178.05 3320.66,2182.64 3325.2,2182.78C3329.63,2182.92 3333.17,2178.66 3336.55,2174.53C3336.87,2174.15 3337.18,2173.77 3337.49,2173.4C3348.65,2159.95 3365.75,2151.75 3383.22,2151.46C3400.66,2151.18 3418.05,2158.78 3429.65,2171.84L3426.59,2174.57C3415.76,2162.39 3399.58,2155.24 3383.28,2155.56C3366.99,2155.83 3351.05,2163.48 3340.65,2176.02C3340.34,2176.38 3340.04,2176.76 3339.73,2177.13C3335.9,2181.8 3331.54,2187.1 3325.06,2186.88C3318.48,2186.67 3314.5,2180.98 3310.99,2175.97C3310.67,2175.51 3310.36,2175.06 3310.04,2174.63C3303.39,2165.27 3293.69,2158.22 3282.74,2154.78C3272.59,2151.59 3262.5,2151.91 3254.31,2155.68C3245.27,2159.84 3238.94,2168.63 3238.56,2177.56C3238.15,2187.07 3245.16,2196.26 3253.87,2197.62C3256.78,2198.08 3259.76,2197.78 3262.92,2197.46C3264.53,2197.3 3266.18,2197.13 3267.84,2197.06C3274.49,2196.81 3279.73,2198.76 3282.6,2202.56C3285.41,2206.27 3285.53,2211.03 3285.63,2215.23C3285.64,2215.9 3285.66,2216.57 3285.69,2217.22C3286.31,2232.79 3295.28,2248.11 3308.55,2256.27L3306.4,2259.77Z" style="fill:rgb(63,38,18);fill-rule:nonzero;"/>
        <path d="M3386.9,2186.73C3403.12,2163.2 3485.07,2172.18 3457.16,2201.81" style="fill:white;fill-rule:nonzero;"/>
        <path d="M3458.65,2203.22L3455.66,2200.4C3460.1,2195.69 3461.71,2191.48 3460.42,2187.88C3458.43,2182.29 3449.19,2177.77 3436.3,2176.08C3418.71,2173.77 3396.01,2177.13 3388.59,2187.89L3385.21,2185.57C3393.65,2173.33 3417.57,2169.48 3436.83,2172.01C3451.69,2173.96 3461.7,2179.24 3464.29,2186.51C3466.13,2191.67 3464.23,2197.29 3458.65,2203.22Z" style="fill:rgb(63,38,18);fill-rule:nonzero;"/>
        <path d="M3404.88,2206.25C3419.12,2198.83 3436.23,2197.11 3451.66,2201.55C3456.8,2203.03 3462.2,2205.59 3464.33,2210.49C3466.33,2215.07 3464.77,2220.67 3461.42,2224.39C3458.07,2228.1 3453.23,2230.17 3448.35,2231.28C3443.47,2232.38 3438.44,2232.63 3433.49,2233.32C3411.58,2236.4 3391.11,2248.69 3378.11,2266.6C3372.74,2273.99 3368.27,2282.6 3360.37,2287.17C3350.45,2292.92 3336.4,2289.95 3329.65,2280.69" style="fill:white;fill-rule:nonzero;"/>
        <path d="M3349.1,2292.13C3340.99,2292.13 3332.78,2288.47 3327.99,2281.9L3331.3,2279.48C3337.46,2287.92 3350.3,2290.63 3359.34,2285.4C3365.11,2282.05 3368.93,2276.4 3372.98,2270.41C3374.1,2268.75 3375.26,2267.04 3376.45,2265.4C3389.68,2247.17 3410.9,2234.42 3433.2,2231.29C3434.93,2231.05 3436.69,2230.86 3438.38,2230.68C3441.68,2230.32 3444.81,2229.98 3447.9,2229.28C3453.19,2228.08 3457.23,2225.97 3459.9,2223.01C3462.93,2219.64 3463.99,2214.83 3462.45,2211.31C3460.94,2207.83 3457.22,2205.29 3451.09,2203.52C3436.14,2199.22 3419.64,2200.87 3405.83,2208.06L3403.94,2204.43C3418.67,2196.75 3436.27,2194.99 3452.23,2199.58C3459.6,2201.7 3464.18,2205 3466.21,2209.67C3468.4,2214.69 3467.09,2221.16 3462.94,2225.76C3459.69,2229.36 3454.94,2231.89 3448.8,2233.28C3445.48,2234.03 3442.1,2234.4 3438.82,2234.76C3437.16,2234.94 3435.44,2235.12 3433.77,2235.36C3412.55,2238.33 3392.36,2250.46 3379.77,2267.81C3378.62,2269.39 3377.48,2271.07 3376.38,2272.7C3372.25,2278.81 3367.99,2285.13 3361.4,2288.95C3357.67,2291.11 3353.4,2292.13 3349.1,2292.13Z" style="fill:rgb(63,38,18);fill-rule:nonzero;"/>
        <path d="M2650.31,3097.97L2589.84,3122.89L2616.71,3181.68L2688.79,3194.97L2672.3,3134.48L2650.31,3097.97Z" style="fill:white;fill-rule:nonzero;"/>
        <path d="M2621.99,3048.04C2603.93,3042.34 2583.26,3048.5 2569.55,3061.57C2555.85,3074.64 2548.78,3093.74 2548.17,3112.67C2547.57,3131.6 2552.99,3150.35 2561.32,3167.36C2575.39,3196.08 2598.3,3220.8 2627.01,3234.89C2655.72,3248.97 2690.23,3251.83 2720.11,3240.44C2734.37,3235 2747.75,3226.14 2756.1,3213.37C2769.5,3192.88 2767.31,3163.89 2752.02,3144.77C2736.73,3125.65 2709.9,3117.09 2686.02,3122.44C2662.13,3127.79 2641.94,3146.22 2633.05,3169.03" style="fill:white;fill-rule:nonzero;"/>
        <path d="M2680.97,3249.47C2662.34,3249.47 2643.33,3245.18 2626.11,3236.73C2598.02,3222.95 2574.36,3198.64 2559.48,3168.26C2550.05,3149.01 2545.56,3130.28 2546.12,3112.6C2546.79,3091.93 2554.81,3072.79 2568.14,3060.09C2583.07,3045.85 2604.45,3040.36 2622.61,3046.08C2623.69,3046.42 2624.29,3047.58 2623.95,3048.66C2623.61,3049.74 2622.45,3050.34 2621.37,3050C2604.62,3044.71 2584.84,3049.84 2570.97,3063.05C2558.41,3075.02 2550.85,3093.13 2550.22,3112.73C2549.68,3129.74 2554.03,3147.81 2563.16,3166.46C2577.65,3196.02 2600.64,3219.67 2627.91,3233.05C2656.89,3247.26 2691.08,3249.31 2719.38,3238.52C2730.21,3234.39 2745.08,3226.48 2754.39,3212.25C2767.15,3192.73 2765.49,3164.89 2750.42,3146.05C2735.84,3127.82 2710.14,3119.14 2686.46,3124.44C2663.59,3129.56 2643.86,3146.93 2634.97,3169.77C2634.55,3170.83 2633.37,3171.35 2632.31,3170.94C2631.25,3170.53 2630.73,3169.34 2631.14,3168.29C2640.53,3144.19 2661.38,3125.85 2685.57,3120.44C2710.74,3114.8 2738.09,3124.06 2753.62,3143.49C2769.76,3163.67 2771.53,3193.53 2757.82,3214.49C2747.91,3229.65 2732.24,3238.01 2720.84,3242.35C2708.36,3247.11 2694.76,3249.47 2680.97,3249.47Z" style="fill:rgb(63,38,18);fill-rule:nonzero;"/>
        <path d="M2682.63,3059.1C2683.14,3047.47 2677.41,3035.74 2667.91,3029.01C2658.41,3022.27 2645.45,3020.72 2634.63,3025.05C2623.82,3029.37 2615.49,3039.42 2613.25,3050.85C2610.71,3063.88 2615.67,3077.11 2621.12,3089.21C2626.29,3100.67 2632.08,3112.04 2640.53,3121.34C2648.98,3130.63 2660.45,3137.75 2672.98,3138.67C2685.51,3139.59 2698.9,3133.33 2704.24,3121.96C2707.99,3113.99 2707.52,3104.64 2705.6,3096.04C2702.18,3080.68 2694.3,3066.34 2683.17,3055.22" style="fill:white;fill-rule:nonzero;"/>
        <path d="M2647.44,3024.69C2643.31,3024.69 2639.2,3025.43 2635.39,3026.95C2625.26,3031 2617.36,3040.54 2615.27,3051.25C2612.87,3063.49 2617.57,3076.33 2622.99,3088.37C2627.93,3099.31 2633.65,3110.72 2642.05,3119.96C2651.09,3129.9 2662.12,3135.82 2673.13,3136.63C2685.64,3137.54 2697.65,3131.16 2702.39,3121.09C2705.4,3114.67 2705.81,3106.39 2703.6,3096.49C2700.58,3082.96 2693.89,3070.04 2684.6,3059.7C2684.33,3060.58 2683.49,3061.19 2682.54,3061.15C2681.41,3061.1 2680.54,3060.15 2680.59,3059.01C2681.06,3048.11 2675.62,3036.99 2666.72,3030.68C2661.17,3026.74 2654.29,3024.69 2647.44,3024.69ZM2675.49,3140.82C2674.61,3140.82 2673.72,3140.78 2672.83,3140.72C2660.77,3139.83 2648.76,3133.44 2639.02,3122.72C2630.23,3113.05 2624.33,3101.31 2619.26,3090.05C2613.55,3077.39 2608.63,3063.83 2611.24,3050.46C2613.6,3038.42 2622.48,3027.7 2633.87,3023.14C2645.26,3018.59 2659.09,3020.23 2669.09,3027.33C2677.59,3033.36 2683.28,3043.28 2684.48,3053.64C2684.53,3053.68 2684.57,3053.72 2684.62,3053.77C2695.95,3065.1 2704.12,3079.95 2707.61,3095.59C2710.02,3106.41 2709.51,3115.57 2706.1,3122.84C2701,3133.68 2688.67,3140.81 2675.49,3140.82Z" style="fill:rgb(63,38,18);fill-rule:nonzero;"/>
        <path d="M2685.98,3104.78C2669.76,3104.78 2655.91,3093.72 2652.31,3077.88C2648.08,3059.29 2659.75,3040.73 2678.34,3036.5C2818.47,3004.6 2921.05,2909.95 2927.8,2806.34C2930.28,2768.12 2919,2727.38 2895.15,2688.52C2885.18,2672.28 2890.29,2650.95 2906.54,2640.98C2911.98,2637.63 2918.22,2635.87 2924.59,2635.87C2936.72,2635.87 2947.74,2642.03 2954.08,2652.36C2985.44,2703.47 3000.21,2758.26 2996.79,2810.82C2994.6,2844.42 2985.24,2877.62 2968.98,2909.49C2953.34,2940.13 2931.69,2968.81 2904.62,2994.73C2849.81,3047.22 2776.87,3084.97 2693.69,3103.91C2691.15,3104.49 2688.56,3104.78 2685.98,3104.78Z" style="fill:rgb(0,123,43);fill-rule:nonzero;"/>
        <path d="M2924.59,2633.82L2924.59,2637.92L2924.59,2633.82C2917.85,2633.82 2911.23,2635.69 2905.46,2639.23C2888.25,2649.79 2882.84,2672.38 2893.41,2689.59C2917.02,2728.09 2928.21,2768.41 2925.75,2806.2C2919.06,2908.92 2817.13,3002.8 2677.88,3034.5C2658.2,3038.98 2645.82,3058.65 2650.31,3078.34C2652.16,3086.48 2656.79,3093.8 2663.33,3098.96C2669.77,3104.04 2677.82,3106.83 2685.98,3106.83C2688.71,3106.83 2691.46,3106.52 2694.14,3105.91C2777.69,3086.89 2850.96,3048.96 2906.04,2996.21C2933.27,2970.13 2955.06,2941.27 2970.81,2910.42C2987.2,2878.3 2996.63,2844.84 2998.83,2810.96C3002.28,2757.97 2987.41,2702.76 2955.83,2651.29C2949.12,2640.35 2937.44,2633.82 2924.59,2633.82ZM2924.59,2637.92C2935.52,2637.92 2946.2,2643.43 2952.33,2653.43C2983.47,2704.18 2998.13,2758.56 2994.74,2810.69C2992.57,2844.01 2983.29,2876.94 2967.15,2908.55C2951.62,2938.99 2930.1,2967.49 2903.2,2993.25C2848.66,3045.48 2776.05,3083.06 2693.23,3101.91C2690.8,3102.47 2688.37,3102.73 2685.98,3102.73C2671.14,3102.73 2657.74,3092.51 2654.31,3077.43C2650.32,3059.91 2661.28,3042.49 2678.79,3038.5C2819.8,3006.4 2923.04,2910.98 2929.84,2806.47C2932.36,2767.82 2920.97,2726.67 2896.9,2687.45C2887.51,2672.14 2892.3,2652.12 2907.61,2642.73C2912.91,2639.47 2918.79,2637.92 2924.59,2637.92Z" style="fill:rgb(63,38,18);fill-rule:nonzero;"/>
        <path d="M2755.21,2726.72L3044.67,3095.24" style="fill:none;fill-rule:nonzero;"/>
        <path d="M3043.06,3096.51L2753.59,2727.98L2756.82,2725.45L3046.28,3093.98L3043.06,3096.51Z" style="fill:rgb(63,38,18);fill-rule:nonzero;"/>
        <path d="M3044.69,3129.81C3034,3129.81 3024.08,3125 3017.48,3116.6L2728.02,2748.07C2722.32,2740.81 2719.78,2731.76 2720.88,2722.59C2721.99,2713.43 2726.59,2705.24 2733.85,2699.53C2740,2694.7 2747.38,2692.15 2755.18,2692.15C2765.88,2692.15 2775.79,2696.97 2782.39,2705.36L3071.85,3073.89C3077.56,3081.15 3080.09,3090.2 3078.99,3099.37C3077.89,3108.54 3073.28,3116.73 3066.02,3122.43C3059.87,3127.26 3052.5,3129.81 3044.69,3129.81Z" style="fill:rgb(0,123,43);fill-rule:nonzero;"/>
        <path d="M2755.18,2690.1C2746.92,2690.1 2739.1,2692.8 2732.59,2697.92C2716.71,2710.39 2713.94,2733.46 2726.41,2749.34L3015.87,3117.86C3022.86,3126.76 3033.36,3131.86 3044.69,3131.86C3052.96,3131.86 3060.77,3129.16 3067.29,3124.04C3074.98,3118 3079.86,3109.32 3081.03,3099.61C3082.19,3089.9 3079.51,3080.32 3073.47,3072.62L2784.01,2704.1C2777.02,2695.2 2766.51,2690.1 2755.18,2690.1ZM2755.18,2694.2C2764.82,2694.2 2774.36,2698.46 2780.78,2706.63L3070.24,3075.16C3081.33,3089.28 3078.88,3109.72 3064.75,3120.82C3058.8,3125.49 3051.72,3127.76 3044.69,3127.76C3035.05,3127.76 3025.51,3123.5 3019.1,3115.33L2729.63,2746.8C2718.54,2732.68 2721,2712.24 2735.12,2701.14C2741.08,2696.47 2748.16,2694.2 2755.18,2694.2Z" style="fill:rgb(63,38,18);fill-rule:nonzero;"/>
        <path d="M3112.35,3105.21L3096.2,3154.38L3039.66,3131.82L3070.56,3079.69L3118.68,3073.44L3112.35,3105.21Z" style="fill:white;fill-rule:nonzero;"/>
        <path d="M3062.98,3124.43L3027.28,3114.34C3045.43,3140.61 3064.95,3165.91 3085.74,3190.12C3092.04,3197.45 3098.86,3204.95 3107.37,3209.2C3109.12,3210.07 3110.93,3210.8 3112.83,3211.37C3122.45,3214.26 3133,3212.39 3142.11,3208.18C3151.23,3203.98 3159.14,3197.59 3166.81,3191.1C3199.12,3163.75 3228.91,3133.41 3255.67,3100.6C3268.38,3085.02 3280.91,3067.56 3281.95,3047.48C3282.07,3045.23 3282.03,3043.01 3281.83,3040.8C3279.82,3017.29 3261.07,2996.35 3238.38,2988.75C3213.55,2980.43 3185.63,2986.03 3162.73,2998.72C3139.36,3011.66 3120.1,3031.87 3108.28,3055.82C3096.45,3079.77 3092.14,3107.36 3096.08,3133.78" style="fill:white;fill-rule:nonzero;"/>
        <path d="M3122.6,3214.8C3118.99,3214.8 3115.51,3214.32 3112.24,3213.34C3110.28,3212.75 3108.39,3212 3106.46,3211.04C3097.65,3206.64 3090.63,3198.95 3084.19,3191.46C3063.42,3167.28 3043.71,3141.73 3025.6,3115.51C3025.11,3114.8 3025.11,3113.85 3025.62,3113.15C3026.12,3112.45 3027.01,3112.14 3027.84,3112.37L3063.54,3122.46C3064.63,3122.76 3065.26,3123.9 3064.96,3124.99C3064.65,3126.08 3063.52,3126.71 3062.42,3126.4L3032.24,3117.87C3049.37,3142.33 3067.87,3166.17 3087.3,3188.79C3093.47,3195.96 3100.17,3203.31 3108.28,3207.37C3110,3208.22 3111.68,3208.89 3113.42,3209.41C3121.68,3211.89 3131.56,3210.79 3141.25,3206.31C3150.15,3202.21 3157.79,3196.04 3165.48,3189.53C3197.64,3162.32 3227.45,3131.96 3254.08,3099.31C3266.03,3084.66 3278.87,3067.36 3279.9,3047.37C3280.01,3045.25 3279.98,3043.1 3279.79,3040.98C3277.91,3019.04 3260.61,2998.36 3237.73,2990.69C3215.43,2983.23 3188.46,2986.8 3163.72,3000.51C3140.77,3013.23 3121.73,3033.19 3110.12,3056.73C3098.5,3080.26 3094.23,3107.52 3098.11,3133.48C3098.27,3134.6 3097.5,3135.64 3096.38,3135.81C3095.25,3135.97 3094.22,3135.2 3094.05,3134.08C3090.05,3107.3 3094.46,3079.19 3106.44,3054.92C3118.42,3030.63 3138.06,3010.04 3161.74,2996.93C3187.48,2982.66 3215.65,2978.97 3239.03,2986.81C3263.42,2994.98 3281.86,3017.11 3283.88,3040.63C3284.08,3042.94 3284.12,3045.28 3284,3047.58C3282.9,3068.81 3269.62,3086.75 3257.26,3101.9C3230.46,3134.75 3200.48,3165.29 3168.13,3192.67C3160.53,3199.09 3152.33,3205.73 3142.97,3210.04C3136.13,3213.2 3129.16,3214.8 3122.6,3214.8Z" style="fill:rgb(63,38,18);fill-rule:nonzero;"/>
        <path d="M3109.88,3208.11C3111.06,3208.62 3112.22,3209.05 3113.42,3209.41C3121.68,3211.89 3131.56,3210.79 3141.25,3206.31C3150.15,3202.21 3157.79,3196.04 3165.48,3189.53C3197.64,3162.32 3227.45,3131.96 3254.08,3099.31C3266.03,3084.66 3278.87,3067.36 3279.9,3047.37C3280,3045.54 3279.98,3043.68 3279.86,3041.84C3268.7,3032.95 3252.01,3030.21 3236.07,3034.71C3221.73,3038.74 3208.06,3047.76 3193.06,3063.09C3154.45,3102.57 3131.65,3156.44 3111.53,3203.96C3110.99,3205.25 3110.39,3206.67 3109.88,3208.11ZM3122.6,3214.8C3118.99,3214.8 3115.51,3214.32 3112.24,3213.34C3110.28,3212.75 3108.39,3212 3106.46,3211.04C3105.56,3210.59 3105.12,3209.58 3105.4,3208.62C3106.05,3206.4 3106.96,3204.26 3107.75,3202.37C3128.01,3154.5 3150.98,3100.26 3190.13,3060.22C3205.65,3044.36 3219.9,3035 3234.96,3030.76C3252.51,3025.81 3270.97,3029.06 3283.15,3039.23C3283.57,3039.58 3283.83,3040.08 3283.88,3040.62C3284.08,3042.94 3284.12,3045.28 3284,3047.58C3282.9,3068.81 3269.62,3086.75 3257.26,3101.9C3230.46,3134.75 3200.48,3165.29 3168.13,3192.67C3160.53,3199.09 3152.33,3205.73 3142.97,3210.04C3136.13,3213.2 3129.16,3214.8 3122.6,3214.8Z" style="fill:rgb(63,38,18);fill-rule:nonzero;"/>
        <path d="M3088.3,3193.25C3088.14,3193.25 3087.98,3193.23 3087.82,3193.19C3086.72,3192.92 3086.04,3191.81 3086.31,3190.71C3101.24,3129.28 3135.14,3074.29 3184.32,3031.68C3205.14,3013.64 3240.27,3003.03 3267.83,3006.45C3268.95,3006.59 3269.75,3007.61 3269.61,3008.74C3269.47,3009.86 3268.45,3010.66 3267.33,3010.52C3240.81,3007.23 3207.03,3017.44 3187.01,3034.78C3138.47,3076.83 3105.03,3131.08 3090.3,3191.68C3090.07,3192.62 3089.23,3193.25 3088.3,3193.25Z" style="fill:rgb(63,38,18);fill-rule:nonzero;"/>
        <path d="M3048.47,3144.41L3094.41,3100.46C3103.39,3091.87 3103.41,3077.32 3094.46,3067.96C3085.51,3058.6 3070.97,3057.98 3061.99,3066.56L3016.05,3110.52C3007.07,3119.1 3007.05,3133.65 3016,3143.01C3024.95,3152.37 3039.49,3153 3048.47,3144.41Z" style="fill:white;fill-rule:nonzero;"/>
        <path d="M3077.23,3062.56C3072.01,3062.56 3067.13,3064.49 3063.41,3068.05L3017.47,3112C3013.53,3115.76 3011.36,3120.9 3011.35,3126.48C3011.34,3132.08 3013.52,3137.45 3017.48,3141.59C3021.44,3145.74 3026.71,3148.15 3032.31,3148.39C3037.88,3148.64 3043.11,3146.69 3047.05,3142.92L3048.47,3144.41L3047.05,3142.92L3092.99,3098.97C3096.93,3095.21 3099.1,3090.07 3099.11,3084.49C3099.12,3078.89 3096.94,3073.52 3092.98,3069.38C3089.02,3065.23 3083.75,3062.82 3078.15,3062.58C3077.84,3062.57 3077.54,3062.56 3077.23,3062.56ZM3033.23,3152.51C3032.87,3152.51 3032.5,3152.5 3032.13,3152.49C3025.47,3152.2 3019.21,3149.34 3014.52,3144.43C3009.82,3139.52 3007.24,3133.14 3007.25,3126.47C3007.26,3119.77 3009.88,3113.58 3014.63,3109.03L3060.58,3065.08C3065.33,3060.54 3071.63,3058.2 3078.33,3058.48C3084.99,3058.77 3091.25,3061.63 3095.94,3066.54C3100.64,3071.45 3103.22,3077.83 3103.21,3084.5C3103.2,3091.2 3100.58,3097.39 3095.83,3101.94L3049.88,3145.89C3045.39,3150.18 3039.52,3152.51 3033.23,3152.51Z" style="fill:rgb(63,38,18);fill-rule:nonzero;"/>
        <path d="M3219.42,3044.35C3229.14,3057.88 3239.45,3070.99 3250.31,3083.62C3253.36,3087.16 3256.45,3090.66 3259.58,3094.13C3261.36,3096.09 3264.25,3093.18 3262.48,3091.23C3251.55,3079.13 3241.12,3066.57 3231.28,3053.56C3228.46,3049.84 3225.69,3046.07 3222.96,3042.28C3222.32,3041.38 3221.18,3040.95 3220.16,3041.54C3219.27,3042.06 3218.77,3043.45 3219.42,3044.35Z" style="fill:rgb(63,38,18);fill-rule:nonzero;"/>
        <path d="M3182.45,3075.33C3194.35,3089.49 3206.24,3103.65 3218.14,3117.8C3221.52,3121.82 3224.9,3125.85 3228.27,3129.87C3228.99,3130.72 3230.44,3130.6 3231.18,3129.87C3232.02,3129.03 3231.89,3127.82 3231.18,3126.97C3219.28,3112.81 3207.39,3098.66 3195.49,3084.5C3192.11,3080.48 3188.73,3076.45 3185.35,3072.43C3184.64,3071.58 3183.19,3071.7 3182.45,3072.43C3181.61,3073.27 3181.74,3074.48 3182.45,3075.33Z" style="fill:rgb(63,38,18);fill-rule:nonzero;"/>
        <path d="M3154.11,3115.31C3165,3127.74 3175.89,3140.16 3186.78,3152.59C3189.84,3156.08 3192.9,3159.57 3195.96,3163.06C3196.69,3163.9 3198.12,3163.81 3198.86,3163.06C3199.69,3162.24 3199.6,3161 3198.86,3160.16C3187.97,3147.74 3177.08,3135.31 3166.19,3122.88C3163.13,3119.39 3160.07,3115.9 3157.01,3112.41C3156.28,3111.58 3154.85,3111.66 3154.11,3112.41C3153.28,3113.24 3153.37,3114.47 3154.11,3115.31Z" style="fill:rgb(63,38,18);fill-rule:nonzero;"/>
        <path d="M3131.46,3159.45C3141.62,3169.95 3151.78,3180.45 3161.94,3190.95C3163.78,3192.85 3166.68,3189.95 3164.84,3188.05C3154.68,3177.55 3144.52,3167.05 3134.36,3156.55C3132.52,3154.65 3129.62,3157.56 3131.46,3159.45Z" style="fill:rgb(63,38,18);fill-rule:nonzero;"/>
        <path d="M2772.11,2796.27C2661.72,2796.26 2574.33,2780.4 2512.38,2749.11C2496.65,2741.17 2483.24,2736.13 2474.37,2732.79C2467.77,2730.31 2465.04,2729.26 2463.81,2728.2L2462.15,2726.76L2747.34,2067.31L2855.02,2054.74L3244.89,2620.66L3260.47,2643.27L3259.91,2644.37C3259.25,2645.62 3243.34,2675.42 3188.98,2708.66C3157.19,2728.1 3118.76,2744.65 3074.75,2757.85C3019.8,2774.33 2955.95,2785.62 2884.96,2791.4C2845.26,2794.63 2807.29,2796.27 2772.13,2796.27L2772.11,2796.27Z" style="fill:rgb(195,16,25);fill-rule:nonzero;"/>
        <path d="M2856.01,2052.56L2853.55,2052.84L2748.27,2065.14L2745.92,2065.41L2744.99,2067.59L2477.76,2685.51L2460.86,2724.57L2459.68,2727.32L2461.93,2729.29L2462.43,2729.73L2462.46,2729.75L2462.48,2729.76C2463.96,2731.03 2466.5,2732.02 2473.65,2734.71C2482.48,2738.03 2495.82,2743.05 2511.45,2750.94C2573.7,2782.38 2661.4,2798.32 2772.11,2798.32C2807.34,2798.32 2845.37,2796.68 2885.13,2793.44C2956.26,2787.65 3020.26,2776.34 3075.33,2759.81C3119.51,2746.56 3158.11,2729.94 3190.05,2710.41C3244.89,2676.87 3261.06,2646.59 3261.72,2645.31L3262.86,2643.13L3261.46,2641.1L3246.58,2619.49L2857.41,2054.59L2856.01,2052.56ZM2854.03,2056.92L3243.2,2621.82L3258.08,2643.42C3258.08,2643.42 3195.39,2764.07 2884.8,2789.35C2843.38,2792.72 2805.96,2794.22 2772.11,2794.22C2637.14,2794.22 2559.2,2770.46 2513.3,2747.28C2487.67,2734.35 2467.78,2728.9 2465.14,2726.64C2464.8,2726.35 2464.63,2726.2 2464.63,2726.2L2481.52,2687.14L2748.75,2069.21L2854.03,2056.92Z" style="fill:rgb(63,38,18);fill-rule:nonzero;"/>
        <path d="M2471.14,2705.99L2507.45,2622.03L2642.82,2607.7L2659.16,2715.47L2471.14,2705.99Z" style="fill:rgb(103,153,103);fill-rule:nonzero;"/>
        <path d="M2644.55,2605.46L2640.65,2605.87L2508.42,2619.86L2506.04,2620.11L2505.09,2622.31L2470.43,2702.46L2468.08,2707.88L2473.99,2708.18L2656.55,2717.39L2661.56,2717.64L2660.81,2712.68L2645.14,2609.33L2644.55,2605.46ZM2641.08,2609.95L2656.75,2713.29L2474.19,2704.09L2508.85,2623.94L2641.08,2609.95Z" style="fill:rgb(63,38,18);fill-rule:nonzero;"/>
        <path d="M2519.87,2748.4L2519.61,2748.27C2502.84,2739.8 2485.22,2734.89 2474.69,2731.95C2467.83,2730.04 2465,2729.22 2463.81,2728.2L2462.15,2726.76L2480.12,2685.21L2617.66,2671.87L2665.1,2776.37L2519.87,2748.4Z" style="fill:rgb(72,122,72);fill-rule:nonzero;"/>
        <path d="M2618.92,2669.69L2616,2669.97L2481.13,2683.05L2478.72,2683.29L2477.76,2685.51L2460.86,2724.57L2459.68,2727.32L2461.93,2729.29L2462.44,2729.73L2462.46,2729.75L2462.48,2729.76C2463.99,2731.05 2466.48,2731.79 2474.15,2733.93C2484.6,2736.84 2502.1,2741.73 2518.69,2750.1L2519.2,2750.36L2519.76,2750.46L2660.82,2777.63L2668.61,2779.13L2665.33,2771.91L2620.14,2672.36L2618.92,2669.69ZM2616.4,2674.05L2661.6,2773.6L2520.54,2746.44C2494.91,2733.5 2467.78,2728.9 2465.14,2726.64C2464.8,2726.35 2464.63,2726.2 2464.63,2726.2L2481.52,2687.14L2616.4,2674.05Z" style="fill:rgb(63,38,18);fill-rule:nonzero;"/>
        <path d="M2820.24,2826.02C2716.65,2826.02 2628.02,2811.71 2556.81,2783.49C2531.41,2773.42 2495.36,2756.28 2467.9,2731.81C2467.42,2731.39 2467.05,2731.05 2466.77,2730.82L2463.23,2727.81L2601.38,2710.36L2631.79,2706.81L3243.89,2619.65L3264.4,2639L3263.47,2640.44C3263.2,2640.86 3235.58,2683.23 3175.66,2726.77C3140.49,2752.33 3101.22,2773.31 3058.94,2789.15C3006.11,2808.94 2948.39,2820.7 2887.4,2824.1C2864.52,2825.38 2841.94,2826.02 2820.27,2826.02L2820.24,2826.02Z" style="fill:rgb(0,123,43);fill-rule:nonzero;"/>
        <path d="M3244.58,2617.48L3242.62,2617.76L2631.5,2704.78L2601.16,2708.32L2467.59,2725.19L2458.37,2726.36L2465.44,2732.38C2465.71,2732.61 2466.07,2732.93 2466.53,2733.35C2494.22,2758.01 2530.5,2775.27 2556.06,2785.4C2587.84,2797.99 2623.76,2807.97 2662.84,2815.04C2710.6,2823.69 2763.56,2828.07 2820.24,2828.07C2841.97,2828.07 2864.6,2827.43 2887.52,2826.15C2948.72,2822.73 3006.63,2810.93 3059.66,2791.07C3102.12,2775.17 3141.55,2754.09 3176.86,2728.43C3208.31,2705.58 3230.6,2683.24 3243.77,2668.52C3258.11,2652.5 3264.92,2641.99 3265.2,2641.55L3267.04,2638.68L3264.56,2636.34L3246.01,2618.84L3244.58,2617.48ZM3243.2,2621.82L3261.75,2639.33C3261.75,2639.33 3153.77,2807.18 2887.29,2822.05C2863.75,2823.37 2841.44,2823.97 2820.24,2823.97C2565.33,2823.97 2476.02,2736.01 2468.1,2729.26L2601.64,2712.39L2632.03,2708.84L3243.2,2621.82Z" style="fill:rgb(63,38,18);fill-rule:nonzero;"/>
        <path d="M2892.78,2791.44C2780.11,2791.44 2706.66,2770.42 2664.87,2752.78C2619.4,2733.59 2600.92,2714.61 2600.16,2713.81L2599.26,2712.87L2639.17,2609.21L2855.82,2057.31L3200.45,2544.64L3267.92,2640.34L3267.13,2641.51C3266.9,2641.86 3242.86,2677.18 3189.18,2713C3157.69,2734 3122.28,2751.11 3083.94,2763.84C3036.04,2779.74 2983.4,2788.81 2927.48,2790.81C2915.78,2791.23 2904.11,2791.44 2892.79,2791.44L2892.78,2791.44Z" style="fill:rgb(238,42,53);fill-rule:nonzero;"/>
        <path d="M2855.3,2053.02L2852.52,2060.09L2637.27,2608.45L2612.57,2672.58L2597.81,2710.92L2596.88,2713.35L2598.68,2715.23C2599.45,2716.04 2618.21,2735.31 2664.07,2754.67C2690.81,2765.96 2721.33,2774.95 2754.78,2781.39C2796.49,2789.42 2842.92,2793.49 2892.78,2793.49C2904.13,2793.49 2915.83,2793.28 2927.55,2792.86C2983.67,2790.85 3036.51,2781.75 3084.59,2765.78C3123.1,2753 3158.68,2735.81 3190.31,2714.7C3244.33,2678.66 3267.86,2644.1 3268.83,2642.65L3270.41,2640.31L3268.78,2638L3246.31,2606.13L3202.12,2543.46L2859.69,2059.23L2855.3,2053.02ZM2856.34,2061.59L3198.77,2545.83L3242.95,2608.49L3265.43,2640.37C3265.43,2640.37 3171.72,2780.03 2927.41,2788.76C2915.48,2789.19 2903.94,2789.39 2892.78,2789.39C2675.34,2789.39 2601.64,2712.39 2601.64,2712.39L2616.4,2674.05L2641.08,2609.95L2856.34,2061.59Z" style="fill:rgb(63,38,18);fill-rule:nonzero;"/>
        <path d="M2892.78,2791.44C2780.11,2791.44 2706.66,2770.42 2664.87,2752.78C2619.4,2733.59 2600.92,2714.61 2600.16,2713.81L2599.26,2712.87L2639.61,2608.07L2640.95,2607.9L2641.1,2607.9C2641.76,2607.9 2642.25,2608.06 2648.55,2610.38C2759.54,2651.32 2840.24,2659.92 2888.4,2659.92C2901.94,2659.92 2915.11,2659.26 2927.56,2657.96C3050.5,2645.12 3142.2,2589.03 3197.48,2544.23L3199.18,2542.85L3267.92,2640.34L3267.13,2641.51C3266.9,2641.86 3242.86,2677.18 3189.18,2713C3157.69,2734 3122.28,2751.11 3083.94,2763.84C3036.04,2779.74 2983.4,2788.81 2927.48,2790.81C2915.78,2791.23 2904.1,2791.44 2892.78,2791.44Z" style="fill:rgb(0,198,69);fill-rule:nonzero;"/>
        <path d="M3199.6,2539.88L3196.19,2542.64C3141.13,2587.26 3049.79,2643.13 2927.34,2655.92C2914.97,2657.21 2901.86,2657.87 2888.4,2657.87C2840.41,2657.87 2759.96,2649.29 2649.26,2608.46C2642.71,2606.04 2642.17,2605.85 2641.1,2605.85L2640.85,2605.85L2640.57,2605.88L2638.14,2606.18L2637.26,2608.47L2612.57,2672.58L2597.81,2710.92L2596.88,2713.35L2598.68,2715.23C2599.45,2716.04 2618.21,2735.31 2664.07,2754.67C2690.82,2765.96 2721.33,2774.95 2754.78,2781.39C2796.49,2789.42 2842.92,2793.49 2892.78,2793.49C2904.13,2793.49 2915.83,2793.28 2927.55,2792.86C2983.67,2790.85 3036.51,2781.75 3084.59,2765.78C3123.1,2753 3158.68,2735.81 3190.31,2714.7C3244.33,2678.66 3267.86,2644.11 3268.83,2642.65L3270.41,2640.31L3268.78,2638L3246.31,2606.13L3202.12,2543.46L3199.6,2539.88ZM3198.77,2545.83L3242.95,2608.49L3265.43,2640.37C3265.43,2640.37 3171.72,2780.03 2927.41,2788.76C2915.48,2789.19 2903.94,2789.39 2892.78,2789.39C2675.34,2789.39 2601.64,2712.39 2601.64,2712.39L2616.4,2674.05L2641.08,2609.95L2641.1,2609.95C2643.75,2609.95 2766.84,2661.97 2888.4,2661.97C2901.59,2661.97 2914.77,2661.35 2927.77,2660C3051.59,2647.07 3143.19,2590.87 3198.77,2545.83Z" style="fill:rgb(63,38,18);fill-rule:nonzero;"/>
        <path d="M2892.78,2791.44C2780.11,2791.44 2706.66,2770.42 2664.87,2752.78C2619.4,2733.59 2600.92,2714.61 2600.16,2713.81L2599.26,2712.87L2615.36,2671.04L2617.45,2672.29C2664.25,2700.34 2761.51,2747.39 2887.2,2747.39C2902.54,2747.39 2918.08,2746.68 2933.39,2745.29C3085.19,2731.54 3191.63,2652.73 3241.57,2606.98L3243.29,2605.41L3267.92,2640.34L3267.13,2641.51C3266.9,2641.86 3242.86,2677.18 3189.18,2713C3157.69,2734 3122.28,2751.11 3083.94,2763.84C3036.04,2779.74 2983.4,2788.81 2927.48,2790.81C2915.78,2791.23 2904.1,2791.44 2892.78,2791.44Z" style="fill:rgb(0,151,54);fill-rule:nonzero;"/>
        <path d="M3243.62,2602.32L3240.18,2605.47C3190.44,2651.04 3084.4,2729.55 2933.2,2743.25C2917.95,2744.63 2902.47,2745.34 2887.2,2745.34C2762,2745.34 2665.12,2698.47 2618.51,2670.54L2614.33,2668.03L2612.57,2672.58L2597.81,2710.92L2596.88,2713.35L2598.68,2715.23C2599.45,2716.04 2618.21,2735.31 2664.07,2754.67C2690.82,2765.96 2721.33,2774.95 2754.78,2781.39C2796.49,2789.42 2842.92,2793.49 2892.78,2793.49C2904.13,2793.49 2915.83,2793.28 2927.55,2792.86C2983.67,2790.85 3036.51,2781.75 3084.59,2765.78C3123.1,2753 3158.68,2735.81 3190.31,2714.7C3244.33,2678.66 3267.86,2644.1 3268.83,2642.65L3270.41,2640.31L3268.78,2638L3246.31,2606.13L3243.62,2602.32ZM3242.95,2608.49L3265.43,2640.37C3265.43,2640.37 3171.72,2780.03 2927.41,2788.76C2915.48,2789.19 2903.94,2789.39 2892.78,2789.39C2675.34,2789.39 2601.64,2712.39 2601.64,2712.39L2616.4,2674.05C2655.42,2697.44 2753.95,2749.44 2887.2,2749.44C2902.23,2749.44 2917.7,2748.78 2933.57,2747.34C3086.08,2733.52 3191.49,2655.64 3242.95,2608.49Z" style="fill:rgb(63,38,18);fill-rule:nonzero;"/>
        <path d="M2778.29,2395.48C2776.01,2370.65 2793.56,2348.52 2818.23,2345.09C2818.96,2344.99 2819.68,2344.9 2820.42,2344.84C2821.84,2344.71 2823.29,2344.64 2824.72,2344.64C2835.54,2344.64 2846.1,2348.47 2854.46,2355.41C2864.02,2363.37 2869.92,2374.58 2871.05,2386.98L2878.65,2469.84L2785.88,2478.35L2778.29,2395.48Z" style="fill:white;fill-rule:nonzero;"/>
        <path d="M2824.72,2342.59L2824.72,2346.69L2824.72,2342.59C2823.23,2342.59 2821.72,2342.66 2820.23,2342.79C2819.47,2342.86 2818.7,2342.95 2817.95,2343.05C2792.19,2346.64 2773.87,2369.75 2776.24,2395.67L2783.65,2476.49L2784.03,2480.58L2788.11,2480.2L2876.79,2472.07L2880.88,2471.7L2880.5,2467.61L2873.09,2386.79C2871.91,2373.85 2865.76,2362.15 2855.77,2353.84C2847.04,2346.58 2836.01,2342.59 2824.72,2342.59ZM2824.72,2346.69C2835.41,2346.69 2845.37,2350.53 2853.15,2356.99C2861.91,2364.28 2867.89,2374.91 2869.01,2387.16L2876.42,2467.99L2787.74,2476.12L2780.33,2395.29C2778.15,2371.5 2795.1,2350.37 2818.51,2347.12C2819.21,2347.02 2819.9,2346.94 2820.6,2346.88C2821.98,2346.75 2823.36,2346.69 2824.72,2346.69Z" style="fill:rgb(63,38,18);fill-rule:nonzero;"/>
        <path d="M2828.22,2472.41L2787.74,2476.12L2780.33,2395.29C2778.15,2371.5 2795.1,2350.37 2818.51,2347.12C2824.16,2364.96 2829.81,2386.84 2831.96,2407.98C2833.53,2423.31 2833.95,2445.27 2828.22,2472.41Z" style="fill:rgb(63,38,18);fill-rule:nonzero;"/>
        <path d="M2833.36,2387.41L2811.45,2411.73L2841.92,2414.79L2833.36,2387.41Z" style="fill:white;fill-rule:nonzero;"/>
        <path d="M2832.86,2453.66C2796.23,2456.69 2776.15,2484.5 2773.15,2488.53L2898.74,2477.98C2895.33,2474.56 2870.61,2450.53 2832.86,2453.66Z" style="fill:rgb(238,42,53);fill-rule:nonzero;"/>
        <path d="M2777.89,2341.71C2777.49,2341.71 2777.09,2341.6 2776.74,2341.36C2775.8,2340.72 2775.56,2339.45 2776.19,2338.51C2784.53,2326.2 2800.58,2319.37 2815.24,2321.93C2816.35,2322.12 2817.1,2323.19 2816.91,2324.3C2816.71,2325.42 2815.65,2326.17 2814.53,2325.97C2801.42,2323.68 2787.05,2329.79 2779.59,2340.81C2779.19,2341.4 2778.54,2341.71 2777.89,2341.71Z" style="fill:rgb(63,38,18);fill-rule:nonzero;"/>
        <path d="M2921.47,2386.26C2919.19,2361.43 2936.74,2339.3 2961.41,2335.87C2962.14,2335.77 2962.86,2335.69 2963.6,2335.62C2965.03,2335.49 2966.47,2335.42 2967.9,2335.42C2978.72,2335.42 2989.28,2339.25 2997.64,2346.2C3007.2,2354.16 3013.1,2365.36 3014.23,2377.76L3021.83,2460.63L2929.06,2469.13L2921.47,2386.26Z" style="fill:white;fill-rule:nonzero;"/>
        <path d="M2967.9,2333.37L2967.9,2337.47L2967.9,2333.37C2966.41,2333.37 2964.9,2333.44 2963.41,2333.58C2962.65,2333.65 2961.89,2333.73 2961.13,2333.84C2935.37,2337.42 2917.05,2360.53 2919.43,2386.45L2926.84,2467.28L2927.21,2471.36L2931.29,2470.99L3019.98,2462.86L3024.06,2462.48L3023.69,2458.4L3016.28,2377.57C3015.09,2364.63 3008.94,2352.93 2998.95,2344.62C2990.22,2337.37 2979.2,2333.37 2967.9,2333.37ZM2967.9,2337.47C2978.6,2337.47 2988.55,2341.31 2996.33,2347.77C3005.09,2355.07 3011.07,2365.69 3012.19,2377.95L3019.6,2458.77L2930.92,2466.9L2923.51,2386.07C2921.33,2362.28 2938.28,2341.16 2961.69,2337.9C2962.39,2337.81 2963.08,2337.73 2963.79,2337.66C2965.17,2337.54 2966.54,2337.47 2967.9,2337.47Z" style="fill:rgb(63,38,18);fill-rule:nonzero;"/>
        <path d="M2971.4,2463.19L2930.92,2466.9L2923.51,2386.07C2921.33,2362.28 2938.28,2341.16 2961.69,2337.9C2967.34,2355.74 2972.99,2377.62 2975.15,2398.76C2976.71,2414.09 2977.14,2436.06 2971.4,2463.19Z" style="fill:rgb(63,38,18);fill-rule:nonzero;"/>
        <path d="M2976.55,2378.19L2954.64,2402.51L2985.11,2405.57L2976.55,2378.19Z" style="fill:white;fill-rule:nonzero;"/>
        <path d="M2976.04,2444.44C2939.42,2447.47 2919.33,2475.28 2916.33,2479.31L3041.92,2468.76C3038.51,2465.34 3013.79,2441.32 2976.04,2444.44Z" style="fill:rgb(238,42,53);fill-rule:nonzero;"/>
        <path d="M2993.24,2325.57C2992.78,2325.57 2992.33,2325.42 2991.95,2325.12C2981.61,2316.74 2966.08,2315.07 2954.2,2321.07C2953.19,2321.57 2951.95,2321.17 2951.44,2320.16C2950.93,2319.15 2951.34,2317.91 2952.35,2317.4C2965.63,2310.71 2982.98,2312.57 2994.53,2321.93C2995.41,2322.64 2995.55,2323.93 2994.83,2324.81C2994.43,2325.31 2993.84,2325.57 2993.24,2325.57Z" style="fill:rgb(63,38,18);fill-rule:nonzero;"/>
        <path d="M2903.13,2460.29C2908.67,2450.64 2921.73,2446.28 2932.11,2450.29C2942.49,2454.31 2949.18,2465.99 2947.79,2477.03C2946.93,2483.79 2943.2,2490.26 2937.45,2493.92C2931.69,2497.58 2923.95,2498.15 2917.97,2494.88" style="fill:rgb(238,42,53);fill-rule:nonzero;"/>
        <path d="M2926.7,2499.09C2923.3,2499.09 2919.94,2498.29 2916.99,2496.68C2915.99,2496.14 2915.63,2494.89 2916.17,2493.9C2916.71,2492.9 2917.96,2492.54 2918.95,2493.08C2924.1,2495.89 2931.09,2495.53 2936.35,2492.19C2941.42,2488.96 2944.94,2483.2 2945.75,2476.77C2947.03,2466.61 2940.72,2455.82 2931.37,2452.21C2921.79,2448.5 2909.92,2452.59 2904.9,2461.32C2904.34,2462.3 2903.09,2462.64 2902.1,2462.07C2901.12,2461.51 2900.78,2460.25 2901.35,2459.27C2907.33,2448.86 2921.46,2443.97 2932.85,2448.38C2944.06,2452.71 2951.36,2465.14 2949.82,2477.29C2948.86,2484.91 2944.64,2491.77 2938.55,2495.65C2934.95,2497.93 2930.79,2499.09 2926.7,2499.09Z" style="fill:rgb(63,38,18);fill-rule:nonzero;"/>
        <path d="M3021.48,2558.35C3011.18,2571.45 2997.15,2582.12 2981.65,2588.26C2974.19,2591.2 2961.72,2596.4 2949.51,2598.66C2936.36,2601.11 2922.41,2602.87 2911.86,2603.29C2895.2,2603.95 2867.39,2598.73 2851.25,2594.52C2842.57,2592.27 2834.04,2589.08 2826.18,2584.78C2819.42,2581.08 2813.17,2576.57 2807.7,2571.14C2795.88,2559.38 2788.16,2542.98 2788.96,2526.33C2789.18,2521.78 2790.4,2516.81 2793.18,2513.42C2794.39,2511.94 2795.9,2510.76 2797.75,2510.04C2803.55,2507.82 2809.85,2511.16 2815.29,2514.15C2845.51,2530.74 2888.85,2539.57 2914.43,2539.49C2947.98,2539.38 2979.8,2522.3 3007.03,2502.71C3012.08,2499.08 3017.92,2495 3023.95,2496.5C3028.04,2497.53 3030.84,2500.83 3032.61,2504.78C3033.58,2506.95 3034.25,2509.31 3034.64,2511.6C3037.46,2528.03 3031.79,2545.25 3021.48,2558.35Z" style="fill:rgb(130,2,2);fill-rule:nonzero;"/>
        <path d="M3020.03,2556.9C3013.84,2564.74 3006.46,2571.65 2998.16,2577.22C2990.25,2582.53 2981.64,2586.17 2972.78,2589.55C2967.84,2591.43 2962.85,2593.18 2957.76,2594.61C2952.32,2596.14 2946.77,2597.13 2941.19,2598.04C2931.04,2599.68 2920.69,2601.08 2910.39,2601.28C2901.7,2601.45 2892.97,2600.42 2884.4,2599.14C2875.37,2597.79 2866.39,2596.05 2857.51,2593.96C2847.58,2591.62 2837.86,2588.59 2828.8,2583.85C2819.48,2578.98 2810.96,2572.52 2804.31,2564.33C2798.16,2556.74 2793.71,2547.67 2791.85,2538.06C2790.95,2533.41 2790.56,2528.41 2791.25,2523.71C2791.9,2519.3 2793.68,2514.11 2798.06,2512.13C2802.79,2509.98 2808.2,2512.67 2812.37,2514.9C2816.52,2517.1 2820.64,2519.29 2824.93,2521.23C2833.73,2525.21 2842.83,2528.52 2852.09,2531.29C2869.3,2536.45 2887.2,2540.06 2905.15,2541.23C2914.19,2541.82 2923.2,2541.48 2932.15,2539.98C2942.44,2538.24 2952.46,2535.1 2962.07,2531.06C2971.88,2526.93 2981.28,2521.94 2990.32,2516.36C2994.82,2513.59 2999.23,2510.68 3003.56,2507.66C3007.75,2504.75 3011.85,2501.18 3016.62,2499.25C3018.83,2498.36 3021.24,2497.9 3023.58,2498.53C3025.58,2499.06 3027.22,2500.32 3028.52,2501.91C3031.61,2505.67 3032.69,2510.89 3033.11,2515.62C3033.99,2525.52 3031.89,2535.55 3027.65,2544.51C3025.57,2548.89 3023.02,2553.07 3020.03,2556.9C3019.35,2557.77 3019.18,2558.95 3020.03,2559.8C3020.74,2560.51 3022.25,2560.67 3022.93,2559.8C3029.39,2551.55 3034.16,2541.95 3036.23,2531.65C3037.26,2526.52 3037.67,2521.24 3037.25,2516.02C3036.83,2510.77 3035.75,2505.32 3032.8,2500.85C3030.1,2496.76 3025.8,2493.9 3020.75,2494.15C3015.32,2494.41 3010.61,2497.63 3006.34,2500.69C2997.46,2507.06 2988.34,2513.07 2978.79,2518.36C2960.07,2528.73 2939.39,2536.58 2917.81,2537.37C2909.61,2537.68 2901.38,2537 2893.26,2535.96C2883.96,2534.77 2874.74,2532.97 2865.64,2530.73C2856,2528.36 2846.47,2525.46 2837.18,2521.92C2832.63,2520.18 2828.14,2518.28 2823.74,2516.18C2819.22,2514.01 2814.92,2511.32 2810.31,2509.34C2805.33,2507.2 2799.46,2506.12 2794.66,2509.34C2790.37,2512.22 2788.18,2517.28 2787.36,2522.23C2785.69,2532.3 2787.97,2542.93 2792.07,2552.15C2801.08,2572.46 2819.95,2586.03 2840.4,2593.33C2849.28,2596.51 2858.56,2598.55 2867.8,2600.38C2877.39,2602.29 2887.08,2603.86 2896.82,2604.77C2901.12,2605.17 2905.46,2605.44 2909.79,2605.39C2914.61,2605.34 2919.44,2604.91 2924.24,2604.41C2929.97,2603.81 2935.68,2603.04 2941.37,2602.14C2947.1,2601.23 2952.82,2600.24 2958.42,2598.69C2963.66,2597.24 2968.79,2595.44 2973.87,2593.51C2978.26,2591.83 2982.68,2590.16 2986.95,2588.2C2996.42,2583.87 3005.15,2577.91 3012.77,2570.82C3016.44,2567.41 3019.83,2563.73 3022.93,2559.8C3023.62,2558.93 3023.78,2557.74 3022.93,2556.9C3022.22,2556.18 3020.72,2556.02 3020.03,2556.9Z" style="fill:rgb(63,38,18);fill-rule:nonzero;"/>
        <path d="M3032.61,2504.78C3001.22,2536.08 2957.68,2554.96 2913.35,2556.25C2869.85,2557.52 2826.13,2541.82 2793.18,2513.42C2794.39,2511.94 2795.9,2510.76 2797.75,2510.04C2803.55,2507.82 2809.85,2511.16 2815.29,2514.15C2845.51,2530.74 2888.85,2539.57 2914.43,2539.49C2947.98,2539.38 2979.8,2522.3 3007.03,2502.71C3012.08,2499.08 3017.92,2495 3023.95,2496.5C3028.04,2497.53 3030.84,2500.83 3032.61,2504.78Z" style="fill:white;fill-rule:nonzero;"/>
        <path d="M2949.51,2598.66C2936.36,2601.11 2922.41,2602.87 2911.86,2603.29C2895.2,2603.95 2867.39,2598.73 2851.25,2594.52C2842.57,2592.27 2834.04,2589.08 2826.18,2584.78C2832.09,2579.22 2839.35,2575.09 2847.01,2572.38C2857.15,2568.8 2867.99,2567.58 2878.74,2567.54C2891.61,2567.5 2904.59,2569.16 2916.65,2573.66C2928.7,2578.16 2939.82,2585.62 2947.59,2595.89C2948.26,2596.78 2948.92,2597.71 2949.51,2598.66Z" style="fill:rgb(244,39,55);fill-rule:nonzero;"/>
        <path d="M3020.03,2556.9C3013.84,2564.74 3006.46,2571.65 2998.16,2577.22C2990.25,2582.53 2981.64,2586.17 2972.78,2589.55C2967.84,2591.43 2962.85,2593.18 2957.76,2594.61C2952.32,2596.14 2946.77,2597.13 2941.19,2598.04C2931.04,2599.68 2920.69,2601.08 2910.39,2601.28C2901.7,2601.45 2892.97,2600.42 2884.4,2599.14C2875.37,2597.79 2866.39,2596.05 2857.51,2593.96C2847.58,2591.62 2837.86,2588.59 2828.8,2583.85C2819.48,2578.98 2810.96,2572.52 2804.31,2564.33C2798.16,2556.74 2793.71,2547.67 2791.85,2538.06C2790.95,2533.41 2790.56,2528.41 2791.25,2523.71C2791.9,2519.3 2793.68,2514.11 2798.06,2512.13C2802.79,2509.98 2808.2,2512.67 2812.37,2514.9C2816.52,2517.1 2820.64,2519.29 2824.93,2521.23C2833.73,2525.21 2842.83,2528.52 2852.09,2531.29C2869.3,2536.45 2887.2,2540.06 2905.15,2541.23C2914.19,2541.82 2923.2,2541.48 2932.15,2539.98C2942.44,2538.24 2952.46,2535.1 2962.07,2531.06C2971.88,2526.93 2981.28,2521.94 2990.32,2516.36C2994.82,2513.59 2999.23,2510.68 3003.56,2507.66C3007.75,2504.75 3011.85,2501.18 3016.62,2499.25C3018.83,2498.36 3021.24,2497.9 3023.58,2498.53C3025.58,2499.06 3027.22,2500.32 3028.52,2501.91C3031.61,2505.67 3032.69,2510.89 3033.11,2515.62C3033.99,2525.52 3031.89,2535.55 3027.65,2544.51C3025.57,2548.89 3023.02,2553.07 3020.03,2556.9C3019.35,2557.77 3019.18,2558.95 3020.03,2559.8C3020.74,2560.51 3022.25,2560.67 3022.93,2559.8C3029.39,2551.55 3034.16,2541.95 3036.23,2531.65C3037.26,2526.52 3037.67,2521.24 3037.25,2516.02C3036.83,2510.77 3035.75,2505.32 3032.8,2500.85C3030.1,2496.76 3025.8,2493.9 3020.75,2494.15C3015.32,2494.41 3010.61,2497.63 3006.34,2500.69C2997.46,2507.06 2988.34,2513.07 2978.79,2518.36C2960.07,2528.73 2939.39,2536.58 2917.81,2537.37C2909.61,2537.68 2901.38,2537 2893.26,2535.96C2883.96,2534.77 2874.74,2532.97 2865.64,2530.73C2856,2528.36 2846.47,2525.46 2837.18,2521.92C2832.63,2520.18 2828.14,2518.28 2823.74,2516.18C2819.22,2514.01 2814.92,2511.32 2810.31,2509.34C2805.33,2507.2 2799.46,2506.12 2794.66,2509.34C2790.37,2512.22 2788.18,2517.28 2787.36,2522.23C2785.69,2532.3 2787.97,2542.93 2792.07,2552.15C2801.08,2572.46 2819.95,2586.03 2840.4,2593.33C2849.28,2596.51 2858.56,2598.55 2867.8,2600.38C2877.39,2602.29 2887.08,2603.86 2896.82,2604.77C2901.12,2605.17 2905.46,2605.44 2909.79,2605.39C2914.61,2605.34 2919.44,2604.91 2924.24,2604.41C2929.97,2603.81 2935.68,2603.04 2941.37,2602.14C2947.1,2601.23 2952.82,2600.24 2958.42,2598.69C2963.66,2597.24 2968.79,2595.44 2973.87,2593.51C2978.26,2591.83 2982.68,2590.16 2986.95,2588.2C2996.42,2583.87 3005.15,2577.91 3012.77,2570.82C3016.44,2567.41 3019.83,2563.73 3022.93,2559.8C3023.62,2558.93 3023.78,2557.74 3022.93,2556.9C3022.22,2556.18 3020.72,2556.02 3020.03,2556.9Z" style="fill:rgb(63,38,18);fill-rule:nonzero;"/>
        <path d="M2480.44,2568.16C2432.95,2568.16 2385.59,2548.62 2347.06,2513.12C2308.55,2477.65 2280.59,2427.8 2268.34,2372.76C2266.9,2366.32 2268.06,2359.71 2271.6,2354.15C2275.14,2348.58 2280.63,2344.73 2287.07,2343.29C2288.84,2342.9 2290.66,2342.7 2292.46,2342.7C2303.91,2342.7 2314.04,2350.82 2316.53,2362.02C2336.76,2452.86 2405.68,2518.79 2480.4,2518.79C2481.54,2518.79 2482.66,2518.77 2483.8,2518.74C2542.03,2517.21 2597.12,2473.87 2624.17,2408.32C2628,2399.04 2636.96,2393.05 2647,2393.05C2650.23,2393.05 2653.39,2393.68 2656.4,2394.92C2668.99,2400.11 2675,2414.57 2669.81,2427.16C2653,2467.89 2627.16,2502.57 2595.09,2527.44C2562.11,2553.01 2524.08,2567.07 2485.1,2568.1C2483.53,2568.14 2481.96,2568.16 2480.44,2568.16Z" style="fill:rgb(195,16,25);fill-rule:nonzero;"/>
        <path d="M2292.46,2340.65C2290.51,2340.65 2288.54,2340.86 2286.62,2341.29C2279.65,2342.84 2273.7,2347.02 2269.87,2353.05C2266.04,2359.07 2264.78,2366.23 2266.33,2373.2C2272.6,2401.34 2282.78,2427.96 2296.58,2452.32C2310.02,2476.04 2326.54,2497.01 2345.67,2514.63C2364.83,2532.28 2386.01,2546.04 2408.64,2555.52C2431.91,2565.27 2456.07,2570.21 2480.44,2570.21C2482,2570.21 2483.59,2570.19 2485.15,2570.15C2524.57,2569.11 2563.02,2554.9 2596.34,2529.06C2628.7,2503.97 2654.76,2469.01 2671.71,2427.94C2677.33,2414.31 2670.82,2398.65 2657.19,2393.02C2653.93,2391.68 2650.5,2391 2647,2391C2636.12,2391 2626.42,2397.49 2622.27,2407.54C2595.54,2472.34 2541.16,2515.18 2483.74,2516.69C2482.6,2516.72 2481.51,2516.74 2480.4,2516.74C2406.63,2516.74 2338.55,2451.48 2318.53,2361.58C2317.2,2355.61 2313.84,2350.23 2309.05,2346.44C2304.34,2342.7 2298.45,2340.65 2292.46,2340.65ZM2292.46,2344.75C2302.83,2344.75 2312.18,2351.93 2314.53,2362.47C2335.1,2454.84 2404.52,2520.84 2480.4,2520.84C2481.55,2520.84 2482.7,2520.82 2483.85,2520.79C2542.89,2519.24 2598.71,2475.4 2626.06,2409.11C2629.67,2400.37 2638.1,2395.1 2647,2395.1C2649.87,2395.1 2652.8,2395.65 2655.62,2396.82C2667.18,2401.58 2672.68,2414.82 2667.91,2426.38C2651.24,2466.78 2625.62,2501.17 2593.83,2525.82C2561.2,2551.12 2523.58,2565.04 2485.05,2566.05C2483.51,2566.09 2481.97,2566.11 2480.44,2566.11C2383.42,2566.11 2295.52,2485.39 2270.34,2372.31C2267.62,2360.11 2275.31,2348.01 2287.51,2345.3C2289.17,2344.93 2290.83,2344.75 2292.46,2344.75Z" style="fill:rgb(63,38,18);fill-rule:nonzero;"/>
        <path d="M2268.67,2378.66C2264.71,2378.66 2261.08,2377.88 2257.89,2376.34C2248.89,2372.01 2244.37,2360.84 2248.23,2352.44C2251.34,2345.66 2258.39,2342.18 2264.76,2339.45C2280.74,2332.6 2311.88,2321.15 2312.19,2321.03L2313.95,2320.39L2315.46,2323.57C2317.74,2328.33 2320.57,2334.25 2321.53,2339.14C2322.76,2345.44 2321.9,2351.38 2319.12,2355.87C2315.99,2360.91 2310.73,2363.88 2306.05,2366.27C2299.85,2369.42 2293.4,2372.25 2286.89,2374.68C2282.31,2376.39 2275.43,2378.66 2268.67,2378.66Z" style="fill:white;fill-rule:nonzero;"/>
        <path d="M2315,2317.82L2311.48,2319.11C2311.17,2319.22 2279.98,2330.69 2263.95,2337.56C2257.23,2340.44 2249.78,2344.14 2246.36,2351.58C2242.06,2360.96 2247.03,2373.39 2257,2378.19C2260.47,2379.86 2264.4,2380.71 2268.68,2380.71C2275.76,2380.71 2282.88,2378.36 2287.61,2376.6C2294.2,2374.15 2300.71,2371.28 2306.98,2368.09C2311.91,2365.58 2317.46,2362.44 2320.86,2356.95C2323.92,2352.02 2324.87,2345.56 2323.54,2338.75C2322.53,2333.6 2319.64,2327.55 2317.31,2322.69C2317.07,2322.17 2316.83,2321.68 2316.61,2321.2L2315,2317.82ZM2312.9,2322.96C2315.15,2327.71 2318.5,2334.38 2319.51,2339.54C2320.52,2344.7 2320.15,2350.32 2317.38,2354.79C2314.6,2359.26 2309.81,2362.05 2305.11,2364.44C2298.97,2367.57 2292.64,2370.35 2286.18,2372.76C2280.61,2374.83 2274.53,2376.61 2268.68,2376.61C2265.25,2376.61 2261.91,2376 2258.78,2374.49C2251.15,2370.82 2246.56,2360.98 2250.09,2353.29C2252.88,2347.22 2259.43,2343.96 2265.57,2341.33C2281.68,2334.42 2312.9,2322.96 2312.9,2322.96Z" style="fill:rgb(63,38,18);fill-rule:nonzero;"/>
        <path d="M2254.93,2262.93C2254.93,2262.93 2223.65,2235.22 2194.18,2235.38C2164.71,2235.55 2158.89,2240.81 2156.87,2249.62C2154.86,2258.44 2169.81,2271.63 2169.81,2271.63C2169.81,2271.63 2238.46,2302.99 2247.09,2321.29C2255.73,2339.6 2271.37,2351.18 2271.37,2351.18L2310.71,2331.52L2311.22,2304.24L2254.93,2262.93Z" style="fill:white;fill-rule:nonzero;"/>
        <path d="M2303.47,2329.26C2318.06,2321.84 2328.55,2306.87 2330.54,2290.62C2331.1,2285.98 2331.18,2280.85 2334.3,2277.37C2337.5,2273.79 2342.91,2273.19 2347.68,2273.76C2352.45,2274.34 2357.17,2275.83 2361.96,2275.47C2372.13,2274.71 2380.35,2264.94 2380.74,2254.75C2381.14,2244.55 2374.67,2234.8 2365.78,2229.79C2356.89,2224.78 2346,2224.11 2336.05,2226.37C2324.46,2229.01 2313.77,2235.51 2306.11,2244.61C2302.18,2249.28 2297.92,2255.18 2291.82,2254.88C2285.86,2254.58 2282.18,2248.54 2278.75,2243.65C2269.08,2229.86 2253.21,2220.58 2236.44,2218.93C2219.67,2217.28 2202.3,2223.27 2190.11,2234.91" style="fill:white;fill-rule:nonzero;"/>
        <path d="M2304.4,2331.09L2302.54,2327.43C2316.42,2320.38 2326.61,2305.83 2328.5,2290.37C2328.58,2289.72 2328.65,2289.05 2328.72,2288.39C2329.16,2284.21 2329.66,2279.48 2332.77,2276C2335.94,2272.45 2341.32,2270.94 2347.92,2271.73C2349.57,2271.93 2351.21,2272.23 2352.8,2272.52C2355.92,2273.1 2358.87,2273.64 2361.81,2273.42C2370.59,2272.77 2378.32,2264.18 2378.69,2254.67C2379.04,2245.74 2373.45,2236.46 2364.77,2231.58C2356.92,2227.16 2346.89,2226.02 2336.51,2228.37C2325.31,2230.91 2315.08,2237.15 2307.68,2245.93C2307.34,2246.35 2306.99,2246.77 2306.63,2247.19C2302.73,2251.91 2298.31,2257.27 2291.72,2256.93C2285.23,2256.61 2281.33,2250.98 2277.9,2246.02C2277.62,2245.62 2277.34,2245.22 2277.07,2244.83C2267.72,2231.49 2252.45,2222.57 2236.24,2220.97C2220.02,2219.37 2203.31,2225.14 2191.53,2236.4L2188.7,2233.43C2201.33,2221.36 2219.25,2215.18 2236.64,2216.89C2254.03,2218.6 2270.4,2228.17 2280.43,2242.47C2280.71,2242.87 2280.99,2243.28 2281.27,2243.69C2284.31,2248.07 2287.45,2252.61 2291.92,2252.83C2296.46,2253.07 2300.02,2248.74 2303.47,2244.58C2303.83,2244.14 2304.19,2243.71 2304.55,2243.29C2312.51,2233.83 2323.54,2227.11 2335.6,2224.37C2346.97,2221.79 2358.05,2223.08 2366.79,2228C2376.77,2233.62 2383.2,2244.4 2382.79,2254.82C2382.34,2266.52 2373.06,2276.7 2362.11,2277.51C2358.65,2277.77 2355.29,2277.15 2352.05,2276.55C2350.46,2276.26 2348.96,2275.98 2347.43,2275.8C2344.4,2275.43 2338.87,2275.33 2335.83,2278.74C2333.6,2281.23 2333.21,2284.91 2332.8,2288.82C2332.73,2289.51 2332.65,2290.19 2332.57,2290.87C2330.49,2307.9 2319.7,2323.31 2304.4,2331.09Z" style="fill:rgb(63,38,18);fill-rule:nonzero;"/>
        <path d="M2230.1,2251.75C2215.85,2226.97 2133.44,2229.26 2158.85,2261.07" style="fill:white;fill-rule:nonzero;"/>
        <path d="M2157.25,2262.35C2152.17,2255.99 2150.73,2250.23 2152.99,2245.23C2156.16,2238.2 2166.56,2233.75 2181.53,2233.02C2200.94,2232.06 2224.46,2237.84 2231.87,2250.72L2228.32,2252.77C2221.8,2241.43 2199.45,2236.24 2181.73,2237.11C2168.75,2237.75 2159.17,2241.51 2156.72,2246.92C2155.15,2250.4 2156.41,2254.73 2160.45,2259.79L2157.25,2262.35Z" style="fill:rgb(63,38,18);fill-rule:nonzero;"/>
        <path d="M2210.59,2269.74C2197,2261.19 2180.09,2258.09 2164.35,2261.26C2159.11,2262.31 2153.52,2264.42 2150.99,2269.13C2148.63,2273.54 2149.73,2279.25 2152.77,2283.22C2155.8,2287.2 2160.46,2289.65 2165.23,2291.15C2170,2292.65 2174.99,2293.31 2179.88,2294.4C2201.47,2299.24 2220.87,2313.17 2232.37,2332.07C2237.12,2339.87 2240.87,2348.81 2248.38,2354.02C2257.8,2360.55 2272.04,2358.74 2279.52,2350.05" style="fill:white;fill-rule:nonzero;"/>
        <path d="M2261.42,2359.97C2256.38,2359.97 2251.36,2358.58 2247.21,2355.7C2240.95,2351.36 2237.21,2344.72 2233.59,2338.29C2232.63,2336.58 2231.63,2334.81 2230.62,2333.14C2219.48,2314.82 2200.34,2301.09 2179.43,2296.4C2177.79,2296.03 2176.09,2295.71 2174.45,2295.39C2171.21,2294.77 2167.86,2294.13 2164.61,2293.11C2158.61,2291.23 2154.08,2288.32 2151.14,2284.47C2147.38,2279.55 2146.59,2272.99 2149.19,2268.16C2151.59,2263.68 2156.42,2260.76 2163.94,2259.25C2180.22,2255.97 2197.62,2259.16 2211.68,2268L2209.49,2271.47C2196.32,2263.18 2180.01,2260.19 2164.75,2263.27C2158.5,2264.53 2154.59,2266.76 2152.8,2270.1C2150.98,2273.49 2151.64,2278.37 2154.4,2281.98C2156.81,2285.14 2160.67,2287.57 2165.84,2289.2C2168.87,2290.15 2171.95,2290.74 2175.22,2291.36C2176.89,2291.69 2178.62,2292.02 2180.32,2292.4C2202.3,2297.33 2222.41,2311.76 2234.12,2331C2235.17,2332.74 2236.19,2334.54 2237.17,2336.28C2240.71,2342.58 2244.06,2348.53 2249.55,2352.33C2258.13,2358.28 2271.15,2356.63 2277.97,2348.71L2281.08,2351.39C2276.25,2356.99 2268.81,2359.96 2261.42,2359.97Z" style="fill:rgb(63,38,18);fill-rule:nonzero;"/>
        <path d="M3052.11,2501.82C3055.33,2501.82 3058.42,2498.99 3058.27,2495.67C3058.12,2492.33 3055.56,2489.51 3052.11,2489.51C3048.9,2489.51 3045.81,2492.34 3045.96,2495.67C3046.11,2499 3048.67,2501.82 3052.11,2501.82Z" style="fill:rgb(63,38,18);fill-rule:nonzero;"/>
        <path d="M3039.3,2475.41C3042.52,2475.41 3045.6,2472.58 3045.45,2469.26C3045.3,2465.92 3042.75,2463.1 3039.3,2463.1C3036.08,2463.1 3033,2465.93 3033.15,2469.26C3033.29,2472.59 3035.85,2475.41 3039.3,2475.41Z" style="fill:rgb(63,38,18);fill-rule:nonzero;"/>
        <path d="M3061.94,2480.69C3065.15,2480.69 3068.24,2477.86 3068.09,2474.54C3067.94,2471.2 3065.38,2468.38 3061.94,2468.38C3058.72,2468.38 3055.63,2471.21 3055.78,2474.54C3055.93,2477.87 3058.49,2480.69 3061.94,2480.69Z" style="fill:rgb(63,38,18);fill-rule:nonzero;"/>
        <path d="M2782.91,2501.91C2786.13,2501.91 2789.21,2499.08 2789.06,2495.76C2788.92,2492.43 2786.36,2489.61 2782.91,2489.61C2779.69,2489.61 2776.61,2492.44 2776.76,2495.76C2776.91,2499.09 2779.46,2501.91 2782.91,2501.91Z" style="fill:rgb(63,38,18);fill-rule:nonzero;"/>
        <path d="M2764.34,2526.5C2767.55,2526.5 2770.64,2523.67 2770.49,2520.35C2770.34,2517.01 2767.78,2514.19 2764.34,2514.19C2761.12,2514.19 2758.03,2517.02 2758.18,2520.35C2758.33,2523.68 2760.89,2526.5 2764.34,2526.5Z" style="fill:rgb(63,38,18);fill-rule:nonzero;"/>
        <path d="M2761.06,2501.91C2764.28,2501.91 2767.36,2499.08 2767.21,2495.76C2767.06,2492.43 2764.51,2489.61 2761.06,2489.61C2757.84,2489.61 2754.76,2492.44 2754.9,2495.76C2755.05,2499.09 2757.61,2501.91 2761.06,2501.91Z" style="fill:rgb(63,38,18);fill-rule:nonzero;"/>
    </g>
</svg>
