<?xml version="1.0" encoding="UTF-8" standalone="no"?>
<!DOCTYPE svg PUBLIC "-//W3C//DTD SVG 1.1//EN" "http://www.w3.org/Graphics/SVG/1.1/DTD/svg11.dtd">
<svg width="100%" height="100%" viewBox="0 0 1154 1264" version="1.1" xmlns="http://www.w3.org/2000/svg" xmlns:xlink="http://www.w3.org/1999/xlink" xml:space="preserve" xmlns:serif="http://www.serif.com/" style="fill-rule:evenodd;clip-rule:evenodd;stroke-linejoin:round;stroke-miterlimit:2;">
    <g transform="matrix(1,0,0,1,-1323,-709.068)">
        <path d="M1767.32,1209.95C1744.43,1209.95 1698.28,1207.99 1646.5,1194.9C1606.4,1184.76 1569.99,1169.82 1538.29,1150.49C1498.49,1126.24 1466.02,1094.99 1441.77,1057.62C1414.99,1016.36 1398.82,968.928 1393.73,916.651C1393.06,909.775 1395.1,903.048 1399.49,897.711C1403.88,892.374 1410.09,889.066 1416.96,888.395C1417.81,888.313 1418.66,888.271 1419.5,888.271C1432.86,888.271 1443.92,898.313 1445.22,911.631C1449.51,955.574 1462.95,995.216 1485.17,1029.46C1521.89,1086.04 1580.44,1124.83 1659.19,1144.74C1705.62,1156.48 1746.48,1158.23 1766.71,1158.23C1773.55,1158.23 1777.98,1158.04 1779.57,1157.95C1780.05,1157.93 1780.53,1157.91 1781.01,1157.91C1794.73,1157.91 1806.05,1168.67 1806.79,1182.4C1807.16,1189.3 1804.82,1195.93 1800.2,1201.07C1795.59,1206.21 1789.24,1209.24 1782.34,1209.61C1780.48,1209.71 1775.29,1209.95 1767.32,1209.95Z" style="fill:rgb(238,42,53);fill-rule:nonzero;"/>
        <path d="M1419.5,886.185C1418.59,886.185 1417.67,886.231 1416.76,886.319C1409.33,887.044 1402.62,890.619 1397.88,896.387C1393.14,902.154 1390.93,909.423 1391.65,916.855C1396.78,969.467 1413.05,1017.21 1440.02,1058.76C1464.44,1096.39 1497.14,1127.85 1537.2,1152.27C1569.08,1171.71 1605.68,1186.73 1645.99,1196.92C1697.99,1210.07 1744.33,1212.03 1767.32,1212.03C1775.34,1212.03 1780.58,1211.8 1782.46,1211.7C1797.85,1210.87 1809.7,1197.68 1808.87,1182.28C1808.08,1167.45 1795.84,1155.83 1781.01,1155.83C1780.5,1155.83 1779.97,1155.84 1779.45,1155.87C1777.89,1155.95 1773.5,1156.15 1766.71,1156.15C1746.58,1156.15 1705.91,1154.4 1659.7,1142.72C1581.48,1122.94 1523.34,1084.45 1486.92,1028.32C1464.88,994.364 1451.55,955.035 1447.3,911.429C1446.62,904.474 1443.39,898.068 1438.2,893.389C1433.05,888.744 1426.41,886.185 1419.5,886.185ZM1419.5,890.358C1431.59,890.358 1441.94,899.545 1443.14,911.834C1447.46,956.112 1461.01,996.069 1483.42,1030.59C1520.44,1087.63 1579.4,1126.72 1658.68,1146.76C1705.34,1158.56 1746.39,1160.32 1766.71,1160.32C1773.68,1160.32 1778.21,1160.11 1779.68,1160.04C1780.13,1160.01 1780.57,1160 1781.01,1160C1793.52,1160 1804.03,1169.84 1804.71,1182.51C1805.41,1195.62 1795.35,1206.83 1782.23,1207.53C1780.55,1207.62 1775.33,1207.86 1767.32,1207.86C1744.38,1207.86 1698.52,1205.9 1647.02,1192.88C1607.11,1182.78 1570.89,1167.93 1539.37,1148.71C1499.85,1124.62 1467.6,1093.59 1443.52,1056.49C1416.92,1015.51 1400.87,968.39 1395.8,916.449C1394.53,903.377 1404.09,891.746 1417.17,890.472C1417.95,890.395 1418.73,890.358 1419.5,890.358Z" style="fill:rgb(63,38,18);fill-rule:nonzero;"/>
        <path d="M1511.58,852.015C1507.72,849.12 1502.79,848.004 1497.98,847.627C1485.66,846.661 1473.04,850.218 1463.03,857.471C1460.9,847.714 1463.71,837.512 1467.9,828.449C1472.09,819.385 1477.67,810.997 1481.58,801.809C1484.73,794.403 1486.53,785.142 1481.52,778.843C1476.43,772.454 1466.05,772.379 1459.35,777.046C1452.65,781.713 1449.14,789.808 1447.55,797.817C1445.96,805.826 1445.97,814.076 1444.58,822.123C1443.85,826.349 1441.28,831.554 1437.05,830.864C1434.03,830.372 1432.43,827.017 1431.85,824.015C1430.35,816.34 1432.19,808.446 1434.16,800.879C1436.13,793.313 1438.26,785.554 1437.35,777.788C1436.44,770.023 1431.69,762.136 1424.15,760.077C1415.28,757.656 1405.87,764.393 1402.51,772.95C1399.15,781.508 1400.47,791.172 1402.83,800.06C1405.18,808.949 1408.52,817.686 1409.1,826.863C1409.34,830.788 1407.8,836.019 1403.87,835.882C1400.78,835.774 1399.1,832.309 1398.11,829.382C1394.15,817.748 1390.2,806.114 1386.25,794.479C1384.54,789.447 1382.76,784.29 1379.36,780.207C1375.95,776.124 1370.52,773.292 1365.34,774.479C1360.62,775.561 1357.08,779.79 1355.68,784.427C1354.28,789.065 1354.71,794.057 1355.62,798.814C1358.18,812.201 1364.52,824.843 1373.71,834.902C1375.64,837.013 1377.75,839.093 1378.77,841.762C1379.8,844.432 1379.39,847.917 1377.01,849.503C1374.09,851.448 1370.1,849.578 1367.6,847.117C1362.29,841.883 1359.98,834.421 1356.5,827.819C1353.03,821.217 1347.17,814.75 1339.71,814.78C1331.33,814.812 1325.01,823.648 1325.08,832.031C1325.16,840.414 1329.96,848.027 1335.44,854.366C1340.93,860.705 1347.31,866.364 1351.67,873.524C1358.1,884.083 1359.53,896.863 1363.88,908.435C1364.72,910.67 1366.18,913.044 1367.92,915.374C1378.09,928.98 1393.88,937.399 1410.85,938.163C1416.72,938.428 1422.63,937.908 1428.36,936.573C1443.65,933.013 1457.52,923.695 1466.59,910.892C1474.41,899.853 1479.55,885.647 1491.73,879.753C1496.36,877.512 1501.57,876.759 1506.37,874.915C1511.17,873.071 1515.89,869.636 1516.99,864.611C1518.02,859.893 1515.45,854.91 1511.58,852.015Z" style="fill:white;fill-rule:nonzero;"/>
        <path d="M1339.76,816.866L1339.72,816.866C1336.13,816.88 1333.47,818.809 1331.88,820.424C1328.94,823.404 1327.13,827.845 1327.17,832.013C1327.23,838.543 1330.45,845.408 1337.02,853.001C1338.69,854.927 1340.48,856.837 1342.22,858.684C1346.21,862.923 1350.33,867.306 1353.45,872.439C1357.68,879.374 1359.82,887.228 1361.89,894.824C1363.06,899.111 1364.27,903.544 1365.84,907.701C1366.54,909.57 1367.8,911.731 1369.59,914.124C1379.47,927.338 1394.54,935.34 1410.94,936.08C1416.69,936.34 1422.4,935.821 1427.89,934.541C1442.65,931.104 1456.13,922.045 1464.89,909.686C1467,906.709 1468.96,903.403 1470.86,900.206C1476.06,891.46 1481.44,882.416 1490.82,877.876C1493.67,876.499 1496.68,875.661 1499.59,874.851C1501.7,874.264 1503.69,873.709 1505.62,872.967C1508.05,872.034 1513.83,869.308 1514.95,864.165C1515.86,859.999 1513.29,855.899 1510.33,853.684C1507.32,851.432 1503.23,850.131 1497.82,849.706C1486.04,848.788 1473.81,852.23 1464.26,859.161L1461.67,861.032L1460.99,857.916C1459.05,848.998 1460.69,839.072 1466.01,827.573C1467.94,823.385 1470.19,819.305 1472.36,815.359C1474.92,810.711 1477.57,805.905 1479.66,800.992C1481.85,795.851 1484.79,786.307 1479.88,780.142C1475.4,774.51 1466.09,774.892 1460.55,778.758C1453.75,783.493 1450.84,791.957 1449.59,798.223C1448.77,802.398 1448.37,806.766 1447.99,810.992C1447.65,814.756 1447.29,818.65 1446.64,822.477C1445.66,828.129 1442.14,833.806 1436.72,832.924C1433.31,832.368 1430.73,829.186 1429.8,824.412C1428.25,816.452 1430.02,808.49 1432.14,800.355L1432.35,799.545C1434.2,792.459 1436.11,785.131 1435.28,778.03C1434.51,771.474 1430.6,764.001 1423.6,762.09C1415.72,759.937 1407.34,766.365 1404.45,773.713C1401,782.487 1403.02,792.647 1404.84,799.527C1405.46,801.835 1406.15,804.185 1406.82,806.459C1408.75,812.985 1410.74,819.733 1411.18,826.732C1411.35,829.539 1410.72,833.674 1408.37,836.096C1407.12,837.381 1405.54,838.046 1403.8,837.967C1398.76,837.791 1396.78,831.966 1396.13,830.053L1384.27,795.151C1382.64,790.347 1380.95,785.38 1377.75,781.543C1375.25,778.534 1370.61,775.41 1365.8,776.512C1362.17,777.344 1358.98,780.687 1357.68,785.029C1356.59,788.635 1356.59,792.766 1357.67,798.422C1360.17,811.522 1366.25,823.65 1375.25,833.495L1375.89,834.192C1377.75,836.196 1379.66,838.268 1380.72,841.013C1382.02,844.385 1381.56,848.98 1378.17,851.239C1374.32,853.806 1369.35,851.765 1366.14,848.603C1362.04,844.562 1359.65,839.371 1357.34,834.351C1356.48,832.499 1355.6,830.584 1354.66,828.791C1352.77,825.202 1347.54,816.866 1339.76,816.866ZM1413.82,940.316C1412.8,940.316 1411.78,940.293 1410.75,940.247C1393.1,939.452 1376.88,930.841 1366.25,916.623C1364.23,913.913 1362.77,911.406 1361.93,909.17C1360.3,904.831 1359.06,900.303 1357.87,895.923C1355.78,888.27 1353.81,881.041 1349.89,874.61C1346.99,869.847 1343.2,865.813 1339.18,861.543C1337.41,859.664 1335.59,857.723 1333.86,855.731C1326.62,847.358 1323.06,839.613 1323,832.049C1322.95,826.732 1325.16,821.29 1328.91,817.492C1331.95,814.413 1335.78,812.709 1339.7,812.694L1339.76,812.694C1349.81,812.694 1356.11,822.587 1358.35,826.848C1359.34,828.739 1360.25,830.705 1361.13,832.606C1363.38,837.501 1365.51,842.124 1369.07,845.631C1371.07,847.604 1374.05,848.97 1375.86,847.767C1377.35,846.773 1377.52,844.315 1376.83,842.512C1376.06,840.513 1374.49,838.819 1372.83,837.025L1372.17,836.31C1362.65,825.895 1356.22,813.065 1353.57,799.206C1352.82,795.263 1352.01,789.379 1353.68,783.825C1355.41,778.073 1359.81,773.606 1364.87,772.446C1370.34,771.188 1376.66,773.714 1380.96,778.872C1384.65,783.304 1386.55,788.884 1388.22,793.808L1400.08,828.71C1401.21,832.036 1402.51,833.747 1403.94,833.797C1404.5,833.818 1404.95,833.629 1405.38,833.186C1406.48,832.054 1407.17,829.448 1407.02,826.993C1406.61,820.463 1404.68,813.945 1402.82,807.641C1402.14,805.339 1401.44,802.96 1400.81,800.594C1398.84,793.148 1396.67,782.102 1400.57,772.187C1404.1,763.193 1414.33,755.237 1424.7,758.064C1433.58,760.489 1438.49,769.596 1439.42,777.546C1440.34,785.426 1438.33,793.139 1436.39,800.598L1436.18,801.404C1434.19,809.057 1432.51,816.514 1433.9,823.616C1434.34,825.923 1435.5,828.497 1437.39,828.805C1440.15,829.268 1442.02,824.731 1442.53,821.77C1443.16,818.108 1443.5,814.299 1443.83,810.616C1444.22,806.282 1444.63,801.802 1445.5,797.41C1446.89,790.392 1450.22,780.864 1458.16,775.334C1465.38,770.307 1477.14,769.994 1483.15,777.544C1487.78,783.368 1487.91,792.276 1483.5,802.627C1481.33,807.734 1478.63,812.633 1476.02,817.372C1473.88,821.254 1471.67,825.27 1469.79,829.325C1465.56,838.47 1463.81,846.723 1464.57,853.912C1474.45,847.666 1486.51,844.633 1498.14,845.547C1504.37,846.034 1509.17,847.604 1512.83,850.345C1517.67,853.969 1520.16,859.881 1519.03,865.056C1517.93,870.074 1513.59,874.377 1507.12,876.862C1505,877.676 1502.82,878.283 1500.71,878.87C1497.85,879.666 1495.15,880.417 1492.64,881.631C1484.39,885.626 1479.56,893.744 1474.45,902.338C1472.51,905.606 1470.5,908.985 1468.29,912.098C1458.95,925.279 1444.57,934.939 1428.84,938.604C1423.95,939.742 1418.91,940.316 1413.82,940.316Z" style="fill:rgb(63,38,18);fill-rule:nonzero;"/>
        <path d="M1451.14,960.127L1404.65,966.34C1389.27,968.395 1375.65,961.362 1374.21,950.632C1372.78,939.902 1384.08,929.538 1399.46,927.482L1445.95,921.27C1461.32,919.215 1474.95,926.247 1476.39,936.977C1477.82,947.708 1466.52,958.072 1451.14,960.127Z" style="fill:white;fill-rule:nonzero;"/>
        <path d="M1451.3,922.997C1449.63,922.997 1447.93,923.109 1446.22,923.338L1399.74,929.55C1392.72,930.488 1386.4,933.255 1381.94,937.342C1377.69,941.24 1375.68,945.862 1376.28,950.356C1376.88,954.85 1380.03,958.782 1385.16,961.427C1390.53,964.199 1397.36,965.208 1404.38,964.273L1450.86,958.06C1457.88,957.122 1464.2,954.354 1468.66,950.268C1472.91,946.369 1474.92,941.748 1474.32,937.254C1473.72,932.76 1470.56,928.828 1465.44,926.183C1461.37,924.086 1456.48,922.997 1451.3,922.997ZM1399.32,968.785C1393.47,968.785 1387.9,967.536 1383.25,965.135C1376.87,961.846 1372.93,956.793 1372.14,950.908C1371.36,945.023 1373.84,939.113 1379.12,934.266C1384.2,929.608 1391.33,926.464 1399.18,925.415L1445.67,919.203C1453.53,918.15 1461.23,919.315 1467.35,922.475C1473.72,925.764 1477.67,930.816 1478.45,936.701C1479.24,942.586 1476.76,948.496 1471.48,953.343C1466.4,958.001 1459.27,961.145 1451.41,962.195L1404.93,968.408C1403.04,968.66 1401.17,968.785 1399.32,968.785Z" style="fill:rgb(63,38,18);fill-rule:nonzero;"/>
        <path d="M2409.64,1540.02C2408.29,1540.02 2406.93,1539.91 2405.58,1539.7C2391.49,1537.47 2381.84,1524.2 2384.06,1510.11C2389.89,1473.14 2396.79,1377.05 2335.03,1283.63C2271.42,1187.43 2177.17,1156.95 2139.59,1148.31C2132.86,1146.76 2127.13,1142.68 2123.47,1136.83C2119.8,1130.97 2118.63,1124.04 2120.18,1117.3C2122.9,1105.48 2133.26,1097.23 2145.37,1097.23C2147.32,1097.23 2149.27,1097.45 2151.19,1097.89C2182.29,1105.04 2214.57,1117.36 2244.53,1133.53C2299.48,1163.18 2344.45,1204.08 2378.19,1255.1C2449.95,1363.64 2441.94,1475.23 2435.17,1518.18C2433.17,1530.83 2422.44,1540.02 2409.64,1540.02Z" style="fill:rgb(238,42,53);fill-rule:nonzero;"/>
        <path d="M2145.37,1095.14C2139.15,1095.14 2133.02,1097.27 2128.1,1101.13C2123.11,1105.06 2119.57,1110.64 2118.15,1116.83C2114.69,1131.86 2124.1,1146.89 2139.13,1150.34C2176.45,1158.93 2270.1,1189.21 2333.29,1284.78C2394.65,1377.59 2387.8,1473.05 2382,1509.79C2379.6,1525.01 2390.03,1539.36 2405.26,1541.76C2406.71,1541.99 2408.18,1542.1 2409.64,1542.1C2416.23,1542.1 2422.64,1539.75 2427.69,1535.47C2432.8,1531.14 2436.18,1525.12 2437.23,1518.5C2444.04,1475.32 2452.09,1363.1 2379.93,1253.95C2346,1202.64 2300.78,1161.51 2245.52,1131.69C2215.4,1115.44 2182.94,1103.05 2151.65,1095.86C2149.59,1095.38 2147.48,1095.14 2145.37,1095.14ZM2145.37,1099.31C2147.14,1099.31 2148.93,1099.51 2150.72,1099.92C2181.65,1107.03 2213.74,1119.29 2243.54,1135.36C2298.19,1164.85 2342.91,1205.52 2376.45,1256.25C2447.8,1364.18 2439.84,1475.15 2433.11,1517.85C2431.26,1529.57 2421.14,1537.93 2409.64,1537.93C2408.41,1537.93 2407.16,1537.83 2405.91,1537.64C2392.93,1535.59 2384.08,1523.41 2386.12,1510.44C2391.99,1473.22 2398.94,1376.51 2336.77,1282.48C2272.75,1185.65 2177.88,1154.97 2140.06,1146.28C2127.26,1143.33 2119.27,1130.57 2122.21,1117.77C2124.74,1106.76 2134.54,1099.31 2145.37,1099.31Z" style="fill:rgb(63,38,18);fill-rule:nonzero;"/>
        <path d="M2379.15,1524.35C2365.11,1531.89 2352.1,1541.35 2340.59,1552.39C2332.99,1559.69 2327.6,1568.9 2325.79,1579.28C2321.43,1604.29 2352.73,1615.84 2358.62,1614.15C2357.95,1622.35 2358.25,1630.97 2362.14,1638.22C2366.02,1645.46 2374.33,1650.86 2382.37,1649.11C2389.05,1647.65 2393.84,1641.94 2398.08,1636.57C2400.68,1644.12 2408.61,1649.48 2416.59,1649.07C2424.56,1648.67 2431.91,1642.54 2433.73,1634.77C2433.54,1640.26 2438.35,1645.13 2443.77,1646.05C2449.19,1646.97 2454.79,1644.52 2458.73,1640.69C2462.68,1636.87 2465.2,1631.81 2467.16,1626.67C2473.64,1609.76 2474.84,1591.23 2473.67,1573.16C2472.82,1559.94 2470.47,1546.16 2462.38,1535.67C2453.2,1523.78 2437.84,1517.98 2422.85,1517.03C2407.87,1516.08 2392.97,1519.38 2378.31,1522.65" style="fill:white;fill-rule:nonzero;"/>
        <path d="M2358.62,1612.07C2359.09,1612.07 2359.56,1612.23 2359.94,1612.54C2360.47,1612.97 2360.75,1613.64 2360.69,1614.32C2360.19,1620.58 2359.98,1629.77 2363.98,1637.23C2367.18,1643.2 2374.55,1648.67 2381.92,1647.07C2387.72,1645.81 2392.1,1640.77 2396.44,1635.28C2396.92,1634.68 2397.68,1634.39 2398.43,1634.51C2399.18,1634.64 2399.8,1635.17 2400.05,1635.89C2402.36,1642.58 2409.42,1647.35 2416.48,1646.99C2423.54,1646.63 2430.09,1641.17 2431.7,1634.29C2431.95,1633.24 2432.94,1632.55 2434.01,1632.7C2435.08,1632.84 2435.86,1633.77 2435.82,1634.84C2435.67,1639.02 2439.47,1643.21 2444.12,1643.99C2448.5,1644.73 2453.42,1642.94 2457.28,1639.2C2460.42,1636.16 2462.87,1632.06 2465.21,1625.93C2470.84,1611.23 2472.93,1594.01 2471.59,1573.29C2470.86,1561.98 2468.96,1547.62 2460.73,1536.94C2452.78,1526.64 2438.92,1520.14 2422.72,1519.11C2408.76,1518.22 2394.79,1521.12 2381.23,1524.14C2381.31,1524.95 2380.9,1525.77 2380.14,1526.18C2366.24,1533.65 2353.42,1542.97 2342.04,1553.9C2334.41,1561.21 2329.51,1570.12 2327.85,1579.64C2325.96,1590.45 2331.49,1598.05 2336.46,1602.52C2344.62,1609.86 2355.61,1612.85 2358.04,1612.15C2358.23,1612.09 2358.42,1612.07 2358.62,1612.07ZM2379.23,1651.53C2371.13,1651.53 2363.81,1645.74 2360.3,1639.2C2356.28,1631.7 2356,1622.97 2356.37,1616.35C2350.88,1615.98 2341.16,1612.36 2333.67,1605.63C2327.92,1600.45 2321.52,1591.62 2323.74,1578.92C2325.55,1568.52 2330.88,1558.82 2339.15,1550.89C2350.32,1540.17 2362.84,1530.95 2376.39,1523.47C2376.35,1523.36 2376.31,1523.24 2376.28,1523.11C2376.03,1521.98 2376.73,1520.87 2377.86,1520.62C2392.47,1517.35 2407.59,1513.97 2422.99,1514.95C2440.38,1516.05 2455.34,1523.14 2464.03,1534.39C2472.96,1545.96 2474.98,1561.11 2475.75,1573.02C2477.13,1594.35 2474.96,1612.15 2469.11,1627.42C2466.53,1634.15 2463.78,1638.71 2460.19,1642.19C2455.37,1646.86 2449.11,1649.07 2443.42,1648.11C2439.1,1647.37 2435.37,1644.62 2433.32,1641.08C2429.77,1646.78 2423.42,1650.82 2416.69,1651.16C2409.01,1651.53 2401.38,1647.12 2397.59,1640.5C2393.4,1645.53 2388.91,1649.82 2382.81,1651.15C2381.61,1651.41 2380.41,1651.53 2379.23,1651.53Z" style="fill:rgb(63,38,18);fill-rule:nonzero;"/>
        <path d="M2358.43,1613.64C2358.61,1601.3 2363.92,1589.11 2372.83,1580.57" style="fill:white;fill-rule:nonzero;"/>
        <path d="M2358.43,1615.73L2358.4,1615.73C2357.25,1615.71 2356.33,1614.77 2356.35,1613.61C2356.53,1600.63 2362.01,1588.04 2371.39,1579.06C2372.22,1578.26 2373.54,1578.29 2374.34,1579.12C2375.14,1579.95 2375.11,1581.27 2374.27,1582.07C2365.7,1590.29 2360.69,1601.8 2360.52,1613.67C2360.5,1614.82 2359.57,1615.73 2358.43,1615.73Z" style="fill:rgb(63,38,18);fill-rule:nonzero;"/>
        <path d="M2399.49,1602.79C2403.41,1591.06 2404.43,1578.37 2402.43,1566.17" style="fill:white;fill-rule:nonzero;"/>
        <path d="M2399.49,1604.87C2399.27,1604.87 2399.05,1604.84 2398.83,1604.76C2397.74,1604.4 2397.15,1603.22 2397.52,1602.12C2401.33,1590.71 2402.32,1578.39 2400.37,1566.51C2400.18,1565.37 2400.95,1564.3 2402.09,1564.11C2403.23,1563.93 2404.3,1564.69 2404.49,1565.83C2406.55,1578.38 2405.5,1591.39 2401.47,1603.45C2401.18,1604.32 2400.37,1604.87 2399.49,1604.87Z" style="fill:rgb(63,38,18);fill-rule:nonzero;"/>
        <path d="M2438.17,1600.29C2431.63,1589.32 2428.27,1576.49 2428.59,1563.72" style="fill:white;fill-rule:nonzero;"/>
        <path d="M2438.17,1602.38C2437.46,1602.38 2436.77,1602.01 2436.38,1601.36C2429.68,1590.13 2426.18,1576.74 2426.5,1563.67C2426.53,1562.54 2427.46,1561.63 2428.59,1561.63C2428.6,1561.63 2428.62,1561.63 2428.64,1561.64C2429.79,1561.66 2430.7,1562.62 2430.67,1563.77C2430.37,1576.07 2433.67,1588.66 2439.96,1599.22C2440.55,1600.21 2440.22,1601.49 2439.23,1602.08C2438.9,1602.28 2438.53,1602.38 2438.17,1602.38Z" style="fill:rgb(63,38,18);fill-rule:nonzero;"/>
        <path d="M2436.45,1533.34L2389.55,1533.39C2374.04,1533.4 2361.45,1524.64 2361.44,1513.81C2361.43,1502.98 2374,1494.2 2389.52,1494.18L2436.41,1494.14C2451.93,1494.13 2464.51,1502.89 2464.52,1513.72C2464.53,1524.54 2451.96,1533.33 2436.45,1533.34Z" style="fill:white;fill-rule:nonzero;"/>
        <path d="M2436.45,1531.26L2436.45,1533.35L2436.45,1531.26C2443.53,1531.25 2450.16,1529.34 2455.11,1525.88C2459.84,1522.57 2462.44,1518.25 2462.44,1513.72C2462.43,1504.07 2450.77,1496.23 2436.45,1496.23L2436.42,1496.23L2389.52,1496.27C2382.44,1496.28 2375.81,1498.19 2370.85,1501.65C2366.12,1504.96 2363.52,1509.27 2363.53,1513.81C2363.54,1523.46 2375.19,1531.3 2389.51,1531.3L2389.55,1531.3L2436.45,1531.26ZM2389.51,1535.47C2372.89,1535.47 2359.37,1525.76 2359.36,1513.81C2359.35,1507.87 2362.58,1502.34 2368.46,1498.23C2374.11,1494.28 2381.59,1492.1 2389.51,1492.1L2436.41,1492.06L2436.45,1492.06C2453.07,1492.06 2466.6,1501.77 2466.61,1513.72C2466.62,1519.65 2463.38,1525.19 2457.5,1529.3C2451.85,1533.25 2444.38,1535.42 2436.45,1535.43L2389.55,1535.47L2389.51,1535.47Z" style="fill:rgb(63,38,18);fill-rule:nonzero;"/>
        <path d="M1871.37,1770.26L1780.28,1774.53C1766.89,1791.71 1770.83,1819.73 1753.62,1833.08C1749.32,1836.41 1744.15,1838.37 1739.11,1840.44C1722.05,1847.46 1705.34,1856.54 1693.12,1870.37C1680.9,1884.2 1673.75,1903.5 1678.02,1921.45C1681.9,1937.78 1694.72,1950.99 1709.75,1958.45C1724.78,1965.91 1741.86,1968.24 1758.64,1968.66C1781.18,1969.22 1803.79,1966.49 1825.55,1960.61C1843.57,1955.73 1862.2,1947.72 1872.03,1931.86C1879.88,1919.19 1880.85,1903.56 1881.06,1888.66C1881.62,1849 1878.37,1809.3 1871.37,1770.26Z" style="fill:white;fill-rule:nonzero;"/>
        <path d="M1781.36,1776.57C1776.05,1783.8 1773.64,1793.19 1771.31,1802.28C1768.2,1814.39 1764.99,1826.9 1754.9,1834.73C1750.75,1837.94 1745.91,1839.92 1741.23,1841.83L1739.91,1842.37C1719.26,1850.86 1704.89,1860.2 1694.68,1871.75C1681.88,1886.24 1676.27,1905.1 1680.05,1920.97C1683.49,1935.46 1694.94,1948.77 1710.68,1956.58C1723.41,1962.9 1738.67,1966.07 1758.69,1966.57C1781.08,1967.12 1803.39,1964.44 1825.01,1958.59C1847.96,1952.38 1862.34,1943.54 1870.26,1930.76C1877.92,1918.39 1878.78,1902.53 1878.97,1888.63C1879.52,1849.78 1876.38,1810.7 1869.63,1772.43L1781.36,1776.57ZM1764.45,1970.81C1762.5,1970.81 1760.54,1970.79 1758.59,1970.74C1737.93,1970.23 1722.12,1966.92 1708.82,1960.32C1691.99,1951.96 1679.71,1937.62 1675.99,1921.94C1671.9,1904.77 1677.87,1884.48 1691.56,1868.99C1702.2,1856.94 1717.06,1847.26 1738.32,1838.51L1739.66,1837.97C1744.08,1836.16 1748.65,1834.29 1752.34,1831.43C1761.3,1824.48 1764.2,1813.2 1767.26,1801.25C1769.78,1791.42 1772.39,1781.26 1778.64,1773.25C1779.01,1772.77 1779.58,1772.48 1780.19,1772.45L1871.27,1768.18C1872.34,1768.14 1873.24,1768.86 1873.42,1769.89C1880.44,1808.99 1883.71,1848.96 1883.15,1888.69C1882.94,1903.14 1882.03,1919.68 1873.81,1932.95C1865.3,1946.69 1850.14,1956.11 1826.1,1962.62C1805.98,1968.06 1785.27,1970.81 1764.45,1970.81Z" style="fill:rgb(63,38,18);fill-rule:nonzero;"/>
        <path d="M1743.26,1838.68C1760.4,1829.3 1780.72,1825.86 1799.99,1829.08C1819.26,1832.3 1837.35,1842.15 1850.52,1856.59" style="fill:white;fill-rule:nonzero;"/>
        <path d="M1850.52,1858.67C1849.95,1858.67 1849.39,1858.45 1848.97,1857.99C1836.06,1843.83 1818.54,1834.3 1799.64,1831.14C1780.75,1827.99 1761.07,1831.31 1744.26,1840.51C1743.25,1841.06 1741.98,1840.69 1741.43,1839.68C1740.88,1838.67 1741.25,1837.4 1742.26,1836.85C1759.89,1827.2 1780.51,1823.72 1800.33,1827.02C1820.15,1830.33 1838.52,1840.33 1852.06,1855.18C1852.83,1856.03 1852.77,1857.35 1851.92,1858.13C1851.52,1858.49 1851.02,1858.67 1850.52,1858.67Z" style="fill:rgb(63,38,18);fill-rule:nonzero;"/>
        <path d="M1874.61,1746.24C1855.06,1729.43 1799.15,1731.28 1778.38,1749.51C1770.91,1756.06 1770.38,1767.26 1777.25,1774.38C1799.46,1797.4 1870.19,1794.91 1879.8,1764.53C1881.87,1757.99 1879.94,1750.83 1874.61,1746.24Z" style="fill:white;fill-rule:nonzero;"/>
        <path d="M1831.1,1736.75C1829.75,1736.75 1828.39,1736.78 1827.02,1736.82C1807.12,1737.49 1789.01,1742.95 1779.76,1751.08C1776.55,1753.89 1774.69,1757.73 1774.52,1761.9C1774.35,1766.01 1775.85,1769.93 1778.75,1772.93C1791.11,1785.74 1822.06,1791.25 1847.75,1785.22C1864,1781.4 1874.67,1773.83 1877.81,1763.9C1879.65,1758.1 1877.86,1751.79 1873.25,1747.83C1865.18,1740.89 1849.27,1736.75 1831.1,1736.75ZM1825.62,1791.81C1806.34,1791.81 1786.37,1786.83 1775.75,1775.83C1772.05,1772 1770.13,1766.99 1770.35,1761.72C1770.57,1756.41 1772.93,1751.51 1777,1747.94C1787.1,1739.08 1805.75,1733.36 1826.88,1732.65C1848.06,1731.95 1866.4,1736.43 1875.97,1744.66C1881.85,1749.72 1884.13,1757.76 1881.79,1765.16C1878.19,1776.55 1866.44,1785.12 1848.71,1789.28C1841.62,1790.94 1833.68,1791.81 1825.62,1791.81Z" style="fill:rgb(63,38,18);fill-rule:nonzero;"/>
        <path d="M1825.26,1770.93C1824.1,1770.93 1822.92,1770.87 1821.77,1770.74C1813.46,1769.81 1806.01,1765.71 1800.79,1759.18C1795.57,1752.65 1793.2,1744.48 1794.13,1736.18L1836.92,1351.41C1838.68,1335.54 1852.03,1323.58 1867.97,1323.58C1869.13,1323.58 1870.31,1323.64 1871.47,1323.77C1879.78,1324.69 1887.23,1328.8 1892.45,1335.33C1897.67,1341.85 1900.04,1350.02 1899.12,1358.33L1856.33,1743.09C1854.56,1758.96 1841.21,1770.93 1825.26,1770.93Z" style="fill:rgb(0,123,43);fill-rule:nonzero;"/>
        <path d="M1867.97,1321.49L1867.97,1325.66L1867.97,1321.49C1850.97,1321.49 1836.72,1334.26 1834.84,1351.18L1792.05,1735.95C1791.07,1744.81 1793.59,1753.52 1799.16,1760.49C1804.73,1767.45 1812.68,1771.82 1821.54,1772.81C1822.77,1772.95 1824.02,1773.02 1825.26,1773.02C1842.27,1773.02 1856.52,1760.25 1858.4,1743.33L1901.19,1358.56C1902.18,1349.7 1899.65,1340.99 1894.08,1334.02C1888.51,1327.06 1880.57,1322.68 1871.7,1321.7C1870.47,1321.56 1869.21,1321.49 1867.97,1321.49ZM1867.97,1325.66C1869.05,1325.66 1870.14,1325.72 1871.24,1325.84C1887.28,1327.63 1898.83,1342.07 1897.04,1358.1L1854.25,1742.86C1852.59,1757.8 1839.95,1768.84 1825.26,1768.84C1824.18,1768.84 1823.09,1768.79 1822,1768.66C1805.97,1766.88 1794.42,1752.44 1796.2,1736.41L1838.99,1351.64C1840.65,1336.71 1853.29,1325.66 1867.97,1325.66Z" style="fill:rgb(63,38,18);fill-rule:nonzero;"/>
        <path d="M2015.17,1772.01L2106.25,1776.28C2119.64,1793.45 2115.71,1821.48 2132.92,1834.82C2137.22,1838.16 2142.39,1840.12 2147.42,1842.19C2164.49,1849.21 2181.2,1858.29 2193.42,1872.12C2205.64,1885.95 2212.79,1905.24 2208.52,1923.2C2204.64,1939.53 2191.82,1952.74 2176.79,1960.19C2161.75,1967.65 2144.68,1969.98 2127.9,1970.4C2105.36,1970.96 2082.75,1968.24 2060.98,1962.35C2042.96,1957.48 2024.34,1949.47 2014.5,1933.6C2006.66,1920.94 2005.69,1905.3 2005.48,1890.4C2004.92,1850.75 2008.17,1811.04 2015.17,1772.01Z" style="fill:white;fill-rule:nonzero;"/>
        <path d="M2016.9,1774.18C2010.15,1812.44 2007.01,1851.53 2007.56,1890.38C2007.76,1904.27 2008.61,1920.13 2016.28,1932.5C2024.2,1945.28 2038.57,1954.13 2061.53,1960.34C2083.15,1966.19 2105.46,1968.87 2127.85,1968.32C2147.87,1967.82 2163.13,1964.64 2175.86,1958.33C2191.6,1950.52 2203.05,1937.21 2206.49,1922.72C2210.26,1906.85 2204.66,1887.99 2191.86,1873.5C2181.65,1861.94 2167.28,1852.61 2146.63,1844.12L2145.29,1843.57C2140.61,1841.66 2135.78,1839.68 2131.64,1836.47C2121.55,1828.65 2118.34,1816.13 2115.23,1804.03C2112.9,1794.94 2110.49,1785.55 2105.18,1778.32L2016.9,1774.18ZM2122.08,1972.56C2101.26,1972.56 2080.56,1969.81 2060.44,1964.37C2036.4,1957.86 2021.24,1948.43 2012.73,1934.7C2004.5,1921.42 2003.6,1904.89 2003.39,1890.43C2002.83,1850.71 2006.1,1810.74 2013.12,1771.64C2013.3,1770.61 2014.2,1769.88 2015.27,1769.92L2106.35,1774.19C2106.96,1774.22 2107.52,1774.52 2107.9,1775C2114.15,1783.01 2116.75,1793.17 2119.27,1802.99C2122.34,1814.94 2125.24,1826.23 2134.2,1833.18C2137.89,1836.04 2142.45,1837.9 2146.87,1839.71L2148.22,1840.26C2169.48,1849 2184.34,1858.68 2194.98,1870.74C2208.67,1886.22 2214.63,1906.51 2210.55,1923.68C2206.83,1939.36 2194.55,1953.71 2177.71,1962.06C2164.42,1968.66 2148.6,1971.97 2127.95,1972.49C2125.99,1972.54 2124.04,1972.56 2122.08,1972.56Z" style="fill:rgb(63,38,18);fill-rule:nonzero;"/>
        <path d="M2143.28,1840.43C2126.14,1831.05 2105.82,1827.61 2086.55,1830.83C2067.28,1834.05 2049.18,1843.9 2036.02,1858.33" style="fill:white;fill-rule:nonzero;"/>
        <path d="M2036.02,1860.42C2035.52,1860.42 2035.02,1860.24 2034.62,1859.88C2033.76,1859.1 2033.7,1857.78 2034.48,1856.93C2048.02,1842.08 2066.39,1832.08 2086.21,1828.77C2106.03,1825.46 2126.65,1828.95 2144.28,1838.6C2145.29,1839.15 2145.66,1840.42 2145.11,1841.43C2144.55,1842.44 2143.28,1842.81 2142.28,1842.26C2125.46,1833.06 2105.79,1829.73 2086.9,1832.89C2067.99,1836.04 2050.47,1845.58 2037.56,1859.74C2037.15,1860.19 2036.59,1860.42 2036.02,1860.42Z" style="fill:rgb(63,38,18);fill-rule:nonzero;"/>
        <path d="M2011.93,1746.61C2031.48,1729.27 2087.39,1731.17 2108.16,1749.98C2115.62,1756.74 2116.15,1768.3 2109.29,1775.64C2087.08,1799.38 2016.34,1796.82 2006.73,1765.48C2004.66,1758.73 2006.6,1751.34 2011.93,1746.61Z" style="fill:white;fill-rule:nonzero;"/>
        <path d="M2011.93,1746.61L2011.94,1746.61L2011.93,1746.61ZM2055.44,1736.75C2037.28,1736.75 2021.38,1741.02 2013.31,1748.17C2008.68,1752.28 2006.88,1758.84 2008.73,1764.87C2011.94,1775.33 2022.9,1783.22 2039.61,1787.08C2065.49,1793.06 2095.42,1787.41 2107.76,1774.21C2110.68,1771.09 2112.19,1767.01 2112.02,1762.73C2111.84,1758.41 2109.97,1754.43 2106.76,1751.53C2097.5,1743.15 2079.4,1737.51 2059.51,1736.82C2058.15,1736.78 2056.78,1736.75 2055.44,1736.75ZM2060.74,1793.53C2053.04,1793.53 2045.46,1792.71 2038.67,1791.14C2020.45,1786.93 2008.4,1778.03 2004.74,1766.09C2002.41,1758.5 2004.69,1750.24 2010.54,1745.05C2020.12,1736.55 2038.49,1731.92 2059.66,1732.65C2080.8,1733.39 2099.46,1739.29 2109.56,1748.43C2113.6,1752.1 2115.96,1757.11 2116.18,1762.56C2116.41,1767.97 2114.5,1773.12 2110.81,1777.07C2100.22,1788.38 2080.08,1793.53 2060.74,1793.53Z" style="fill:rgb(63,38,18);fill-rule:nonzero;"/>
        <path d="M2057.87,1770.93C2041.92,1770.93 2028.57,1758.96 2026.8,1743.09L1984.01,1358.33C1983.09,1350.02 1985.45,1341.85 1990.68,1335.33C1995.9,1328.8 2003.35,1324.69 2011.65,1323.77C2012.82,1323.64 2014,1323.58 2015.16,1323.58C2031.1,1323.58 2044.45,1335.54 2046.21,1351.41L2089,1736.18C2089.93,1744.48 2087.56,1752.65 2082.34,1759.18C2077.12,1765.71 2069.67,1769.81 2061.36,1770.74C2060.2,1770.87 2059.03,1770.93 2057.87,1770.93Z" style="fill:rgb(0,123,43);fill-rule:nonzero;"/>
        <path d="M2015.16,1321.49C2013.92,1321.49 2012.66,1321.56 2011.42,1321.7C2002.56,1322.68 1994.62,1327.06 1989.05,1334.02C1983.48,1340.99 1980.95,1349.7 1981.94,1358.56L2024.73,1743.33C2026.61,1760.25 2040.86,1773.02 2057.87,1773.02C2059.11,1773.02 2060.36,1772.95 2061.59,1772.81C2070.45,1771.82 2078.4,1767.45 2083.97,1760.49C2089.54,1753.52 2092.06,1744.81 2091.08,1735.95L2048.29,1351.18C2046.4,1334.25 2032.16,1321.49 2015.16,1321.49ZM2015.16,1325.66C2029.83,1325.66 2042.48,1336.71 2044.14,1351.64L2086.93,1736.41C2088.71,1752.44 2077.16,1766.88 2061.13,1768.66C2060.04,1768.79 2058.94,1768.84 2057.87,1768.84C2043.18,1768.84 2030.54,1757.8 2028.88,1742.86L1986.09,1358.1C1984.3,1342.07 1995.85,1327.63 2011.89,1325.84C2012.98,1325.72 2014.08,1325.66 2015.16,1325.66Z" style="fill:rgb(63,38,18);fill-rule:nonzero;"/>
        <path d="M1943.4,1519.06C1760.71,1519.06 1627.07,1440.28 1563.67,1393.32L1562.19,1392.22L1586.88,1348.25L1943.27,713.33L1945.09,716.571C2042.61,890.299 2140.13,1064.04 2237.65,1237.77L2324.34,1392.22L2322.87,1393.32C2267.57,1434.32 2203.16,1467.3 2136.59,1488.7C2128.12,1491.42 2119.44,1494.01 2110.77,1496.4C2060.79,1510.18 2009.2,1517.75 1957.46,1518.9C1952.79,1519 1948.06,1519.06 1943.4,1519.06Z" style="fill:rgb(238,42,53);fill-rule:nonzero;"/>
        <path d="M1943.27,709.068L1939.63,715.55L1619.69,1285.54L1585.06,1347.23L1561.27,1389.6L1559.47,1392.81L1562.43,1394.99C1602.4,1424.6 1646.68,1449.81 1694.04,1469.92C1774.06,1503.91 1857.96,1521.14 1943.4,1521.14C1948.08,1521.14 1952.82,1521.09 1957.5,1520.99C2009.42,1519.83 2061.17,1512.24 2111.33,1498.41C2120.02,1496.02 2128.74,1493.42 2137.23,1490.69C2204.01,1469.22 2268.63,1436.13 2324.11,1394.99L2327.06,1392.8L2325.26,1389.6L2311.06,1364.3L2296.86,1339L2280.66,1310.13L2266.37,1284.68L2221.82,1205.31C2130.18,1042.05 2038.55,878.798 1946.91,715.55L1943.27,709.068ZM1943.27,717.592C2049.76,907.296 2156.24,1097.01 2262.73,1286.72C2272.9,1304.83 2283.06,1322.93 2293.22,1341.04C2302.69,1357.9 2312.16,1374.78 2321.63,1391.64C2292.66,1413.12 2228.35,1457.01 2135.95,1486.71C2127.61,1489.4 2119.02,1491.97 2110.22,1494.39C2064.96,1506.86 2013.78,1515.56 1957.41,1516.81C1952.71,1516.92 1948.03,1516.97 1943.4,1516.97C1745.04,1516.97 1607.31,1423.05 1564.91,1391.64L1588.7,1349.28L1623.33,1287.58L1943.27,717.592Z" style="fill:rgb(63,38,18);fill-rule:nonzero;"/>
        <path d="M1943.4,1519.06C1760.71,1519.06 1627.07,1440.28 1563.67,1393.32L1562.19,1392.22L1622.54,1284.73L1624.36,1285.77C1691.08,1323.67 1799.15,1369.18 1935.07,1370.75C1937.54,1370.78 1940.01,1370.79 1942.47,1370.79C2081.75,1370.79 2192.94,1324.09 2261.7,1284.91L2263.52,1283.87L2324.34,1392.22L2322.87,1393.32C2267.57,1434.32 2203.16,1467.3 2136.59,1488.7L2110.81,1496.39C2060.79,1510.18 2009.2,1517.75 1957.46,1518.9C1952.79,1519 1948.06,1519.06 1943.4,1519.06Z" style="fill:rgb(0,198,69);fill-rule:nonzero;"/>
        <path d="M2264.31,1281.01L2260.67,1283.09C2192.13,1322.15 2081.29,1368.71 1942.46,1368.71C1940.02,1368.71 1937.54,1368.69 1935.09,1368.67C1799.62,1367.1 1691.9,1321.73 1625.39,1283.95L1621.74,1281.88L1619.69,1285.54L1561.27,1389.6L1559.47,1392.81L1562.43,1394.99C1602.4,1424.6 1646.68,1449.81 1694.04,1469.92C1774.06,1503.91 1857.96,1521.14 1943.4,1521.14C1948.08,1521.14 1952.82,1521.09 1957.5,1520.99C2009.42,1519.83 2061.17,1512.24 2111.33,1498.41L2111.37,1498.4L2111.41,1498.39L2137.15,1490.71L2137.23,1490.69C2204.01,1469.22 2268.63,1436.13 2324.11,1394.99L2327.06,1392.8L2325.26,1389.6L2266.37,1284.68L2264.31,1281.01ZM2262.73,1286.72C2282.36,1321.69 2301.99,1356.67 2321.63,1391.64C2292.66,1413.12 2228.35,1457.01 2135.95,1486.71L2110.22,1494.39C2064.96,1506.86 2013.78,1515.56 1957.41,1516.81C1952.71,1516.92 1948.03,1516.97 1943.4,1516.97C1745.04,1516.97 1607.31,1423.05 1564.91,1391.64L1623.33,1287.58C1693.24,1327.3 1800.13,1371.27 1935.05,1372.84C1937.53,1372.87 1940,1372.88 1942.46,1372.88C2079.2,1372.88 2188.78,1328.86 2262.73,1286.72Z" style="fill:rgb(63,38,18);fill-rule:nonzero;"/>
        <path d="M1943.4,1519.06C1760.71,1519.06 1627.07,1440.28 1563.67,1393.32L1562.19,1392.22L1592.58,1338.1L1594.44,1339.28C1663.01,1382.65 1772.23,1440.31 1928.4,1440.31C1931.06,1440.31 1933.72,1440.3 1936.41,1440.26C2128.76,1437.84 2257.27,1362.37 2292.07,1339.3L2293.94,1338.06L2324.34,1392.22L2322.87,1393.32C2267.57,1434.32 2203.16,1467.3 2136.59,1488.7C2128.15,1491.42 2119.46,1494.01 2110.77,1496.4C2060.79,1510.18 2009.2,1517.75 1957.46,1518.9C1952.79,1519 1948.06,1519.06 1943.4,1519.06Z" style="fill:rgb(0,151,54);fill-rule:nonzero;"/>
        <path d="M2294.66,1335.08L2290.92,1337.56C2256.23,1360.56 2128.16,1435.76 1936.38,1438.18C1933.73,1438.21 1931.05,1438.23 1928.4,1438.23C1772.78,1438.23 1663.91,1380.75 1595.55,1337.51L1591.84,1335.16L1589.68,1339L1561.27,1389.6L1559.47,1392.81L1562.43,1394.99C1602.4,1424.6 1646.68,1449.81 1694.04,1469.92C1774.06,1503.91 1857.96,1521.14 1943.4,1521.14C1948.08,1521.14 1952.82,1521.09 1957.5,1520.99C2009.42,1519.83 2061.17,1512.24 2111.33,1498.41C2120.02,1496.02 2128.73,1493.42 2137.23,1490.69C2204.01,1469.22 2268.63,1436.13 2324.11,1394.99L2327.06,1392.8L2325.26,1389.6L2311.53,1365.12L2296.86,1339L2294.66,1335.08ZM2293.22,1341.04C2302.69,1357.9 2312.16,1374.78 2321.63,1391.64C2292.66,1413.12 2228.35,1457.01 2135.95,1486.71C2127.61,1489.4 2119.02,1491.97 2110.22,1494.39C2064.96,1506.86 2013.78,1515.56 1957.41,1516.81C1952.71,1516.92 1948.03,1516.97 1943.4,1516.97C1745.04,1516.97 1607.31,1423.05 1564.91,1391.64L1593.32,1341.04C1658.35,1382.18 1768.68,1442.4 1928.4,1442.4C1931.07,1442.4 1933.74,1442.38 1936.43,1442.35C2093.16,1440.38 2220.1,1389.52 2293.22,1341.04Z" style="fill:rgb(63,38,18);fill-rule:nonzero;"/>
        <path d="M1898.14,1103.89C1898.14,1157.01 1876.16,1200.08 1849.04,1200.08C1821.92,1200.08 1799.93,1157.01 1799.93,1103.89C1799.93,1050.76 1821.92,1007.7 1849.04,1007.7C1876.16,1007.7 1898.14,1050.76 1898.14,1103.89Z" style="fill:white;fill-rule:nonzero;"/>
        <path d="M1849.04,1009.78C1823.11,1009.78 1802.02,1052 1802.02,1103.89C1802.02,1155.77 1823.11,1197.99 1849.04,1197.99C1874.96,1197.99 1896.06,1155.77 1896.06,1103.89C1896.06,1052 1874.96,1009.78 1849.04,1009.78ZM1849.04,1202.16C1835.1,1202.16 1822.1,1191.75 1812.45,1172.85C1803.03,1154.39 1797.84,1129.9 1797.84,1103.89C1797.84,1077.87 1803.03,1053.38 1812.45,1034.92C1822.1,1016.02 1835.1,1005.61 1849.04,1005.61C1862.98,1005.61 1875.97,1016.02 1885.62,1034.92C1895.04,1053.38 1900.23,1077.87 1900.23,1103.89C1900.23,1129.9 1895.04,1154.39 1885.62,1172.85C1875.97,1191.75 1862.98,1202.16 1849.04,1202.16Z" style="fill:rgb(63,38,18);fill-rule:nonzero;"/>
        <path d="M1874.53,1105.41C1874.53,1139.8 1863.87,1167.67 1850.72,1167.67C1837.57,1167.67 1826.91,1139.8 1826.91,1105.41C1826.91,1071.01 1837.57,1043.14 1850.72,1043.14C1863.87,1043.14 1874.53,1071.01 1874.53,1105.41Z" style="fill:rgb(63,38,18);fill-rule:nonzero;"/>
        <path d="M1811.8,998.046C1811.19,998.046 1810.58,997.778 1810.17,997.262C1809.45,996.361 1809.6,995.048 1810.5,994.33C1820.31,986.497 1832.63,981.995 1845.18,981.654C1857.75,981.309 1870.28,985.14 1880.5,992.429C1881.44,993.098 1881.66,994.401 1880.99,995.338C1880.32,996.277 1879.02,996.497 1878.08,995.826C1868.59,989.06 1856.97,985.501 1845.3,985.825C1833.65,986.141 1822.21,990.32 1813.1,997.591C1812.72,997.897 1812.26,998.046 1811.8,998.046Z" style="fill:rgb(63,38,18);fill-rule:nonzero;"/>
        <path d="M2083.58,1103.89C2083.58,1157.01 2061.6,1200.08 2034.48,1200.08C2007.36,1200.08 1985.37,1157.01 1985.37,1103.89C1985.37,1050.76 2007.36,1007.7 2034.48,1007.7C2061.6,1007.7 2083.58,1050.76 2083.58,1103.89Z" style="fill:white;fill-rule:nonzero;"/>
        <path d="M2034.48,1009.78C2008.55,1009.78 1987.46,1052 1987.46,1103.89C1987.46,1155.77 2008.55,1197.99 2034.48,1197.99C2060.4,1197.99 2081.5,1155.77 2081.5,1103.89C2081.5,1052 2060.4,1009.78 2034.48,1009.78ZM2034.48,1202.16C2020.54,1202.16 2007.54,1191.75 1997.9,1172.85C1988.47,1154.39 1983.28,1129.9 1983.28,1103.89C1983.28,1077.87 1988.47,1053.38 1997.9,1034.92C2007.54,1016.02 2020.54,1005.61 2034.48,1005.61C2048.42,1005.61 2061.41,1016.02 2071.06,1034.92C2080.48,1053.38 2085.67,1077.87 2085.67,1103.89C2085.67,1129.9 2080.48,1154.39 2071.06,1172.85C2061.41,1191.75 2048.42,1202.16 2034.48,1202.16Z" style="fill:rgb(63,38,18);fill-rule:nonzero;"/>
        <path d="M2059.97,1105.41C2059.97,1139.8 2049.31,1167.67 2036.16,1167.67C2023.02,1167.67 2012.36,1139.8 2012.36,1105.41C2012.36,1071.01 2023.02,1043.14 2036.16,1043.14C2049.31,1043.14 2059.97,1071.01 2059.97,1105.41Z" style="fill:rgb(63,38,18);fill-rule:nonzero;"/>
        <path d="M1997.24,998.046C1996.63,998.046 1996.02,997.778 1995.61,997.262C1994.89,996.361 1995.04,995.048 1995.94,994.33C2005.76,986.497 2018.07,981.995 2030.62,981.654C2043.18,981.302 2055.72,985.139 2065.95,992.429C2066.88,993.098 2067.1,994.401 2066.43,995.338C2065.76,996.277 2064.46,996.495 2063.52,995.827C2054.03,989.06 2042.42,985.501 2030.74,985.825C2019.09,986.141 2007.65,990.32 1998.54,997.591C1998.16,997.897 1997.7,998.046 1997.24,998.046Z" style="fill:rgb(63,38,18);fill-rule:nonzero;"/>
        <path d="M1929.64,1184.76C1933.42,1177.62 1943.33,1175.78 1950.99,1178.37C1960.6,1181.62 1967.97,1190.72 1969.15,1200.8C1970.33,1210.88 1965.26,1221.43 1956.66,1226.82C1948.06,1232.2 1936.35,1232.14 1927.8,1226.67" style="fill:rgb(238,42,53);fill-rule:nonzero;"/>
        <path d="M1942.35,1232.92C1936.85,1232.92 1931.35,1231.42 1926.68,1228.43C1925.71,1227.81 1925.42,1226.52 1926.04,1225.55C1926.66,1224.58 1927.95,1224.29 1928.92,1224.92C1936.74,1229.92 1947.69,1229.97 1955.55,1225.05C1963.42,1220.13 1968.16,1210.25 1967.08,1201.04C1966,1191.83 1959.11,1183.32 1950.32,1180.35C1943.65,1178.09 1934.79,1179.5 1931.49,1185.74C1930.95,1186.76 1929.69,1187.15 1928.67,1186.61C1927.65,1186.07 1927.26,1184.81 1927.8,1183.79C1932.14,1175.58 1943.33,1173.58 1951.65,1176.39C1962.08,1179.92 1969.94,1189.63 1971.22,1200.56C1972.5,1211.48 1967.09,1222.75 1957.77,1228.58C1953.15,1231.48 1947.75,1232.92 1942.35,1232.92Z" style="fill:rgb(63,38,18);fill-rule:nonzero;"/>
        <path d="M2079.79,1308C2072.87,1308 2065.91,1306.28 2059.82,1302.81C2047.32,1295.7 2038.96,1281.59 2038.52,1266.89C2038.09,1252.56 2045.06,1238.11 2056.71,1229.16C2057.62,1228.46 2058.93,1228.63 2059.63,1229.54C2060.33,1230.46 2060.16,1231.77 2059.25,1232.47C2048.65,1240.61 2042.3,1253.76 2042.69,1266.76C2043.09,1280.05 2050.62,1292.77 2061.89,1299.19C2073.38,1305.73 2088.35,1305.34 2099.14,1298.21C2100.1,1297.58 2101.39,1297.84 2102.03,1298.8C2102.66,1299.77 2102.4,1301.06 2101.44,1301.69C2095.1,1305.88 2087.47,1308 2079.79,1308Z" style="fill:rgb(63,38,18);fill-rule:nonzero;"/>
        <path d="M2068.38,1281.5C2071.66,1281.5 2074.79,1278.62 2074.64,1275.24C2074.49,1271.85 2071.89,1268.98 2068.38,1268.98C2065.11,1268.98 2061.97,1271.86 2062.12,1275.24C2062.28,1278.63 2064.87,1281.5 2068.38,1281.5Z" style="fill:rgb(63,38,18);fill-rule:nonzero;"/>
        <path d="M2075.91,1252.22C2079.18,1252.22 2082.32,1249.34 2082.17,1245.96C2082.02,1242.57 2079.42,1239.7 2075.91,1239.7C2072.64,1239.7 2069.5,1242.58 2069.65,1245.96C2069.8,1249.35 2072.4,1252.22 2075.91,1252.22Z" style="fill:rgb(63,38,18);fill-rule:nonzero;"/>
        <path d="M2096.32,1278.95C2099.59,1278.95 2102.73,1276.07 2102.58,1272.69C2102.42,1269.3 2099.83,1266.43 2096.32,1266.43C2093.04,1266.43 2089.91,1269.31 2090.06,1272.69C2090.21,1276.08 2092.81,1278.95 2096.32,1278.95Z" style="fill:rgb(63,38,18);fill-rule:nonzero;"/>
        <path d="M1817.56,1312.82C1811.39,1312.82 1805.25,1311.43 1799.8,1308.61C1798.77,1308.08 1798.37,1306.83 1798.9,1305.8C1799.43,1304.78 1800.69,1304.38 1801.71,1304.91C1813.2,1310.85 1828.12,1309.65 1838.86,1301.92C1849.38,1294.35 1855.52,1280.89 1854.5,1267.64C1853.51,1254.66 1845.8,1242.27 1834.39,1235.3C1833.41,1234.7 1833.1,1233.41 1833.7,1232.43C1834.3,1231.45 1835.59,1231.14 1836.57,1231.74C1849.1,1239.4 1857.57,1253.03 1858.66,1267.32C1859.79,1281.99 1852.97,1296.9 1841.29,1305.31C1834.4,1310.27 1825.95,1312.82 1817.56,1312.82Z" style="fill:rgb(63,38,18);fill-rule:nonzero;"/>
        <path d="M1827.98,1285.33C1831.25,1285.33 1834.39,1282.46 1834.24,1279.08C1834.09,1275.69 1831.49,1272.82 1827.98,1272.82C1824.7,1272.82 1821.57,1275.7 1821.72,1279.08C1821.87,1282.47 1824.47,1285.33 1827.98,1285.33Z" style="fill:rgb(63,38,18);fill-rule:nonzero;"/>
        <path d="M1817.38,1257.02C1820.66,1257.02 1823.79,1254.14 1823.64,1250.76C1823.49,1247.37 1820.89,1244.5 1817.38,1244.5C1814.11,1244.5 1810.97,1247.38 1811.12,1250.76C1811.27,1254.15 1813.87,1257.02 1817.38,1257.02Z" style="fill:rgb(63,38,18);fill-rule:nonzero;"/>
        <path d="M1799.93,1285.77C1803.2,1285.77 1806.34,1282.89 1806.19,1279.51C1806.04,1276.12 1803.44,1273.25 1799.93,1273.25C1796.66,1273.25 1793.52,1276.13 1793.67,1279.51C1793.82,1282.9 1796.42,1285.77 1799.93,1285.77Z" style="fill:rgb(63,38,18);fill-rule:nonzero;"/>
        <path d="M1852.32,1286.72C1862.14,1296.93 1873.69,1305.48 1886.27,1311.99C1898.81,1318.47 1912.38,1323 1926.32,1325.22C1940.37,1327.46 1954.63,1327.37 1968.64,1324.92C1982.37,1322.52 1995.71,1317.85 2008.01,1311.3C2020.35,1304.73 2031.7,1296.18 2041.32,1286.04C2042.51,1284.79 2043.67,1283.51 2044.8,1282.22C2045.54,1281.37 2045.63,1280.1 2044.8,1279.27C2044.04,1278.51 2042.59,1278.41 2041.85,1279.27C2032.89,1289.51 2022.3,1298.22 2010.56,1305.1C1998.83,1311.97 1986.04,1316.97 1972.76,1319.87C1959.41,1322.79 1945.63,1323.44 1932.05,1321.84C1918.49,1320.25 1905.12,1316.36 1892.76,1310.55C1880.31,1304.69 1868.78,1296.89 1858.85,1287.35C1857.63,1286.18 1856.44,1284.99 1855.27,1283.77C1853.41,1281.83 1850.46,1284.78 1852.32,1286.72Z" style="fill:rgb(63,38,18);fill-rule:nonzero;"/>
    </g>
</svg>
