<?xml version="1.0" encoding="UTF-8" standalone="no"?>
<!DOCTYPE svg PUBLIC "-//W3C//DTD SVG 1.1//EN" "http://www.w3.org/Graphics/SVG/1.1/DTD/svg11.dtd">
<svg width="100%" height="100%" viewBox="0 0 1236 1166" version="1.1" xmlns="http://www.w3.org/2000/svg" xmlns:xlink="http://www.w3.org/1999/xlink" xml:space="preserve" xmlns:serif="http://www.serif.com/" style="fill-rule:evenodd;clip-rule:evenodd;stroke-linejoin:round;stroke-miterlimit:2;">
    <g transform="matrix(1,0,0,1,-3377,-433.371)">
        <path d="M4356.86,1364.58L4365.49,1490.89L4431.39,1472.84L4431.39,1386.55L4404.71,1341.05L4356.86,1364.58Z" style="fill:white;fill-rule:nonzero;"/>
        <path d="M4349.82,1347.75C4363.27,1326.17 4390.08,1313.77 4415.22,1317.49C4438.62,1320.96 4458.64,1336.96 4472.42,1356.18C4494.11,1386.44 4495.81,1427.91 4492.2,1462.3C4487.87,1503.44 4452.38,1528.29 4416.17,1536.98C4402.77,1540.2 4387.97,1540.4 4375.91,1533.72C4361.81,1525.92 4353.81,1509.83 4352,1493.82C4348.15,1459.85 4371.58,1424.83 4404.44,1415.42" style="fill:white;fill-rule:nonzero;"/>
        <path d="M4398.82,1541.21C4390.96,1541.21 4382.58,1539.76 4374.91,1535.51C4361.38,1528.02 4352.05,1512.52 4349.96,1494.05C4346.02,1459.25 4370.2,1423.09 4403.87,1413.44C4404.97,1413.13 4406.1,1413.76 4406.41,1414.85C4406.72,1415.94 4406.09,1417.08 4405,1417.39C4373.17,1426.5 4350.31,1460.69 4354.04,1493.59C4355.98,1510.74 4364.53,1525.07 4376.9,1531.93C4389.79,1539.06 4405.11,1537.53 4415.7,1534.99C4448.82,1527.04 4485.78,1503.71 4490.16,1462.08C4494.88,1417.16 4488.35,1381.93 4470.75,1357.38C4461.89,1345.01 4442.85,1323.66 4414.92,1319.52C4390.62,1315.92 4364.56,1327.97 4351.56,1348.83C4350.96,1349.79 4349.7,1350.09 4348.74,1349.49C4347.78,1348.89 4347.48,1347.62 4348.08,1346.66C4361.91,1324.46 4389.64,1311.63 4415.52,1315.46C4437.33,1318.69 4458.13,1332.73 4474.09,1354.99C4492.29,1380.38 4499.07,1416.55 4494.24,1462.51C4489.63,1506.26 4451.14,1530.7 4416.65,1538.98C4411.53,1540.21 4405.35,1541.21 4398.82,1541.21Z" style="fill:rgb(63,38,18);fill-rule:nonzero;"/>
        <path d="M4380.21,1355.15C4360.92,1297.12 4289.65,1319.78 4301.18,1387.65C4315.41,1471.4 4397.65,1427.99 4380.21,1355.15Z" style="fill:white;fill-rule:nonzero;"/>
        <path d="M4341.47,1324.03C4338.66,1324.03 4335.95,1324.39 4333.4,1325.02C4314.56,1329.72 4297.07,1351.22 4303.2,1387.31C4307.09,1410.18 4316.58,1425.31 4329.91,1429.93C4340.12,1433.46 4352.05,1430.28 4361.82,1421.42C4374.58,1409.86 4385.58,1386.53 4378.23,1355.71C4370.36,1332.1 4354.91,1324.03 4341.47,1324.03ZM4338.45,1435.44C4335.08,1435.44 4331.76,1434.91 4328.57,1433.8C4313.75,1428.68 4303.31,1412.41 4299.16,1388C4296.23,1370.76 4298.34,1355.09 4305.26,1342.69C4311.49,1331.55 4321.13,1323.86 4332.41,1321.04C4350.16,1316.61 4372.43,1325.24 4382.15,1354.5C4382.17,1354.56 4382.19,1354.61 4382.2,1354.67C4390.01,1387.27 4378.22,1412.1 4364.58,1424.46C4356.66,1431.64 4347.39,1435.44 4338.45,1435.44Z" style="fill:rgb(63,38,18);fill-rule:nonzero;"/>
        <path d="M4363.17,1445.64C4361.29,1440 4360.12,1433.93 4359.78,1427.99" style="fill:white;fill-rule:nonzero;"/>
        <path d="M4363.17,1447.69C4362.31,1447.69 4361.51,1447.15 4361.22,1446.29C4359.29,1440.5 4358.08,1434.21 4357.73,1428.11C4357.66,1426.98 4358.53,1426.01 4359.66,1425.95C4360.79,1425.88 4361.76,1426.74 4361.82,1427.87C4362.16,1433.62 4363.29,1439.54 4365.11,1444.99C4365.47,1446.07 4364.89,1447.23 4363.82,1447.59C4363.6,1447.66 4363.38,1447.69 4363.17,1447.69Z" style="fill:rgb(63,38,18);fill-rule:nonzero;"/>
        <path d="M4321.8,1410.87C4289.99,1410.87 4227.52,1404.76 4166.51,1363.81C4099.66,1318.94 4070.46,1257.22 4059,1224.42C4053.05,1207.37 4062.08,1188.66 4079.12,1182.7C4082.62,1181.48 4086.25,1180.86 4089.92,1180.86C4103.83,1180.86 4116.25,1189.69 4120.84,1202.82C4129.6,1227.92 4151.94,1275.15 4203.01,1309.43C4249.61,1340.7 4297.38,1345.37 4321.7,1345.37C4322.39,1345.37 4323.06,1345.37 4323.72,1345.36L4324.06,1345.36C4341.93,1345.36 4356.62,1359.9 4356.8,1377.77C4356.89,1386.52 4353.57,1394.78 4347.45,1401.03C4341.33,1407.28 4333.14,1410.77 4324.4,1410.86C4323.55,1410.87 4322.69,1410.87 4321.8,1410.87Z" style="fill:rgb(0,123,43);fill-rule:nonzero;"/>
        <path d="M4089.92,1178.81C4086.02,1178.81 4082.16,1179.47 4078.45,1180.77C4060.33,1187.1 4050.74,1206.98 4057.07,1225.1C4068.61,1258.14 4098.02,1320.31 4165.37,1365.51C4226.83,1406.76 4289.76,1412.92 4321.8,1412.92C4322.69,1412.92 4323.57,1412.92 4324.42,1412.91C4333.71,1412.81 4342.41,1409.1 4348.92,1402.46C4355.42,1395.82 4358.95,1387.05 4358.85,1377.75C4358.76,1368.52 4355.09,1359.86 4348.53,1353.37C4341.97,1346.88 4333.28,1343.31 4324.06,1343.31L4323.7,1343.31C4323.05,1343.32 4322.38,1343.32 4321.7,1343.32C4297.61,1343.32 4250.31,1338.7 4204.15,1307.72C4153.57,1273.78 4131.46,1227.01 4122.77,1202.15C4117.9,1188.19 4104.7,1178.81 4089.92,1178.81ZM4089.92,1182.92C4102.61,1182.92 4114.48,1190.84 4118.9,1203.5C4127.75,1228.84 4150.3,1276.52 4201.87,1311.13C4248.53,1342.44 4296.24,1347.42 4321.7,1347.42C4322.4,1347.42 4323.08,1347.42 4323.74,1347.41L4324.06,1347.41C4340.87,1347.41 4354.58,1360.95 4354.75,1377.79C4354.93,1394.75 4341.33,1408.63 4324.38,1408.81C4323.54,1408.81 4322.68,1408.82 4321.8,1408.82C4289.04,1408.82 4227.74,1402.43 4167.65,1362.11C4101.3,1317.57 4072.31,1256.3 4060.94,1223.74C4055.35,1207.74 4063.79,1190.23 4079.8,1184.64C4083.15,1183.47 4086.57,1182.92 4089.92,1182.92Z" style="fill:rgb(63,38,18);fill-rule:nonzero;"/>
        <path d="M3815.2,1487.55C3813.62,1487.55 3812.01,1487.43 3810.44,1487.2C3792.57,1484.59 3780.15,1467.94 3782.76,1450.07C3789.03,1407.05 3806.37,1342.71 3853.32,1280.49C3913.47,1200.76 3991.61,1165.85 4032.84,1152.13C4036.19,1151.01 4039.67,1150.44 4043.18,1150.44C4057.3,1150.44 4069.79,1159.45 4074.25,1172.86C4079.95,1189.99 4070.65,1208.57 4053.52,1214.27C4019.51,1225.59 3955.08,1254.36 3905.6,1319.94C3867.01,1371.09 3852.74,1424.08 3847.57,1459.52C3845.24,1475.5 3831.32,1487.55 3815.2,1487.55Z" style="fill:rgb(0,123,43);fill-rule:nonzero;"/>
        <path d="M4043.18,1148.39L4043.18,1152.49L4043.18,1148.39C4039.45,1148.39 4035.75,1148.99 4032.19,1150.18C3990.74,1163.97 3912.17,1199.09 3851.68,1279.25C3804.47,1341.82 3787.04,1406.52 3780.73,1449.77C3777.96,1468.76 3791.15,1486.46 3810.14,1489.23C3811.82,1489.47 3813.52,1489.6 3815.2,1489.6C3823.48,1489.6 3831.51,1486.62 3837.83,1481.2C3844.2,1475.73 3848.38,1468.14 3849.6,1459.82C3854.73,1424.61 3868.9,1371.98 3907.24,1321.17C3956.38,1256.04 4020.39,1227.46 4054.16,1216.22C4072.37,1210.16 4082.25,1190.42 4076.2,1172.21C4071.45,1157.96 4058.19,1148.39 4043.18,1148.39ZM4043.18,1152.49C4056.04,1152.49 4068.02,1160.64 4072.3,1173.51C4077.66,1189.59 4068.96,1206.97 4052.87,1212.33C4018.64,1223.72 3953.78,1252.69 3903.96,1318.7C3865.11,1370.2 3850.75,1423.54 3845.54,1459.23C3843.31,1474.5 3830.19,1485.5 3815.2,1485.5C3813.73,1485.5 3812.24,1485.39 3810.73,1485.17C3793.96,1482.72 3782.34,1467.14 3784.79,1450.36C3791.03,1407.58 3808.27,1343.6 3854.96,1281.72C3914.77,1202.44 3992.49,1167.72 4033.48,1154.07C4036.7,1153 4039.97,1152.49 4043.18,1152.49Z" style="fill:rgb(63,38,18);fill-rule:nonzero;"/>
        <path d="M3775.69,1435.91C3783.85,1427.68 3797.61,1428.33 3808.25,1432.92C3822.21,1438.94 3833.53,1450.79 3838.91,1465.01C3844.28,1479.22 3843.63,1495.61 3837.15,1509.35C3832.9,1518.35 3824.85,1526.87 3814.9,1526.67C3807.51,1526.51 3801.1,1521.58 3795.98,1516.25C3775.81,1495.19 3767.24,1463.67 3773.96,1435.3" style="fill:white;fill-rule:nonzero;"/>
        <path d="M3775.47,1437.95C3769.88,1464.96 3778.38,1494.91 3797.46,1514.83C3803.67,1521.3 3809.39,1524.5 3814.94,1524.61C3815.05,1524.62 3815.15,1524.62 3815.25,1524.62C3824.41,1524.62 3831.59,1516.32 3835.29,1508.48C3841.5,1495.32 3842.14,1479.34 3836.99,1465.73C3831.85,1452.12 3820.8,1440.56 3807.44,1434.8C3798.46,1430.94 3785.15,1429.28 3777.15,1437.36C3776.69,1437.82 3776.07,1438.02 3775.47,1437.95ZM3815.25,1528.72L3814.86,1528.72C3808.16,1528.58 3801.5,1524.96 3794.5,1517.66C3773.96,1496.23 3765.12,1463.71 3771.97,1434.83C3772.23,1433.73 3773.33,1433.05 3774.44,1433.3C3774.69,1433.36 3774.93,1433.47 3775.13,1433.61C3784.62,1425.04 3799.22,1426.79 3809.06,1431.04C3823.42,1437.23 3835.3,1449.66 3840.83,1464.28C3846.36,1478.91 3845.68,1496.08 3839,1510.23C3834.76,1519.21 3826.32,1528.72 3815.25,1528.72Z" style="fill:rgb(63,38,18);fill-rule:nonzero;"/>
        <path d="M3829.12,1574.92C3827.66,1577.26 3826,1579.45 3824.14,1581.49C3812.74,1593.99 3794,1599.55 3777.87,1594.46C3766.3,1590.81 3756.84,1582.38 3749.05,1573.08C3741.27,1563.78 3734.82,1553.43 3726.95,1544.21C3710.67,1525.14 3689,1511.66 3668.99,1496.55C3648.97,1481.45 3629.65,1463.44 3621.37,1439.77C3616.51,1425.9 3616.06,1410.64 3619.58,1396.37C3622.42,1384.85 3627.84,1373.98 3635.61,1364.99C3652.99,1344.88 3681.47,1335.03 3707.57,1340.1C3730.52,1344.57 3750.56,1359.72 3763.94,1378.9C3777.19,1397.94 3789.62,1458.24 3805.62,1488.8C3814.02,1504.84 3829.99,1516.65 3834.88,1534.1C3838.71,1547.73 3836.6,1562.99 3829.12,1574.92Z" style="fill:white;fill-rule:nonzero;"/>
        <path d="M3693.58,1340.81C3672.3,1340.81 3651.18,1350.12 3637.16,1366.33C3629.78,1374.86 3624.39,1385.42 3621.58,1396.86C3618.1,1410.97 3618.71,1425.97 3623.31,1439.09C3631.92,1463.69 3652.9,1481.85 3670.22,1494.91C3674.79,1498.36 3679.54,1501.79 3684.12,1505.1C3699.7,1516.36 3715.8,1527.99 3728.51,1542.88C3732.63,1547.7 3736.4,1552.88 3740.05,1557.89C3743.42,1562.53 3746.91,1567.32 3750.63,1571.76C3759.77,1582.69 3768.89,1589.48 3778.49,1592.5C3793.49,1597.24 3811.65,1592.14 3822.63,1580.11C3824.39,1578.17 3825.99,1576.06 3827.38,1573.84L3827.38,1573.83C3834.53,1562.43 3836.59,1547.78 3832.91,1534.65C3830.15,1524.82 3823.75,1516.89 3816.98,1508.49C3812.25,1502.62 3807.36,1496.55 3803.8,1489.75C3795.99,1474.83 3789.12,1453.22 3782.48,1432.32C3775.51,1410.38 3768.93,1389.66 3762.25,1380.07C3748.29,1360.05 3728.22,1346.21 3707.18,1342.11C3702.68,1341.24 3698.13,1340.81 3693.58,1340.81ZM3790.41,1598.41C3785.96,1598.41 3781.52,1597.76 3777.25,1596.41C3766.89,1593.15 3757.15,1585.94 3747.48,1574.39C3743.67,1569.85 3740.14,1565 3736.73,1560.31C3733.13,1555.36 3729.4,1550.24 3725.39,1545.54C3713,1531.03 3697.1,1519.54 3681.72,1508.43C3677.12,1505.1 3672.35,1501.66 3667.75,1498.19C3649.97,1484.77 3628.41,1466.09 3619.43,1440.45C3614.58,1426.58 3613.92,1410.75 3617.59,1395.88C3620.56,1383.81 3626.26,1372.67 3634.06,1363.65C3652.01,1342.89 3681.02,1332.85 3707.96,1338.09C3730.04,1342.38 3751.06,1356.83 3765.62,1377.73C3772.65,1387.83 3779.32,1408.84 3786.39,1431.08C3792.98,1451.81 3799.79,1473.25 3807.43,1487.85C3810.81,1494.29 3815.57,1500.2 3820.18,1505.91C3826.91,1514.26 3833.87,1522.9 3836.86,1533.54C3840.85,1547.77 3838.61,1563.64 3830.86,1576.01C3829.34,1578.44 3827.59,1580.75 3825.66,1582.87C3816.56,1592.85 3803.43,1598.41 3790.41,1598.41Z" style="fill:rgb(63,38,18);fill-rule:nonzero;"/>
        <path d="M3829.12,1574.92C3827.66,1577.26 3826,1579.45 3824.14,1581.49C3812.74,1593.99 3794,1599.55 3777.87,1594.46C3766.3,1590.81 3756.84,1582.38 3749.05,1573.08C3741.27,1563.78 3734.82,1553.43 3726.95,1544.21C3710.67,1525.14 3689,1511.66 3668.99,1496.55C3648.97,1481.45 3629.65,1463.44 3621.37,1439.77C3616.51,1425.9 3616.06,1410.64 3619.58,1396.37C3626.97,1390.65 3635.48,1386.4 3644.54,1384.11C3665.72,1378.75 3689.36,1384.27 3705.99,1398.45C3739.7,1427.21 3739.31,1481.34 3769.52,1513.76C3787.85,1533.44 3816.65,1544.24 3827.14,1568.99C3827.95,1570.89 3828.62,1572.88 3829.12,1574.92Z" style="fill:white;fill-rule:nonzero;"/>
        <path d="M3621.41,1397.55C3618.12,1411.46 3618.79,1426.18 3623.31,1439.09C3631.92,1463.69 3652.9,1481.85 3670.22,1494.91C3674.79,1498.36 3679.54,1501.79 3684.12,1505.1C3699.7,1516.36 3715.8,1527.99 3728.51,1542.88C3732.63,1547.7 3736.4,1552.88 3740.05,1557.89C3743.42,1562.53 3746.91,1567.32 3750.63,1571.76C3759.77,1582.69 3768.89,1589.48 3778.49,1592.5C3793.49,1597.24 3811.65,1592.14 3822.63,1580.11C3824.2,1578.38 3825.64,1576.52 3826.91,1574.57C3826.48,1572.97 3825.92,1571.37 3825.25,1569.78C3818.94,1554.88 3805.83,1545.27 3791.95,1535.1C3783.64,1529.01 3775.06,1522.71 3768.02,1515.16C3753.53,1499.61 3745.91,1479.07 3738.54,1459.21C3730.09,1436.42 3722.1,1414.9 3704.65,1400.01C3688.48,1386.22 3665.64,1380.89 3645.04,1386.09C3636.68,1388.21 3628.52,1392.17 3621.41,1397.55ZM3790.41,1598.41C3785.96,1598.41 3781.52,1597.76 3777.25,1596.41C3766.89,1593.15 3757.15,1585.94 3747.48,1574.39C3743.67,1569.85 3740.14,1565 3736.73,1560.31C3733.13,1555.36 3729.4,1550.24 3725.39,1545.54C3713,1531.03 3697.1,1519.54 3681.72,1508.43C3677.12,1505.1 3672.35,1501.66 3667.75,1498.19C3649.97,1484.77 3628.41,1466.09 3619.43,1440.45C3614.58,1426.58 3613.92,1410.75 3617.59,1395.88C3617.7,1395.43 3617.96,1395.03 3618.33,1394.74C3626.02,1388.8 3634.91,1384.43 3644.03,1382.12C3665.9,1376.59 3690.15,1382.25 3707.32,1396.89C3725.58,1412.47 3734.12,1435.51 3742.39,1457.79C3749.62,1477.27 3757.09,1497.41 3771.02,1512.36C3777.79,1519.63 3786.22,1525.81 3794.37,1531.79C3808.09,1541.85 3822.27,1552.24 3829.03,1568.18C3829.9,1570.25 3830.6,1572.35 3831.11,1574.43C3831.24,1574.97 3831.15,1575.54 3830.86,1576.01C3829.34,1578.44 3827.59,1580.75 3825.66,1582.87C3816.56,1592.85 3803.43,1598.41 3790.41,1598.41Z" style="fill:rgb(63,38,18);fill-rule:nonzero;"/>
        <path d="M3633.59,1458.24C3657.27,1439.13 3680.94,1420.01 3704.62,1400.89" style="fill:white;fill-rule:nonzero;"/>
        <path d="M3633.59,1460.29C3632.99,1460.29 3632.4,1460.03 3631.99,1459.53C3631.28,1458.65 3631.42,1457.36 3632.3,1456.65L3703.33,1399.3C3704.21,1398.59 3705.5,1398.73 3706.21,1399.61C3706.93,1400.49 3706.79,1401.78 3705.91,1402.49L3634.88,1459.84C3634.5,1460.15 3634.04,1460.29 3633.59,1460.29Z" style="fill:rgb(63,38,18);fill-rule:nonzero;"/>
        <path d="M3677.77,1498.41C3697.28,1483.63 3716.17,1468.03 3734.36,1451.65" style="fill:white;fill-rule:nonzero;"/>
        <path d="M3677.77,1500.46C3677.15,1500.46 3676.54,1500.18 3676.14,1499.65C3675.45,1498.75 3675.63,1497.46 3676.53,1496.78C3695.92,1482.09 3714.91,1466.4 3732.99,1450.13C3733.83,1449.37 3735.12,1449.44 3735.88,1450.28C3736.64,1451.12 3736.57,1452.42 3735.73,1453.17C3717.57,1469.52 3698.49,1485.29 3679.01,1500.05C3678.64,1500.33 3678.2,1500.46 3677.77,1500.46Z" style="fill:rgb(63,38,18);fill-rule:nonzero;"/>
        <path d="M3717.92,1527.15C3730.27,1518.28 3742.61,1509.41 3754.96,1500.54" style="fill:white;fill-rule:nonzero;"/>
        <path d="M3717.92,1529.2C3717.29,1529.2 3716.66,1528.9 3716.26,1528.34C3715.59,1527.42 3715.8,1526.14 3716.72,1525.48L3753.76,1498.88C3754.68,1498.22 3755.96,1498.43 3756.62,1499.35C3757.28,1500.27 3757.07,1501.55 3756.15,1502.21L3719.12,1528.81C3718.76,1529.07 3718.34,1529.2 3717.92,1529.2Z" style="fill:rgb(63,38,18);fill-rule:nonzero;"/>
        <path d="M3755.36,1574.46C3768.31,1561.87 3781.9,1549.92 3796.04,1538.68" style="fill:white;fill-rule:nonzero;"/>
        <path d="M3755.36,1576.52C3754.83,1576.52 3754.29,1576.31 3753.89,1575.89C3753.1,1575.08 3753.12,1573.78 3753.93,1572.99C3766.88,1560.4 3780.62,1548.32 3794.77,1537.08C3795.65,1536.37 3796.94,1536.52 3797.65,1537.41C3798.35,1538.29 3798.2,1539.58 3797.32,1540.29C3783.28,1551.44 3769.64,1563.44 3756.79,1575.93C3756.39,1576.32 3755.88,1576.52 3755.36,1576.52Z" style="fill:rgb(63,38,18);fill-rule:nonzero;"/>
        <path d="M3695.5,886.947C3679.41,886.947 3663.35,885.659 3647.43,883.083C3572.53,870.965 3517.94,833.581 3485.32,804.353C3475.71,795.735 3474.9,780.953 3483.52,771.337C3492.13,761.721 3506.92,760.912 3516.53,769.53C3544.49,794.584 3591.19,826.613 3654.9,836.921C3782.92,857.636 3879.52,773.789 3897.59,756.771C3906.99,747.917 3921.78,748.359 3930.64,757.759C3939.49,767.158 3939.05,781.956 3929.65,790.809C3918.35,801.454 3887.1,828.673 3841.15,851.452C3813.07,865.369 3784.1,875.337 3755.05,881.077C3735.25,884.989 3715.35,886.947 3695.5,886.947Z" style="fill:rgb(238,42,53);fill-rule:nonzero;"/>
        <path d="M3500.96,765.201C3500.55,765.201 3500.15,765.212 3499.74,765.234C3493.94,765.552 3488.61,768.108 3484.74,772.433C3476.74,781.36 3477.49,795.131 3486.42,803.131C3518.87,832.213 3573.19,869.409 3647.69,881.463C3663.45,884.013 3679.54,885.306 3695.5,885.306C3715.2,885.306 3735.13,883.342 3754.73,879.468C3783.64,873.755 3812.47,863.835 3840.42,849.982C3886.18,827.3 3917.28,800.21 3928.52,789.615C3932.75,785.633 3935.18,780.244 3935.35,774.44C3935.52,768.635 3933.43,763.111 3929.44,758.884C3925.46,754.657 3920.07,752.233 3914.27,752.059C3908.46,751.898 3902.94,753.984 3898.71,757.965C3882.52,773.214 3803.6,841.824 3695.48,841.83C3682.27,841.831 3668.65,840.809 3654.63,838.541C3590.53,828.169 3543.56,795.952 3515.44,770.752C3511.42,767.148 3506.31,765.201 3500.96,765.201ZM3695.5,888.588C3679.36,888.588 3663.1,887.28 3647.17,884.702C3571.88,872.521 3517,834.949 3484.23,805.575C3473.95,796.367 3473.09,780.517 3482.29,770.242C3486.75,765.265 3492.89,762.323 3499.56,761.958C3506.24,761.592 3512.65,763.848 3517.63,768.308C3545.42,793.216 3591.84,825.057 3655.16,835.302C3782.41,855.891 3878.49,772.502 3896.46,755.577C3901.33,750.994 3907.68,748.578 3914.37,748.78C3921.05,748.979 3927.25,751.769 3931.83,756.634C3936.42,761.499 3938.83,767.857 3938.63,774.538C3938.43,781.218 3935.64,787.421 3930.77,792.004C3919.42,802.699 3888.03,830.045 3841.88,852.922C3813.67,866.904 3784.56,876.918 3755.37,882.687C3735.55,886.602 3715.41,888.588 3695.5,888.588Z" style="fill:rgb(63,38,18);fill-rule:nonzero;"/>
        <path d="M3984.14,1194.16C3918.86,1194.16 3859.41,1188.59 3807.44,1177.6C3765.82,1168.8 3728.87,1156.52 3697.61,1141.11C3644.21,1114.78 3626.18,1088.78 3625.44,1087.69L3624.89,1086.87L3970.06,435.012L4081.47,435.012L4452.75,1076.82L4451.47,1078.23C4450.38,1079.41 4447.56,1080.89 4441.3,1084.12C4432.59,1088.61 4419.43,1095.4 4404.23,1105.44C4324.98,1157.8 4198.16,1187.39 4027.3,1193.39C4012.7,1193.9 3998.17,1194.16 3984.14,1194.16Z" style="fill:rgb(195,16,25);fill-rule:nonzero;"/>
        <path d="M4082.42,433.371L3969.07,433.371L3968.15,435.117L3636.58,1061.28L3623.9,1085.23L3622.98,1086.97L3624.08,1088.61C3624.84,1089.71 3643.1,1116.07 3696.89,1142.58C3728.27,1158.05 3765.35,1170.37 3807.1,1179.2C3859.18,1190.21 3918.75,1195.8 3984.14,1195.8C3998.19,1195.8 4012.73,1195.54 4027.36,1195.02C4123.89,1191.64 4207.41,1180.52 4275.59,1161.99C4327.47,1147.89 4371.05,1129.33 4405.13,1106.81C4420.26,1096.81 4433.38,1090.05 4442.05,1085.57C4448.66,1082.17 4451.39,1080.73 4452.66,1079.36L4452.68,1079.34L4452.69,1079.33L4453.16,1078.81L4454.76,1077.04L4453.57,1074.97L4431.56,1036.92L4083.36,435.009L4082.42,433.371ZM4080.52,436.652L4428.71,1038.56L4450.73,1076.61C4450.73,1076.61 4450.57,1076.78 4450.26,1077.13C4447.81,1079.76 4428.06,1087.73 4403.32,1104.07C4347.9,1140.69 4241.19,1184.24 4027.24,1191.75C4012.36,1192.27 3998,1192.52 3984.14,1192.52C3698.45,1192.52 3626.8,1086.76 3626.8,1086.76L3639.48,1062.82L3971.05,436.652L4080.52,436.652Z" style="fill:rgb(63,38,18);fill-rule:nonzero;"/>
        <path d="M4256.38,980.521L4395.08,979.031L4439.06,1051.61L4254.18,1083.94L4256.38,980.521Z" style="fill:rgb(0,198,69);fill-rule:nonzero;"/>
        <path d="M4396.23,976.968L4254.37,978.492L4252.08,1086.39L4442.37,1053.11L4396.23,976.968ZM4393.93,981.095L4435.75,1050.11L4256.29,1081.49L4258.39,982.551L4393.93,981.095Z" style="fill:rgb(63,38,18);fill-rule:nonzero;"/>
        <path d="M4288.44,1044.75L4431.3,1038.71L4454.42,1073.9C4454.72,1074.36 4454.64,1074.8 4454.57,1075.02C4454.5,1075.24 4454.31,1075.64 4453.81,1075.83C4443.34,1079.9 4416.94,1090.74 4397.13,1103.77L4259.56,1147.31L4288.44,1044.75Z" style="fill:rgb(0,151,54);fill-rule:nonzero;"/>
        <path d="M4432.37,1036.61L4286.87,1042.76L4256.56,1150.41L4398.02,1105.64C4417.84,1092.55 4444.65,1081.59 4454.55,1077.74C4456.54,1076.97 4457.3,1074.56 4456.13,1072.78L4432.37,1036.61ZM4430.22,1040.81L4452.2,1074.26C4441.18,1078.57 4415.65,1089.18 4396.24,1101.9L4262.57,1144.21L4290.01,1046.73L4430.22,1040.81Z" style="fill:rgb(63,38,18);fill-rule:nonzero;"/>
        <path d="M3988.6,1228.46C3931.91,1228.46 3877.33,1220.87 3826.37,1205.92C3785.6,1193.95 3747.05,1177.27 3711.79,1156.32C3651.71,1120.63 3621.58,1084.41 3621.28,1084.04L3620.42,1082.99L3638.73,1061.16L4276.95,1077.22L4308.51,1077.22L4453.63,1074.63C4454.35,1074.63 4454.98,1075.04 4455.25,1075.67C4455.53,1076.3 4455.4,1077.03 4454.94,1077.53C4454.74,1077.75 4454.49,1078.02 4454.2,1078.35C4430.75,1104.4 4395.43,1129.61 4352.06,1151.27C4314.24,1170.14 4270.92,1185.92 4223.29,1198.15C4164.84,1213.16 4099.37,1222.95 4028.7,1227.23C4015.27,1228.04 4001.78,1228.46 3988.6,1228.46Z" style="fill:rgb(0,123,43);fill-rule:nonzero;"/>
        <path d="M3637.99,1059.5L3636.97,1060.71L3620.04,1080.89L3618.29,1082.98L3620.02,1085.09C3621.24,1086.57 3650.62,1121.9 3710.95,1157.73C3746.33,1178.74 3785.01,1195.49 3825.91,1207.49C3877.01,1222.49 3931.75,1230.1 3988.6,1230.1C4001.81,1230.1 4015.34,1229.68 4028.8,1228.87C4099.57,1224.58 4165.14,1214.78 4223.7,1199.74C4271.44,1187.48 4314.87,1171.66 4352.79,1152.74C4396.35,1130.99 4431.83,1105.65 4455.41,1079.45C4455.71,1079.12 4455.95,1078.85 4456.15,1078.63C4457.05,1077.65 4457.29,1076.23 4456.75,1075C4456.21,1073.78 4455,1072.99 4453.66,1072.99L4453.6,1072.99L4308.49,1075.58L4276.95,1075.58L3639.57,1059.54L3637.99,1059.5ZM3639.48,1062.82L4276.91,1078.86L4308.51,1078.86L4453.66,1076.27C4453.74,1076.27 4453.79,1076.36 4453.73,1076.42C4444.84,1086.11 4343.45,1206.51 4028.6,1225.59C4014.92,1226.42 4001.58,1226.81 3988.6,1226.81C3740.73,1226.81 3622.55,1083 3622.55,1083L3639.48,1062.82Z" style="fill:rgb(63,38,18);fill-rule:nonzero;"/>
        <path d="M3931.63,1196.73C3882.68,1196.73 3835.85,1190.77 3792.43,1179.03C3757.7,1169.63 3725.06,1156.53 3695.43,1140.09C3649.82,1114.78 3625.35,1089.18 3620.89,1084.28L3677.4,980.317L3971.02,440.133L4306.56,1078.67C4302.9,1083.07 4283.36,1104.98 4239.33,1128.63C4210.52,1144.11 4177.02,1157.29 4139.76,1167.82C4093.17,1180.98 4040.54,1189.99 3983.33,1194.61C3965.9,1196.01 3948.51,1196.73 3931.63,1196.73Z" style="fill:rgb(238,42,53);fill-rule:nonzero;"/>
        <path d="M3971.05,436.652L3675.96,979.534L3638.14,1049.12L3618.9,1084.51C3618.9,1084.51 3716.2,1198.37 3931.63,1198.37C3948.2,1198.37 3965.48,1197.69 3983.46,1196.24C4235.15,1175.93 4308.51,1078.86 4308.51,1078.86L4288.78,1041.3L4255.77,978.492L3971.05,436.652ZM3971,443.614L4252.87,980.018L4285.87,1042.83L4304.59,1078.46C4299.61,1084.22 4279.96,1104.99 4238.3,1127.33C4209.59,1142.72 4176.22,1155.83 4139.1,1166.3C4092.66,1179.4 4040.21,1188.37 3983.19,1192.97C3965.81,1194.38 3948.46,1195.09 3931.63,1195.09C3882.87,1195.09 3836.22,1189.16 3792.97,1177.47C3758.39,1168.13 3725.89,1155.1 3696.38,1138.74C3653.08,1114.74 3628.92,1090.48 3622.9,1084.03L3641.02,1050.68L3678.84,981.101L3971,443.614Z" style="fill:rgb(63,38,18);fill-rule:nonzero;"/>
        <path d="M3931.63,1196.32C3882.67,1196.32 3835.83,1190.36 3792.42,1178.6C3757.7,1169.2 3725.09,1156.09 3695.48,1139.65C3650.59,1114.71 3626.3,1089.57 3621.39,1084.22L3676.71,982.436C3738.07,1020.97 3836.71,1066.28 3961.33,1066.28C3963.44,1066.28 3965.56,1066.26 3967.68,1066.24C4023.5,1065.56 4117.79,1050.66 4250.03,983.558C4251.93,982.596 4253.67,981.713 4254.84,981.137L4306.07,1078.62C4302.02,1083.43 4282.44,1105.02 4239.07,1128.31C4210.29,1143.76 4176.82,1156.93 4139.6,1167.44C4093.04,1180.58 4040.46,1189.59 3983.29,1194.2C3965.88,1195.61 3948.49,1196.32 3931.63,1196.32Z" style="fill:rgb(0,198,69);fill-rule:nonzero;"/>
        <path d="M4255.77,978.492C4253.36,978.498 4105.84,1062.51 3967.66,1064.19C3965.54,1064.21 3963.43,1064.23 3961.32,1064.23C3835.77,1064.23 3737.35,1018.43 3675.96,979.534L3638.14,1049.12L3618.9,1084.51C3618.9,1084.51 3716.2,1198.37 3931.63,1198.37C3948.2,1198.37 3965.48,1197.69 3983.46,1196.24C4235.15,1175.93 4308.51,1078.86 4308.51,1078.86L4288.78,1041.3L4255.77,978.492ZM4253.96,983.869L4285.14,1043.21L4303.6,1078.34C4298.12,1084.58 4278.47,1104.87 4237.78,1126.67C4209.13,1142.02 4175.81,1155.1 4138.76,1165.54C4092.41,1178.61 4040.04,1187.56 3983.13,1192.15C3965.77,1193.56 3948.44,1194.27 3931.63,1194.27C3882.96,1194.27 3836.41,1188.36 3793.25,1176.7C3758.74,1167.38 3726.3,1154.38 3696.85,1138.06C3654.51,1114.61 3630.5,1090.89 3623.9,1083.9L3641.74,1051.08L3677.48,985.331C3739.18,1023.75 3837.48,1068.33 3961.32,1068.33C3963.44,1068.33 3965.59,1068.32 3967.71,1068.29C4023.76,1067.61 4118.4,1052.67 4250.99,985.375C4252.04,984.844 4253.06,984.324 4253.96,983.869Z" style="fill:rgb(63,38,18);fill-rule:nonzero;"/>
        <path d="M3931.63,1196.32C3882.73,1196.32 3835.94,1190.37 3792.56,1178.64C3757.87,1169.26 3725.27,1156.17 3695.67,1139.75C3650.71,1114.82 3626.32,1089.59 3621.39,1084.22L3638.83,1052.14C3705.93,1100.18 3815.31,1156.72 3958.39,1156.72C3962.98,1156.72 3967.63,1156.66 3972.22,1156.54C4123.69,1152.61 4234.45,1085.3 4288.09,1044.41L4306.07,1078.62C4302.02,1083.43 4282.44,1105.02 4239.07,1128.31C4210.29,1143.76 4176.82,1156.93 4139.6,1167.44C4093.04,1180.58 4040.46,1189.59 3983.29,1194.2C3965.88,1195.61 3948.49,1196.32 3931.63,1196.32Z" style="fill:rgb(0,151,54);fill-rule:nonzero;"/>
        <path d="M4288.78,1041.3C4247.35,1073.2 4134.55,1150.28 3972.17,1154.49C3967.54,1154.61 3962.96,1154.66 3958.39,1154.66C3807.24,1154.66 3694.87,1090.08 3638.14,1049.12L3618.9,1084.51C3618.9,1084.51 3716.2,1198.37 3931.63,1198.37C3948.2,1198.37 3965.48,1197.69 3983.46,1196.24C4235.15,1175.93 4308.51,1078.86 4308.51,1078.86L4288.78,1041.3ZM4287.4,1047.5L4303.6,1078.34C4298.12,1084.58 4278.47,1104.87 4237.78,1126.67C4209.13,1142.02 4175.81,1155.1 4138.76,1165.54C4092.41,1178.61 4040.04,1187.56 3983.13,1192.15C3965.77,1193.56 3948.44,1194.27 3931.63,1194.27C3882.96,1194.27 3836.41,1188.36 3793.25,1176.7C3758.74,1167.38 3726.3,1154.38 3696.85,1138.06C3654.51,1114.61 3630.5,1090.89 3623.9,1083.9L3639.53,1055.16C3707.03,1103.08 3816.11,1158.77 3958.39,1158.77C3963,1158.77 3967.67,1158.71 3972.28,1158.59C4122.52,1154.69 4232.86,1088.67 4287.4,1047.5Z" style="fill:rgb(63,38,18);fill-rule:nonzero;"/>
        <path d="M4304.27,1076.27L4254.34,980.126" style="fill:none;fill-rule:nonzero;"/>
        <path d="M4302.81,1077.02L4252.88,980.882L4255.79,979.37L4305.73,1075.51L4302.81,1077.02Z" style="fill:rgb(63,38,18);fill-rule:nonzero;"/>
        <path d="M3618.9,1084.51L3676.52,978.492" style="fill:none;fill-rule:nonzero;"/>
        <path d="M3620.34,1085.29L3617.46,1083.73L3675.08,977.708L3677.97,979.275L3620.34,1085.29Z" style="fill:rgb(63,38,18);fill-rule:nonzero;"/>
        <path d="M3517.29,752.948C3517.43,778.571 3494.87,799.46 3466.9,799.605C3438.94,799.751 3416.16,779.098 3416.03,753.475C3415.9,727.853 3438.46,706.964 3466.42,706.818C3494.38,706.673 3517.16,727.326 3517.29,752.948Z" style="fill:white;fill-rule:nonzero;"/>
        <path d="M3466.91,801.377C3452.91,798.449 3438.82,794.477 3426.93,786.523C3415.04,778.567 3405.51,766.037 3404.18,751.792" style="fill:white;fill-rule:nonzero;"/>
        <path d="M3466.91,803.429C3466.78,803.429 3466.63,803.414 3466.49,803.385C3453.51,800.671 3438.53,796.747 3425.79,788.227C3412.26,779.176 3403.42,765.627 3402.14,751.984C3402.03,750.856 3402.86,749.856 3403.99,749.75C3405.11,749.645 3406.11,750.473 3406.22,751.601C3407.39,764.027 3415.55,776.445 3428.07,784.818C3440.22,792.948 3454.74,796.736 3467.33,799.37C3468.44,799.601 3469.15,800.688 3468.92,801.797C3468.72,802.764 3467.86,803.429 3466.91,803.429Z" style="fill:rgb(63,38,18);fill-rule:nonzero;"/>
        <path d="M3487.68,702.391C3484.59,691.979 3481.45,681.435 3475.82,672.147C3470.2,662.859 3461.71,654.811 3451.21,652.057C3440.7,649.304 3428.19,652.933 3422.57,662.224C3416.23,672.705 3420.29,686.9 3428.52,695.971C3435.77,703.954 3446,709.16 3456.72,710.314C3467.44,711.468 3478.55,708.56 3487.33,702.302" style="fill:white;fill-rule:nonzero;"/>
        <path d="M3444.17,653.209C3435.99,653.209 3428.13,657.008 3424.33,663.286C3418.37,673.137 3422.69,686.492 3430.04,694.593C3436.94,702.189 3446.74,707.176 3456.94,708.275C3466.77,709.334 3477,706.787 3485.21,701.275C3482.35,691.662 3479.29,681.824 3474.07,673.21C3468.02,663.214 3459.71,656.407 3450.69,654.041C3448.54,653.479 3446.34,653.209 3444.17,653.209ZM3461.33,712.611C3459.72,712.611 3458.1,712.525 3456.5,712.353C3445.32,711.148 3434.56,705.68 3427,697.349C3418.89,688.408 3413.49,673.27 3420.82,661.163C3426.62,651.565 3439.62,646.902 3451.73,650.073C3461.79,652.711 3470.97,660.173 3477.58,671.084C3483.38,680.66 3486.56,691.412 3489.64,701.809C3489.97,702.895 3489.35,704.036 3488.26,704.358C3488.13,704.398 3487.99,704.423 3487.85,704.435C3480.13,709.734 3470.71,712.61 3461.33,712.611Z" style="fill:rgb(63,38,18);fill-rule:nonzero;"/>
        <path d="M3442.75,692.407C3421.84,663.554 3386.6,677.696 3403.37,708.31C3421.12,746.359 3469.74,729.659 3442.75,692.407Z" style="fill:white;fill-rule:nonzero;"/>
        <path d="M3416.38,678.717C3412.96,678.717 3409.84,679.579 3407.33,681.171C3401.41,684.916 3397.73,693.752 3405.17,707.324C3405.19,707.363 3405.21,707.403 3405.23,707.443C3412.1,722.168 3423.51,727.625 3431.9,727.822C3438.69,727.987 3444.35,725.041 3447.02,719.954C3450.58,713.165 3448.48,703.81 3441.09,693.61C3433.52,683.161 3424.15,678.717 3416.38,678.717ZM3432.44,731.931C3432.23,731.931 3432.02,731.928 3431.81,731.923C3422.2,731.697 3409.21,725.617 3401.54,709.237C3392.78,693.189 3397.99,682.222 3405.13,677.705C3414.94,671.5 3432.03,674.125 3444.41,691.204C3455.68,706.758 3453.16,717.088 3450.65,721.861C3447.32,728.196 3440.54,731.931 3432.44,731.931Z" style="fill:rgb(63,38,18);fill-rule:nonzero;"/>
        <path d="M3428.59,722.974C3416.09,704.865 3401.63,697.68 3395.25,699.706C3388.87,701.731 3383.97,707.785 3383.32,714.448C3382.74,720.376 3385.29,726.229 3388.81,731.032C3394.71,739.083 3403.55,744.932 3413.27,747.218C3418.09,748.352 3423.59,748.497 3427.53,745.501C3430.8,743.014 3432.36,738.721 3432.27,734.613C3432.17,730.504 3430.93,726.356 3428.59,722.974Z" style="fill:white;fill-rule:nonzero;"/>
        <path d="M3397.67,701.411C3396.99,701.411 3396.39,701.495 3395.87,701.66C3390.25,703.443 3385.93,708.783 3385.36,714.647C3384.78,720.642 3387.81,726.206 3390.46,729.818C3396.05,737.443 3404.54,743.057 3413.74,745.222C3417.49,746.105 3422.72,746.586 3426.29,743.869C3428.8,741.961 3430.3,738.432 3430.22,734.661C3430.13,730.838 3428.95,727.101 3426.91,724.14C3416.13,708.53 3403.88,701.411 3397.67,701.411ZM3419.21,750.016C3417.22,750.016 3415.07,749.75 3412.8,749.215C3402.66,746.829 3393.31,740.644 3387.16,732.244C3384.08,728.056 3380.57,721.533 3381.28,714.249C3382,706.8 3387.49,700.016 3394.63,697.751C3402.2,695.346 3417.26,702.962 3430.28,721.809C3432.78,725.421 3434.21,729.952 3434.32,734.565C3434.44,739.705 3432.36,744.403 3428.77,747.134C3426.25,749.048 3423.01,750.016 3419.21,750.016Z" style="fill:rgb(63,38,18);fill-rule:nonzero;"/>
        <path d="M3416.97,748.26C3410.57,737.979 3399.46,728.865 3387.14,732.839C3358.03,751.11 3416.65,789.671 3420.15,761.606C3420.73,756.939 3419.46,752.252 3416.97,748.26Z" style="fill:white;fill-rule:nonzero;"/>
        <path d="M3388.01,734.714C3381.87,738.656 3379.81,743.707 3381.89,749.73C3385.42,759.959 3400.74,770.447 3410.65,769.401C3415.05,768.941 3417.5,766.308 3418.11,761.352C3418.61,757.39 3417.58,753.125 3415.23,749.344C3409.4,739.986 3399.21,731.274 3388.01,734.714ZM3409.26,773.573C3397.53,773.573 3381.99,762.599 3378.01,751.068C3375.28,743.16 3378.13,736.069 3386.05,731.102C3386.19,731.012 3386.35,730.939 3386.51,730.887C3400.05,726.518 3412.03,736.437 3418.71,747.177C3421.56,751.753 3422.79,756.967 3422.18,761.859C3421.33,768.694 3417.39,772.821 3411.08,773.481C3410.48,773.543 3409.88,773.573 3409.26,773.573Z" style="fill:rgb(63,38,18);fill-rule:nonzero;"/>
        <path d="M3517.94,768.813C3520.21,755.465 3522.2,741.737 3519.53,728.462C3516.86,715.187 3508.64,702.262 3495.96,697.533C3484.35,693.207 3471.03,696.439 3460.46,702.887C3453.51,707.12 3446.86,713.883 3447.31,722.002C3447.82,731.103 3457.58,737.513 3466.7,737.378C3475.81,737.242 3484.12,732.3 3491.5,726.954" style="fill:white;fill-rule:nonzero;"/>
        <path d="M3517.94,770.864C3517.82,770.864 3517.71,770.854 3517.59,770.834C3516.48,770.644 3515.72,769.584 3515.92,768.467C3518.23,754.907 3520.09,741.675 3517.52,728.866C3515.3,717.835 3508.28,704.317 3495.24,699.456C3485.29,695.749 3473,697.638 3461.52,704.639C3457.71,706.964 3448.89,713.301 3449.36,721.888C3449.8,729.868 3458.65,735.328 3466.42,735.328C3466.5,735.328 3466.58,735.328 3466.66,735.327C3475.46,735.196 3483.55,730.181 3490.3,725.293C3491.21,724.629 3492.5,724.834 3493.16,725.751C3493.83,726.669 3493.62,727.951 3492.7,728.615C3485.43,733.88 3476.66,739.281 3466.73,739.428C3466.62,739.429 3466.52,739.43 3466.42,739.43C3456.6,739.431 3445.84,732.544 3445.26,722.115C3444.84,714.511 3449.99,706.864 3459.39,701.136C3471.95,693.477 3485.54,691.464 3496.67,695.612C3508.9,700.17 3518.43,712.603 3521.54,728.058C3524.25,741.556 3522.34,755.201 3519.96,769.158C3519.79,770.157 3518.92,770.864 3517.94,770.864Z" style="fill:rgb(63,38,18);fill-rule:nonzero;"/>
        <path d="M3534.63,785.673L3502.1,820.055C3491.34,831.43 3476.19,834.564 3468.25,827.055C3460.31,819.547 3462.6,804.24 3473.36,792.865L3505.89,758.483C3516.65,747.109 3531.81,743.975 3539.75,751.483C3547.68,758.991 3545.39,774.299 3534.63,785.673Z" style="fill:white;fill-rule:nonzero;"/>
        <path d="M3528.65,749.445C3527.26,749.445 3525.8,749.599 3524.29,749.911C3518.31,751.149 3512.3,754.694 3507.38,759.893L3474.85,794.275C3469.94,799.474 3466.73,805.667 3465.82,811.714C3464.96,817.489 3466.32,822.408 3469.66,825.566C3473,828.722 3477.98,829.81 3483.7,828.628C3489.69,827.39 3495.7,823.845 3500.61,818.645L3533.14,784.264C3538.06,779.064 3541.27,772.871 3542.17,766.825C3543.04,761.05 3541.67,756.13 3538.34,752.973C3535.88,750.648 3532.53,749.445 3528.65,749.445ZM3479.33,833.198C3474.4,833.198 3470.08,831.61 3466.84,828.545C3462.5,824.44 3460.7,818.247 3461.77,811.107C3462.8,804.238 3466.38,797.259 3471.87,791.456L3504.4,757.073C3509.89,751.27 3516.66,747.3 3523.46,745.893C3530.53,744.434 3536.82,745.887 3541.16,749.993C3545.5,754.099 3547.3,760.292 3546.23,767.432C3545.2,774.3 3541.61,781.28 3536.12,787.083L3503.6,821.465C3498.1,827.268 3491.34,831.238 3484.53,832.645C3482.74,833.015 3481,833.198 3479.33,833.198Z" style="fill:rgb(63,38,18);fill-rule:nonzero;"/>
        <path d="M3444.45,768.204C3443.89,768.204 3443.32,767.971 3442.92,767.515C3442.17,766.669 3442.24,765.373 3443.09,764.62C3454.83,754.189 3473.36,752.054 3487.16,759.543C3488.16,760.084 3488.53,761.329 3487.99,762.324C3487.45,763.32 3486.2,763.688 3485.21,763.149C3472.87,756.455 3456.3,758.363 3445.81,767.686C3445.42,768.033 3444.94,768.204 3444.45,768.204Z" style="fill:rgb(63,38,18);fill-rule:nonzero;"/>
        <path d="M4532.56,1140.36C4520.7,1140.36 4510.4,1131.91 4508.05,1120.28C4499.37,1077.18 4473.38,995.3 4396.79,931.085C4340.28,883.707 4279.67,865.722 4238.78,858.976C4225.16,856.732 4215.92,843.83 4218.16,830.217C4220.16,818.076 4230.53,809.264 4242.82,809.264C4244.18,809.264 4245.56,809.377 4246.92,809.601C4293.98,817.362 4363.76,838.086 4428.94,892.737C4517.22,966.758 4547.14,1060.88 4557.11,1110.39C4559.84,1123.92 4551.05,1137.14 4537.52,1139.86C4536.75,1140.02 4535.96,1140.14 4535.17,1140.22C4534.31,1140.31 4533.43,1140.36 4532.56,1140.36Z" style="fill:rgb(195,16,25);fill-rule:nonzero;"/>
        <path d="M4242.82,807.623C4229.73,807.624 4218.68,817.013 4216.54,829.95C4214.15,844.456 4224,858.203 4238.51,860.596C4279.2,867.307 4339.51,885.203 4395.73,932.343C4471.94,996.235 4497.81,1077.72 4506.45,1120.6C4508.94,1133 4519.93,1142 4532.56,1142C4533.48,1142 4534.42,1141.95 4535.34,1141.85C4536.18,1141.77 4537.02,1141.64 4537.85,1141.47C4544.83,1140.06 4550.85,1136.02 4554.79,1130.09C4558.73,1124.16 4560.13,1117.05 4558.72,1110.07C4548.7,1060.34 4518.66,965.823 4429.99,891.48C4364.53,836.591 4294.45,815.777 4247.19,807.982C4245.74,807.744 4244.27,807.623 4242.82,807.623ZM4242.82,810.905C4244.08,810.905 4245.36,811.007 4246.65,811.22C4293.51,818.948 4362.99,839.582 4427.89,893.995C4515.79,967.695 4545.57,1061.41 4555.5,1110.72C4558.05,1123.38 4549.86,1135.7 4537.2,1138.25C4536.47,1138.4 4535.73,1138.51 4535,1138.59C4534.18,1138.68 4533.37,1138.72 4532.56,1138.72C4521.65,1138.72 4511.9,1131.05 4509.66,1119.95C4500.94,1076.65 4474.81,994.365 4397.84,929.828C4341.05,882.211 4280.14,864.136 4239.04,857.358C4226.3,855.256 4217.68,843.225 4219.78,830.484C4221.67,819.032 4231.58,810.905 4242.82,810.905Z" style="fill:rgb(63,38,18);fill-rule:nonzero;"/>
        <path d="M4499.98,1131.54C4488.37,1142.28 4478.23,1154.6 4469.94,1168.06C4464.46,1176.96 4461.58,1187.14 4462.42,1197.56C4464.46,1222.65 4497.38,1225.95 4502.61,1222.87C4504.02,1230.9 4506.45,1239.1 4511.98,1245.09C4517.52,1251.08 4526.84,1254.19 4534.12,1250.51C4540.17,1247.45 4543.34,1240.78 4546.08,1234.57C4550.45,1241.17 4559.4,1244.34 4566.96,1241.96C4574.51,1239.59 4580.04,1231.88 4579.86,1223.96C4581.03,1229.28 4586.87,1232.76 4592.3,1232.29C4597.73,1231.82 4602.49,1228.09 4605.33,1223.43C4608.17,1218.77 4609.32,1213.29 4609.93,1207.87C4611.94,1190.02 4608.48,1171.94 4602.86,1154.88C4598.75,1142.4 4593.07,1129.75 4582.69,1121.7C4570.92,1112.57 4554.73,1110.82 4540.11,1113.64C4525.48,1116.46 4512,1123.33 4498.75,1130.13" style="fill:white;fill-rule:nonzero;"/>
        <path d="M4502.61,1220.82C4502.91,1220.82 4503.2,1220.88 4503.47,1221.01C4504.08,1221.29 4504.52,1221.85 4504.63,1222.52C4505.71,1228.66 4507.79,1237.53 4513.49,1243.7C4518.05,1248.64 4526.5,1252.06 4533.19,1248.68C4538.44,1246.03 4541.4,1240.1 4544.2,1233.74C4544.5,1233.05 4545.16,1232.59 4545.9,1232.52C4546.65,1232.46 4547.37,1232.81 4547.79,1233.43C4551.67,1239.28 4559.64,1242.11 4566.34,1240.01C4573.04,1237.9 4577.97,1231.03 4577.81,1224.01C4577.78,1222.95 4578.56,1222.05 4579.61,1221.92C4580.66,1221.79 4581.63,1222.49 4581.86,1223.52C4582.76,1227.57 4587.45,1230.65 4592.12,1230.25C4596.52,1229.87 4600.8,1226.92 4603.58,1222.36C4605.84,1218.66 4607.17,1214.12 4607.9,1207.64C4609.64,1192.13 4607.36,1175.08 4600.92,1155.52C4597.4,1144.83 4592,1131.52 4581.43,1123.32C4571.23,1115.4 4556.31,1112.61 4540.5,1115.66C4526.87,1118.28 4514.17,1124.54 4501.89,1130.82C4502.18,1131.58 4502,1132.46 4501.37,1133.05C4489.88,1143.67 4479.9,1155.81 4471.69,1169.14C4466.19,1178.06 4463.69,1187.83 4464.47,1197.39C4465.35,1208.25 4472.56,1214.18 4478.44,1217.23C4488.11,1222.25 4499.39,1222.39 4501.57,1221.1C4501.89,1220.91 4502.25,1220.82 4502.61,1220.82ZM4527.28,1254.16C4520.87,1254.16 4514.53,1250.87 4510.48,1246.48C4504.75,1240.28 4502.31,1231.96 4501.02,1225.52C4495.67,1226.53 4485.43,1225.48 4476.56,1220.87C4469.75,1217.34 4461.41,1210.46 4460.38,1197.72C4459.53,1187.29 4462.23,1176.66 4468.2,1166.99C4476.25,1153.91 4485.98,1141.94 4497.14,1131.39C4497.06,1131.29 4496.99,1131.18 4496.93,1131.06C4496.41,1130.05 4496.81,1128.82 4497.82,1128.3C4511.03,1121.53 4524.7,1114.52 4539.72,1111.63C4556.69,1108.36 4572.82,1111.44 4583.95,1120.08C4595.39,1128.96 4601.11,1143 4604.81,1154.24C4611.44,1174.37 4613.78,1191.99 4611.97,1208.1C4611.17,1215.2 4609.66,1220.26 4607.08,1224.5C4603.63,1230.17 4598.17,1233.85 4592.48,1234.34C4588.14,1234.71 4583.86,1232.99 4581.02,1230.09C4579.04,1236.46 4573.95,1241.92 4567.57,1243.92C4560.32,1246.2 4551.86,1243.85 4546.58,1238.43C4543.8,1244.31 4540.57,1249.55 4535.04,1252.34C4532.55,1253.6 4529.91,1254.16 4527.28,1254.16Z" style="fill:rgb(63,38,18);fill-rule:nonzero;"/>
        <path d="M4502.31,1222.43C4499.41,1210.53 4501.47,1197.5 4507.9,1187.09" style="fill:white;fill-rule:nonzero;"/>
        <path d="M4502.31,1224.48C4501.38,1224.48 4500.55,1223.85 4500.32,1222.91C4497.27,1210.41 4499.39,1196.96 4506.16,1186.01C4506.75,1185.04 4508.01,1184.75 4508.98,1185.34C4509.94,1185.94 4510.24,1187.2 4509.65,1188.16C4503.46,1198.19 4501.51,1210.5 4504.3,1221.94C4504.57,1223.04 4503.9,1224.15 4502.8,1224.42C4502.63,1224.46 4502.47,1224.48 4502.31,1224.48Z" style="fill:rgb(63,38,18);fill-rule:nonzero;"/>
        <path d="M4539.03,1201.78C4539.87,1189.55 4537.69,1177.12 4532.73,1165.9" style="fill:white;fill-rule:nonzero;"/>
        <path d="M4539.03,1203.83L4538.89,1203.83C4537.76,1203.75 4536.9,1202.77 4536.98,1201.64C4537.8,1189.73 4535.69,1177.65 4530.85,1166.73C4530.4,1165.69 4530.87,1164.48 4531.9,1164.02C4532.93,1163.57 4534.15,1164.03 4534.61,1165.07C4539.71,1176.6 4541.94,1189.35 4541.07,1201.92C4541,1203 4540.1,1203.83 4539.03,1203.83Z" style="fill:rgb(63,38,18);fill-rule:nonzero;"/>
        <path d="M4575.53,1189.76C4566.53,1180.86 4560.11,1169.37 4557.23,1157.04" style="fill:white;fill-rule:nonzero;"/>
        <path d="M4575.53,1191.81C4575.01,1191.81 4574.49,1191.61 4574.09,1191.22C4564.87,1182.1 4558.18,1170.13 4555.24,1157.5C4554.98,1156.4 4555.66,1155.3 4556.77,1155.04C4557.87,1154.78 4558.97,1155.47 4559.23,1156.57C4562,1168.45 4568.3,1179.72 4576.97,1188.3C4577.78,1189.1 4577.79,1190.4 4576.99,1191.2C4576.59,1191.61 4576.06,1191.81 4575.53,1191.81Z" style="fill:rgb(63,38,18);fill-rule:nonzero;"/>
        <path d="M4557.22,1125.92L4512.21,1137.63C4497.32,1141.51 4483.06,1136.23 4480.35,1125.84C4477.65,1115.44 4487.53,1103.88 4502.42,1100.01L4547.43,1088.29C4562.32,1084.42 4576.59,1089.7 4579.29,1100.09C4581.99,1110.48 4572.11,1122.05 4557.22,1125.92Z" style="fill:white;fill-rule:nonzero;"/>
        <path d="M4557.21,1089.07C4554.24,1089.07 4551.11,1089.46 4547.95,1090.28L4502.94,1101.99C4496.14,1103.76 4490.25,1107.25 4486.35,1111.81C4482.63,1116.16 4481.2,1120.96 4482.34,1125.32C4483.47,1129.68 4487.05,1133.17 4492.42,1135.16C4498.05,1137.24 4504.89,1137.42 4511.69,1135.65L4556.71,1123.94C4570.48,1120.35 4579.72,1109.89 4577.3,1100.61C4575.44,1093.46 4567.2,1089.07 4557.21,1089.07ZM4502.47,1140.96C4498.41,1140.96 4494.51,1140.31 4491,1139.01C4484.33,1136.54 4479.85,1132.04 4478.37,1126.35C4476.89,1120.66 4478.61,1114.55 4483.23,1109.15C4487.67,1103.95 4494.3,1100 4501.9,1098.02L4546.91,1086.31C4562.88,1082.16 4578.29,1088.11 4581.27,1099.58C4584.26,1111.04 4573.7,1123.75 4557.74,1127.91L4512.73,1139.62C4509.29,1140.51 4505.82,1140.96 4502.47,1140.96Z" style="fill:rgb(63,38,18);fill-rule:nonzero;"/>
        <path d="M4057.27,799.624C4057.27,835.47 4045.1,864.528 4030.1,864.528C4015.09,864.528 4002.93,835.47 4002.93,799.624C4002.93,763.779 4015.09,734.721 4030.1,734.721C4045.1,734.721 4057.27,763.779 4057.27,799.624Z" style="fill:white;fill-rule:nonzero;"/>
        <path d="M4030.1,736.771C4016.48,736.771 4004.98,765.554 4004.98,799.624C4004.98,833.694 4016.48,862.477 4030.1,862.477C4043.72,862.477 4055.22,833.694 4055.22,799.624C4055.22,765.554 4043.72,736.771 4030.1,736.771ZM4030.1,866.579C4013.71,866.579 4000.88,837.169 4000.88,799.624C4000.88,762.08 4013.71,732.669 4030.1,732.669C4046.48,732.669 4059.32,762.08 4059.32,799.624C4059.32,837.169 4046.48,866.579 4030.1,866.579Z" style="fill:rgb(63,38,18);fill-rule:nonzero;"/>
        <path d="M4034.8,799.888C4034.8,830.176 4028.04,854.73 4019.7,854.73C4011.37,854.73 4004.61,830.176 4004.61,799.888C4004.61,769.601 4011.37,745.047 4019.7,745.047C4028.04,745.047 4034.8,769.601 4034.8,799.888Z" style="fill:rgb(63,38,18);fill-rule:nonzero;"/>
        <path d="M4039.83,779.26L4027.75,794.689L4041.17,799.624L4039.83,779.26Z" style="fill:white;fill-rule:nonzero;"/>
        <path d="M4057.61,728.98C4056.86,728.98 4056.14,728.57 4055.78,727.858C4050.67,717.805 4040.55,710.664 4029.36,709.219C4018.18,707.772 4006.58,712.11 3999.08,720.534C3998.33,721.38 3997.03,721.456 3996.19,720.703C3995.34,719.951 3995.27,718.654 3996.02,717.808C4004.4,708.385 4017.38,703.536 4029.89,705.15C4042.4,706.767 4053.72,714.755 4059.43,725.999C4059.95,727.009 4059.54,728.244 4058.53,728.757C4058.24,728.908 4057.92,728.98 4057.61,728.98Z" style="fill:rgb(63,38,18);fill-rule:nonzero;"/>
        <path d="M3914.72,797.276C3914.72,833.122 3902.55,862.18 3887.55,862.18C3872.54,862.18 3860.38,833.122 3860.38,797.276C3860.38,761.431 3872.54,732.372 3887.55,732.372C3902.55,732.372 3914.72,761.431 3914.72,797.276Z" style="fill:white;fill-rule:nonzero;"/>
        <path d="M3887.55,734.424C3873.93,734.424 3862.43,763.207 3862.43,797.276C3862.43,831.346 3873.93,860.129 3887.55,860.129C3901.16,860.129 3912.66,831.346 3912.66,797.276C3912.66,763.207 3901.16,734.424 3887.55,734.424ZM3887.55,864.231C3871.16,864.231 3858.33,834.821 3858.33,797.276C3858.33,759.732 3871.16,730.322 3887.55,730.322C3903.93,730.322 3916.77,759.732 3916.77,797.276C3916.77,834.821 3903.93,864.231 3887.55,864.231Z" style="fill:rgb(63,38,18);fill-rule:nonzero;"/>
        <path d="M3892.24,797.541C3892.24,827.828 3885.48,852.382 3877.15,852.382C3868.81,852.382 3862.05,827.828 3862.05,797.541C3862.05,767.252 3868.81,742.699 3877.15,742.699C3885.48,742.699 3892.24,767.252 3892.24,797.541Z" style="fill:rgb(63,38,18);fill-rule:nonzero;"/>
        <path d="M3897.27,776.912L3885.2,792.341L3898.62,797.276L3897.27,776.912Z" style="fill:white;fill-rule:nonzero;"/>
        <path d="M3915.05,726.632C3914.31,726.632 3913.59,726.222 3913.22,725.51C3908.11,715.457 3897.99,708.315 3886.81,706.871C3875.63,705.423 3864.03,709.762 3856.53,718.187C3855.78,719.033 3854.48,719.108 3853.63,718.356C3852.79,717.603 3852.71,716.306 3853.46,715.46C3861.85,706.037 3874.83,701.189 3887.34,702.803C3899.84,704.418 3911.17,712.407 3916.88,723.651C3917.39,724.661 3916.99,725.896 3915.98,726.409C3915.68,726.56 3915.37,726.632 3915.05,726.632Z" style="fill:rgb(63,38,18);fill-rule:nonzero;"/>
        <path d="M3952.02,918.051C3951.17,918.051 3950.32,918.01 3949.47,917.926C3941.14,917.103 3933.24,912.163 3928.85,905.035C3925.82,900.112 3924.59,894.536 3925.39,889.335C3926.67,880.979 3933.54,873.525 3942.49,870.786C3950.06,868.471 3958.98,869.286 3967.61,873.085C3968.65,873.541 3969.12,874.751 3968.66,875.788C3968.2,876.824 3966.99,877.294 3965.96,876.839C3958.22,873.437 3950.32,872.679 3943.69,874.708C3936.22,876.996 3930.49,883.124 3929.44,889.957C3928.79,894.197 3929.82,898.788 3932.34,902.885C3936.08,908.945 3942.79,913.144 3949.87,913.844C3956.95,914.543 3964.37,911.743 3969.21,906.531C3969.98,905.701 3971.28,905.654 3972.11,906.425C3972.94,907.197 3972.99,908.495 3972.22,909.324C3967.1,914.831 3959.54,918.051 3952.02,918.051Z" style="fill:rgb(63,38,18);fill-rule:nonzero;"/>
        <path d="M3951.9,1019.61C3918.05,1019.61 3883,1004.61 3854.35,977.562C3853.53,976.784 3853.49,975.486 3854.27,974.663C3855.05,973.838 3856.35,973.802 3857.17,974.579C3887.74,1003.44 3925.72,1018.21 3961.34,1015.1C4001.49,1011.59 4036.31,983.218 4044.14,947.641C4044.39,946.536 4045.48,945.835 4046.59,946.079C4047.69,946.322 4048.39,947.417 4048.15,948.523C4039.94,985.804 4003.58,1015.52 3961.7,1019.18C3958.45,1019.47 3955.18,1019.61 3951.9,1019.61Z" style="fill:rgb(63,38,18);fill-rule:nonzero;"/>
        <path d="M4059.27,951.821C4054.96,951.821 4050.65,950.763 4046.85,948.602C4037.89,943.509 4032.75,932.845 4034.33,922.667C4034.51,921.548 4035.56,920.78 4036.67,920.957C4037.79,921.131 4038.56,922.18 4038.38,923.299C4037.08,931.694 4041.49,940.835 4048.87,945.036C4056.26,949.237 4066.37,948.352 4072.92,942.936C4073.79,942.214 4075.08,942.335 4075.8,943.208C4076.53,944.081 4076.4,945.374 4075.53,946.096C4070.96,949.875 4065.12,951.821 4059.27,951.821Z" style="fill:rgb(63,38,18);fill-rule:nonzero;"/>
        <path d="M3841.52,982.24C3836.15,982.24 3830.79,980.692 3826.31,977.595C3825.38,976.95 3825.15,975.672 3825.79,974.741C3826.44,973.809 3827.71,973.577 3828.65,974.222C3836.08,979.371 3846.89,979.383 3854.35,974.252C3861.8,969.121 3865.64,959.019 3863.49,950.232C3863.22,949.132 3863.89,948.021 3864.99,947.751C3866.09,947.482 3867.2,948.155 3867.47,949.255C3870.06,959.803 3865.62,971.471 3856.67,977.63C3852.21,980.704 3846.86,982.24 3841.52,982.24Z" style="fill:rgb(63,38,18);fill-rule:nonzero;"/>
        <path d="M4061.4,930.233C4064.62,930.233 4067.7,927.403 4067.55,924.08C4067.4,920.746 4064.85,917.927 4061.4,917.927C4058.18,917.927 4055.1,920.757 4055.25,924.08C4055.4,927.413 4057.95,930.233 4061.4,930.233Z" style="fill:rgb(63,38,18);fill-rule:nonzero;"/>
        <path d="M4056.13,910.669C4059.35,910.669 4062.43,907.839 4062.29,904.516C4062.14,901.183 4059.58,898.364 4056.13,898.364C4052.91,898.364 4049.83,901.193 4049.98,904.516C4050.13,907.85 4052.68,910.669 4056.13,910.669Z" style="fill:rgb(63,38,18);fill-rule:nonzero;"/>
        <path d="M4078.71,924.213C4081.93,924.213 4085.01,921.383 4084.86,918.06C4084.71,914.727 4082.16,911.908 4078.71,911.908C4075.49,911.908 4072.41,914.737 4072.55,918.06C4072.7,921.394 4075.26,924.213 4078.71,924.213Z" style="fill:rgb(63,38,18);fill-rule:nonzero;"/>
        <path d="M3844.03,961.905C3847.25,961.905 3850.33,959.075 3850.18,955.752C3850.04,952.419 3847.48,949.6 3844.03,949.6C3840.81,949.6 3837.73,952.43 3837.88,955.752C3838.03,959.086 3840.58,961.905 3844.03,961.905Z" style="fill:rgb(63,38,18);fill-rule:nonzero;"/>
        <path d="M3845.54,937.827C3848.76,937.827 3851.84,934.997 3851.69,931.674C3851.54,928.341 3848.99,925.521 3845.54,925.521C3842.32,925.521 3839.24,928.351 3839.38,931.674C3839.53,935.008 3842.09,937.827 3845.54,937.827Z" style="fill:rgb(63,38,18);fill-rule:nonzero;"/>
        <path d="M3825.97,952.123C3829.19,952.123 3832.27,949.293 3832.13,945.971C3831.98,942.637 3829.42,939.818 3825.97,939.818C3822.75,939.818 3819.67,942.648 3819.82,945.971C3819.97,949.304 3822.52,952.123 3825.97,952.123Z" style="fill:rgb(63,38,18);fill-rule:nonzero;"/>
    </g>
</svg>
